<svg width="557" height="183" viewBox="0 0 557 183" fill="none" xmlns="http://www.w3.org/2000/svg">
<path d="M201.5 121.1V59.12H223.17C229.8 59.12 235.55 60.39 240.44 62.94C245.32 65.49 249.12 69.1 251.85 73.78C254.57 78.46 255.94 83.93 255.94 90.21C255.94 96.49 254.58 101.93 251.85 106.55C249.13 111.17 245.33 114.75 240.44 117.3C235.55 119.84 229.8 121.12 223.17 121.12H201.5V121.1ZM214.5 110.11H223.23C229.77 110.11 234.81 108.33 238.35 104.76C241.88 101.19 243.66 96.2 243.66 89.79C243.66 83.38 241.89 78.32 238.35 74.64C234.81 70.96 229.78 69.11 223.23 69.11H214.5V110.12V110.11Z" fill="#050B24"/>
<path d="M288.78 122.11C284.99 122.11 281.48 121.52 278.24 120.34C275.01 119.15 272.19 117.47 269.8 115.28C267.4 113.08 265.53 110.47 264.2 107.41C262.87 104.36 262.2 100.96 262.2 97.23C262.2 93.5 262.88 89.88 264.24 86.73C265.6 83.59 267.5 80.9 269.92 78.64C272.35 76.39 275.14 74.65 278.27 73.43C281.41 72.21 284.72 71.61 288.23 71.61C291.2 71.61 293.98 72.01 296.58 72.81C299.18 73.61 301.48 74.74 303.47 76.19C305.46 77.64 307 79.38 308.09 81.39C309.18 83.41 309.74 85.6 309.74 87.97C309.74 91.05 308.84 93.63 307.07 95.7C305.3 97.77 302.94 99.42 300 100.64C297.06 101.86 293.85 102.68 290.36 103.13C286.86 103.58 283.43 103.73 280.04 103.62C279.51 103.57 278.88 103.53 278.18 103.53C277.48 103.53 276.84 103.51 276.26 103.49C275.7 103.46 275.33 103.44 275.15 103.44C275.5 105.04 276.35 106.52 277.69 107.89C279.02 109.25 280.67 110.31 282.63 111.05C284.59 111.79 286.69 112.16 288.94 112.16C290.9 112.16 292.79 111.84 294.62 111.18C296.46 110.54 298.16 109.63 299.73 108.46C301.3 107.3 302.59 106.05 303.59 104.68L312.21 111.17C310.31 113.66 308.12 115.72 305.63 117.35C303.14 118.98 300.48 120.18 297.63 120.95C294.79 121.72 291.82 122.11 288.74 122.11H288.76H288.78ZM280.52 94.11C282.48 94.11 284.45 94.02 286.43 93.84C288.42 93.66 290.25 93.32 291.94 92.82C293.63 92.32 294.99 91.6 296.03 90.69C297.07 89.77 297.58 88.6 297.58 87.18C297.58 85.99 297.18 84.94 296.38 84.02C295.58 83.1 294.52 82.36 293.18 81.8C291.85 81.23 290.32 80.96 288.6 80.96C285.87 80.96 283.46 81.58 281.35 82.82C279.25 84.07 277.6 85.68 276.42 87.66C275.23 89.65 274.58 91.7 274.46 93.84C275.17 93.89 276.06 93.96 277.13 94.02C278.21 94.08 279.33 94.11 280.51 94.11H280.52Z" fill="#050B24"/>
<path d="M331.84 80.11L340.98 107.98L350.12 80.11C351.68 75.34 356.14 72.11 361.16 72.11H366.64L348.51 121.11H333.29L315.34 72.11H320.82C325.84 72.11 330.29 75.34 331.86 80.11H331.84Z" fill="#050B24"/>
<path d="M373.5 121.11V58.11H396.75C401.88 58.11 406.12 58.96 409.51 60.69C412.89 62.41 415.41 64.75 417.06 67.7C418.71 70.66 419.55 73.98 419.55 77.66C419.55 80.86 418.78 83.95 417.24 86.94C415.7 89.93 413.27 92.37 409.96 94.27C406.64 96.16 402.24 97.12 396.75 97.12H386.49V121.12H373.49L373.5 121.11ZM386.5 86.11H396.26C399.75 86.11 402.3 85.3 403.93 83.67C405.55 82.05 406.37 79.87 406.37 77.16C406.37 74.45 405.56 72.11 403.93 70.51C402.3 68.91 399.74 68.11 396.26 68.11H386.5V86.1V86.11Z" fill="#050B24"/>
<path d="M448.91 122.11C444.17 122.11 439.91 121.07 436.16 119C432.4 116.93 429.4 113.99 427.18 110.2C424.96 106.41 423.85 101.93 423.85 96.77C423.85 91.61 424.97 87.15 427.23 83.39C429.49 79.63 432.54 76.72 436.39 74.68C440.24 72.64 444.54 71.61 449.28 71.61C454.02 71.61 458.3 72.63 462.13 74.68C465.95 76.73 468.99 79.63 471.25 83.39C473.5 87.15 474.63 91.61 474.63 96.77C474.63 101.93 473.48 106.4 471.21 110.2C468.93 113.99 465.85 116.93 461.96 119C458.08 121.07 453.73 122.11 448.93 122.11H448.91ZM448.91 111.11C451.11 111.11 453.18 110.59 455.14 109.56C457.1 108.53 458.7 106.92 459.94 104.76C461.19 102.59 461.8 99.92 461.8 96.71C461.8 93.5 461.19 90.84 459.98 88.71C458.76 86.58 457.19 84.99 455.26 83.95C453.33 82.91 451.27 82.4 449.09 82.4C446.91 82.4 444.87 82.92 443 83.95C441.13 84.98 439.61 86.57 438.42 88.71C437.23 90.85 436.64 93.51 436.64 96.71C436.64 99.91 437.21 102.59 438.34 104.76C439.46 106.93 440.96 108.52 442.83 109.56C444.69 110.6 446.72 111.11 448.92 111.11H448.91Z" fill="#050B24"/>
<path d="M503.499 121.64C499.169 121.64 495.349 120.56 492.039 118.39C488.729 116.22 486.109 113.24 484.209 109.41C482.309 105.59 481.369 101.24 481.369 96.38C481.369 91.52 482.319 87.1 484.209 83.31C486.099 79.52 488.719 76.53 492.039 74.37C495.359 72.21 499.179 71.13 503.499 71.13C507.419 71.13 510.819 72.14 513.719 74.15C516.619 76.16 519.499 82.5 519.499 82.5V58.1H524.609C528.969 58.1 532.499 61.63 532.499 65.99V121.1H526.619C526.619 121.1 523.009 120.4 521.819 119.18C520.629 117.96 520.049 116.35 520.499 114.34V110.15C518.739 113.76 516.629 116.59 513.729 118.59C510.819 120.61 507.419 121.61 503.509 121.61V121.63L503.499 121.64ZM507.059 110.7C509.369 110.7 511.509 110.14 513.459 109.01C515.419 107.89 516.999 106.25 518.219 104.12C519.439 101.99 520.039 99.41 520.039 96.39C520.039 93.37 519.429 90.71 518.219 88.57C516.999 86.44 515.419 84.82 513.459 83.73C511.499 82.64 509.369 82.08 507.059 82.08C504.749 82.08 502.779 82.63 500.789 83.73C498.799 84.82 497.199 86.45 495.989 88.57C494.769 90.71 494.169 93.31 494.169 96.39C494.169 99.47 494.769 101.99 495.989 104.12C497.209 106.25 498.799 107.88 500.789 109.01C502.779 110.13 504.869 110.7 507.059 110.7Z" fill="#050B24"/>
<path d="M81.5 92.11V149.12H24.5V145.76C24.5 145.45 24.5 145.15 24.52 144.85C24.76 137.53 27.77 130.69 33.02 125.59C37.71 121.04 43.74 118.29 50.19 117.76C50.76 111.11 53.67 104.93 58.47 100.2C63.76 94.98 70.74 92.12 78.14 92.12H81.5V92.11Z" fill="#A640FF"/>
<path d="M168.78 90.11C168.76 98.06 167.19 105.78 164.09 113.04C161.12 120.06 156.86 126.36 151.44 131.78C146.01 137.21 139.68 141.48 132.63 144.46C125.33 147.54 117.58 149.11 109.59 149.11H99.5002V118.11H109.58C117.06 118.11 124.09 115.2 129.37 109.92C134.6 104.68 137.52 97.73 137.57 90.33C137.62 82.92 134.72 75.88 129.42 70.54C126.81 67.9 123.75 65.83 120.35 64.38C116.83 62.88 113.11 62.11 109.29 62.11H80.4902V78.11H77.5002C62.0302 78.11 49.4902 65.57 49.4902 50.1V30.11H108.93C117.04 30.11 124.94 31.72 132.4 34.9C139.6 37.97 146.07 42.34 151.62 47.92C157.12 53.43 161.43 59.82 164.44 66.92C167.56 74.29 168.8 82.09 168.76 90.11H168.78Z" fill="#A640FF"/>
</svg>
