<svg width="128" height="128" viewBox="0 0 128 128" fill="none" xmlns="http://www.w3.org/2000/svg">
<path d="M51.8999 66.6856V112H7V109.332C7 109.088 7 108.844 7.01239 108.612C7.19826 102.794 9.5712 97.3586 13.7099 93.3006C17.4025 89.6809 22.1546 87.5016 27.235 87.0758C27.6873 81.7904 29.9735 76.8807 33.759 73.1107C37.9225 68.9651 43.4243 66.6856 49.2544 66.6856H51.8999Z" fill="#A640FF"/>
<path d="M121 64.6503C120.981 71.0316 119.736 77.2251 117.276 83.0554C114.916 88.6852 111.533 93.7452 107.233 98.0913C102.921 102.45 97.8964 105.875 92.2955 108.268C86.5026 110.741 80.3441 112 74.0059 112H65.9949V86.9944H74.0059C79.9476 86.9944 85.536 84.6585 89.7367 80.4127C93.894 76.2043 96.2112 70.6183 96.2545 64.6753C96.2917 58.7198 93.9931 53.0712 89.7801 48.7815C87.7045 46.6648 85.2758 44.999 82.5745 43.8342C79.7803 42.6256 76.8188 42.0119 73.7829 42.0119H51.7449V55.0751H49.1056C36.9249 55.0751 27.0057 45.0554 27.0057 32.7373V17H73.7085C80.0839 17 86.2857 18.2775 92.1468 20.8075C97.8035 23.2436 102.89 26.7192 107.252 31.1467C111.576 35.5241 114.959 40.5966 117.326 46.2327C119.779 52.088 121.019 58.2815 120.994 64.6503H121Z" fill="#A640FF"/>
</svg>
