
<svg width="128" height="128" viewBox="0 0 128 128" fill="none" xmlns="http://www.w3.org/2000/svg">
<path d="M40.6947 59.3494C40.6947 60.6505 40.8368 61.7054 41.0855 62.479C41.3697 63.2527 41.725 64.0966 42.2224 65.0109C42.4 65.2922 42.4711 65.5735 42.4711 65.8197C42.4711 66.1713 42.2579 66.523 41.7961 66.8746L39.5579 68.3516C39.2382 68.5625 38.9184 68.668 38.6342 68.668C38.279 68.668 37.9237 68.4922 37.5684 68.1757C37.0711 67.6483 36.6447 67.0856 36.2895 66.523C35.9342 65.9252 35.579 65.2571 35.1882 64.4483C32.4171 67.6834 28.9355 69.301 24.7434 69.301C21.7592 69.301 19.379 68.457 17.6382 66.7691C15.8974 65.0812 15.0092 62.8307 15.0092 60.0175C15.0092 57.0285 16.075 54.6021 18.2421 52.7735C20.4092 50.945 23.2868 50.0307 26.9461 50.0307C28.154 50.0307 29.3974 50.1362 30.7118 50.312C32.0263 50.4878 33.3763 50.7691 34.7974 51.0856V48.5186C34.7974 45.8461 34.229 43.9823 33.1276 42.8922C31.9908 41.8021 30.0724 41.2746 27.3368 41.2746C26.0934 41.2746 24.8145 41.4153 23.5 41.7318C22.1855 42.0483 20.9066 42.4351 19.6632 42.9274C19.0947 43.1735 18.6684 43.3142 18.4197 43.3845C18.1711 43.4549 17.9934 43.49 17.8513 43.49C17.354 43.49 17.1053 43.1384 17.1053 42.3999V40.6768C17.1053 40.1142 17.1763 39.6922 17.354 39.4461C17.5316 39.1999 17.8513 38.9538 18.3487 38.7076C19.5921 38.0746 21.0842 37.5472 22.825 37.1252C24.5658 36.668 26.4132 36.457 28.3671 36.457C32.5947 36.457 35.6855 37.4065 37.675 39.3054C39.629 41.2043 40.6237 44.0878 40.6237 47.956V59.3494H40.6947ZM26.2711 64.6944C27.4434 64.6944 28.6513 64.4834 29.9303 64.0614C31.2092 63.6395 32.3461 62.8658 33.3053 61.8109C33.8737 61.1428 34.3 60.4043 34.5132 59.5603C34.7263 58.7164 34.8684 57.6966 34.8684 56.501V55.0241C33.8382 54.7779 32.7368 54.5669 31.6 54.4263C30.4632 54.2856 29.3618 54.2153 28.2605 54.2153C25.8803 54.2153 24.1395 54.6724 22.9671 55.6219C21.7947 56.5713 21.2263 57.9076 21.2263 59.6658C21.2263 61.3186 21.6526 62.5494 22.5408 63.3933C23.3934 64.2724 24.6368 64.6944 26.2711 64.6944ZM54.7987 68.4922C54.1592 68.4922 53.7329 68.3867 53.4487 68.1406C53.1645 67.9296 52.9158 67.4373 52.7026 66.7691L44.354 39.5867C44.1408 38.8834 44.0342 38.4263 44.0342 38.1801C44.0342 37.6175 44.3184 37.301 44.8868 37.301H48.3684C49.0434 37.301 49.5053 37.4065 49.754 37.6527C50.0382 37.8636 50.2513 38.3559 50.4645 39.0241L56.4329 62.3032L61.975 39.0241C62.1526 38.3208 62.3658 37.8636 62.65 37.6527C62.9342 37.4417 63.4316 37.301 64.0711 37.301H66.9132C67.5882 37.301 68.05 37.4065 68.3342 37.6527C68.6184 37.8636 68.8671 38.3559 69.0092 39.0241L74.6224 62.5845L80.7684 39.0241C80.9816 38.3208 81.2303 37.8636 81.479 37.6527C81.7632 37.4417 82.225 37.301 82.8645 37.301H86.1684C86.7368 37.301 87.0566 37.5823 87.0566 38.1801C87.0566 38.3559 87.0211 38.5318 86.9855 38.7428C86.95 38.9538 86.879 39.2351 86.7368 39.6219L78.175 66.8043C77.9618 67.5076 77.7132 67.9647 77.429 68.1757C77.1447 68.3867 76.6829 68.5274 76.079 68.5274H73.0237C72.3487 68.5274 71.8868 68.4219 71.6026 68.1757C71.3184 67.9296 71.0697 67.4724 70.9276 66.7691L65.4211 44.0878L59.95 66.734C59.7724 67.4373 59.5592 67.8944 59.275 68.1406C58.9908 68.3867 58.4934 68.4922 57.854 68.4922H54.7987ZM100.45 69.4417C98.6026 69.4417 96.7553 69.2307 94.979 68.8087C93.2026 68.3867 91.8171 67.9296 90.8934 67.4021C90.325 67.0856 89.9342 66.734 89.7921 66.4175C89.65 66.101 89.579 65.7494 89.579 65.4329V63.6395C89.579 62.901 89.8632 62.5494 90.3961 62.5494C90.6092 62.5494 90.8224 62.5845 91.0355 62.6549C91.2487 62.7252 91.5684 62.8658 91.9237 63.0065C93.1316 63.534 94.4461 63.956 95.8316 64.2373C97.2526 64.5186 98.6382 64.6592 100.059 64.6592C102.297 64.6592 104.038 64.2724 105.246 63.4988C106.454 62.7252 107.093 61.5999 107.093 60.1581C107.093 59.1735 106.774 58.3647 106.134 57.6966C105.495 57.0285 104.287 56.4307 102.546 55.868L97.3947 54.2856C94.8013 53.4768 92.8829 52.2812 91.7105 50.6988C90.5382 49.1516 89.9342 47.4285 89.9342 45.5999C89.9342 44.123 90.254 42.8219 90.8934 41.6966C91.5329 40.5713 92.3855 39.5867 93.4513 38.8131C94.5171 38.0043 95.725 37.4065 97.1461 36.9845C98.5671 36.5625 100.059 36.3867 101.622 36.3867C102.404 36.3867 103.221 36.4219 104.003 36.5274C104.82 36.6329 105.566 36.7735 106.312 36.9142C107.022 37.09 107.697 37.2658 108.337 37.4768C108.976 37.6878 109.474 37.8988 109.829 38.1098C110.326 38.3911 110.682 38.6724 110.895 38.9889C111.108 39.2702 111.214 39.657 111.214 40.1494V41.8021C111.214 42.5406 110.93 42.9274 110.397 42.9274C110.113 42.9274 109.651 42.7867 109.047 42.5054C107.022 41.5911 104.749 41.134 102.226 41.134C100.201 41.134 98.6026 41.4505 97.5013 42.1186C96.4 42.7867 95.8316 43.8065 95.8316 45.2483C95.8316 46.2329 96.1869 47.0768 96.8974 47.745C97.6079 48.4131 98.9224 49.0812 100.805 49.679L105.85 51.2614C108.408 52.0702 110.255 53.1955 111.357 54.6373C112.458 56.079 112.991 57.7318 112.991 59.5603C112.991 61.0724 112.671 62.4439 112.067 63.6395C111.428 64.8351 110.575 65.89 109.474 66.734C108.372 67.6131 107.058 68.2461 105.53 68.7032C103.932 69.1955 102.262 69.4417 100.45 69.4417Z" fill="#FFFFFF"/>
<path fill-rule="evenodd" clip-rule="evenodd" d="M107.164 86.5319C95.4763 95.077 78.4947 99.6132 63.8934 99.6132C43.4303 99.6132 24.9921 92.1231 11.0658 79.6748C9.96446 78.6902 10.9592 77.3539 12.2737 78.1275C27.3368 86.7781 45.9171 92.0176 65.1368 92.0176C78.1039 92.0176 92.35 89.3451 105.459 83.8594C107.413 82.9803 109.083 85.1253 107.164 86.5319Z" fill="#FF9900"/>
<path fill-rule="evenodd" clip-rule="evenodd" d="M112.032 77.0462C110.539 75.1473 102.155 76.132 98.3539 76.5891C97.2171 76.7298 97.0395 75.7451 98.0697 75.0067C104.749 70.3649 115.726 71.7012 117.005 73.2484C118.284 74.8309 116.65 85.6968 110.397 90.9012C109.438 91.71 108.514 91.288 108.941 90.2331C110.362 86.7517 113.524 78.91 112.032 77.0462Z" fill="#FF9900"/>
</svg>
