<svg width="128" height="128" viewBox="0 0 128 128" fill="none" xmlns="http://www.w3.org/2000/svg">
<path d="M49.7377 23.707H75.1611L48.7702 101.903C48.4989 102.706 47.9824 103.405 47.2933 103.899C46.6042 104.394 45.7773 104.66 44.929 104.66H25.1439C24.5012 104.66 23.8678 104.507 23.296 104.214C22.7242 103.921 22.2305 103.495 21.8557 102.973C21.4809 102.451 21.2358 101.847 21.1407 101.212C21.0455 100.576 21.1031 99.9272 21.3086 99.3183L45.8966 26.4646C46.1678 25.6609 46.6844 24.9625 47.3734 24.4678C48.0625 23.9731 48.8895 23.707 49.7377 23.707Z" fill="url(#paint0_linear_105_291)"/>
<path d="M86.6812 76.1553H46.3662C45.9915 76.1552 45.6255 76.2679 45.3157 76.4788C45.0059 76.6896 44.7668 76.9888 44.6294 77.3374C44.492 77.686 44.4628 78.0679 44.5454 78.4333C44.6281 78.7988 44.8188 79.1309 45.0928 79.3865L70.9986 103.565C71.7526 104.269 72.7457 104.66 73.7771 104.66H96.6041L86.6812 76.1553Z" fill="#0078D4"/>
<path d="M49.7377 23.7071C48.8803 23.7039 48.0443 23.9749 47.3518 24.4805C46.6593 24.9861 46.1466 25.6998 45.8885 26.5175L21.3391 99.2522C21.1198 99.8633 21.051 100.518 21.1384 101.162C21.2258 101.805 21.4668 102.418 21.8412 102.948C22.2155 103.479 22.7121 103.911 23.289 104.209C23.8658 104.507 24.506 104.662 25.1552 104.66H45.4512C46.2073 104.525 46.914 104.192 47.4991 103.694C48.0841 103.196 48.5266 102.552 48.7812 101.828L53.6758 87.4009L71.1631 103.711C71.8958 104.317 72.8151 104.652 73.7661 104.66H96.5086L86.5336 76.1554L57.456 76.162L75.2536 23.7071H49.7377Z" fill="url(#paint1_linear_105_291)"/>
<path d="M82.2096 26.4602C81.9388 25.6578 81.423 24.9605 80.7351 24.4666C80.0471 23.9727 79.2216 23.707 78.3747 23.707H50.041C50.888 23.707 51.7136 23.9727 52.4016 24.4666C53.0896 24.9605 53.6054 25.6577 53.8763 26.4602L78.4657 99.3179C78.6712 99.9268 78.7288 100.576 78.6336 101.212C78.5385 101.847 78.2934 102.451 77.9186 102.973C77.5438 103.495 77.0501 103.92 76.4783 104.214C75.9065 104.507 75.2731 104.66 74.6305 104.66H102.964C103.607 104.66 104.24 104.507 104.812 104.214C105.384 103.92 105.877 103.495 106.252 102.973C106.627 102.451 106.872 101.847 106.967 101.211C107.062 100.576 107.005 99.9268 106.799 99.3179L82.2096 26.4602Z" fill="url(#paint2_linear_105_291)"/>
<defs>
<linearGradient id="paint0_linear_105_291" x1="59.0041" y1="29.7058" x2="32.6015" y2="107.706" gradientUnits="userSpaceOnUse">
<stop stop-color="#114A8B"/>
<stop offset="1" stop-color="#0669BC"/>
</linearGradient>
<linearGradient id="paint1_linear_105_291" x1="67.2518" y1="66.0555" x2="61.144" y2="68.1206" gradientUnits="userSpaceOnUse">
<stop stop-opacity="0.3"/>
<stop offset="0.071" stop-opacity="0.2"/>
<stop offset="0.321" stop-opacity="0.1"/>
<stop offset="0.623" stop-opacity="0.05"/>
<stop offset="1" stop-opacity="0"/>
</linearGradient>
<linearGradient id="paint2_linear_105_291" x1="63.8928" y1="27.4303" x2="92.8745" y2="104.645" gradientUnits="userSpaceOnUse">
<stop stop-color="#3CCBF4"/>
<stop offset="1" stop-color="#2892DF"/>
</linearGradient>
</defs>
</svg>
