<svg width="128" height="128" viewBox="0 0 128 128" fill="none" xmlns="http://www.w3.org/2000/svg">
<path d="M50.6826 43.0129H46.0913C45.245 43.0129 44.6899 43.6796 44.6899 44.5162V79.475C44.6899 80.3118 45.245 80.9821 46.0913 80.9821H50.6826C51.5289 80.9821 52.1798 80.3118 52.1798 79.475V44.5162C52.1798 43.6796 51.5289 43.0129 50.6826 43.0129Z" fill="#239DFF"/>
<path d="M36.3463 70.619C35.9295 69.6842 34.7349 69.4268 34.0015 70.1289C32.0594 71.9887 29.4551 73.1311 26.5837 73.1311C19.0599 73.1311 13.3186 65.3285 16.6789 57.2058C17.6721 54.8049 19.5566 52.8837 21.9054 51.8698C26.4962 49.8882 30.9631 51.0171 33.9261 53.7994C34.6671 54.4951 35.8555 54.2483 36.2729 53.3122L38.2615 48.8522C38.5796 48.1385 38.3599 47.3014 37.7478 46.8285C33.0893 43.2293 26.7304 41.8163 20.1027 44.1251C14.7833 45.9779 10.6355 50.3632 8.94642 55.843C4.90596 68.9509 14.3686 81 26.5837 81C30.835 81 34.7423 79.5301 37.8695 77.0702C38.4603 76.6055 38.6455 75.7759 38.3362 75.0821L36.3463 70.619Z" fill="#239DFF"/>
<path d="M118.054 55.843C116.365 50.3631 112.217 45.9778 106.897 44.125C103.133 42.8135 99.4547 42.7042 96.1256 43.5132C90.573 44.7809 86.5514 47.4724 83.0169 55.2315L75.9241 70.9613L63.8852 43.9041C63.6447 43.3647 63.1188 43.018 62.5392 43.017L57.2797 43.0086C56.2004 43.0068 55.4816 44.148 55.9295 45.1521L71.5434 80.0566C71.784 80.5963 72.3106 80.9612 72.8906 80.9614L73.146 80.9823H79.0507C79.1694 80.9823 79.2882 80.9572 79.4008 80.918C79.8071 80.7765 80.1495 80.48 80.3274 80.0707C80.3274 80.0707 88.1446 61.8794 88.2355 61.6601C90.6142 55.925 92.0577 53.5363 95.8332 51.8956C98.6898 50.6544 102.068 50.5034 105.334 52.0157C107.607 53.0685 109.395 54.9922 110.346 57.3511C110.948 58.8274 111.251 60.3452 111.301 61.8407C111.386 68.0612 106.481 73.1314 100.416 73.1314C97.5448 73.1314 94.9405 71.9888 92.9985 70.1291C92.2651 69.4269 91.0705 69.6843 90.6537 70.6191L88.6636 75.0824C88.3545 75.776 88.5395 76.6054 89.1306 77.0703C92.2576 79.53 96.1649 81.0001 100.416 81.0001C112.632 81 122.094 68.9508 118.054 55.843Z" fill="#239DFF"/>
</svg>
