<svg width="128" height="128" viewBox="0 0 128 128" fill="none" xmlns="http://www.w3.org/2000/svg">
<path d="M62.0546 10.0966C58.8581 12.1636 57.9363 16.4455 59.996 19.6561C71.3181 37.329 73.9904 50.659 72.8312 62.3408C68.1451 84.7109 57.9587 89.2491 49.057 89.2491C40.3658 89.2491 42.6931 74.832 49.2261 70.6122C53.1259 68.158 58.1211 66.5628 61.9549 66.5628C65.7539 66.5628 68.8339 63.4685 68.8339 59.6506C68.8339 55.8316 65.7539 52.7373 61.9549 52.7373C57.4771 52.7373 53.0845 53.6855 48.9842 55.2998C49.8219 51.316 50.131 47.0104 49.048 42.4338C47.4038 35.4844 42.6707 28.8464 34.4522 22.4117C33.013 21.2828 31.1874 20.776 29.3763 21.0018C27.5653 21.2275 25.9178 22.1668 24.7966 23.614C22.4648 26.6282 23.0046 30.9722 26.004 33.3169C32.6994 38.5583 34.9102 42.4383 35.6662 45.632C36.4222 48.8256 35.8141 52.2518 34.2954 56.9593C32.3544 63.3037 30.101 68.9674 29.1131 74.3985C28.627 77.0717 28.5856 79.9809 28.4602 82.3053C23.6386 77.5684 21.7514 71.3144 21.7514 62.1759C21.7502 58.358 18.6702 55.2626 14.8723 55.2637C11.0766 55.2671 8.00112 58.3603 8 62.1759C8 74.657 11.621 86.533 21.3258 94.4556C30.111 102.892 52.4517 99.7738 52.4517 113.317C52.4517 117.14 58.0024 119 61.8003 119C65.6957 119 70.5979 116.375 70.5979 113.317C70.5979 97.9506 86.6643 88.6113 113.113 88.6519C116.912 88.6576 119.994 85.5655 120 81.7476C120.007 77.9285 116.933 74.8275 113.134 74.8207C111.326 74.8184 109.563 74.8805 107.824 74.9844C110.781 67.9751 112.093 60.258 111.822 51.9222C111.696 48.1054 108.518 45.1138 104.722 45.238C100.922 45.3622 97.9449 48.5603 98.0693 52.3794C98.4277 63.2936 98.0222 73.0393 89.9549 78.1769C87.6611 79.6366 84.9944 80.9032 82.4654 80.9032C84.4288 75.5206 85.9117 69.8389 86.5187 63.7146C86.9062 59.8064 86.9477 55.1632 86.5053 51.5564C85.8187 45.9684 84.9899 39.6308 87.0944 34.8567C88.9849 30.7452 93.2208 29.0237 99.4401 29.0237C103.236 29.0203 106.311 25.926 106.312 22.1115C106.315 18.2924 103.238 15.1947 99.4401 15.1913C90.1979 15.1913 83.1923 20.0941 79.2208 26.0174C77.1443 21.547 74.6154 16.94 71.56 12.1715C70.5733 10.6306 69.0187 9.54799 67.2368 9.15852C66.3542 8.96548 65.4426 8.94854 64.5533 9.10885C63.664 9.27028 62.815 9.60556 62.0546 10.0966Z" fill="url(#paint0_linear_579_222)"/>
<defs>
<linearGradient id="paint0_linear_579_222" x1="8" y1="8.99934" x2="117.094" y2="113.43" gradientUnits="userSpaceOnUse">
<stop stop-color="#62A0EA"/>
<stop offset="1" stop-color="#1A5FB4"/>
</linearGradient>
</defs>
</svg>
