<svg width="128" height="128" viewBox="0 0 128 128" fill="none" xmlns="http://www.w3.org/2000/svg">
<path d="M64.1997 58V74" stroke="#8E00EB" stroke-width="4" stroke-miterlimit="10"/>
<path d="M63.6441 71.6497L43.6633 86.0658" stroke="#8E00EB" stroke-width="4" stroke-miterlimit="10"/>
<path d="M64.4578 71.6497L84.406 86.0658" stroke="#8E00EB" stroke-width="4" stroke-miterlimit="10"/>
<path d="M57.865 43.9208C54.7788 41.8416 52.7647 38.2772 52.7647 34.2508C52.7647 27.8482 57.8974 22.6337 64.1997 22.6337C70.502 22.6337 75.6347 27.8482 75.6347 34.2508C75.6347 38.2772 73.6206 41.8416 70.5344 43.9208C75.5048 46.033 79.2407 50.5215 80.3452 56C84.5683 51.7756 87.1997 45.868 87.1997 39.3663C87.1997 26.4621 76.9017 16 64.1997 16C51.4977 16 41.1997 26.4621 41.1997 39.3663C41.1997 45.868 43.8311 51.7426 48.0542 56C49.1263 50.5215 52.8946 46 57.865 43.9208Z" fill="#8E00EB"/>
<path d="M76.1997 33.9147C76.1997 27.8992 71.0378 23 64.6997 23C58.3616 23 53.1997 27.8992 53.1997 33.9147C53.1997 37.6977 55.2253 41.0465 58.329 43C60.2892 42.2248 62.4454 41.7907 64.6997 41.7907C66.954 41.7907 69.1102 42.2248 71.0704 43C74.1741 41.0775 76.1997 37.7287 76.1997 33.9147Z" fill="white"/>
<path d="M80.1997 55.2C79.1051 49.6667 75.4029 45.1333 70.4774 43C68.6746 44.2333 66.5176 44.9667 64.1997 44.9667C61.8818 44.9667 59.7249 44.2333 57.922 43C52.9965 45.1333 49.2943 49.6667 48.1997 55.2C52.3204 59.4 57.9542 62 64.1997 62C70.4452 62 76.1112 59.4 80.1997 55.2Z" fill="white"/>
<path d="M58.1997 43.5918C59.9228 45.102 61.9843 46 64.1997 46C66.4151 46 68.4766 45.102 70.1997 43.5918C68.3536 42.5714 66.3228 42 64.1997 42C62.0459 42 60.0459 42.5714 58.1997 43.5918Z" fill="white"/>
<path d="M64.1997 62C76.9022 62 87.1997 51.7026 87.1997 39C87.1997 26.2975 76.9022 16 64.1997 16C51.4972 16 41.1997 26.2975 41.1997 39C41.1997 51.7026 51.4972 62 64.1997 62Z" stroke="#8E00EB" stroke-width="4" stroke-miterlimit="10"/>
<path d="M28.694 92.9321C25.6025 90.882 23.5849 87.3674 23.5849 83.3973C23.5849 77.0842 28.7266 71.9425 35.0397 71.9425C41.3529 71.9425 46.4945 77.0842 46.4945 83.3973C46.4945 87.3674 44.4769 90.882 41.3854 92.9321C46.3643 95.0148 50.1067 99.4405 51.2131 104.842C55.4435 100.677 58.0794 94.8521 58.0794 88.4413C58.0794 75.7174 47.7636 65.4016 35.0397 65.4016C22.3158 65.4016 12 75.7174 12 88.4413C12 94.8521 14.6359 100.645 18.8664 104.842C19.9728 99.4405 23.7151 95.0148 28.694 92.9321Z" fill="#8E00EB"/>
<path d="M46.4945 83.3974C46.4945 77.0843 41.3529 71.9426 35.0397 71.9426C28.7266 71.9426 23.585 77.0843 23.585 83.3974C23.585 87.3675 25.6026 90.8821 28.6941 92.9322C30.6466 92.1187 32.7943 91.6631 35.0397 91.6631C37.2851 91.6631 39.4329 92.1187 41.3854 92.9322C44.4444 90.8821 46.4945 87.3675 46.4945 83.3974Z" fill="white"/>
<path d="M51.2132 104.843C50.1068 99.4405 46.3644 95.0148 41.3855 92.9321C39.5632 94.1362 37.3828 94.8521 35.0398 94.8521C32.6968 94.8521 30.5165 94.1362 28.6941 92.9321C23.7152 95.0148 19.9729 99.4405 18.8665 104.843C23.0318 108.943 28.7267 111.481 35.0398 111.481C41.353 111.481 47.0478 108.943 51.2132 104.843Z" fill="white"/>
<path d="M28.6941 92.9321C30.5164 94.1361 32.6968 94.8521 35.0398 94.8521C37.3828 94.8521 39.5631 94.1361 41.3855 92.9321C39.4329 92.1185 37.2852 91.663 35.0398 91.663C32.7944 91.663 30.6466 92.1185 28.6941 92.9321Z" fill="white"/>
<path d="M35.0397 111.481C47.7642 111.481 58.0794 101.166 58.0794 88.4413C58.0794 75.7168 47.7642 65.4016 35.0397 65.4016C22.3152 65.4016 12 75.7168 12 88.4413C12 101.166 22.3152 111.481 35.0397 111.481Z" stroke="#8E00EB" stroke-width="4" stroke-miterlimit="10"/>
<path d="M86.8144 92.9321C83.7229 90.882 81.7053 87.3674 81.7053 83.3973C81.7053 77.0842 86.847 71.9425 93.1601 71.9425C99.4732 71.9425 104.615 77.0842 104.615 83.3973C104.615 87.3674 102.597 90.882 99.5058 92.9321C104.485 95.0148 108.227 99.4405 109.333 104.842C113.564 100.677 116.2 94.8521 116.2 88.4413C116.2 75.7174 105.884 65.4016 93.1601 65.4016C80.4362 65.4016 70.1204 75.7174 70.1204 88.4413C70.1204 94.8521 72.7563 100.645 76.9867 104.842C78.0932 99.4405 81.8355 95.0148 86.8144 92.9321Z" fill="#8E00EB"/>
<path d="M104.582 83.3974C104.582 77.0843 99.4406 71.9426 93.1274 71.9426C86.8143 71.9426 81.6726 77.0843 81.6726 83.3974C81.6726 87.3675 83.6902 90.8821 86.7817 92.9322C88.7342 92.1187 90.882 91.6631 93.1274 91.6631C95.3728 91.6631 97.5206 92.1187 99.4731 92.9322C102.565 90.8821 104.582 87.3675 104.582 83.3974Z" fill="white"/>
<path d="M109.301 104.843C108.194 99.4405 104.452 95.0148 99.4732 92.9321C97.6508 94.1362 95.4705 94.8521 93.1275 94.8521C90.7845 94.8521 88.6042 94.1362 86.7818 92.9321C81.8029 95.0148 78.0605 99.4405 76.9541 104.843C81.1195 108.943 86.8143 111.481 93.1275 111.481C99.4406 111.481 105.168 108.943 109.301 104.843Z" fill="white"/>
<path d="M86.8142 92.9321C88.6366 94.1361 90.8169 94.8521 93.1599 94.8521C95.5029 94.8521 97.6832 94.1361 99.5056 92.9321C97.5531 92.1185 95.4053 91.663 93.1599 91.663C90.9145 91.663 88.7667 92.1185 86.8142 92.9321Z" fill="white"/>
<path d="M93.1274 111.481C105.852 111.481 116.167 101.166 116.167 88.4413C116.167 75.7168 105.852 65.4016 93.1274 65.4016C80.4029 65.4016 70.0876 75.7168 70.0876 88.4413C70.0876 101.166 80.4029 111.481 93.1274 111.481Z" stroke="#8E00EB" stroke-width="4" stroke-miterlimit="10"/>
</svg>
