<svg width="128" height="128" viewBox="0 0 128 128" fill="none" xmlns="http://www.w3.org/2000/svg">
<path d="M111.838 41.7668C111.838 39.9557 111.45 38.3554 110.667 36.9819C109.897 35.6313 108.745 34.4993 107.199 33.6043C94.4399 26.2479 81.6681 18.914 68.9129 11.5501C65.4741 9.56504 62.14 9.6374 58.7267 11.651C53.6481 14.6458 28.2212 29.2119 20.6444 33.6001C17.524 35.4063 16.0056 38.1706 16.0049 41.7634C16 56.5576 16.0049 71.3514 16 86.1459C16.0007 87.9172 16.3716 89.4864 17.1205 90.8393C17.8904 92.2308 19.0589 93.3939 20.6402 94.3092C28.2175 98.6974 53.6477 113.262 58.7252 116.258C62.14 118.273 65.4741 118.345 68.914 116.359C81.6696 108.995 94.4421 101.661 107.203 94.3047C108.785 93.3898 109.953 92.2259 110.723 90.8355C111.471 89.4827 111.842 87.9135 111.843 86.1418C111.843 86.1418 111.843 56.5613 111.838 41.7668Z" fill="#5C8DBC"/>
<path d="M64.0682 63.8105L17.1205 90.8393C17.8904 92.2308 19.0589 93.394 20.6402 94.3092C28.2175 98.6974 53.6477 113.262 58.7252 116.258C62.14 118.273 65.4741 118.345 68.914 116.359C81.6696 108.995 94.4421 101.661 107.203 94.3047C108.785 93.3898 109.953 92.226 110.723 90.8356L64.0682 63.8105Z" fill="#1A4674"/>
<path d="M50.1629 71.8167C52.8948 76.5855 58.0304 79.8019 63.9217 79.8019C69.8493 79.8019 75.0142 76.5446 77.7322 71.7249L64.0683 63.8105L50.1629 71.8167Z" fill="#1A4674"/>
<path d="M111.838 41.7668C111.838 39.9558 111.45 38.3554 110.667 36.9819L64.0682 63.8105L110.723 90.8355C111.471 89.4827 111.842 87.9135 111.843 86.1418C111.843 86.1418 111.843 56.5614 111.838 41.7668Z" fill="#1B598E"/>
<path d="M109.273 65.7423H105.627V69.3884H101.981V65.7423H98.3354V62.0973H101.981V58.4519H105.627V62.0973H109.273V65.7423ZM95.9699 65.7423H92.3245V69.3884H88.6788V65.7423H85.033V62.0973H88.6788V58.4519H92.3245V62.0973H95.9699V65.7423Z" fill="white"/>
<path d="M77.7321 71.7248C75.0141 76.5446 69.8493 79.8019 63.9216 79.8019C58.0304 79.8019 52.8948 76.5854 50.1629 71.8167C48.7905 69.4238 48.0698 66.7129 48.0726 63.9545C48.0726 55.2025 55.1688 48.1074 63.9216 48.1074C69.775 48.1074 74.8836 51.2837 77.629 56.0037L91.4819 48.0275C85.9758 38.5237 75.6959 32.1299 63.9216 32.1299C46.3431 32.1299 32.0935 46.3785 32.0935 63.9545C32.0935 69.7206 33.6276 75.128 36.3089 79.7921C41.8011 89.3462 52.1103 95.7794 63.9216 95.7794C75.7548 95.7794 86.08 89.3203 91.5644 79.7381L77.7321 71.7248Z" fill="white"/>
</svg>
