<svg width="128" height="128" viewBox="0 0 128 128" fill="none" xmlns="http://www.w3.org/2000/svg">
<path d="M64 52.25V75.75M75.75 64H52.25M99.25 64C99.25 68.6291 98.3382 73.2129 96.5668 77.4896C94.7953 81.7663 92.1988 85.6522 88.9255 88.9255C85.6522 92.1988 81.7663 94.7953 77.4896 96.5668C73.2129 98.3382 68.6291 99.25 64 99.25C59.3709 99.25 54.7871 98.3382 50.5104 96.5668C46.2337 94.7953 42.3478 92.1988 39.0745 88.9255C35.8012 85.6522 33.2047 81.7663 31.4332 77.4896C29.6618 73.2129 28.75 68.6291 28.75 64C28.75 54.6511 32.4638 45.6851 39.0745 39.0745C45.6851 32.4638 54.6511 28.75 64 28.75C73.3489 28.75 82.3149 32.4638 88.9255 39.0745C95.5362 45.6851 99.25 54.6511 99.25 64Z" stroke="#8E00EB" stroke-width="4.5" stroke-linecap="round" stroke-linejoin="round"/>
</svg>
