<svg width="128" height="128" viewBox="0 0 128 128" fill="none" xmlns="http://www.w3.org/2000/svg">
<path d="M115 108.506V54.3694C115 51.773 113.452 49.4261 111.066 48.4034L51.3158 22.7949C50.5081 22.449 49.6374 22.27 48.7585 22.27H19.4909C15.9061 22.27 13 25.1761 13 28.7609V57.3942C13 58.6767 13.3802 59.9303 14.0923 60.9975L48.2039 112.107C49.4075 113.911 51.4336 114.995 53.6025 114.995L108.509 114.997C112.094 114.997 115 112.091 115 108.506Z" fill="url(#paint0_linear_579_200)"/>
<path d="M105.727 36.1401V19.4909C105.727 15.9061 102.821 13 99.2364 13H78.3699C78.0631 13 77.7561 13.0223 77.4519 13.0649L18.5729 21.4762C15.3757 21.9324 13 24.6716 13 27.9013V52.8801C13 56.4659 15.907 59.3719 19.4928 59.3711L49.0385 59.3636C49.7358 59.3636 50.4284 59.2514 51.0895 59.0307L101.289 42.2971C103.94 41.4135 105.727 38.934 105.727 36.1401Z" fill="url(#paint1_linear_579_200)"/>
<path d="M105.728 38.4165L105.725 19.49C105.724 15.9061 102.818 13 99.2338 13H80.8952C79.0009 13 77.2001 13.8281 75.9667 15.2662L23.8355 76.086C22.8275 77.2627 22.273 78.7613 22.273 80.3108V99.2373C22.273 102.822 25.1791 105.728 28.7639 105.728H47.1053C48.9998 105.728 50.8006 104.9 52.0338 103.462L104.165 42.6422C105.174 41.4655 105.728 39.9669 105.728 38.4165Z" fill="#F0EB18"/>
<path d="M95.875 32.125H32.125V95.875H95.875V32.125Z" fill="black"/>
<path fill-rule="evenodd" clip-rule="evenodd" d="M49.3512 40.0396H40.2439V63.9616H49.3512C51.6179 63.9616 53.6454 63.449 55.4341 62.4238C57.2337 61.3985 58.6407 59.9888 59.655 58.1736C60.6683 56.3372 61.1754 54.2867 61.1754 52.001C61.1754 49.7152 60.6683 47.6647 59.655 45.8496C58.6407 44.0333 57.2337 42.6026 55.4341 41.5774C53.6454 40.5521 51.6179 40.0396 49.3512 40.0396ZM53.0422 58.9644C51.9712 59.6052 50.7244 59.9256 49.3001 59.9256L44.9088 59.9248V44.0764H49.3001C50.7234 44.0764 51.9712 44.3967 53.0422 45.0376C54.1132 45.6574 54.9389 46.5754 55.5201 47.7718C56.1014 48.9682 56.3916 50.378 56.3916 52.001C56.3916 53.624 56.1014 55.0337 55.5201 56.2301C54.9389 57.4266 54.1132 58.3447 53.0422 58.9644Z" fill="white"/>
<path d="M67.7608 63.4281C69.1056 64.0688 70.6434 64.3681 72.3745 64.3681C74.1064 64.3681 75.6452 64.0468 76.9891 63.4061C78.3337 62.7863 79.3754 61.8893 80.116 60.7788C80.8674 59.6474 81.2437 58.3869 81.2437 56.9772C81.2437 55.8238 80.9875 54.7555 80.4748 53.7943C79.9622 52.8121 79.2445 52.0002 78.3217 51.3384C77.4109 50.6554 76.3683 50.207 75.1948 49.9717L71.1277 49.0746C70.3871 48.9042 69.8003 48.5839 69.3674 48.1564C68.9454 47.7288 68.7349 47.1732 68.7349 46.5114C68.7349 45.9347 68.8887 45.422 69.1963 44.9946C69.5037 44.5461 69.9313 44.2046 70.4778 43.9693C71.0361 43.7131 71.6796 43.5849 72.4083 43.5849C73.137 43.5849 73.7805 43.7341 74.339 43.9904C74.9083 44.2468 75.3467 44.5891 75.6543 45.0587C75.9619 45.5283 76.1157 46.0409 76.1157 46.6177H80.7806C80.7686 45.2501 80.4043 44.0324 79.6866 42.9861C78.9809 41.9391 77.9895 41.106 76.7135 40.5082C75.4374 39.9316 73.9627 39.6331 72.3562 39.6331C70.7497 39.6331 69.3142 39.9316 68.05 40.5512C66.7859 41.15 65.8009 42.0041 65.0943 43.0932C64.3886 44.1818 64.0352 45.4002 64.0352 46.7668C64.0352 47.8992 64.2685 48.9034 64.7355 49.8216C65.2033 50.7185 65.8577 51.4655 66.7008 52.0853C67.5439 52.683 68.5353 53.1106 69.6741 53.3669L73.895 54.307C74.7041 54.4992 75.3357 54.8406 75.7917 55.3533C76.2585 55.8448 76.492 56.4857 76.492 57.2545C76.492 57.8523 76.3208 58.4079 75.9793 58.8776C75.6498 59.3691 75.1765 59.7325 74.5613 60.01C73.9571 60.2662 73.2844 60.4154 72.4422 60.4154C71.6 60.4154 70.8531 60.2662 70.204 59.9669C69.555 59.6684 69.0479 59.262 68.6836 58.7284C68.3192 58.2157 68.137 57.5969 68.137 56.9131H63.4548C63.4777 58.3658 63.8648 59.6684 64.6165 60.8008C65.3799 61.9331 66.4281 62.8092 67.7608 63.4281Z" fill="white"/>
<path d="M40.0844 83.1265H65.5843V87.9077H40.0844V83.1265Z" fill="white"/>
<defs>
<linearGradient id="paint0_linear_579_200" x1="19.3462" y1="19.7265" x2="112.907" y2="113.287" gradientUnits="userSpaceOnUse">
<stop offset="0.28" stop-color="#007DFE"/>
<stop offset="0.73" stop-color="#00D980"/>
</linearGradient>
<linearGradient id="paint1_linear_579_200" x1="102.854" y1="11.8567" x2="16.0897" y2="52.0837" gradientUnits="userSpaceOnUse">
<stop offset="0.32" stop-color="#F0EB18"/>
<stop offset="0.55" stop-color="#007DFE"/>
</linearGradient>
</defs>
</svg>
