<svg width="128" height="128" viewBox="0 0 128 128" fill="none" xmlns="http://www.w3.org/2000/svg">
<path d="M64.0098 108.964V91.5213C82.4804 91.5213 96.8181 73.2115 89.7258 53.7796C87.1236 46.6393 81.3579 40.876 74.1636 38.2749C54.7235 31.2366 36.4059 45.5172 36.4059 63.9801H19.0068C19.0068 34.5517 47.4781 11.6007 78.3475 21.2401C91.8178 25.4733 102.584 36.1838 106.768 49.6484C116.411 80.5048 93.4505 108.964 64.0098 108.964Z" fill="#0080FF"/>
<path fill-rule="evenodd" clip-rule="evenodd" d="M64.0608 91.6235H46.6617V74.2317H64.0608V91.6235ZM46.6617 104.935H33.3445V91.6235H46.6617V104.935ZM33.3445 91.6235H22.1703V80.454H33.3445V91.6235Z" fill="#0080FF"/>
</svg>
