<svg xmlns="http://www.w3.org/2000/svg" fill="none" viewBox="0 0 741 580"><path fill="url(#a)" d="M594.677 476.684H139.836v103.22h454.841v-103.22Z" opacity=".05"/><path fill="url(#b)" d="M594.677 381.806h-84.983v95.237h84.983v-95.237Z" opacity=".05"/><path fill="url(#c)" d="M163.765 481.8H93V297.55l70.765 41.026V481.8Z" opacity=".1"/><path fill="#fff" d="M613.371 252.539h-62.413V393.83h38.462a6.333 6.333 0 0 0 6.224-5.17l23.951-128.638c.727-3.888-2.26-7.483-6.224-7.483Z"/><path fill="url(#d)" d="M613.371 252.539h-62.413V393.83h38.462a6.333 6.333 0 0 0 6.224-5.17l23.951-128.638c.727-3.888-2.26-7.483-6.224-7.483Z" opacity=".3"/><path fill="url(#e)" d="M613.371 252.539h-62.413V393.83h38.462a6.333 6.333 0 0 0 6.224-5.17l23.951-128.638c.727-3.888-2.26-7.483-6.224-7.483Z" opacity=".2"/><path fill="#0C112C" d="m474.491 239.135 6.973-21.464c1.293-3.997-.652-8.32-4.508-9.982l-11.491-4.974c-3.02-1.315-5.008-4.313-4.899-7.604.033-.89.043-1.781.043-2.683 0-.901-.01-1.792-.043-2.682-.109-3.292 1.879-6.3 4.899-7.604l11.491-4.975a8.142 8.142 0 0 0 4.508-9.982l-6.973-21.463c-1.293-3.997-5.42-6.343-9.515-5.431l-12.231 2.727a8.073 8.073 0 0 1-8.428-3.302 92.784 92.784 0 0 0-3.107-4.247c-2.031-2.618-2.238-6.213-.554-9.07l6.387-10.807a8.124 8.124 0 0 0-2.227-10.721l-18.259-13.262a8.142 8.142 0 0 0-10.883 1.194l-8.277 9.385a8.102 8.102 0 0 1-8.766 2.292 86.81 86.81 0 0 0-5.018-1.619c-3.182-.923-5.463-3.714-5.778-7.016l-1.184-12.47c-.402-4.182-3.91-7.375-8.103-7.375h-22.56c-4.193 0-7.701 3.193-8.103 7.375l-1.184 12.47a8.103 8.103 0 0 1-5.779 7.016 87.06 87.06 0 0 0-5.018 1.619 8.106 8.106 0 0 1-8.765-2.292l-8.277-9.385c-2.781-3.15-7.495-3.671-10.884-1.194l-18.259 13.262a8.138 8.138 0 0 0-2.226 10.721l6.387 10.807c1.683 2.857 1.477 6.452-.554 9.07a97.568 97.568 0 0 0-3.107 4.247 8.075 8.075 0 0 1-8.429 3.291l-12.241-2.726a8.142 8.142 0 0 0-9.515 5.431l-6.973 21.463c-1.293 3.997.651 8.32 4.507 9.982l11.492 4.974c3.02 1.315 5.007 4.313 4.899 7.604-.033.89-.044 1.781-.044 2.683 0 .901.011 1.792.044 2.682.108 3.292-1.879 6.3-4.899 7.604l-11.492 4.975a8.141 8.141 0 0 0-4.507 9.982l6.973 21.463c1.293 3.997 5.42 6.343 9.515 5.431l12.23-2.727a8.075 8.075 0 0 1 8.429 3.302c1 1.445 2.031 2.868 3.107 4.247 2.031 2.618 2.237 6.213.554 9.07l-6.387 10.807a8.124 8.124 0 0 0 2.227 10.721l18.258 13.263c3.4 2.465 8.114 1.944 10.884-1.195l8.277-9.385a8.1 8.1 0 0 1 8.765-2.292 87.06 87.06 0 0 0 5.018 1.619c3.183.923 5.464 3.714 5.779 7.016l1.184 12.47c.402 4.182 3.91 7.375 8.103 7.375h22.56c4.193 0 7.701-3.193 8.103-7.375l1.184-12.47a8.103 8.103 0 0 1 5.778-7.016 86.842 86.842 0 0 0 5.019-1.619c3.117-1.108 6.571-.184 8.765 2.292l8.277 9.385c2.781 3.15 7.495 3.671 10.884 1.195l18.258-13.263a8.138 8.138 0 0 0 2.227-10.721l-6.387-10.807c-1.683-2.857-1.477-6.452.554-9.07a98.407 98.407 0 0 0 3.107-4.247 8.099 8.099 0 0 1 8.428-3.302l12.231 2.727a8.144 8.144 0 0 0 9.515-5.431l.011.011Z" opacity=".05"/><path fill="url(#f)" d="m474.491 239.135 6.973-21.464c1.293-3.997-.652-8.32-4.508-9.982l-11.491-4.974c-3.02-1.315-5.008-4.313-4.899-7.604.033-.89.043-1.781.043-2.683 0-.901-.01-1.792-.043-2.682-.109-3.292 1.879-6.3 4.899-7.604l11.491-4.975a8.142 8.142 0 0 0 4.508-9.982l-6.973-21.463c-1.293-3.997-5.42-6.343-9.515-5.431l-12.231 2.727a8.073 8.073 0 0 1-8.428-3.302 92.784 92.784 0 0 0-3.107-4.247c-2.031-2.618-2.238-6.213-.554-9.07l6.387-10.807a8.124 8.124 0 0 0-2.227-10.721l-18.259-13.262a8.142 8.142 0 0 0-10.883 1.194l-8.277 9.385a8.102 8.102 0 0 1-8.766 2.292 86.81 86.81 0 0 0-5.018-1.619c-3.182-.923-5.463-3.714-5.778-7.016l-1.184-12.47c-.402-4.182-3.91-7.375-8.103-7.375h-22.56c-4.193 0-7.701 3.193-8.103 7.375l-1.184 12.47a8.103 8.103 0 0 1-5.779 7.016 87.06 87.06 0 0 0-5.018 1.619 8.106 8.106 0 0 1-8.765-2.292l-8.277-9.385c-2.781-3.15-7.495-3.671-10.884-1.194l-18.259 13.262a8.138 8.138 0 0 0-2.226 10.721l6.387 10.807c1.683 2.857 1.477 6.452-.554 9.07a97.568 97.568 0 0 0-3.107 4.247 8.075 8.075 0 0 1-8.429 3.291l-12.241-2.726a8.142 8.142 0 0 0-9.515 5.431l-6.973 21.463c-1.293 3.997.651 8.32 4.507 9.982l11.492 4.974c3.02 1.315 5.007 4.313 4.899 7.604-.033.89-.044 1.781-.044 2.683 0 .901.011 1.792.044 2.682.108 3.292-1.879 6.3-4.899 7.604l-11.492 4.975a8.141 8.141 0 0 0-4.507 9.982l6.973 21.463c1.293 3.997 5.42 6.343 9.515 5.431l12.23-2.727a8.075 8.075 0 0 1 8.429 3.302c1 1.445 2.031 2.868 3.107 4.247 2.031 2.618 2.237 6.213.554 9.07l-6.387 10.807a8.124 8.124 0 0 0 2.227 10.721l18.258 13.263c3.4 2.465 8.114 1.944 10.884-1.195l8.277-9.385a8.1 8.1 0 0 1 8.765-2.292 87.06 87.06 0 0 0 5.018 1.619c3.183.923 5.464 3.714 5.779 7.016l1.184 12.47c.402 4.182 3.91 7.375 8.103 7.375h22.56c4.193 0 7.701-3.193 8.103-7.375l1.184-12.47a8.103 8.103 0 0 1 5.778-7.016 86.842 86.842 0 0 0 5.019-1.619c3.117-1.108 6.571-.184 8.765 2.292l8.277 9.385c2.781 3.15 7.495 3.671 10.884 1.195l18.258-13.263a8.138 8.138 0 0 0 2.227-10.721l-6.387-10.807c-1.683-2.857-1.477-6.452.554-9.07a98.407 98.407 0 0 0 3.107-4.247 8.099 8.099 0 0 1 8.428-3.302l12.231 2.727a8.144 8.144 0 0 0 9.515-5.431l.011.011Z" opacity=".2"/><path fill="#0C112C" d="M623.928 189.681c-18.334 18.335-42.687 27.002-66.691 25.992-1.011-24.005 7.657-48.357 25.992-66.692 18.335-18.335 42.687-27.002 66.692-25.992 1.01 24.004-7.658 48.357-25.993 66.692ZM571.542 118.991c0 12.97-5.54 24.646-14.392 32.771-8.842-8.125-14.392-19.801-14.392-32.771 0-12.969 5.539-24.634 14.392-32.77 8.841 8.125 14.392 19.801 14.392 32.77Z" opacity=".05"/><path fill="url(#g)" d="M623.928 189.681c-18.334 18.335-42.687 27.002-66.691 25.992-1.011-24.005 7.657-48.357 25.992-66.692 18.335-18.335 42.687-27.002 66.692-25.992 1.01 24.004-7.658 48.357-25.993 66.692Z" opacity=".25"/><path fill="#fff" d="m163.765 260.728-45.489 27.438v.716l45.489 27.437v27.796L93 298.984v-20.942l70.765-45.131v27.817Z"/><path fill="url(#h)" d="m163.765 260.728-45.489 27.438v.716l45.489 27.437v27.796L93 298.984v-20.942l70.765-45.131v27.817Z" opacity=".3"/><path fill="#000" d="M144.779 211.274c5.95 0 10.775-4.824 10.775-10.775 0-5.951-4.825-10.775-10.775-10.775-5.951 0-10.775 4.824-10.775 10.775 0 5.951 4.824 10.775 10.775 10.775ZM603.573 430.607a4.724 4.724 0 1 0 0-9.449 4.725 4.725 0 0 0 0 9.449ZM217.825 143.127a4.726 4.726 0 1 0-.001-9.451 4.726 4.726 0 0 0 .001 9.451Z" opacity=".1"/><path fill="#fff" d="m562.57 442.133 30.706 30.706c3.009 3.009.88 8.158-3.378 8.158H144.637c-4.257 0-6.397-5.149-3.378-8.158l30.707-30.706a10.581 10.581 0 0 1 7.473-3.096h375.68c2.802 0 5.485 1.108 7.473 3.096h-.022ZM548.406 159.463H185.989c-5.429 0-9.83 4.401-9.83 9.83v236.865c0 5.429 4.401 9.83 9.83 9.83h362.417c5.429 0 9.83-4.401 9.83-9.83V169.293c0-5.429-4.401-9.83-9.83-9.83Z"/><path fill="url(#i)" d="M548.406 159.463H185.989c-5.429 0-9.83 4.401-9.83 9.83v236.865c0 5.429 4.401 9.83 9.83 9.83h362.417c5.429 0 9.83-4.401 9.83-9.83V169.293c0-5.429-4.401-9.83-9.83-9.83Z" opacity=".55"/><path fill="#fff" d="M548.406 161.636a7.663 7.663 0 0 1 7.658 7.657v236.876a7.664 7.664 0 0 1-7.658 7.658H185.978a7.663 7.663 0 0 1-7.658-7.658V169.293a7.662 7.662 0 0 1 7.658-7.657h362.428Zm0-2.173H185.978a9.827 9.827 0 0 0-9.83 9.83v236.876a9.827 9.827 0 0 0 9.83 9.83h362.428a9.827 9.827 0 0 0 9.83-9.83V169.293a9.827 9.827 0 0 0-9.83-9.83Z"/><path fill="url(#j)" d="M542.638 171.085H191.756a4.334 4.334 0 0 0-4.334 4.334V399.63a4.335 4.335 0 0 0 4.334 4.334h350.882a4.334 4.334 0 0 0 4.334-4.334V175.419a4.333 4.333 0 0 0-4.334-4.334Z" opacity=".2"/><path fill="url(#k)" d="M191.756 403.963h350.882a4.333 4.333 0 0 0 4.334-4.334v-224.21a4.333 4.333 0 0 0-4.334-4.334H191.756a4.334 4.334 0 0 0-4.334 4.334v224.21a4.334 4.334 0 0 0 4.334 4.334Z" opacity=".5"/><path fill="url(#l)" d="m562.57 442.133 30.706 30.706c3.009 3.009.88 8.158-3.378 8.158H144.637c-4.257 0-6.397-5.149-3.378-8.158l30.707-30.706a10.581 10.581 0 0 1 7.473-3.096h375.68c2.802 0 5.485 1.108 7.473 3.096h-.022Z" opacity=".45"/><path stroke="#fff" stroke-miterlimit="10" d="M367.262 387.28c55.094 0 99.756-44.662 99.756-99.755 0-55.094-44.662-99.756-99.756-99.756-55.093 0-99.755 44.662-99.755 99.756 0 55.093 44.662 99.755 99.755 99.755Z" opacity=".4"/><path stroke="#fff" stroke-miterlimit="10" d="M367.262 425.883c76.414 0 138.359-61.945 138.359-138.358 0-76.414-61.945-138.359-138.359-138.359-76.413 0-138.358 61.945-138.358 138.359 0 76.413 61.945 138.358 138.358 138.358Z" opacity=".25"/><path stroke="#fff" stroke-miterlimit="10" d="M367.262 464.682c97.842 0 177.158-79.316 177.158-177.158 0-97.841-79.316-177.157-177.158-177.157-97.841 0-177.157 79.316-177.157 177.157 0 97.842 79.316 177.158 177.157 177.158Z" opacity=".1"/><path fill="url(#m)" d="M444.99 233.215H289.817a7.343 7.343 0 0 0-7.342 7.343v91.859a7.343 7.343 0 0 0 7.342 7.343H444.99a7.344 7.344 0 0 0 7.343-7.343v-91.859a7.344 7.344 0 0 0-7.343-7.343Z" opacity=".7"/><path fill="#fff" d="m370.38 286.482 21.876-21.876a2.099 2.099 0 0 0 0-2.976 2.098 2.098 0 0 0-2.977 0l-21.875 21.876-21.876-21.876a2.097 2.097 0 0 0-2.976 0 2.097 2.097 0 0 0 0 2.976l21.875 21.876-21.875 21.876a2.097 2.097 0 0 0 0 2.976c.412.413.945.619 1.488.619s1.075-.206 1.488-.619l21.876-21.876 21.875 21.876c.413.413.945.619 1.488.619.544 0 1.076-.206 1.489-.619a2.099 2.099 0 0 0 0-2.976l-21.876-21.876Z" opacity=".8"/><defs><linearGradient id="a" x1="367.262" x2="367.262" y1="473.621" y2="572.312" gradientUnits="userSpaceOnUse"><stop stop-color="#0C112C"/><stop offset=".01" stop-color="#0C112C" stop-opacity=".98"/><stop offset=".38" stop-color="#0C112C" stop-opacity=".44"/><stop offset=".71" stop-color="#0C112C" stop-opacity=".11"/><stop offset="1" stop-color="#0C112C" stop-opacity="0"/></linearGradient><linearGradient id="b" x1="552.186" x2="552.186" y1="382.762" y2="474.447" gradientUnits="userSpaceOnUse"><stop stop-color="#0C112C"/><stop offset=".01" stop-color="#0C112C" stop-opacity=".98"/><stop offset=".38" stop-color="#0C112C" stop-opacity=".44"/><stop offset=".71" stop-color="#0C112C" stop-opacity=".11"/><stop offset="1" stop-color="#0C112C" stop-opacity="0"/></linearGradient><linearGradient id="c" x1="184.055" x2="114.539" y1="320.903" y2="406.777" gradientUnits="userSpaceOnUse"><stop stop-color="#0C112C"/><stop offset=".01" stop-color="#0C112C" stop-opacity=".98"/><stop offset=".38" stop-color="#0C112C" stop-opacity=".44"/><stop offset=".71" stop-color="#0C112C" stop-opacity=".11"/><stop offset="1" stop-color="#0C112C" stop-opacity="0"/></linearGradient><linearGradient id="d" x1="585.325" x2="585.325" y1="230.261" y2="511.768" gradientUnits="userSpaceOnUse"><stop stop-color="#0C112C"/><stop offset=".01" stop-color="#0C112C" stop-opacity=".98"/><stop offset=".38" stop-color="#0C112C" stop-opacity=".44"/><stop offset=".71" stop-color="#0C112C" stop-opacity=".11"/><stop offset="1" stop-color="#0C112C" stop-opacity="0"/></linearGradient><linearGradient id="e" x1="551.599" x2="587.585" y1="323.184" y2="323.184" gradientUnits="userSpaceOnUse"><stop stop-color="#0C112C"/><stop offset=".01" stop-color="#0C112C" stop-opacity=".98"/><stop offset=".38" stop-color="#0C112C" stop-opacity=".44"/><stop offset=".71" stop-color="#0C112C" stop-opacity=".11"/><stop offset="1" stop-color="#0C112C" stop-opacity="0"/></linearGradient><linearGradient id="f" x1="367.262" x2="367.262" y1="166.881" y2="121.044" gradientUnits="userSpaceOnUse"><stop stop-color="#0C112C"/><stop offset=".01" stop-color="#0C112C" stop-opacity=".98"/><stop offset=".38" stop-color="#0C112C" stop-opacity=".44"/><stop offset=".71" stop-color="#0C112C" stop-opacity=".11"/><stop offset="1" stop-color="#0C112C" stop-opacity="0"/></linearGradient><linearGradient id="g" x1="553.131" x2="594.438" y1="169.326" y2="169.326" gradientUnits="userSpaceOnUse"><stop stop-color="#0C112C"/><stop offset=".01" stop-color="#0C112C" stop-opacity=".98"/><stop offset=".38" stop-color="#0C112C" stop-opacity=".44"/><stop offset=".71" stop-color="#0C112C" stop-opacity=".11"/><stop offset="1" stop-color="#0C112C" stop-opacity="0"/></linearGradient><linearGradient id="h" x1="128.388" x2="128.388" y1="411.111" y2="119.535" gradientUnits="userSpaceOnUse"><stop stop-color="#0C112C"/><stop offset=".01" stop-color="#0C112C" stop-opacity=".98"/><stop offset=".38" stop-color="#0C112C" stop-opacity=".44"/><stop offset=".71" stop-color="#0C112C" stop-opacity=".11"/><stop offset="1" stop-color="#0C112C" stop-opacity="0"/></linearGradient><linearGradient id="i" x1="367.197" x2="367.197" y1="425.568" y2="-236.506" gradientUnits="userSpaceOnUse"><stop stop-color="#0C112C"/><stop offset=".01" stop-color="#0C112C" stop-opacity=".98"/><stop offset=".38" stop-color="#0C112C" stop-opacity=".44"/><stop offset=".71" stop-color="#0C112C" stop-opacity=".11"/><stop offset="1" stop-color="#0C112C" stop-opacity="0"/></linearGradient><linearGradient id="j" x1="367.197" x2="367.197" y1="409.547" y2="294.519" gradientUnits="userSpaceOnUse"><stop stop-color="#fff"/><stop offset=".08" stop-color="#fff" stop-opacity=".86"/><stop offset=".22" stop-color="#fff" stop-opacity=".64"/><stop offset=".36" stop-color="#fff" stop-opacity=".44"/><stop offset=".5" stop-color="#fff" stop-opacity=".28"/><stop offset=".64" stop-color="#fff" stop-opacity=".16"/><stop offset=".77" stop-color="#fff" stop-opacity=".07"/><stop offset=".89" stop-color="#fff" stop-opacity=".02"/><stop offset="1" stop-color="#fff" stop-opacity="0"/></linearGradient><linearGradient id="k" x1="367.197" x2="367.197" y1="165.502" y2="280.529" gradientUnits="userSpaceOnUse"><stop stop-color="#fff"/><stop offset=".08" stop-color="#fff" stop-opacity=".86"/><stop offset=".22" stop-color="#fff" stop-opacity=".64"/><stop offset=".36" stop-color="#fff" stop-opacity=".44"/><stop offset=".5" stop-color="#fff" stop-opacity=".28"/><stop offset=".64" stop-color="#fff" stop-opacity=".16"/><stop offset=".77" stop-color="#fff" stop-opacity=".07"/><stop offset=".89" stop-color="#fff" stop-opacity=".02"/><stop offset="1" stop-color="#fff" stop-opacity="0"/></linearGradient><linearGradient id="l" x1="367.262" x2="367.262" y1="429.033" y2="558.507" gradientUnits="userSpaceOnUse"><stop stop-color="#0C112C"/><stop offset=".01" stop-color="#0C112C" stop-opacity=".98"/><stop offset=".38" stop-color="#0C112C" stop-opacity=".44"/><stop offset=".71" stop-color="#0C112C" stop-opacity=".11"/><stop offset="1" stop-color="#0C112C" stop-opacity="0"/></linearGradient><linearGradient id="m" x1="367.404" x2="367.404" y1="376.744" y2="81.92" gradientUnits="userSpaceOnUse"><stop stop-color="#0C112C"/><stop offset=".01" stop-color="#0C112C" stop-opacity=".98"/><stop offset=".38" stop-color="#0C112C" stop-opacity=".44"/><stop offset=".71" stop-color="#0C112C" stop-opacity=".11"/><stop offset="1" stop-color="#0C112C" stop-opacity="0"/></linearGradient></defs></svg>
