<svg width="514" height="465" viewBox="0 0 514 465" fill="none" xmlns="http://www.w3.org/2000/svg">
<path opacity="0.05" d="M462.43 369.15H43.6801V464.18H462.43V369.15Z" fill="url(#paint0_linear_99_24890)"/>
<path opacity="0.05" d="M462.43 281.801H384.19V369.481H462.43V281.801Z" fill="url(#paint1_linear_99_24890)"/>
<path opacity="0.1" d="M65.7101 373.86H0.560059V204.23L65.7101 242V373.86Z" fill="url(#paint2_linear_99_24890)"/>
<path d="M479.64 162.79H422.18V292.87H457.59C460.4 292.87 462.8 290.87 463.32 288.11L485.37 169.68C486.04 166.1 483.29 162.79 479.64 162.79Z" fill="#250A42"/>
<path opacity="0.3" d="M479.64 162.79H422.18V292.87H457.59C460.4 292.87 462.8 290.87 463.32 288.11L485.37 169.68C486.04 166.1 483.29 162.79 479.64 162.79Z" fill="url(#paint3_linear_99_24890)"/>
<path opacity="0.15" d="M479.64 162.79H422.18V292.87H457.59C460.4 292.87 462.8 290.87 463.32 288.11L485.37 169.68C486.04 166.1 483.29 162.79 479.64 162.79Z" fill="url(#paint4_linear_99_24890)"/>
<path opacity="0.45" d="M351.78 150.45L358.2 130.69C359.39 127.01 357.6 123.03 354.05 121.5L343.47 116.92C340.69 115.71 338.86 112.95 338.96 109.92C338.99 109.1 339 108.28 339 107.45C339 106.62 338.99 105.8 338.96 104.98C338.86 101.95 340.69 99.1798 343.47 97.9798L354.05 93.3997C357.6 91.8597 359.39 87.8797 358.2 84.2097L351.78 64.4498C350.59 60.7698 346.79 58.6098 343.02 59.4498L331.76 61.9597C328.79 62.6197 325.72 61.4298 324 58.9198C323.08 57.5898 322.13 56.2798 321.14 55.0098C319.27 52.5998 319.08 49.2898 320.63 46.6598L326.51 36.7097C328.48 33.3797 327.59 29.1098 324.46 26.8398L307.65 14.6298C304.52 12.3598 300.18 12.8398 297.63 15.7298L290.01 24.3698C288 26.6498 284.81 27.4898 281.94 26.4798C280.42 25.9398 278.88 25.4397 277.32 24.9897C274.39 24.1397 272.29 21.5698 272 18.5298L270.91 7.04974C270.54 3.19974 267.31 0.259766 263.45 0.259766H242.68C238.82 0.259766 235.59 3.19974 235.22 7.04974L234.13 18.5298C233.84 21.5698 231.74 24.1297 228.81 24.9897C227.25 25.4397 225.71 25.9398 224.19 26.4798C221.32 27.4898 218.14 26.6498 216.12 24.3698L208.5 15.7298C205.94 12.8298 201.6 12.3498 198.48 14.6298L181.67 26.8398C178.54 29.1098 177.66 33.3897 179.62 36.7097L185.5 46.6598C187.05 49.2898 186.86 52.5998 184.99 55.0098C184 56.2898 183.05 57.5898 182.13 58.9198C180.41 61.4198 177.33 62.6198 174.37 61.9498L163.1 59.4398C159.33 58.5998 155.54 60.7598 154.34 64.4398L147.92 84.1998C146.73 87.8798 148.52 91.8598 152.07 93.3898L162.65 97.9698C165.43 99.1798 167.26 101.94 167.16 104.97C167.13 105.79 167.12 106.61 167.12 107.44C167.12 108.27 167.13 109.09 167.16 109.91C167.26 112.94 165.43 115.71 162.65 116.91L152.07 121.49C148.52 123.03 146.73 127.01 147.92 130.68L154.34 150.44C155.53 154.12 159.33 156.28 163.1 155.44L174.36 152.93C177.33 152.27 180.4 153.46 182.12 155.97C183.04 157.3 183.99 158.61 184.98 159.88C186.85 162.29 187.04 165.6 185.49 168.23L179.61 178.18C177.64 181.51 178.53 185.78 181.66 188.05L198.47 200.26C201.6 202.53 205.94 202.05 208.49 199.16L216.11 190.52C218.12 188.24 221.31 187.4 224.18 188.41C225.7 188.95 227.24 189.45 228.8 189.9C231.73 190.75 233.83 193.32 234.12 196.36L235.21 207.84C235.58 211.69 238.81 214.63 242.67 214.63H263.44C267.3 214.63 270.53 211.69 270.9 207.84L271.99 196.36C272.28 193.32 274.38 190.76 277.31 189.9C278.87 189.45 280.41 188.95 281.93 188.41C284.8 187.39 287.98 188.24 290 190.52L297.62 199.16C300.18 202.06 304.52 202.54 307.64 200.26L324.45 188.05C327.58 185.78 328.46 181.5 326.5 178.18L320.62 168.23C319.07 165.6 319.26 162.29 321.13 159.88C322.12 158.6 323.07 157.3 323.99 155.97C325.71 153.47 328.79 152.27 331.75 152.93L343.01 155.44C346.78 156.28 350.57 154.12 351.77 150.44L351.78 150.45Z" fill="#250A42"/>
<path opacity="0.45" d="M351.78 150.45L358.2 130.69C359.39 127.01 357.6 123.03 354.05 121.5L343.47 116.92C340.69 115.71 338.86 112.95 338.96 109.92C338.99 109.1 339 108.28 339 107.45C339 106.62 338.99 105.8 338.96 104.98C338.86 101.95 340.69 99.1798 343.47 97.9798L354.05 93.3997C357.6 91.8597 359.39 87.8797 358.2 84.2097L351.78 64.4498C350.59 60.7698 346.79 58.6098 343.02 59.4498L331.76 61.9597C328.79 62.6197 325.72 61.4298 324 58.9198C323.08 57.5898 322.13 56.2798 321.14 55.0098C319.27 52.5998 319.08 49.2898 320.63 46.6598L326.51 36.7097C328.48 33.3797 327.59 29.1098 324.46 26.8398L307.65 14.6298C304.52 12.3598 300.18 12.8398 297.63 15.7298L290.01 24.3698C288 26.6498 284.81 27.4898 281.94 26.4798C280.42 25.9398 278.88 25.4397 277.32 24.9897C274.39 24.1397 272.29 21.5698 272 18.5298L270.91 7.04974C270.54 3.19974 267.31 0.259766 263.45 0.259766H242.68C238.82 0.259766 235.59 3.19974 235.22 7.04974L234.13 18.5298C233.84 21.5698 231.74 24.1297 228.81 24.9897C227.25 25.4397 225.71 25.9398 224.19 26.4798C221.32 27.4898 218.14 26.6498 216.12 24.3698L208.5 15.7298C205.94 12.8298 201.6 12.3498 198.48 14.6298L181.67 26.8398C178.54 29.1098 177.66 33.3897 179.62 36.7097L185.5 46.6598C187.05 49.2898 186.86 52.5998 184.99 55.0098C184 56.2898 183.05 57.5898 182.13 58.9198C180.41 61.4198 177.33 62.6198 174.37 61.9498L163.1 59.4398C159.33 58.5998 155.54 60.7598 154.34 64.4398L147.92 84.1998C146.73 87.8798 148.52 91.8598 152.07 93.3898L162.65 97.9698C165.43 99.1798 167.26 101.94 167.16 104.97C167.13 105.79 167.12 106.61 167.12 107.44C167.12 108.27 167.13 109.09 167.16 109.91C167.26 112.94 165.43 115.71 162.65 116.91L152.07 121.49C148.52 123.03 146.73 127.01 147.92 130.68L154.34 150.44C155.53 154.12 159.33 156.28 163.1 155.44L174.36 152.93C177.33 152.27 180.4 153.46 182.12 155.97C183.04 157.3 183.99 158.61 184.98 159.88C186.85 162.29 187.04 165.6 185.49 168.23L179.61 178.18C177.64 181.51 178.53 185.78 181.66 188.05L198.47 200.26C201.6 202.53 205.94 202.05 208.49 199.16L216.11 190.52C218.12 188.24 221.31 187.4 224.18 188.41C225.7 188.95 227.24 189.45 228.8 189.9C231.73 190.75 233.83 193.32 234.12 196.36L235.21 207.84C235.58 211.69 238.81 214.63 242.67 214.63H263.44C267.3 214.63 270.53 211.69 270.9 207.84L271.99 196.36C272.28 193.32 274.38 190.76 277.31 189.9C278.87 189.45 280.41 188.95 281.93 188.41C284.8 187.39 287.98 188.24 290 190.52L297.62 199.16C300.18 202.06 304.52 202.54 307.64 200.26L324.45 188.05C327.58 185.78 328.46 181.5 326.5 178.18L320.62 168.23C319.07 165.6 319.26 162.29 321.13 159.88C322.12 158.6 323.07 157.3 323.99 155.97C325.71 153.47 328.79 152.27 331.75 152.93L343.01 155.44C346.78 156.28 350.57 154.12 351.77 150.44L351.78 150.45Z" fill="url(#paint5_linear_99_24890)"/>
<path opacity="0.05" d="M489.36 104.92C472.48 121.8 450.06 129.78 427.96 128.85C427.03 106.75 435.01 84.3301 451.89 67.4501C468.77 50.5701 491.19 42.5901 513.29 43.5201C514.22 65.6201 506.24 88.0401 489.36 104.92Z" fill="#0C112C"/>
<path opacity="0.05" d="M441.13 39.8399C441.13 51.7799 436.03 62.5299 427.88 70.0099C419.74 62.5299 414.63 51.7799 414.63 39.8399C414.63 27.8999 419.73 17.1599 427.88 9.66992C436.02 17.1499 441.13 27.8999 441.13 39.8399Z" fill="#0C112C"/>
<path opacity="0.25" d="M489.36 104.92C472.48 121.8 450.06 129.78 427.96 128.85C427.03 106.75 435.01 84.3301 451.89 67.4501C468.77 50.5701 491.19 42.5901 513.29 43.5201C514.22 65.6201 506.24 88.0401 489.36 104.92Z" fill="url(#paint6_linear_99_24890)"/>
<path opacity="0.1" d="M48.2301 124.799C53.7087 124.799 58.1501 120.358 58.1501 114.879C58.1501 109.4 53.7087 104.959 48.2301 104.959C42.7514 104.959 38.3101 109.4 38.3101 114.879C38.3101 120.358 42.7514 124.799 48.2301 124.799Z" fill="black"/>
<path opacity="0.1" d="M470.62 326.729C473.022 326.729 474.97 324.782 474.97 322.379C474.97 319.977 473.022 318.029 470.62 318.029C468.218 318.029 466.27 319.977 466.27 322.379C466.27 324.782 468.218 326.729 470.62 326.729Z" fill="black"/>
<path opacity="0.1" d="M115.48 62.0594C117.883 62.0594 119.83 60.1118 119.83 57.7094C119.83 55.3069 117.883 53.3594 115.48 53.3594C113.078 53.3594 111.13 55.3069 111.13 57.7094C111.13 60.1118 113.078 62.0594 115.48 62.0594Z" fill="black"/>
<path d="M432.87 337.34L461.14 365.61C463.91 368.38 461.95 373.12 458.03 373.12H48.1C44.18 373.12 42.21 368.38 44.99 365.61L73.26 337.34C75.08 335.52 77.56 334.49 80.14 334.49H426.01C428.59 334.49 431.06 335.51 432.89 337.34H432.87Z" fill="white"/>
<path d="M419.83 77.0996H86.17C81.1718 77.0996 77.12 81.1514 77.12 86.1496V304.22C77.12 309.218 81.1718 313.27 86.17 313.27H419.83C424.828 313.27 428.88 309.218 428.88 304.22V86.1496C428.88 81.1514 424.828 77.0996 419.83 77.0996Z" fill="url(#paint7_linear_99_24890)"/>
<g opacity="0.45">
<path opacity="0.55" d="M419.83 77.0996H86.17C81.1718 77.0996 77.12 81.1514 77.12 86.1496V304.22C77.12 309.218 81.1718 313.27 86.17 313.27H419.83C424.828 313.27 428.88 309.218 428.88 304.22V86.1496C428.88 81.1514 424.828 77.0996 419.83 77.0996Z" fill="black"/>
</g>
<path d="M419.83 79.0996C423.72 79.0996 426.88 82.2596 426.88 86.1496V304.23C426.88 308.12 423.72 311.28 419.83 311.28H86.16C82.27 311.28 79.11 308.12 79.11 304.23V86.1496C79.11 82.2596 82.27 79.0996 86.16 79.0996H419.83ZM419.83 77.0996H86.16C81.16 77.0996 77.11 81.1496 77.11 86.1496V304.23C77.11 309.23 81.16 313.28 86.16 313.28H419.83C424.83 313.28 428.88 309.23 428.88 304.23V86.1496C428.88 81.1496 424.83 77.0996 419.83 77.0996Z" fill="#9359BB"/>
<path opacity="0.2" d="M414.52 87.7998H91.48C89.2764 87.7998 87.49 89.5862 87.49 91.7898V298.21C87.49 300.413 89.2764 302.2 91.48 302.2H414.52C416.724 302.2 418.51 300.413 418.51 298.21V91.7898C418.51 89.5862 416.724 87.7998 414.52 87.7998Z" fill="url(#paint8_linear_99_24890)"/>
<path opacity="0.45" d="M432.87 337.34L461.14 365.61C463.91 368.38 461.95 373.12 458.03 373.12H48.1C44.18 373.12 42.21 368.38 44.99 365.61L73.26 337.34C75.08 335.52 77.56 334.49 80.14 334.49H426.01C428.59 334.49 431.06 335.51 432.89 337.34H432.87Z" fill="#5100A7"/>
<path opacity="0.45" d="M432.87 337.34L461.14 365.61C463.91 368.38 461.95 373.12 458.03 373.12H48.1C44.18 373.12 42.21 368.38 44.99 365.61L73.26 337.34C75.08 335.52 77.56 334.49 80.14 334.49H426.01C428.59 334.49 431.06 335.51 432.89 337.34H432.87Z" fill="url(#paint9_linear_99_24890)"/>
<path opacity="0.4" d="M253.06 286.84C303.782 286.84 344.9 245.722 344.9 195C344.9 144.278 303.782 103.16 253.06 103.16C202.338 103.16 161.22 144.278 161.22 195C161.22 245.722 202.338 286.84 253.06 286.84Z" stroke="#BB78FF" stroke-miterlimit="10"/>
<path opacity="0.25" d="M253.06 322.38C323.41 322.38 380.44 265.35 380.44 195C380.44 124.65 323.41 67.6201 253.06 67.6201C182.71 67.6201 125.68 124.65 125.68 195C125.68 265.35 182.71 322.38 253.06 322.38Z" stroke="#BB78FF" stroke-miterlimit="10"/>
<path opacity="0.1" d="M253.06 358.1C343.138 358.1 416.16 285.078 416.16 195C416.16 104.923 343.138 31.9004 253.06 31.9004C162.982 31.9004 89.96 104.923 89.96 195C89.96 285.078 162.982 358.1 253.06 358.1Z" stroke="#BB78FF" stroke-miterlimit="10"/>
<path opacity="0.7" d="M324.62 145H181.76C178.027 145 175 148.027 175 151.76V236.33C175 240.063 178.027 243.09 181.76 243.09H324.62C328.353 243.09 331.38 240.063 331.38 236.33V151.76C331.38 148.027 328.353 145 324.62 145Z" fill="url(#paint10_linear_99_24890)"/>
<path opacity="0.8" d="M255.93 194.04L276.07 173.9C276.83 173.14 276.83 171.92 276.07 171.16C275.31 170.4 274.09 170.4 273.33 171.16L253.19 191.3L233.05 171.16C232.29 170.4 231.07 170.4 230.31 171.16C229.55 171.92 229.55 173.14 230.31 173.9L250.45 194.04L230.31 214.18C229.55 214.94 229.55 216.16 230.31 216.92C230.69 217.3 231.18 217.49 231.68 217.49C232.18 217.49 232.67 217.3 233.05 216.92L253.19 196.78L273.33 216.92C273.71 217.3 274.2 217.49 274.7 217.49C275.2 217.49 275.69 217.3 276.07 216.92C276.83 216.16 276.83 214.94 276.07 214.18L255.93 194.04Z" fill="white"/>
<path opacity="0.45" d="M65.7101 170.331L23.83 195.591V196.251L65.7101 221.511V247.101L0.560059 205.551V186.271L65.7101 144.721V170.311V170.331Z" fill="url(#paint11_linear_99_24890)"/>
<defs>
<linearGradient id="paint0_linear_99_24890" x1="253.06" y1="366.33" x2="253.06" y2="457.19" gradientUnits="userSpaceOnUse">
<stop stop-color="#0C112C"/>
<stop offset="0.01" stop-color="#0C112C" stop-opacity="0.98"/>
<stop offset="0.38" stop-color="#0C112C" stop-opacity="0.44"/>
<stop offset="0.71" stop-color="#0C112C" stop-opacity="0.11"/>
<stop offset="1" stop-color="#0C112C" stop-opacity="0"/>
</linearGradient>
<linearGradient id="paint1_linear_99_24890" x1="423.31" y1="282.681" x2="423.31" y2="367.091" gradientUnits="userSpaceOnUse">
<stop stop-color="#0C112C"/>
<stop offset="0.01" stop-color="#0C112C" stop-opacity="0.98"/>
<stop offset="0.38" stop-color="#0C112C" stop-opacity="0.44"/>
<stop offset="0.71" stop-color="#0C112C" stop-opacity="0.11"/>
<stop offset="1" stop-color="#0C112C" stop-opacity="0"/>
</linearGradient>
<linearGradient id="paint2_linear_99_24890" x1="84.39" y1="225.73" x2="20.39" y2="304.79" gradientUnits="userSpaceOnUse">
<stop stop-color="#0C112C"/>
<stop offset="0.01" stop-color="#0C112C" stop-opacity="0.98"/>
<stop offset="0.38" stop-color="#0C112C" stop-opacity="0.44"/>
<stop offset="0.71" stop-color="#0C112C" stop-opacity="0.11"/>
<stop offset="1" stop-color="#0C112C" stop-opacity="0"/>
</linearGradient>
<linearGradient id="paint3_linear_99_24890" x1="453.82" y1="142.28" x2="453.82" y2="401.45" gradientUnits="userSpaceOnUse">
<stop stop-color="#DFC1FF"/>
<stop offset="0.01" stop-color="#DFC1FF" stop-opacity="0.98"/>
<stop offset="0.38" stop-color="#DFC1FF" stop-opacity="0.44"/>
<stop offset="0.71" stop-color="#DFC1FF" stop-opacity="0.11"/>
<stop offset="1" stop-color="#DFC1FF" stop-opacity="0"/>
</linearGradient>
<linearGradient id="paint4_linear_99_24890" x1="428.5" y1="224.526" x2="461.5" y2="224.526" gradientUnits="userSpaceOnUse">
<stop stop-color="#1A0036"/>
<stop offset="1" stop-color="#820FFF"/>
</linearGradient>
<linearGradient id="paint5_linear_99_24890" x1="253.06" y1="0.259766" x2="253.06" y2="102" gradientUnits="userSpaceOnUse">
<stop stop-color="#1A0036"/>
<stop offset="1" stop-color="#820FFF"/>
</linearGradient>
<linearGradient id="paint6_linear_99_24890" x1="424.18" y1="86.1801" x2="462.21" y2="86.1801" gradientUnits="userSpaceOnUse">
<stop stop-color="#0C112C"/>
<stop offset="0.01" stop-color="#0C112C" stop-opacity="0.98"/>
<stop offset="0.38" stop-color="#0C112C" stop-opacity="0.44"/>
<stop offset="0.71" stop-color="#0C112C" stop-opacity="0.11"/>
<stop offset="1" stop-color="#0C112C" stop-opacity="0"/>
</linearGradient>
<linearGradient id="paint7_linear_99_24890" x1="253" y1="307.542" x2="253" y2="93.8432" gradientUnits="userSpaceOnUse">
<stop stop-color="#250A42"/>
<stop offset="1" stop-color="#BB7AFF"/>
</linearGradient>
<linearGradient id="paint8_linear_99_24890" x1="253" y1="297" x2="253" y2="103" gradientUnits="userSpaceOnUse">
<stop stop-color="#250A42"/>
<stop offset="1" stop-color="#BB7AFF"/>
</linearGradient>
<linearGradient id="paint9_linear_99_24890" x1="253.06" y1="334" x2="253.06" y2="373" gradientUnits="userSpaceOnUse">
<stop stop-color="#DFC1FF"/>
<stop offset="0.01" stop-color="#DFC1FF" stop-opacity="0.98"/>
<stop offset="0.38" stop-color="#DFC1FF" stop-opacity="0.44"/>
<stop offset="0.71" stop-color="#DFC1FF" stop-opacity="0.11"/>
<stop offset="1" stop-color="#DFC1FF" stop-opacity="0"/>
</linearGradient>
<linearGradient id="paint10_linear_99_24890" x1="253.19" y1="241.5" x2="253.19" y2="152" gradientUnits="userSpaceOnUse">
<stop stop-color="#5B1B9F"/>
<stop offset="1" stop-color="#C793FF"/>
</linearGradient>
<linearGradient id="paint11_linear_99_24890" x1="75" y1="193.31" x2="33.1351" y2="193.31" gradientUnits="userSpaceOnUse">
<stop stop-color="#1A0036"/>
<stop offset="1" stop-color="#820FFF"/>
</linearGradient>
</defs>
</svg>
