<svg width="128" height="128" viewBox="0 0 128 128" fill="none" xmlns="http://www.w3.org/2000/svg">
<path d="M72.5099 25.5354C72.9741 26.2897 72.8749 27.115 72.8761 27.9261C72.8787 30.0537 72.8813 32.1826 72.8723 34.3115C72.871 34.5861 72.8878 34.9304 72.7395 35.1174C72.546 35.3624 72.1979 35.6267 71.9142 35.6293C68.8131 35.6654 65.7106 35.6551 62.6082 35.6486C62.0588 35.6486 61.6669 35.2309 61.6643 34.6171C61.654 31.9389 61.6462 29.2594 61.6772 26.5812C61.681 26.2498 61.9196 25.9209 62.0137 25.5625C65.4721 25.5354 68.9665 25.5354 72.5099 25.5354ZM68.1155 61.7448C74.6234 61.7448 81.0784 61.795 87.5335 61.7164C89.6507 61.6906 91.7384 61.2109 93.7126 60.3625L94.6848 59.9434C93.5578 58.1136 92.8383 56.1794 92.5688 54.0995C92.2555 51.6895 92.5353 49.3208 93.2174 46.9998C93.9255 44.5419 95.1006 42.2434 96.6783 40.2301C97.942 40.8735 99.1412 41.6356 100.249 42.5692C101.463 43.593 102.486 44.7806 103.374 46.0791C104.34 47.4788 105.049 49.0393 105.467 50.6876C105.594 51.1905 105.653 51.7115 105.81 52.2015C105.854 52.3356 106.162 52.4903 106.32 52.4632C108.017 52.1602 109.728 52.0957 111.439 52.1705C113.626 52.2672 115.762 52.6811 117.735 53.6689C118.514 54.0583 119.199 54.6424 119.914 55.1556C119.985 55.2072 120.018 55.3942 119.99 55.4947C119.467 57.3387 118.544 58.9557 117.324 60.4334C116.056 61.9678 114.503 63.118 112.768 64.0129C111.376 64.7299 109.886 65.2044 108.331 65.4881C106.922 65.7377 105.49 65.8367 104.059 65.7833C103.73 65.773 103.585 65.9123 103.469 66.1766C102.416 68.5853 101.426 71.0224 100.291 73.3899C98.7421 76.6047 96.8747 79.6561 94.717 82.4986C93.6984 83.8487 92.5572 85.1098 91.416 86.3606C90.4903 87.3932 89.5115 88.3771 88.4838 89.3083C86.4838 91.1005 84.3317 92.7154 82.0519 94.1347C79.4836 95.7219 76.7772 97.074 73.9657 98.1746C71.473 99.1627 68.9091 99.961 66.296 100.563C64.6842 100.93 63.0517 101.211 61.4167 101.46C59.7033 101.711 57.9844 101.924 56.2614 102.098C55.4428 102.176 54.6209 102.213 53.7986 102.211C51.8927 102.226 49.9856 102.27 48.0837 102.199C46.3442 102.143 44.6086 102.001 42.8833 101.773C40.5958 101.459 38.3108 101.088 36.0556 100.595C33.9409 100.133 31.8984 99.4086 29.9177 98.5021C27.8569 97.5537 25.9497 96.3019 24.2596 94.7885C22.1784 92.9394 20.5421 90.7525 19.1649 88.3515C17.8025 85.9586 16.7184 83.4178 15.9335 80.7785C15.2978 78.6728 14.7421 76.5491 14.4636 74.3621C14.2766 72.9115 14.0612 71.4608 13.9478 70.0038C13.8261 68.3881 13.7538 66.769 13.7311 65.1489C13.6963 63.1232 15.2437 61.7576 17.1095 61.7564C34.093 61.737 51.0778 61.7448 68.1155 61.7448Z" fill="#2496ED"/>
<path d="M70.8646 49.7101C71.2166 49.7101 71.5171 49.7178 71.8162 49.7101C72.6918 49.6817 72.8478 50.0002 72.8594 50.7301C72.9032 53.3889 72.8981 56.0491 72.8646 58.708C72.8542 59.559 72.4107 59.8427 71.6976 59.8375C68.737 59.8143 65.779 59.8285 62.8184 59.8272C62.0266 59.8272 61.663 59.479 61.6617 58.6873C61.6566 56.08 61.6321 53.474 61.6746 50.868C61.6901 49.8558 61.9145 49.6869 62.8325 49.6985C65.4927 49.7333 68.1529 49.7114 70.8659 49.7114L70.8646 49.7101ZM61.6604 43.7463V38.7974C61.6604 37.8948 61.9918 37.5698 62.8919 37.5698C65.8189 37.5698 68.7447 37.584 71.6705 37.5582C72.4223 37.5518 72.8568 37.8445 72.8658 38.7161C72.8955 41.3595 72.9136 44.0029 72.8555 46.6463C72.8375 47.5141 72.5461 47.7011 71.7698 47.696C68.7736 47.6754 65.7772 47.6746 62.781 47.6934C61.9647 47.6985 61.7068 47.5 61.6682 46.5664C61.6295 45.6457 61.6604 44.7225 61.6604 43.7463ZM59.8603 53.9705V58.8137C59.8603 59.5435 59.5779 59.8272 58.8507 59.8272H49.7561C49.0314 59.8272 48.7503 59.5435 48.7503 58.8098V50.6153C48.7503 50.0028 49.0327 49.7114 49.6272 49.7114H58.9861C59.5792 49.7114 59.8603 50.0041 59.8603 50.6179V53.9705ZM38.8021 49.7101H45.782C46.4873 49.7101 46.7388 49.968 46.7388 50.6952V58.784C46.7388 59.5538 46.468 59.8285 45.7059 59.8285H36.6642C35.8996 59.8285 35.6288 59.5538 35.6275 58.7866V50.645C35.6275 49.9744 35.8983 49.7114 36.5817 49.7101H38.8021ZM33.1246 59.8259C29.9745 59.8272 26.8708 59.8285 23.767 59.8272C22.9959 59.8272 22.7174 59.5564 22.7174 58.7995V50.6527C22.7174 49.9229 22.9237 49.7114 23.6394 49.7114H32.9493C33.4986 49.7114 33.8248 50.0209 33.8261 50.5766C33.8313 53.3631 33.8261 56.1497 33.8313 58.9362C33.8313 59.412 33.5953 59.6828 33.1246 59.8259ZM75.477 49.7101H84.9352C85.6405 49.7101 85.8933 49.968 85.8933 50.6927V58.7814C85.8933 59.5525 85.6225 59.8272 84.8617 59.8272H75.8226C75.0566 59.8272 74.7833 59.5564 74.7833 58.7905C74.7833 56.0942 74.7846 53.398 74.782 50.7017C74.782 50.2207 74.9174 49.8455 75.477 49.7101ZM59.8603 41.4034C59.8603 43.1944 59.8616 44.9326 59.8603 46.6695C59.8603 47.4045 59.5818 47.6869 58.8687 47.6869H49.6723C49.0276 47.6869 48.7503 47.411 48.7503 46.7753V38.5808C48.7503 37.8522 49.034 37.5685 49.76 37.5685H58.8507C59.5779 37.5685 59.859 37.8522 59.8603 38.582V41.4021V41.4034ZM38.2735 37.5698H45.733C46.4577 37.5698 46.7388 37.8548 46.7388 38.5885V46.6824C46.7388 47.4123 46.4603 47.6869 45.733 47.6869H36.5275C35.9421 47.6869 35.6314 47.3852 35.6301 46.7895C35.6249 44.021 35.6262 41.2512 35.6301 38.4828C35.6301 37.887 35.9395 37.5776 36.5275 37.5711C37.091 37.5634 37.6558 37.5698 38.2735 37.5698Z" fill="#2496ED"/>
</svg>
