<svg width="128" height="128" viewBox="0 0 128 128" fill="none" xmlns="http://www.w3.org/2000/svg">
<path d="M112 16H16V112H112V16Z" fill="#512BD4"/>
<path d="M33.1103 77.3332C32.4315 77.3332 31.8545 77.1071 31.3794 76.6547C30.9042 76.1907 30.6666 75.6397 30.6666 75.0018C30.6666 74.3521 30.9042 73.7955 31.3794 73.3315C31.8545 72.8675 32.4315 72.6355 33.1103 72.6355C33.8004 72.6355 34.383 72.8675 34.8582 73.3315C35.3446 73.7955 35.5879 74.3521 35.5879 75.0018C35.5879 75.6397 35.3446 76.1907 34.8582 76.6547C34.383 77.1071 33.8004 77.3332 33.1103 77.3332Z" fill="white"/>
<path d="M60.2457 76.9505H55.8334L44.2092 58.6118C43.9151 58.1478 43.6718 57.6663 43.4796 57.1676H43.3777C43.4682 57.7013 43.5134 58.8438 43.5134 60.5952V76.9505H39.6103V52H44.3109L55.545 69.9038C56.0202 70.6463 56.3257 71.1566 56.4614 71.4349H56.5292C56.4162 70.7739 56.3596 69.6545 56.3596 68.0768V52H60.2457V76.9505Z" fill="white"/>
<path d="M79.2524 76.9505H65.5918V52H78.7095V55.5147H69.6307V62.5787H77.9968V66.076H69.6307V73.4533H79.2524V76.9505Z" fill="white"/>
<path d="M98.6667 55.5147H91.6751V76.9505H87.6361V55.5147H80.6616V52H98.6667V55.5147Z" fill="white"/>
</svg>
