<svg xmlns="http://www.w3.org/2000/svg" fill="none" viewBox="0 0 630 238"><mask id="a" width="238" height="238" x="195" y="0" maskUnits="userSpaceOnUse" style="mask-type:alpha"><circle cx="314" cy="119" r="119" fill="#484848" /></mask><g mask="url(#a)"><circle cx="314" cy="119" r="119" fill="url(#b)" /><path fill="url(#c)" fill-rule="evenodd" d="m373.891-10.772-105.13 197.321h-37.347l.147-.441h-.882l-36.465-65.725 36.465-65.725h36.465l-36.465 65.725 18.232 33.083 87.633-164.238h37.347Zm16.762 66.313h.882L428 121.265l-36.465 65.725h-36.464l36.464-65.725-18.232-33.083-87.633 164.239h-37.347L353.453 55.1H390.8l-.147.44Z" clip-rule="evenodd" opacity=".5" /></g><g filter="url(#d)"><rect width="216.536" height="58.001" x="205.732" y="99.841" fill="#fff" rx="8" /><rect width="215.536" height="57.001" x="206.232" y="100.341" stroke="#EDF4FA" rx="7.5" /></g><g filter="url(#e)"><rect width="237.268" height="63.554" x="195.366" y="86.832" fill="#fff" rx="8" /><rect width="236.268" height="62.554" x="195.866" y="87.332" stroke="#EDF4FA" rx="7.5" /></g><g filter="url(#f)"><rect width="258" height="69.107" x="185" y="73" fill="#fff" rx="8" /><rect width="257" height="68.107" x="185.5" y="73.5" stroke="#E1E4E8" rx="7.5" /></g><circle cx="214" cy="108" r="10" fill="url(#g)" opacity=".5" /><circle cx="214" cy="108" r="5" fill="#36CFC9" /><rect width="96.75" height="11.518" x="238" y="92.596" fill="#EBF0F6" rx="5.759" /><rect width="162.402" height="11.518" x="238" y="109.872" fill="#EBF0F6" rx="5.759" /><path stroke="#D9A3FF" stroke-width="2" d="M606 143v-26a8 8 0 0 0-8-8H443M544 66v35a8 8 0 0 1-8 8h-93" /><path stroke="#D9A3FF" stroke-width="2" d="M499 130.5V117a8 8 0 0 0-8-8h-48" /><path fill="#FBF5FF" stroke="#D9A3FF" stroke-width="2" d="M522 38.496A4.496 4.496 0 0 1 526.496 34h35.727a4.496 4.496 0 0 1 4.496 4.496v35.727a4.496 4.496 0 0 1-4.496 4.496h-35.727A4.496 4.496 0 0 1 522 74.223V38.496Z" /><path fill="#D9A3FF" fill-rule="evenodd" d="m559.475 48.868-.587 18.285-12.145 4.876-7.314-4.695 9.552-9.916-3.547-11.44h-.001l4.199-5.057 9.843 7.947Zm-23.613 16.208-7.63-6.05 3.792-7.043 10.881 4.244-7.043 8.85Z" clip-rule="evenodd" /><path fill="#D9A3FF" d="m543.086 66.656-12.687 4.605 2.032-7.133 2.663-8.76-7.223-2.437 4.56-12.507 9.932 1.22 9.753 11.151-9.03 13.861Z" /><path fill="#fff" d="M553.978 45.92h-19.237v20.612h19.237V45.921Z" /><path fill="#D9A3FF" fill-rule="evenodd" d="M541.612 50.189v-1.52h-4.123v1.52h1.191v5.205h-1.191v1.52h4.123v-1.52h-1.146v-5.205h1.146Zm1.374 12.221h-6.871v1.374h6.871V62.41Zm1.044-5.859c.409.227.954.363 1.59.363.455 0 .818-.09 1.181-.227.364-.09.682-.317.909-.543.272-.272.454-.544.59-.906.137-.363.182-.77.182-1.269v-5.3h-1.817v5.21c0 .498-.091.815-.273 1.041-.227.227-.499.318-.817.318-.273 0-.545-.091-.772-.227a2.62 2.62 0 0 1-.682-.589l-1.135 1.269c.272.317.636.634 1.044.86Z" clip-rule="evenodd" /><path fill="#FBF5FF" stroke="#D9A3FF" stroke-width="2" d="M477 135.496a4.496 4.496 0 0 1 4.496-4.496h35.727a4.496 4.496 0 0 1 4.496 4.496v35.727a4.496 4.496 0 0 1-4.496 4.496h-35.727a4.496 4.496 0 0 1-4.496-4.496v-35.727Z" /><path fill="#D9A3FF" fill-rule="evenodd" d="M503.957 164.259c.347.135.741.126 1.091-.043l4.526-2.189c.476-.23.779-.714.779-1.245v-14.845c0-.531-.303-1.015-.779-1.245l-4.526-2.189a1.36 1.36 0 0 0-1.562.267l-8.665 7.947-3.775-2.88a.912.912 0 0 0-1.169.052l-1.21 1.107c-.4.365-.4.996-.001 1.362l3.273 3.002-3.273 3.001a.924.924 0 0 0 .001 1.362l1.21 1.107a.91.91 0 0 0 1.169.052l3.775-2.88 8.665 7.947c.137.138.298.242.471.31Zm.902-15.916-6.575 5.017 6.575 5.017v-10.034Z" clip-rule="evenodd" /><path fill="#FBF5FF" stroke="#D9A3FF" stroke-width="2" d="M584 147.496a4.496 4.496 0 0 1 4.496-4.496h35.727a4.496 4.496 0 0 1 4.496 4.496v35.727a4.496 4.496 0 0 1-4.496 4.496h-35.727a4.496 4.496 0 0 1-4.496-4.496v-35.727Z" /><path fill="#D9A3FF" fill-rule="evenodd" d="M614.317 161.729V160l-1.07.255v1.466h-.956v.824h.939v3.294a2.22 2.22 0 0 0 .428 1.565 1.545 1.545 0 0 0 1.195.461c.333.011.665-.039.98-.148l-.05-.824a2.44 2.44 0 0 1-.642.074c-.61 0-.824-.428-.824-1.169v-3.245h1.582v-.824h-1.582Zm-15.124.004c.049.568.049 1.194.049 1.96V170.224h1.087v-3.294a2.137 2.137 0 0 0 1.87.947c1.433 0 2.759-1.071 2.759-3.228 0-1.829-1.104-3.056-2.57-3.056a2.391 2.391 0 0 0-2.157 1.17l-.05-1.03h-.988Zm1.186 4.011a2.466 2.466 0 0 1-.05-.445v-1.029a1.896 1.896 0 0 1 1.738-1.804c1.161 0 1.804 1.03 1.804 2.232 0 1.375-.684 2.322-1.845 2.322a1.699 1.699 0 0 1-1.647-1.276Zm-11.459 1.004c0 1.442-.115 1.911-.411 2.257-.33.297-.759.461-1.203.461l.116.824a2.815 2.815 0 0 0 1.877-.684 3.28 3.28 0 0 0 .725-2.47v-5.452h-1.104v5.064Zm8.231-.649c0 .618 0 1.169.049 1.647h-.98l-.066-.98a2.28 2.28 0 0 1-2.001 1.12c-.955 0-2.092-.519-2.092-2.635v-3.517h1.104v3.294c0 1.145.354 1.911 1.35 1.911a1.548 1.548 0 0 0 1.106-.451c.145-.145.259-.318.337-.507.077-.19.116-.394.114-.599v-3.689h1.103v4.373l-.024.033Zm9.773-4.371 1.326 3.549c.14.395.288.873.387 1.227.044-.137.089-.289.136-.447.076-.26.159-.539.251-.805l1.202-3.524h1.162l-1.647 4.282c-.824 2.059-1.326 3.121-2.084 3.764a3.008 3.008 0 0 1-1.351.708l-.271-.922c.352-.116.679-.298.963-.536.402-.327.721-.745.931-1.219a.82.82 0 0 0 .09-.263.927.927 0 0 0-.074-.288l-2.24-5.543h1.203l.016.017Zm11.12 4.025a1.937 1.937 0 0 1-.115-.791h4.235c.011-.17.011-.34 0-.51 0-1.104-.494-2.833-2.47-2.833-1.763 0-2.841 1.433-2.841 3.245a2.788 2.788 0 0 0 .793 2.2 2.8 2.8 0 0 0 2.188.83 4.942 4.942 0 0 0 2.017-.37l-.189-.824a4.012 4.012 0 0 1-1.647.313 1.938 1.938 0 0 1-1.971-1.26Zm3.116-1.647a1.557 1.557 0 0 0-1.532-1.779 1.82 1.82 0 0 0-1.688 1.779h3.22Zm2.629-2.383c.05.56.05 1.169.05 1.877l-.041.009v4.117h1.087v-3.203c.002-.171.018-.342.049-.511.034-.372.202-.72.473-.978a1.55 1.55 0 0 1 1.001-.422c.126-.014.253-.014.379 0v-1.029a1.172 1.172 0 0 0-.313 0 1.822 1.822 0 0 0-1.647 1.317h-.049v-1.177h-.989Z" clip-rule="evenodd" /><path fill="#D9A3FF" fill-rule="evenodd" d="M617.831 151.979a1.841 1.841 0 0 1-2.104 1.94 1.832 1.832 0 0 1-.974-.456 1.838 1.838 0 0 1-.502-1.996 1.845 1.845 0 0 1 1.658-1.22 1.829 1.829 0 0 1 1.922 1.732Zm-10.768 21.328c-4.902 0-9.21-1.759-11.437-4.356a12.194 12.194 0 0 0 22.873 0c-2.222 2.597-6.513 4.356-11.436 4.356Zm11.436-12.535c-2.227-2.598-6.535-4.357-11.436-4.357-4.924 0-9.21 1.754-11.437 4.357a12.196 12.196 0 0 1 11.437-7.964 12.194 12.194 0 0 1 11.436 7.964Zm-18.184 17.591a2.324 2.324 0 1 1-2.423-2.179 2.315 2.315 0 0 1 2.201 1.307c.131.273.206.569.222.872Zm-4.88-22.744c.224.14.484.211.748.204a1.355 1.355 0 0 0 1.302-1.394 1.346 1.346 0 0 0-.873-1.201 1.337 1.337 0 0 0-1.445.342 1.334 1.334 0 0 0-.242 1.465c.108.24.286.444.51.584Z" clip-rule="evenodd" /><path fill="#FBF5FF" d="M97 38.945H86.477a4.542 4.542 0 0 1-3.209-1.324l-.055-.06a4.48 4.48 0 0 1-1.279-3.123V24H55.631c-.724 0-1.384.294-1.86.765A2.595 2.595 0 0 0 53 26.61v49.78c0 .719.296 1.373.772 1.844a2.638 2.638 0 0 0 1.86.766h38.737c.724 0 1.384-.294 1.86-.766A2.595 2.595 0 0 0 97 76.39V38.945Z" /><path fill="#D9A3FF" d="M96.507 39.328H86.305a4.403 4.403 0 0 1-3.11-1.283l-.054-.057a4.344 4.344 0 0 1-1.24-3.029V24.84H56.4c-.701 0-1.34.285-1.802.742a2.517 2.517 0 0 0-.748 1.788v48.264c0 .697.287 1.331.748 1.789.461.457 1.1.742 1.803.742h37.554c.702 0 1.341-.285 1.802-.742a2.516 2.516 0 0 0 .749-1.789V39.328Zm-12.753-13.19v8.821c0 .678.27 1.293.707 1.745l.044.041c.463.46 1.1.745 1.8.745h8.891L83.754 26.139Zm-.27-2.87 14.606 14.49c.18.18.27.414.27.651v37.222c0 1.2-.495 2.29-1.291 3.083A4.407 4.407 0 0 1 93.959 80H56.403c-1.209 0-2.31-.49-3.108-1.28A4.338 4.338 0 0 1 52 75.632V27.37c0-1.2.495-2.29 1.291-3.083A4.407 4.407 0 0 1 56.401 23h26.427c.255 0 .487.103.656.268ZM59.766 71.262a.923.923 0 0 1-.927-.92c0-.507.415-.92.927-.92h25.34c.511 0 .927.413.927.92 0 .508-.416.92-.927.92h-25.34Zm0-5.445a.923.923 0 0 1-.927-.92c0-.507.415-.918.927-.918h17.11c.511 0 .927.411.927.919s-.415.92-.927.92h-17.11Zm0-5.442a.923.923 0 0 1-.927-.919c0-.508.415-.92.927-.92h11.622c.511 0 .927.413.927.92 0 .508-.415.92-.927.92H59.765Z" /><rect width="103" height="16" x="24" y="45" fill="#D9A3FF" rx="8" /><path fill="#fff" d="M32.093 56.089a2.06 2.06 0 0 1-1.126-.32c-.334-.215-.599-.531-.795-.948-.195-.419-.292-.933-.292-1.541 0-.625.101-1.145.302-1.56.202-.416.469-.727.803-.933a2.057 2.057 0 0 1 1.104-.313c.306 0 .56.053.764.157.206.102.371.23.497.383.128.152.225.3.291.448h.046v-2.735h1.51V56h-1.492v-.874h-.064a1.948 1.948 0 0 1-.302.451 1.502 1.502 0 0 1-.5.366 1.725 1.725 0 0 1-.746.146Zm.48-1.204c.243 0 .449-.066.617-.199.17-.135.3-.323.39-.565.093-.241.14-.524.14-.848 0-.325-.046-.606-.136-.845-.09-.24-.22-.424-.39-.554a.994.994 0 0 0-.622-.196.98.98 0 0 0-.628.203c-.17.135-.3.322-.387.56a2.41 2.41 0 0 0-.132.832c0 .317.044.597.131.841.09.242.22.431.388.569a.98.98 0 0 0 .628.202Zm6.553 1.221c-.561 0-1.044-.113-1.449-.34a2.335 2.335 0 0 1-.93-.973c-.218-.422-.327-.92-.327-1.495 0-.562.109-1.054.327-1.478.218-.423.524-.754.92-.99.397-.237.864-.356 1.399-.356.36 0 .694.058 1.005.174.312.114.584.286.816.515.235.23.417.519.547.867.13.346.196.75.196 1.214v.416h-4.606v-.938h3.182c0-.218-.048-.41-.143-.578a1.017 1.017 0 0 0-.394-.395 1.124 1.124 0 0 0-.578-.145c-.23 0-.434.053-.611.16a1.12 1.12 0 0 0-.412.422c-.1.175-.15.37-.153.586v.891c0 .27.05.503.15.7.101.196.244.348.429.455.185.106.404.16.657.16.168 0 .322-.024.461-.072a.927.927 0 0 0 .586-.561l1.4.093a1.91 1.91 0 0 1-.437.88c-.218.249-.5.443-.845.583-.344.137-.74.205-1.19.205Zm8.63-5.56L45.849 56h-1.705l-1.907-5.455h1.598l1.133 3.903h.057l1.129-3.903h1.601Zm3.262 5.56c-.558 0-1.039-.118-1.441-.355a2.4 2.4 0 0 1-.924-.994c-.213-.424-.32-.911-.32-1.463 0-.559.108-1.049.324-1.47a2.4 2.4 0 0 1 .927-.99c.4-.24.876-.36 1.427-.36.476 0 .893.087 1.25.26.358.172.64.415.849.728.208.312.323.68.345 1.1h-1.428a1.103 1.103 0 0 0-.32-.656c-.17-.169-.394-.253-.67-.253-.235 0-.44.064-.615.192a1.22 1.22 0 0 0-.405.55 2.353 2.353 0 0 0-.146.878c0 .348.048.644.142.887.098.244.234.43.409.558.175.128.38.192.614.192a.998.998 0 0 0 .465-.107.9.9 0 0 0 .345-.309c.092-.137.153-.301.18-.493h1.428a2.236 2.236 0 0 1-.34 1.1 2.06 2.06 0 0 1-.835.74c-.355.177-.775.265-1.26.265Zm6.07 0c-.552 0-1.03-.117-1.432-.351a2.406 2.406 0 0 1-.926-.987c-.218-.424-.327-.915-.327-1.474 0-.563.109-1.056.327-1.477.217-.424.526-.753.926-.987.403-.237.88-.356 1.431-.356.552 0 1.028.119 1.428.356.402.234.713.563.93.987.218.421.327.914.327 1.477 0 .559-.109 1.05-.326 1.474a2.4 2.4 0 0 1-.93.987c-.401.234-.877.351-1.428.351Zm.007-1.171a.94.94 0 0 0 .628-.213 1.32 1.32 0 0 0 .38-.59c.088-.248.131-.531.131-.849 0-.317-.043-.6-.13-.848a1.32 1.32 0 0 0-.38-.59.93.93 0 0 0-.63-.216.963.963 0 0 0-.639.216c-.17.145-.3.341-.387.59a2.61 2.61 0 0 0-.127.848c0 .318.042.6.127.85.088.248.217.444.387.589a.974.974 0 0 0 .64.213Zm5.374-2.088V56h-1.513v-5.455h1.442v.963h.063c.121-.317.324-.568.608-.753.284-.187.628-.28 1.033-.28.379 0 .71.082.99.248.283.166.502.403.658.71.156.306.234.67.234 1.094V56h-1.512v-3.203c.002-.334-.083-.594-.256-.781-.173-.19-.411-.285-.714-.285-.204 0-.384.044-.54.132a.917.917 0 0 0-.362.383 1.33 1.33 0 0 0-.131.6Zm7.809-2.302v1.137h-3.285v-1.137h3.285Zm-2.54-1.306h1.513v5.085c0 .14.022.248.064.327a.353.353 0 0 0 .178.16c.078.03.168.045.27.045.07 0 .142-.005.213-.017l.163-.032.238 1.125a4.26 4.26 0 0 1-.32.082 2.567 2.567 0 0 1-.5.06 2.3 2.3 0 0 1-.959-.145 1.338 1.338 0 0 1-.635-.519c-.152-.234-.227-.53-.224-.887v-5.284Zm5.28 6.864c-.347 0-.657-.06-.93-.181a1.497 1.497 0 0 1-.646-.543c-.156-.242-.234-.543-.234-.902 0-.303.055-.558.166-.764.112-.206.263-.372.455-.497.192-.126.41-.22.653-.284a4.98 4.98 0 0 1 .775-.135c.317-.033.572-.064.767-.092.194-.031.335-.076.422-.135a.297.297 0 0 0 .132-.263v-.022c0-.224-.071-.398-.213-.521-.14-.124-.339-.185-.597-.185-.272 0-.489.06-.65.18a.834.834 0 0 0-.32.448l-1.399-.113c.071-.332.211-.618.42-.86a2.01 2.01 0 0 1 .805-.56 3.082 3.082 0 0 1 1.151-.2c.303 0 .593.036.87.107.28.071.527.181.742.33.218.15.39.341.515.575.126.233.188.51.188.835V56h-1.434v-.756h-.043a1.54 1.54 0 0 1-.351.45 1.627 1.627 0 0 1-.53.302 2.184 2.184 0 0 1-.713.107Zm.434-1.044c.222 0 .419-.044.59-.131.17-.09.304-.211.4-.363a.934.934 0 0 0 .146-.515v-.578a.81.81 0 0 1-.195.085 3.55 3.55 0 0 1-.273.067 14.14 14.14 0 0 1-.306.054l-.277.039a1.876 1.876 0 0 0-.465.124.745.745 0 0 0-.309.23.562.562 0 0 0-.11.356c0 .206.075.363.224.472.151.107.343.16.575.16Zm4.012.941v-5.455h1.513V56h-1.513Zm.76-6.158a.821.821 0 0 1-.579-.223.725.725 0 0 1-.238-.544.71.71 0 0 1 .238-.536.814.814 0 0 1 .579-.227c.225 0 .417.076.575.227a.72.72 0 0 1 0 1.08.81.81 0 0 1-.575.223Zm3.677 3.005V56H80.39v-5.455h1.441v.963h.064c.121-.317.323-.568.608-.753.284-.187.628-.28 1.033-.28.379 0 .709.082.99.248.282.166.501.403.658.71.156.306.234.67.234 1.094V56h-1.513v-3.203c.003-.334-.083-.594-.255-.781-.173-.19-.411-.285-.714-.285-.204 0-.384.044-.54.132a.917.917 0 0 0-.362.383 1.33 1.33 0 0 0-.132.6Zm7.394 3.26c-.56 0-1.044-.114-1.449-.341a2.335 2.335 0 0 1-.93-.973c-.218-.422-.327-.92-.327-1.495 0-.562.11-1.054.327-1.478.218-.423.524-.754.92-.99.397-.237.864-.356 1.399-.356.36 0 .695.058 1.005.174.312.114.585.286.817.515.234.23.416.519.546.867.13.346.196.75.196 1.214v.416h-4.606v-.938h3.182c0-.218-.048-.41-.142-.578a1.017 1.017 0 0 0-.395-.395 1.124 1.124 0 0 0-.578-.145c-.23 0-.434.053-.611.16a1.12 1.12 0 0 0-.412.422c-.1.175-.15.37-.153.586v.891c0 .27.05.503.15.7.101.196.244.348.43.455.184.106.403.16.656.16.168 0 .322-.024.462-.072a.926.926 0 0 0 .586-.561l1.399.093c-.071.336-.217.63-.437.88-.218.249-.5.443-.845.583-.344.137-.74.205-1.19.205Zm3.69-.107v-5.455h1.468v.952h.056c.1-.338.267-.594.501-.767.234-.175.504-.263.81-.263a2.307 2.307 0 0 1 .476.054v1.342a2.642 2.642 0 0 0-.64-.082 1.21 1.21 0 0 0-.596.146 1.072 1.072 0 0 0-.561.987V56h-1.513Zm4.552.092a.83.83 0 0 1-.604-.248.83.83 0 0 1-.248-.604c0-.232.082-.43.248-.596a.83.83 0 0 1 .604-.25c.227 0 .426.084.596.25.171.165.256.364.256.596 0 .156-.04.3-.12.43a.917.917 0 0 1-.31.309.813.813 0 0 1-.422.113Zm2.294-5.547h1.513v5.725c0 .421-.083.762-.249 1.023-.165.26-.403.45-.713.571-.308.121-.676.181-1.105.181-.052 0-.102 0-.149-.003-.05 0-.102-.001-.156-.004v-1.182l.106.003c.029.003.06.004.093.004.244 0 .414-.052.511-.156.1-.102.15-.256.15-.462v-5.7Zm.753-.703a.818.818 0 0 1-.575-.223.72.72 0 0 1-.242-.544c0-.208.08-.387.242-.536a.81.81 0 0 1 .575-.227c.227 0 .42.076.579.227.161.15.241.328.241.536a.72.72 0 0 1-.241.544.815.815 0 0 1-.579.223Zm6.71 2.259-1.385.085a.709.709 0 0 0-.152-.32.824.824 0 0 0-.309-.23 1.052 1.052 0 0 0-.451-.09c-.235 0-.432.05-.593.15-.161.097-.242.227-.242.39 0 .13.052.24.156.33.105.09.283.163.537.218l.987.198c.53.11.925.285 1.186.526.26.241.39.559.39.952 0 .357-.105.67-.316.94-.208.27-.494.481-.859.633a3.27 3.27 0 0 1-1.253.223c-.723 0-1.298-.15-1.726-.45a1.76 1.76 0 0 1-.75-1.236l1.488-.078c.045.22.154.388.327.504.173.114.394.17.664.17.265 0 .478-.05.639-.152.164-.104.246-.238.249-.402a.42.42 0 0 0-.174-.337c-.114-.09-.289-.159-.526-.206l-.944-.188c-.533-.107-.93-.291-1.19-.554-.258-.263-.387-.598-.387-1.005 0-.35.095-.652.284-.906.192-.253.461-.448.806-.586.348-.137.755-.206 1.222-.206.689 0 1.231.146 1.626.437.398.291.63.688.696 1.19Zm3.742 4.005c-.552 0-1.029-.117-1.432-.351a2.4 2.4 0 0 1-.926-.987c-.218-.424-.327-.915-.327-1.474 0-.563.109-1.056.327-1.477.217-.424.526-.753.926-.987.403-.237.88-.356 1.432-.356.551 0 1.027.119 1.427.356.403.234.713.563.931.987.217.421.326.914.326 1.477 0 .559-.109 1.05-.326 1.474-.218.421-.528.75-.931.987-.4.234-.876.351-1.427.351Zm.007-1.171c.251 0 .46-.071.628-.213a1.32 1.32 0 0 0 .38-.59c.088-.248.132-.531.132-.849 0-.317-.044-.6-.132-.848a1.32 1.32 0 0 0-.38-.59.929.929 0 0 0-.628-.216.965.965 0 0 0-.64.216 1.34 1.34 0 0 0-.387.59 2.616 2.616 0 0 0-.127.848c0 .318.042.6.127.85.088.248.217.444.387.589a.975.975 0 0 0 .64.213Zm5.374-2.088V56h-1.513v-5.455h1.442v.963h.064c.12-.317.323-.568.607-.753.284-.187.628-.28 1.033-.28.379 0 .709.082.991.248.282.166.501.403.657.71.156.306.234.67.234 1.094V56h-1.512v-3.203c.002-.334-.083-.594-.256-.781-.173-.19-.411-.285-.714-.285-.204 0-.383.044-.54.132a.917.917 0 0 0-.362.383 1.328 1.328 0 0 0-.131.6Z" /><path stroke="#D9A3FF" stroke-width="2" d="M75 80v20a8 8 0 0 0 8 8h90" /><path fill="#FBF5FF" stroke="#D9A3FF" stroke-width="2" d="M96 135.496a4.496 4.496 0 0 1 4.496-4.496h35.727a4.496 4.496 0 0 1 4.496 4.496v35.727a4.496 4.496 0 0 1-4.496 4.496h-35.727A4.496 4.496 0 0 1 96 171.223v-35.727Z" /><path fill="#D9A3FF" fill-rule="evenodd" d="M111.028 152.15c-.084-.271-.131-.641-.131-1.097h-.024v-3.996c0-1.356-.333-2.368-.988-3.033-.667-.666-1.703-.999-3.121-.999a6.99 6.99 0 0 0-1.857.234 6.704 6.704 0 0 0-1.501.555c-.167.086-.274.173-.333.259-.06.086-.084.234-.084.432v.604c0 .259.084.382.25.382a.693.693 0 0 0 .191-.037 3.49 3.49 0 0 0 .417-.16 9.202 9.202 0 0 1 1.286-.42 5.24 5.24 0 0 1 1.286-.16c.917 0 1.56.185 1.941.567.369.383.56 1.036.56 1.974v.9c-.476-.111-.929-.21-1.37-.271a9.048 9.048 0 0 0-1.262-.099c-1.226 0-2.191.32-2.918.962-.726.641-1.083 1.492-1.083 2.54 0 .987.297 1.776.881 2.368.584.592 1.381.888 2.382.888 1.405 0 2.572-.567 3.501-1.702.131.284.25.518.369.728.119.197.262.394.429.579.119.111.238.173.357.173a.56.56 0 0 0 .31-.111l.75-.518c.155-.123.226-.247.226-.37a.558.558 0 0 0-.083-.284 6.576 6.576 0 0 1-.381-.888Zm-3.74.555a3.733 3.733 0 0 1-1.226.222c-.548 0-.965-.148-1.251-.456-.297-.296-.44-.728-.44-1.307 0-.617.19-1.085.583-1.418.393-.333.977-.494 1.775-.494.369 0 .738.025 1.119.074.381.05.75.124 1.096.21v.518c0 .419-.048.777-.119 1.073a1.992 1.992 0 0 1-.405.789c-.322.37-.703.641-1.132.789Zm7.884 1.431c.095.086.238.123.453.123h1.024c.214 0 .381-.037.476-.123.095-.086.167-.247.226-.493l1.834-7.942 1.846 7.954c.048.247.131.407.226.493.096.087.251.124.477.124h1.024c.202 0 .357-.05.453-.124.095-.074.178-.234.25-.481l2.87-9.532a1.88 1.88 0 0 0 .083-.309l.005-.031c.01-.061.019-.113.019-.166 0-.21-.107-.308-.298-.308h-1.107c-.215 0-.37.049-.465.123-.083.074-.167.234-.238.481l-2.06 8.262-1.882-8.262c-.047-.234-.131-.407-.226-.481-.095-.086-.25-.123-.476-.123h-.953c-.215 0-.381.049-.477.123-.095.074-.166.234-.226.481l-1.858 8.164-2-8.164c-.072-.234-.143-.407-.238-.481-.084-.086-.239-.123-.465-.123h-1.167c-.19 0-.286.111-.286.308 0 .086.036.247.107.493l2.799 9.533c.071.234.155.407.25.481Zm13.921.234a7.628 7.628 0 0 0 1.834.222 5.47 5.47 0 0 0 1.703-.259c.512-.16.953-.382 1.322-.69.369-.296.655-.666.87-1.086.202-.419.309-.9.309-1.43 0-.641-.178-1.221-.548-1.727-.369-.505-.988-.9-1.845-1.184l-1.691-.554c-.632-.21-1.072-.444-1.31-.679a1.181 1.181 0 0 1-.358-.875c0-.506.191-.864.56-1.098.369-.234.905-.345 1.584-.345.845 0 1.608.16 2.286.481.203.098.358.148.453.148.179 0 .274-.136.274-.395v-.579c0-.173-.036-.309-.107-.407-.072-.111-.191-.21-.358-.309a2.531 2.531 0 0 0-.5-.222 9.01 9.01 0 0 0-.679-.197c-.25-.049-.5-.099-.774-.136a5.776 5.776 0 0 0-.798-.049c-.524 0-1.024.062-1.5.21a3.737 3.737 0 0 0-1.239.641 3.14 3.14 0 0 0-.857 1.011c-.214.395-.322.851-.322 1.369 0 .641.203 1.246.596 1.788.393.555 1.036.974 1.905 1.258l1.727.555c.584.197.988.407 1.203.641.214.235.321.518.321.863 0 .506-.214.901-.619 1.172-.405.271-.988.407-1.739.407-.476 0-.94-.049-1.417-.148a6.35 6.35 0 0 1-1.31-.432l-.121-.051a2.806 2.806 0 0 0-.176-.072.648.648 0 0 0-.215-.037c-.178 0-.274.123-.274.382v.629c0 .111.024.235.072.346.047.111.178.234.369.345.31.185.774.345 1.369.493Zm5.503 3.67c-.494-.636-3.271-.306-4.53-.153-.376.047-.435-.283-.094-.53 2.212-1.553 5.848-1.106 6.272-.588.423.529-.118 4.165-2.189 5.907-.318.27-.623.129-.482-.224.47-1.165 1.518-3.789 1.023-4.412Zm-1.612 1.835c-3.871 2.859-9.495 4.377-14.331 4.377-6.777 0-12.884-2.506-17.496-6.671-.365-.33-.036-.777.4-.518 4.989 2.895 11.142 4.648 17.508 4.648 4.295 0 9.013-.894 13.355-2.73.647-.294 1.2.424.564.894Z" clip-rule="evenodd" /><path fill="#FBF5FF" stroke="#D9A3FF" stroke-width="2" d="M1 147.496A4.496 4.496 0 0 1 5.496 143h35.727a4.496 4.496 0 0 1 4.496 4.496v35.727a4.496 4.496 0 0 1-4.496 4.496H5.496A4.496 4.496 0 0 1 1 183.223v-35.727Z" /><path fill="#D9A3FF" d="M22.664 150.667c-.45 0-.814.404-.814.904l.002.022c0 .068-.004.15-.002.209.01.288.074.508.111.773.069.568.126 1.039.09 1.476-.034.165-.155.316-.263.421l-.02.344a10.469 10.469 0 0 0-6.787 3.263c-.089-.061-.246-.174-.293-.209-.145.02-.292.065-.483-.047-.364-.245-.696-.583-1.097-.99-.184-.195-.317-.381-.535-.569-.05-.043-.126-.1-.181-.144a.971.971 0 0 0-.567-.214.782.782 0 0 0-.648.287c-.28.351-.19.888.2 1.199l.012.009c.053.044.12.099.168.136.232.171.444.258.675.394.487.301.89.55 1.21.85.125.133.147.368.163.47l.26.233a10.526 10.526 0 0 0-1.66 7.339l-.34.099c-.09.116-.217.298-.35.353-.418.132-.889.18-1.458.24-.267.022-.497.009-.78.062-.063.012-.15.035-.218.051l-.007.001-.012.004c-.48.116-.787.557-.688.991.1.434.567.698 1.05.594l.012-.001.016-.006c.067-.014.151-.031.21-.047.278-.074.48-.184.73-.279.538-.194.984-.355 1.419-.418.181-.014.372.112.467.165l.355-.06a10.586 10.586 0 0 0 4.692 5.858l-.148.354c.053.138.112.325.072.46-.158.41-.428.842-.736 1.324-.15.223-.302.395-.436.65-.033.061-.074.155-.105.219-.209.448-.055.963.346 1.156.404.195.906-.01 1.123-.459l.002-.001v-.002c.03-.064.075-.147.1-.207.116-.264.154-.49.235-.746.216-.541.334-1.108.63-1.461.081-.097.214-.134.35-.171l.185-.334a10.511 10.511 0 0 0 7.508.019c.052.092.148.269.174.313.14.046.291.069.415.252.222.379.374.827.558 1.368.081.256.121.482.237.746.026.06.07.145.1.209.217.449.72.655 1.125.46.402-.193.555-.708.346-1.156-.03-.064-.074-.158-.106-.219-.134-.254-.287-.426-.436-.648-.308-.482-.564-.882-.722-1.292-.066-.211.011-.342.063-.48-.03-.035-.097-.234-.136-.328a10.587 10.587 0 0 0 4.69-5.9c.106.017.289.049.348.061.123-.081.235-.186.456-.169.434.063.88.224 1.418.417.25.096.452.208.73.282.059.016.143.03.21.045l.016.005.012.002c.483.104.951-.16 1.05-.594.1-.435-.209-.875-.688-.991-.07-.016-.169-.043-.236-.056-.284-.053-.514-.04-.781-.062-.569-.06-1.04-.108-1.459-.24-.17-.066-.292-.27-.35-.353l-.33-.096c.171-1.232.125-2.515-.17-3.798a10.538 10.538 0 0 0-1.524-3.524c.084-.076.243-.217.288-.259.014-.146.002-.299.153-.46.32-.301.724-.55 1.21-.85.231-.136.445-.224.676-.395.053-.039.125-.1.18-.144.39-.312.48-.849.2-1.2-.28-.351-.824-.384-1.214-.073-.055.044-.13.102-.18.145-.22.187-.354.373-.538.568-.401.407-.733.747-1.097.993-.158.091-.389.06-.493.053l-.31.221a10.665 10.665 0 0 0-6.753-3.263 19.648 19.648 0 0 1-.02-.363c-.105-.101-.233-.188-.265-.407-.036-.437.023-.908.092-1.476.038-.265.1-.485.111-.773.002-.066-.002-.161-.002-.231 0-.5-.364-.904-.813-.904Zm-1.019 6.31-.242 4.268-.017.008a.717.717 0 0 1-1.139.55l-.006.003-3.5-2.481a8.385 8.385 0 0 1 4.904-2.348Zm2.04 0a8.456 8.456 0 0 1 4.873 2.35l-3.476 2.465-.012-.005a.719.719 0 0 1-1.14-.548l-.004-.001-.242-4.261Zm-8.213 3.942 3.195 2.858-.003.018a.716.716 0 0 1-.282 1.232l-.003.014-4.096 1.182a8.38 8.38 0 0 1 1.19-5.304Zm14.36.002a8.49 8.49 0 0 1 1.049 2.561c.211.92.264 1.839.177 2.727l-4.116-1.185-.004-.018a.717.717 0 0 1-.281-1.232l-.002-.009 3.178-2.844Zm-7.824 3.077h1.31l.813 1.017-.292 1.269-1.175.565-1.179-.567-.292-1.269.815-1.015Zm4.197 3.48a.702.702 0 0 1 .165.012l.007-.008 4.236.716a8.39 8.39 0 0 1-3.391 4.261l-1.645-3.973.005-.006a.719.719 0 0 1 .623-1.002Zm-7.115.018a.717.717 0 0 1 .648.999l.012.016-1.627 3.932a8.424 8.424 0 0 1-3.38-4.231l4.199-.713.007.009a.674.674 0 0 1 .14-.012Zm3.548 1.722a.704.704 0 0 1 .335.072.706.706 0 0 1 .322.306h.015l2.07 3.74a8.418 8.418 0 0 1-5.419-.005l2.066-3.734h.004a.72.72 0 0 1 .607-.379Z" /><path stroke="#D9A3FF" stroke-width="2" d="M119 132v-16a8 8 0 0 1 8-8h46" /><path stroke="#D9A3FF" stroke-width="2" d="M24 143.5V116a8 8 0 0 1 8-8h153.5" /><defs><filter id="d" width="232.736" height="74.201" x="197.632" y="95.741" color-interpolation-filters="sRGB" filterUnits="userSpaceOnUse"><feFlood flood-opacity="0" result="BackgroundImageFix" /><feColorMatrix in="SourceAlpha" result="hardAlpha" values="0 0 0 0 0 0 0 0 0 0 0 0 0 0 0 0 0 0 127 0" /><feOffset dy="4" /><feGaussianBlur stdDeviation="4.05" /><feComposite in2="hardAlpha" operator="out" /><feColorMatrix values="0 0 0 0 0 0 0 0 0 0.0333124 0 0 0 0 0.0677734 0 0 0 0.12 0" /><feBlend in2="BackgroundImageFix" result="effect1_dropShadow_1_21317" /><feBlend in="SourceGraphic" in2="effect1_dropShadow_1_21317" result="shape" /></filter><filter id="e" width="253.468" height="79.754" x="187.266" y="82.732" color-interpolation-filters="sRGB" filterUnits="userSpaceOnUse"><feFlood flood-opacity="0" result="BackgroundImageFix" /><feColorMatrix in="SourceAlpha" result="hardAlpha" values="0 0 0 0 0 0 0 0 0 0 0 0 0 0 0 0 0 0 127 0" /><feOffset dy="4" /><feGaussianBlur stdDeviation="4.05" /><feComposite in2="hardAlpha" operator="out" /><feColorMatrix values="0 0 0 0 0 0 0 0 0 0.0333124 0 0 0 0 0.0677734 0 0 0 0.12 0" /><feBlend in2="BackgroundImageFix" result="effect1_dropShadow_1_21317" /><feBlend in="SourceGraphic" in2="effect1_dropShadow_1_21317" result="shape" /></filter><filter id="f" width="274.2" height="85.307" x="176.9" y="68.9" color-interpolation-filters="sRGB" filterUnits="userSpaceOnUse"><feFlood flood-opacity="0" result="BackgroundImageFix" /><feColorMatrix in="SourceAlpha" result="hardAlpha" values="0 0 0 0 0 0 0 0 0 0 0 0 0 0 0 0 0 0 127 0" /><feOffset dy="4" /><feGaussianBlur stdDeviation="4.05" /><feComposite in2="hardAlpha" operator="out" /><feColorMatrix values="0 0 0 0 0 0 0 0 0 0.0333124 0 0 0 0 0.0677734 0 0 0 0.12 0" /><feBlend in2="BackgroundImageFix" result="effect1_dropShadow_1_21317" /><feBlend in="SourceGraphic" in2="effect1_dropShadow_1_21317" result="shape" /></filter><linearGradient id="b" x1="314" x2="314" y1="0" y2="238" gradientUnits="userSpaceOnUse"><stop stop-color="#E5BFFF" /><stop offset="1" stop-color="#ECF3F9" /></linearGradient><linearGradient id="c" x1="311.107" x2="311.107" y1="-10.772" y2="252.421" gradientUnits="userSpaceOnUse"><stop stop-color="#B750FF" /><stop offset="1" stop-color="#B750FF" stop-opacity="0" /></linearGradient><radialGradient id="g" cx="0" cy="0" r="1" gradientTransform="matrix(0 10 -10 0 214 108)" gradientUnits="userSpaceOnUse"><stop offset=".55" stop-color="#36CFC9" stop-opacity="0" /><stop offset="1" stop-color="#36CFC9" /></radialGradient></defs></svg>
