<svg width="163" height="181" viewBox="0 0 163 181" fill="none" xmlns="http://www.w3.org/2000/svg">
    <path opacity="0.3" d="M81.3837 162.767C126.331 162.767 162.767 126.331 162.767 81.3837C162.767 36.4367 126.331 0 81.3837 0C36.4367 0 0 36.4367 0 81.3837C0 126.331 36.4367 162.767 81.3837 162.767Z" fill="url(#paint0_radial_675_39699)"/>
    <g opacity="0.4">
        <path opacity="0.6" d="M159.419 134.007H3.34886V180.55H159.419V134.007Z" fill="url(#paint1_radial_675_39699)"/>
    </g>
    <g opacity="0.4">
        <path d="M112.27 43.8981L87.2161 33.0876L76.4056 58.1412L101.459 68.9517L112.27 43.8981Z" fill="url(#paint2_linear_675_39699)"/>
        <path d="M72.577 12.3547H55.1779V70.0025H72.577V12.3547Z" fill="url(#paint3_linear_675_39699)"/>
        <path d="M84.5633 28.7505C88.8935 28.7505 92.4038 25.2401 92.4038 20.9099C92.4038 16.5796 88.8935 13.0693 84.5633 13.0693C80.233 13.0693 76.7227 16.5796 76.7227 20.9099C76.7227 25.2401 80.233 28.7505 84.5633 28.7505Z" fill="url(#paint4_linear_675_39699)"/>
        <path d="M110.764 36.0582L109.146 19.2267L95.4365 29.1239L110.764 36.0582Z" fill="url(#paint5_linear_675_39699)"/>
    </g>
    <path d="M101.599 69.2755L100.685 68.8796L100.882 68.4215L101.337 68.6206L101.537 68.1625L101.992 68.3592L101.599 69.2755Z" fill="url(#paint6_linear_675_39699)"/>
    <path d="M99.2908 68.2795L97.8965 67.6795L98.0932 67.2213L99.4875 67.8214L99.2908 68.2795ZM96.5047 67.0769L95.1103 66.4769L95.307 66.0187L96.7014 66.6188L96.5047 67.0769ZM93.7185 65.8743L92.3242 65.2743L92.5209 64.8161L93.9152 65.4162L93.7185 65.8743ZM90.9323 64.6717L89.538 64.0717L89.7347 63.6135L91.1291 64.2136L90.9323 64.6717ZM88.1462 63.4716L86.7544 62.8715L86.9511 62.4134L88.3429 63.0135L88.1462 63.4716ZM85.36 62.269L83.9682 61.6689L84.1649 61.2108L85.5567 61.8109L85.36 62.269ZM82.5739 61.0664L81.182 60.4663L81.3787 60.0082L82.7706 60.6083L82.5739 61.0664ZM79.7877 59.8638L78.3959 59.2637L78.5926 58.8056L79.9844 59.4057L79.7877 59.8638Z" fill="url(#paint7_linear_675_39699)"/>
    <path d="M77.0016 58.6612L76.0853 58.2678L76.4812 57.354L76.9368 57.5507L76.7401 58.0064L77.1983 58.2055L77.0016 58.6612Z" fill="url(#paint8_linear_675_39699)"/>
    <path d="M77.5394 56.1564L77.0812 55.9597L77.6813 54.5654L78.1394 54.7621L77.5394 56.1564ZM78.742 53.3702L78.2838 53.1735L78.8839 51.7792L79.342 51.9759L78.742 53.3702ZM79.9421 50.5841L79.4839 50.3874L80.084 48.993L80.5421 49.1897L79.9421 50.5841ZM81.1447 47.7979L80.6866 47.6012L81.2866 46.2069L81.7447 46.4036L81.1447 47.7979ZM82.3473 45.0118L81.8892 44.8151L82.4892 43.4207L82.9474 43.6174L82.3473 45.0118ZM83.5499 42.2256L83.0918 42.0289L83.6918 40.6346L84.15 40.8313L83.5499 42.2256ZM84.75 39.4394L84.2919 39.2427L84.8919 37.8484L85.3501 38.0451L84.75 39.4394ZM85.9526 36.6533L85.4945 36.4566L86.0945 35.0623L86.5527 35.259L85.9526 36.6533Z" fill="url(#paint9_linear_675_39699)"/>
    <path d="M87.1552 33.8671L86.6971 33.6704L87.093 32.7542L88.0068 33.15L87.8101 33.6057L87.3519 33.409L87.1552 33.8671Z" fill="url(#paint10_linear_675_39699)"/>
    <path d="M110.099 43.224L108.705 42.624L108.902 42.1658L110.296 42.7659L110.099 43.224ZM107.313 42.0214L105.921 41.4214L106.118 40.9632L107.51 41.5633L107.313 42.0214ZM104.527 40.8188L103.135 40.2188L103.332 39.7606L104.724 40.3607L104.527 40.8188ZM101.741 39.6162L100.349 39.0162L100.546 38.558L101.938 39.1581L101.741 39.6162ZM98.9547 38.4161L97.5604 37.816L97.7571 37.3579L99.1514 37.958L98.9547 38.4161ZM96.1685 37.2135L94.7742 36.6134L94.9709 36.1553L96.3652 36.7554L96.1685 37.2135ZM93.3824 36.0109L91.9881 35.4108L92.1847 34.9527L93.5791 35.5528L93.3824 36.0109ZM90.5962 34.8083L89.2019 34.2082L89.3986 33.7501L90.7929 34.3502L90.5962 34.8083Z" fill="url(#paint11_linear_675_39699)"/>
    <path d="M112.211 44.6756L111.753 44.4789L111.952 44.0208L111.494 43.8241L111.69 43.3684L112.604 43.7618L112.211 44.6756Z" fill="url(#paint12_linear_675_39699)"/>
    <path d="M102.595 66.9674L102.137 66.7707L102.737 65.3763L103.195 65.573L102.595 66.9674ZM103.795 64.1812L103.337 63.9845L103.937 62.5902L104.395 62.7869L103.795 64.1812ZM104.998 61.3951L104.539 61.1984L105.14 59.804L105.598 60.0007L104.998 61.3951ZM106.2 58.6089L105.742 58.4122L106.342 57.0179L106.8 57.2146L106.2 58.6089ZM107.403 55.8203L106.945 55.6236L107.545 54.2292L108.003 54.4259L107.403 55.8203ZM108.605 53.0341L108.147 52.8374L108.747 51.4431L109.205 51.6398L108.605 53.0341ZM109.806 50.2479L109.347 50.0512L109.947 48.6569L110.406 48.8536L109.806 50.2479ZM111.008 47.4618L110.55 47.2651L111.15 45.8708L111.608 46.0675L111.008 47.4618Z" fill="url(#paint13_linear_675_39699)"/>
    <path d="M72.826 70.249H71.8301V69.751H72.3281V69.2531H72.826V70.249Z" fill="url(#paint14_linear_675_39699)"/>
    <path d="M70.386 70.249H68.9394V69.751H70.386V70.249ZM67.4928 70.249H66.0461V69.751H67.4928V70.249ZM64.602 70.249H63.1554V69.751H64.602V70.249ZM61.7088 70.249H60.2622V69.751H61.7088V70.249ZM58.8181 70.249H57.3715V69.751H58.8181V70.249Z" fill="url(#paint15_linear_675_39699)"/>
    <path d="M55.9249 70.249H54.9289V69.2531H55.4269V69.751H55.9249V70.249Z" fill="url(#paint16_linear_675_39699)"/>
    <path d="M55.4269 67.7367H54.9289V66.2179H55.4269V67.7367ZM55.4269 64.7016H54.9289V63.1828H55.4269V64.7016ZM55.4269 61.6665H54.9289V60.1476H55.4269V61.6665ZM55.4269 58.6313H54.9289V57.1125H55.4269V58.6313ZM55.4269 55.5962H54.9289V54.0774H55.4269V55.5962ZM55.4269 52.561H54.9289V51.0422H55.4269V52.561ZM55.4269 49.5259H54.9289V48.0071H55.4269V49.5259ZM55.4269 46.4882H54.9289V44.9694H55.4269V46.4882ZM55.4269 43.4531H54.9289V41.9343H55.4269V43.4531ZM55.4269 40.418H54.9289V38.8991H55.4269V40.418ZM55.4269 37.3828H54.9289V35.864H55.4269V37.3828ZM55.4269 34.3477H54.9289V32.8288H55.4269V34.3477ZM55.4269 31.3125H54.9289V29.7937H55.4269V31.3125ZM55.4269 28.2774H54.9289V26.7586H55.4269V28.2774ZM55.4269 25.2422H54.9289V23.7234H55.4269V25.2422ZM55.4269 22.2071H54.9289V20.6883H55.4269V22.2071ZM55.4269 19.1719H54.9289V17.6531H55.4269V19.1719ZM55.4269 16.1368H54.9289V14.618H55.4269V16.1368Z" fill="url(#paint17_linear_675_39699)"/>
    <path d="M55.4269 13.1017H54.9289V12.1057H55.9248V12.6037H55.4269V13.1017Z" fill="url(#paint18_linear_675_39699)"/>
    <path d="M70.386 12.6037H68.9394V12.1057H70.386V12.6037ZM67.4928 12.6037H66.0461V12.1057H67.4928V12.6037ZM64.602 12.6037H63.1554V12.1057H64.602V12.6037ZM61.7088 12.6037H60.2622V12.1057H61.7088V12.6037ZM58.8181 12.6037H57.3715V12.1057H58.8181V12.6037Z" fill="url(#paint19_linear_675_39699)"/>
    <path d="M72.826 13.1017H72.3281V12.6037H71.8301V12.1057H72.826V13.1017Z" fill="url(#paint20_linear_675_39699)"/>
    <path d="M72.8261 67.7367H72.3281V66.2179H72.8261V67.7367ZM72.8261 64.7016H72.3281V63.1828H72.8261V64.7016ZM72.8261 61.6665H72.3281V60.1476H72.8261V61.6665ZM72.8261 58.6313H72.3281V57.1125H72.8261V58.6313ZM72.8261 55.5962H72.3281V54.0774H72.8261V55.5962ZM72.8261 52.561H72.3281V51.0422H72.8261V52.561ZM72.8261 49.5259H72.3281V48.0071H72.8261V49.5259ZM72.8261 46.4882H72.3281V44.9694H72.8261V46.4882ZM72.8261 43.4531H72.3281V41.9343H72.8261V43.4531ZM72.8261 40.418H72.3281V38.8991H72.8261V40.418ZM72.8261 37.3828H72.3281V35.864H72.8261V37.3828ZM72.8261 34.3477H72.3281V32.8288H72.8261V34.3477ZM72.8261 31.3125H72.3281V29.7937H72.8261V31.3125ZM72.8261 28.2774H72.3281V26.7586H72.8261V28.2774ZM72.8261 25.2422H72.3281V23.7234H72.8261V25.2422ZM72.8261 22.2071H72.3281V20.6883H72.8261V22.2071ZM72.8261 19.1719H72.3281V17.6531H72.8261V19.1719ZM72.8261 16.1368H72.3281V14.618H72.8261V16.1368Z" fill="url(#paint21_linear_675_39699)"/>
    <path d="M84.5732 28.9994H84.5658C84.0379 28.9994 83.5101 28.9472 82.9971 28.8476L83.0918 28.3595C83.5748 28.4542 84.0703 28.5015 84.5658 28.5015L84.5732 28.9994ZM86.1493 28.8426L86.0522 28.3546C86.5377 28.2575 87.0183 28.113 87.4739 27.9213L87.6656 28.382C87.1776 28.5836 86.6672 28.7405 86.1493 28.8426ZM81.4783 28.3894C80.9903 28.1877 80.5197 27.9363 80.079 27.6425L80.3554 27.2291C80.7687 27.5055 81.2094 27.7396 81.6676 27.9288L81.4783 28.3894ZM89.0625 27.6325L88.7861 27.2192C89.1969 26.9428 89.5853 26.6266 89.9364 26.273L90.29 26.6241C89.9165 26.9976 89.5032 27.3362 89.0649 27.63L89.0625 27.6325ZM78.8515 26.639C78.478 26.2656 78.1369 25.8547 77.8431 25.4165L78.2564 25.1377C78.5328 25.5485 78.8515 25.9344 79.2026 26.2855L78.8515 26.639ZM91.2934 25.4016L90.8801 25.1252C91.1564 24.7119 91.393 24.2712 91.5822 23.8131L92.0428 24.0048C91.8411 24.4928 91.5897 24.9634 91.2959 25.4016H91.2934ZM77.0937 24.0197C76.8895 23.5317 76.7351 23.0213 76.6306 22.5034L77.1186 22.4063C77.2157 22.8918 77.3626 23.3699 77.5518 23.828L77.0912 24.0197H77.0937ZM92.501 22.486L92.0129 22.3888C92.1076 21.9033 92.1574 21.4054 92.1574 20.9074V20.875H92.6553V20.9024C92.6553 21.4377 92.603 21.9681 92.501 22.486ZM76.4737 20.9248V20.9074C76.4737 20.382 76.5235 19.8567 76.6231 19.3462L77.1111 19.4409C77.0165 19.9189 76.9692 20.4119 76.9692 20.9049L76.4712 20.9223L76.4737 20.9248ZM92.0055 19.396C91.9059 18.9105 91.759 18.4325 91.5697 17.9743L92.0279 17.7826C92.232 18.2706 92.3889 18.7785 92.4935 19.2989L92.0055 19.3985V19.396ZM77.5419 18.0191L77.0812 17.8299C77.2829 17.3419 77.5344 16.8713 77.8257 16.4306L78.239 16.707C77.9651 17.1203 77.7286 17.561 77.5394 18.0191H77.5419ZM90.8626 16.6671C90.5863 16.2563 90.2675 15.8704 89.914 15.5218L90.2651 15.1682C90.641 15.5417 90.9796 15.9526 91.2759 16.3883L90.8626 16.6671ZM79.1827 15.5542L78.8291 15.2031C79.2026 14.8296 79.6134 14.4885 80.0516 14.1947L80.3305 14.608C79.9197 14.8844 79.5337 15.2031 79.1827 15.5567V15.5542ZM88.7587 14.5806C88.3454 14.3068 87.9022 14.0702 87.444 13.8835L87.6333 13.4229C88.1213 13.6245 88.5919 13.8735 89.0326 14.1673L88.7562 14.5831L88.7587 14.5806ZM81.6377 13.9009L81.446 13.4403C81.934 13.2361 82.4444 13.0793 82.9623 12.9772L83.0594 13.4652C82.5739 13.5623 82.0958 13.7092 81.6377 13.9009ZM86.0223 13.4552C85.5468 13.3631 85.0563 13.3158 84.5658 13.3158L84.5409 12.8178H84.5658C85.0886 12.8178 85.609 12.8676 86.1169 12.9672L86.0223 13.4552Z" fill="url(#paint22_linear_675_39699)"/>
    <path d="M111.053 36.4616L109.98 35.976L110.186 35.5229L110.475 35.6524L110.443 35.3386L110.938 35.2913L111.053 36.4616Z" fill="url(#paint23_linear_675_39699)"/>
    <path d="M110.311 33.9418L110.177 32.5475L110.672 32.5002L110.806 33.8945L110.311 33.9418ZM110.042 31.1532L109.908 29.7588L110.403 29.7115L110.538 31.1059L110.042 31.1532ZM109.773 28.3645L109.639 26.9702L110.134 26.9229L110.269 28.3172L109.773 28.3645ZM109.504 25.5734L109.37 24.1791L109.865 24.1318L110 25.5261L109.504 25.5734ZM109.238 22.7847L109.103 21.3904L109.599 21.3431L109.733 22.7374L109.238 22.7847Z" fill="url(#paint24_linear_675_39699)"/>
    <path d="M108.969 19.9936L108.939 19.6824L108.685 19.8666L108.394 19.4633L109.35 18.7711L109.464 19.9463L108.969 19.9936Z" fill="url(#paint25_linear_675_39699)"/>
    <path d="M97.3238 28.0682L97.0325 27.6649L98.1679 26.8457L98.4592 27.2491L97.3238 28.0682ZM99.5946 26.4274L99.3033 26.024L100.439 25.2049L100.73 25.6082L99.5946 26.4274ZM101.868 24.7866L101.577 24.3832L102.712 23.5641L103.003 23.9674L101.868 24.7866ZM104.141 23.1458L103.85 22.7424L104.985 21.9232L105.276 22.3266L104.141 23.1458ZM106.412 21.5074L106.121 21.1041L107.256 20.2849L107.547 20.6883L106.412 21.5074Z" fill="url(#paint26_linear_675_39699)"/>
    <path d="M96.0142 29.6593L94.941 29.1737L95.8947 28.484L96.186 28.8899L95.9295 29.0741L96.2183 29.2061L96.0142 29.6593Z" fill="url(#paint27_linear_675_39699)"/>
    <path d="M108.71 35.4009L107.44 34.8257L107.644 34.3726L108.914 34.9477L108.71 35.4009ZM106.17 34.253L104.9 33.6779L105.105 33.2247L106.374 33.7999L106.17 34.253ZM103.631 33.1052L102.361 32.5301L102.565 32.0769L103.835 32.6521L103.631 33.1052ZM101.091 31.9549L99.8212 31.3797L100.025 30.9266L101.295 31.5017L101.091 31.9549ZM98.5538 30.8071L97.284 30.2319L97.4882 29.7788L98.758 30.3539L98.5538 30.8071Z" fill="url(#paint28_linear_675_39699)"/>
    <path d="M39.8876 51.0148H122.88V130.374C122.88 132.379 121.251 134.007 119.247 134.007H43.5203C41.516 134.007 39.8876 132.379 39.8876 130.374V51.0148Z" fill="url(#paint29_linear_675_39699)"/>
    <path d="M39.8876 51.0148H122.88V130.374C122.88 132.379 121.251 134.007 119.247 134.007H43.5203C41.516 134.007 39.8876 132.379 39.8876 130.374V51.0148Z" fill="url(#paint30_linear_675_39699)"/>
    <path d="M39.8876 51.0148H122.88V130.374C122.88 132.379 121.251 134.007 119.247 134.007H43.5203C41.516 134.007 39.8876 132.379 39.8876 130.374V51.0148Z" fill="url(#paint31_linear_675_39699)"/>
    <path d="M125.967 71.7454H36.8027C35.6399 71.7454 34.7934 70.6474 35.0847 69.5245L39.8901 51.0148H122.882L127.688 69.5245C127.979 70.6499 127.13 71.7454 125.97 71.7454H125.967Z" fill="white"/>
    <path d="M125.967 71.7454H36.8027C35.6399 71.7454 34.7934 70.6474 35.0847 69.5245L39.8901 51.0148H122.882L127.688 69.5245C127.979 70.6499 127.13 71.7454 125.97 71.7454H125.967Z" fill="url(#paint32_linear_675_39699)"/>
    <path d="M88.0789 79.2748H74.686C73.5212 79.2748 72.577 80.219 72.577 81.3837C72.577 82.5484 73.5212 83.4926 74.686 83.4926H88.0789C89.2437 83.4926 90.1879 82.5484 90.1879 81.3837C90.1879 80.219 89.2437 79.2748 88.0789 79.2748Z" fill="#0C112C"/>
    <path opacity="0.3" d="M88.0789 79.2748H74.686C73.5212 79.2748 72.577 80.219 72.577 81.3837C72.577 82.5484 73.5212 83.4926 74.686 83.4926H88.0789C89.2437 83.4926 90.1879 82.5484 90.1879 81.3837C90.1879 80.219 89.2437 79.2748 88.0789 79.2748Z" fill="url(#paint33_linear_675_39699)"/>
    <defs>
        <radialGradient id="paint0_radial_675_39699" cx="0" cy="0" r="1" gradientUnits="userSpaceOnUse" gradientTransform="translate(81.0276 -12.4369) scale(145.097)">
            <stop stop-color="#0C112C"/>
            <stop offset="0.01" stop-color="#0C112C" stop-opacity="0.98"/>
            <stop offset="0.38" stop-color="#0C112C" stop-opacity="0.44"/>
            <stop offset="0.71" stop-color="#0C112C" stop-opacity="0.11"/>
            <stop offset="1" stop-color="#0C112C" stop-opacity="0"/>
        </radialGradient>
        <radialGradient id="paint1_radial_675_39699" cx="0" cy="0" r="1" gradientUnits="userSpaceOnUse" gradientTransform="translate(80.948 96.7611) scale(84.0927 84.0927)">
            <stop stop-color="#0C112C"/>
            <stop offset="0.01" stop-color="#0C112C" stop-opacity="0.98"/>
            <stop offset="0.38" stop-color="#0C112C" stop-opacity="0.44"/>
            <stop offset="0.71" stop-color="#0C112C" stop-opacity="0.11"/>
            <stop offset="1" stop-color="#0C112C" stop-opacity="0"/>
        </radialGradient>
        <linearGradient id="paint2_linear_675_39699" x1="99.3774" y1="38.4245" x2="86.0217" y2="71.8186" gradientUnits="userSpaceOnUse">
            <stop stop-color="white"/>
            <stop offset="0.08" stop-color="white" stop-opacity="0.86"/>
            <stop offset="0.22" stop-color="white" stop-opacity="0.64"/>
            <stop offset="0.36" stop-color="white" stop-opacity="0.44"/>
            <stop offset="0.5" stop-color="white" stop-opacity="0.28"/>
            <stop offset="0.64" stop-color="white" stop-opacity="0.16"/>
            <stop offset="0.77" stop-color="white" stop-opacity="0.07"/>
            <stop offset="0.89" stop-color="white" stop-opacity="0.02"/>
            <stop offset="1" stop-color="white" stop-opacity="0"/>
        </linearGradient>
        <linearGradient id="paint3_linear_675_39699" x1="63.8775" y1="26.6366" x2="63.8775" y2="95.6357" gradientUnits="userSpaceOnUse">
            <stop stop-color="white"/>
            <stop offset="0.08" stop-color="white" stop-opacity="0.86"/>
            <stop offset="0.22" stop-color="white" stop-opacity="0.64"/>
            <stop offset="0.36" stop-color="white" stop-opacity="0.44"/>
            <stop offset="0.5" stop-color="white" stop-opacity="0.28"/>
            <stop offset="0.64" stop-color="white" stop-opacity="0.16"/>
            <stop offset="0.77" stop-color="white" stop-opacity="0.07"/>
            <stop offset="0.89" stop-color="white" stop-opacity="0.02"/>
            <stop offset="1" stop-color="white" stop-opacity="0"/>
        </linearGradient>
        <linearGradient id="paint4_linear_675_39699" x1="84.5633" y1="21.861" x2="84.5633" y2="39.8578" gradientUnits="userSpaceOnUse">
            <stop stop-color="white"/>
            <stop offset="0.08" stop-color="white" stop-opacity="0.86"/>
            <stop offset="0.22" stop-color="white" stop-opacity="0.64"/>
            <stop offset="0.36" stop-color="white" stop-opacity="0.44"/>
            <stop offset="0.5" stop-color="white" stop-opacity="0.28"/>
            <stop offset="0.64" stop-color="white" stop-opacity="0.16"/>
            <stop offset="0.77" stop-color="white" stop-opacity="0.07"/>
            <stop offset="0.89" stop-color="white" stop-opacity="0.02"/>
            <stop offset="1" stop-color="white" stop-opacity="0"/>
        </linearGradient>
        <linearGradient id="paint5_linear_675_39699" x1="105.655" y1="25.8547" x2="97.9214" y2="46.2418" gradientUnits="userSpaceOnUse">
            <stop stop-color="white"/>
            <stop offset="0.08" stop-color="white" stop-opacity="0.86"/>
            <stop offset="0.22" stop-color="white" stop-opacity="0.64"/>
            <stop offset="0.36" stop-color="white" stop-opacity="0.44"/>
            <stop offset="0.5" stop-color="white" stop-opacity="0.28"/>
            <stop offset="0.64" stop-color="white" stop-opacity="0.16"/>
            <stop offset="0.77" stop-color="white" stop-opacity="0.07"/>
            <stop offset="0.89" stop-color="white" stop-opacity="0.02"/>
            <stop offset="1" stop-color="white" stop-opacity="0"/>
        </linearGradient>
        <linearGradient id="paint6_linear_675_39699" x1="101.337" y1="39.9374" x2="101.337" y2="83.5175" gradientUnits="userSpaceOnUse">
            <stop stop-color="white"/>
            <stop offset="0.08" stop-color="white" stop-opacity="0.86"/>
            <stop offset="0.22" stop-color="white" stop-opacity="0.64"/>
            <stop offset="0.36" stop-color="white" stop-opacity="0.44"/>
            <stop offset="0.5" stop-color="white" stop-opacity="0.28"/>
            <stop offset="0.64" stop-color="white" stop-opacity="0.16"/>
            <stop offset="0.77" stop-color="white" stop-opacity="0.07"/>
            <stop offset="0.89" stop-color="white" stop-opacity="0.02"/>
            <stop offset="1" stop-color="white" stop-opacity="0"/>
        </linearGradient>
        <linearGradient id="paint7_linear_675_39699" x1="88.9405" y1="39.9374" x2="88.9405" y2="83.5175" gradientUnits="userSpaceOnUse">
            <stop stop-color="white"/>
            <stop offset="0.08" stop-color="white" stop-opacity="0.86"/>
            <stop offset="0.22" stop-color="white" stop-opacity="0.64"/>
            <stop offset="0.36" stop-color="white" stop-opacity="0.44"/>
            <stop offset="0.5" stop-color="white" stop-opacity="0.28"/>
            <stop offset="0.64" stop-color="white" stop-opacity="0.16"/>
            <stop offset="0.77" stop-color="white" stop-opacity="0.07"/>
            <stop offset="0.89" stop-color="white" stop-opacity="0.02"/>
            <stop offset="1" stop-color="white" stop-opacity="0"/>
        </linearGradient>
        <linearGradient id="paint8_linear_675_39699" x1="76.643" y1="39.9374" x2="76.643" y2="83.5175" gradientUnits="userSpaceOnUse">
            <stop stop-color="white"/>
            <stop offset="0.08" stop-color="white" stop-opacity="0.86"/>
            <stop offset="0.22" stop-color="white" stop-opacity="0.64"/>
            <stop offset="0.36" stop-color="white" stop-opacity="0.44"/>
            <stop offset="0.5" stop-color="white" stop-opacity="0.28"/>
            <stop offset="0.64" stop-color="white" stop-opacity="0.16"/>
            <stop offset="0.77" stop-color="white" stop-opacity="0.07"/>
            <stop offset="0.89" stop-color="white" stop-opacity="0.02"/>
            <stop offset="1" stop-color="white" stop-opacity="0"/>
        </linearGradient>
        <linearGradient id="paint9_linear_675_39699" x1="81.8169" y1="39.9374" x2="81.8169" y2="83.5175" gradientUnits="userSpaceOnUse">
            <stop stop-color="white"/>
            <stop offset="0.08" stop-color="white" stop-opacity="0.86"/>
            <stop offset="0.22" stop-color="white" stop-opacity="0.64"/>
            <stop offset="0.36" stop-color="white" stop-opacity="0.44"/>
            <stop offset="0.5" stop-color="white" stop-opacity="0.28"/>
            <stop offset="0.64" stop-color="white" stop-opacity="0.16"/>
            <stop offset="0.77" stop-color="white" stop-opacity="0.07"/>
            <stop offset="0.89" stop-color="white" stop-opacity="0.02"/>
            <stop offset="1" stop-color="white" stop-opacity="0"/>
        </linearGradient>
        <linearGradient id="paint10_linear_675_39699" x1="87.3519" y1="39.9374" x2="87.3519" y2="83.5175" gradientUnits="userSpaceOnUse">
            <stop stop-color="white"/>
            <stop offset="0.08" stop-color="white" stop-opacity="0.86"/>
            <stop offset="0.22" stop-color="white" stop-opacity="0.64"/>
            <stop offset="0.36" stop-color="white" stop-opacity="0.44"/>
            <stop offset="0.5" stop-color="white" stop-opacity="0.28"/>
            <stop offset="0.64" stop-color="white" stop-opacity="0.16"/>
            <stop offset="0.77" stop-color="white" stop-opacity="0.07"/>
            <stop offset="0.89" stop-color="white" stop-opacity="0.02"/>
            <stop offset="1" stop-color="white" stop-opacity="0"/>
        </linearGradient>
        <linearGradient id="paint11_linear_675_39699" x1="99.7514" y1="39.9374" x2="99.7514" y2="83.5175" gradientUnits="userSpaceOnUse">
            <stop stop-color="white"/>
            <stop offset="0.08" stop-color="white" stop-opacity="0.86"/>
            <stop offset="0.22" stop-color="white" stop-opacity="0.64"/>
            <stop offset="0.36" stop-color="white" stop-opacity="0.44"/>
            <stop offset="0.5" stop-color="white" stop-opacity="0.28"/>
            <stop offset="0.64" stop-color="white" stop-opacity="0.16"/>
            <stop offset="0.77" stop-color="white" stop-opacity="0.07"/>
            <stop offset="0.89" stop-color="white" stop-opacity="0.02"/>
            <stop offset="1" stop-color="white" stop-opacity="0"/>
        </linearGradient>
        <linearGradient id="paint12_linear_675_39699" x1="112.049" y1="39.9374" x2="112.049" y2="83.5175" gradientUnits="userSpaceOnUse">
            <stop stop-color="white"/>
            <stop offset="0.08" stop-color="white" stop-opacity="0.86"/>
            <stop offset="0.22" stop-color="white" stop-opacity="0.64"/>
            <stop offset="0.36" stop-color="white" stop-opacity="0.44"/>
            <stop offset="0.5" stop-color="white" stop-opacity="0.28"/>
            <stop offset="0.64" stop-color="white" stop-opacity="0.16"/>
            <stop offset="0.77" stop-color="white" stop-opacity="0.07"/>
            <stop offset="0.89" stop-color="white" stop-opacity="0.02"/>
            <stop offset="1" stop-color="white" stop-opacity="0"/>
        </linearGradient>
        <linearGradient id="paint13_linear_675_39699" x1="106.872" y1="39.9374" x2="106.872" y2="83.5175" gradientUnits="userSpaceOnUse">
            <stop stop-color="white"/>
            <stop offset="0.08" stop-color="white" stop-opacity="0.86"/>
            <stop offset="0.22" stop-color="white" stop-opacity="0.64"/>
            <stop offset="0.36" stop-color="white" stop-opacity="0.44"/>
            <stop offset="0.5" stop-color="white" stop-opacity="0.28"/>
            <stop offset="0.64" stop-color="white" stop-opacity="0.16"/>
            <stop offset="0.77" stop-color="white" stop-opacity="0.07"/>
            <stop offset="0.89" stop-color="white" stop-opacity="0.02"/>
            <stop offset="1" stop-color="white" stop-opacity="0"/>
        </linearGradient>
        <linearGradient id="paint14_linear_675_39699" x1="72.3281" y1="20.0185" x2="72.3281" y2="63.3944" gradientUnits="userSpaceOnUse">
            <stop stop-color="white"/>
            <stop offset="0.08" stop-color="white" stop-opacity="0.86"/>
            <stop offset="0.22" stop-color="white" stop-opacity="0.64"/>
            <stop offset="0.36" stop-color="white" stop-opacity="0.44"/>
            <stop offset="0.5" stop-color="white" stop-opacity="0.28"/>
            <stop offset="0.64" stop-color="white" stop-opacity="0.16"/>
            <stop offset="0.77" stop-color="white" stop-opacity="0.07"/>
            <stop offset="0.89" stop-color="white" stop-opacity="0.02"/>
            <stop offset="1" stop-color="white" stop-opacity="0"/>
        </linearGradient>
        <linearGradient id="paint15_linear_675_39699" x1="63.8775" y1="20.0185" x2="63.8775" y2="63.3944" gradientUnits="userSpaceOnUse">
            <stop stop-color="white"/>
            <stop offset="0.08" stop-color="white" stop-opacity="0.86"/>
            <stop offset="0.22" stop-color="white" stop-opacity="0.64"/>
            <stop offset="0.36" stop-color="white" stop-opacity="0.44"/>
            <stop offset="0.5" stop-color="white" stop-opacity="0.28"/>
            <stop offset="0.64" stop-color="white" stop-opacity="0.16"/>
            <stop offset="0.77" stop-color="white" stop-opacity="0.07"/>
            <stop offset="0.89" stop-color="white" stop-opacity="0.02"/>
            <stop offset="1" stop-color="white" stop-opacity="0"/>
        </linearGradient>
        <linearGradient id="paint16_linear_675_39699" x1="55.4269" y1="20.0185" x2="55.4269" y2="63.3944" gradientUnits="userSpaceOnUse">
            <stop stop-color="white"/>
            <stop offset="0.08" stop-color="white" stop-opacity="0.86"/>
            <stop offset="0.22" stop-color="white" stop-opacity="0.64"/>
            <stop offset="0.36" stop-color="white" stop-opacity="0.44"/>
            <stop offset="0.5" stop-color="white" stop-opacity="0.28"/>
            <stop offset="0.64" stop-color="white" stop-opacity="0.16"/>
            <stop offset="0.77" stop-color="white" stop-opacity="0.07"/>
            <stop offset="0.89" stop-color="white" stop-opacity="0.02"/>
            <stop offset="1" stop-color="white" stop-opacity="0"/>
        </linearGradient>
        <linearGradient id="paint17_linear_675_39699" x1="55.1779" y1="20.0185" x2="55.1779" y2="63.3944" gradientUnits="userSpaceOnUse">
            <stop stop-color="white"/>
            <stop offset="0.08" stop-color="white" stop-opacity="0.86"/>
            <stop offset="0.22" stop-color="white" stop-opacity="0.64"/>
            <stop offset="0.36" stop-color="white" stop-opacity="0.44"/>
            <stop offset="0.5" stop-color="white" stop-opacity="0.28"/>
            <stop offset="0.64" stop-color="white" stop-opacity="0.16"/>
            <stop offset="0.77" stop-color="white" stop-opacity="0.07"/>
            <stop offset="0.89" stop-color="white" stop-opacity="0.02"/>
            <stop offset="1" stop-color="white" stop-opacity="0"/>
        </linearGradient>
        <linearGradient id="paint18_linear_675_39699" x1="55.4269" y1="20.0185" x2="55.4269" y2="63.3944" gradientUnits="userSpaceOnUse">
            <stop stop-color="white"/>
            <stop offset="0.08" stop-color="white" stop-opacity="0.86"/>
            <stop offset="0.22" stop-color="white" stop-opacity="0.64"/>
            <stop offset="0.36" stop-color="white" stop-opacity="0.44"/>
            <stop offset="0.5" stop-color="white" stop-opacity="0.28"/>
            <stop offset="0.64" stop-color="white" stop-opacity="0.16"/>
            <stop offset="0.77" stop-color="white" stop-opacity="0.07"/>
            <stop offset="0.89" stop-color="white" stop-opacity="0.02"/>
            <stop offset="1" stop-color="white" stop-opacity="0"/>
        </linearGradient>
        <linearGradient id="paint19_linear_675_39699" x1="63.8775" y1="20.0185" x2="63.8775" y2="63.3944" gradientUnits="userSpaceOnUse">
            <stop stop-color="white"/>
            <stop offset="0.08" stop-color="white" stop-opacity="0.86"/>
            <stop offset="0.22" stop-color="white" stop-opacity="0.64"/>
            <stop offset="0.36" stop-color="white" stop-opacity="0.44"/>
            <stop offset="0.5" stop-color="white" stop-opacity="0.28"/>
            <stop offset="0.64" stop-color="white" stop-opacity="0.16"/>
            <stop offset="0.77" stop-color="white" stop-opacity="0.07"/>
            <stop offset="0.89" stop-color="white" stop-opacity="0.02"/>
            <stop offset="1" stop-color="white" stop-opacity="0"/>
        </linearGradient>
        <linearGradient id="paint20_linear_675_39699" x1="72.3281" y1="20.0185" x2="72.3281" y2="63.3944" gradientUnits="userSpaceOnUse">
            <stop stop-color="white"/>
            <stop offset="0.08" stop-color="white" stop-opacity="0.86"/>
            <stop offset="0.22" stop-color="white" stop-opacity="0.64"/>
            <stop offset="0.36" stop-color="white" stop-opacity="0.44"/>
            <stop offset="0.5" stop-color="white" stop-opacity="0.28"/>
            <stop offset="0.64" stop-color="white" stop-opacity="0.16"/>
            <stop offset="0.77" stop-color="white" stop-opacity="0.07"/>
            <stop offset="0.89" stop-color="white" stop-opacity="0.02"/>
            <stop offset="1" stop-color="white" stop-opacity="0"/>
        </linearGradient>
        <linearGradient id="paint21_linear_675_39699" x1="72.5771" y1="20.0185" x2="72.5771" y2="63.3944" gradientUnits="userSpaceOnUse">
            <stop stop-color="white"/>
            <stop offset="0.08" stop-color="white" stop-opacity="0.86"/>
            <stop offset="0.22" stop-color="white" stop-opacity="0.64"/>
            <stop offset="0.36" stop-color="white" stop-opacity="0.44"/>
            <stop offset="0.5" stop-color="white" stop-opacity="0.28"/>
            <stop offset="0.64" stop-color="white" stop-opacity="0.16"/>
            <stop offset="0.77" stop-color="white" stop-opacity="0.07"/>
            <stop offset="0.89" stop-color="white" stop-opacity="0.02"/>
            <stop offset="1" stop-color="white" stop-opacity="0"/>
        </linearGradient>
        <linearGradient id="paint22_linear_675_39699" x1="85.9651" y1="19.5081" x2="71.1205" y2="34.3526" gradientUnits="userSpaceOnUse">
            <stop stop-color="white"/>
            <stop offset="0.08" stop-color="white" stop-opacity="0.86"/>
            <stop offset="0.22" stop-color="white" stop-opacity="0.64"/>
            <stop offset="0.36" stop-color="white" stop-opacity="0.44"/>
            <stop offset="0.5" stop-color="white" stop-opacity="0.28"/>
            <stop offset="0.64" stop-color="white" stop-opacity="0.16"/>
            <stop offset="0.77" stop-color="white" stop-opacity="0.07"/>
            <stop offset="0.89" stop-color="white" stop-opacity="0.02"/>
            <stop offset="1" stop-color="white" stop-opacity="0"/>
        </linearGradient>
        <linearGradient id="paint23_linear_675_39699" x1="110.515" y1="26.6988" x2="110.515" y2="40.6396" gradientUnits="userSpaceOnUse">
            <stop stop-color="white"/>
            <stop offset="0.08" stop-color="white" stop-opacity="0.86"/>
            <stop offset="0.22" stop-color="white" stop-opacity="0.64"/>
            <stop offset="0.36" stop-color="white" stop-opacity="0.44"/>
            <stop offset="0.5" stop-color="white" stop-opacity="0.28"/>
            <stop offset="0.64" stop-color="white" stop-opacity="0.16"/>
            <stop offset="0.77" stop-color="white" stop-opacity="0.07"/>
            <stop offset="0.89" stop-color="white" stop-opacity="0.02"/>
            <stop offset="1" stop-color="white" stop-opacity="0"/>
        </linearGradient>
        <linearGradient id="paint24_linear_675_39699" x1="109.955" y1="26.6988" x2="109.955" y2="40.6395" gradientUnits="userSpaceOnUse">
            <stop stop-color="white"/>
            <stop offset="0.08" stop-color="white" stop-opacity="0.86"/>
            <stop offset="0.22" stop-color="white" stop-opacity="0.64"/>
            <stop offset="0.36" stop-color="white" stop-opacity="0.44"/>
            <stop offset="0.5" stop-color="white" stop-opacity="0.28"/>
            <stop offset="0.64" stop-color="white" stop-opacity="0.16"/>
            <stop offset="0.77" stop-color="white" stop-opacity="0.07"/>
            <stop offset="0.89" stop-color="white" stop-opacity="0.02"/>
            <stop offset="1" stop-color="white" stop-opacity="0"/>
        </linearGradient>
        <linearGradient id="paint25_linear_675_39699" x1="108.929" y1="26.6988" x2="108.929" y2="40.6396" gradientUnits="userSpaceOnUse">
            <stop stop-color="white"/>
            <stop offset="0.08" stop-color="white" stop-opacity="0.86"/>
            <stop offset="0.22" stop-color="white" stop-opacity="0.64"/>
            <stop offset="0.36" stop-color="white" stop-opacity="0.44"/>
            <stop offset="0.5" stop-color="white" stop-opacity="0.28"/>
            <stop offset="0.64" stop-color="white" stop-opacity="0.16"/>
            <stop offset="0.77" stop-color="white" stop-opacity="0.07"/>
            <stop offset="0.89" stop-color="white" stop-opacity="0.02"/>
            <stop offset="1" stop-color="white" stop-opacity="0"/>
        </linearGradient>
        <linearGradient id="paint26_linear_675_39699" x1="102.291" y1="26.6988" x2="102.291" y2="40.6395" gradientUnits="userSpaceOnUse">
            <stop stop-color="white"/>
            <stop offset="0.08" stop-color="white" stop-opacity="0.86"/>
            <stop offset="0.22" stop-color="white" stop-opacity="0.64"/>
            <stop offset="0.36" stop-color="white" stop-opacity="0.44"/>
            <stop offset="0.5" stop-color="white" stop-opacity="0.28"/>
            <stop offset="0.64" stop-color="white" stop-opacity="0.16"/>
            <stop offset="0.77" stop-color="white" stop-opacity="0.07"/>
            <stop offset="0.89" stop-color="white" stop-opacity="0.02"/>
            <stop offset="1" stop-color="white" stop-opacity="0"/>
        </linearGradient>
        <linearGradient id="paint27_linear_675_39699" x1="95.5809" y1="26.6988" x2="95.5809" y2="40.6396" gradientUnits="userSpaceOnUse">
            <stop stop-color="white"/>
            <stop offset="0.08" stop-color="white" stop-opacity="0.86"/>
            <stop offset="0.22" stop-color="white" stop-opacity="0.64"/>
            <stop offset="0.36" stop-color="white" stop-opacity="0.44"/>
            <stop offset="0.5" stop-color="white" stop-opacity="0.28"/>
            <stop offset="0.64" stop-color="white" stop-opacity="0.16"/>
            <stop offset="0.77" stop-color="white" stop-opacity="0.07"/>
            <stop offset="0.89" stop-color="white" stop-opacity="0.02"/>
            <stop offset="1" stop-color="white" stop-opacity="0"/>
        </linearGradient>
        <linearGradient id="paint28_linear_675_39699" x1="103.1" y1="26.6988" x2="103.1" y2="40.6396" gradientUnits="userSpaceOnUse">
            <stop stop-color="white"/>
            <stop offset="0.08" stop-color="white" stop-opacity="0.86"/>
            <stop offset="0.22" stop-color="white" stop-opacity="0.64"/>
            <stop offset="0.36" stop-color="white" stop-opacity="0.44"/>
            <stop offset="0.5" stop-color="white" stop-opacity="0.28"/>
            <stop offset="0.64" stop-color="white" stop-opacity="0.16"/>
            <stop offset="0.77" stop-color="white" stop-opacity="0.07"/>
            <stop offset="0.89" stop-color="white" stop-opacity="0.02"/>
            <stop offset="1" stop-color="white" stop-opacity="0"/>
        </linearGradient>
        <linearGradient id="paint29_linear_675_39699" x1="81.3837" y1="-2.41267" x2="81.3837" y2="238.245" gradientUnits="userSpaceOnUse">
            <stop stop-color="#0C112C"/>
            <stop offset="0.01" stop-color="#0C112C" stop-opacity="0.98"/>
            <stop offset="0.38" stop-color="#0C112C" stop-opacity="0.44"/>
            <stop offset="0.71" stop-color="#0C112C" stop-opacity="0.11"/>
            <stop offset="1" stop-color="#0C112C" stop-opacity="0"/>
        </linearGradient>
        <linearGradient id="paint30_linear_675_39699" x1="81.3837" y1="59.0023" x2="81.3837" y2="98.7107" gradientUnits="userSpaceOnUse">
            <stop stop-color="#0C112C"/>
            <stop offset="0.01" stop-color="#0C112C" stop-opacity="0.98"/>
            <stop offset="0.38" stop-color="#0C112C" stop-opacity="0.44"/>
            <stop offset="0.71" stop-color="#0C112C" stop-opacity="0.11"/>
            <stop offset="1" stop-color="#0C112C" stop-opacity="0"/>
        </linearGradient>
        <linearGradient id="paint31_linear_675_39699" x1="81.3837" y1="147.129" x2="81.3837" y2="126.475" gradientUnits="userSpaceOnUse">
            <stop stop-color="#0C112C"/>
            <stop offset="0.01" stop-color="#0C112C" stop-opacity="0.98"/>
            <stop offset="0.38" stop-color="#0C112C" stop-opacity="0.44"/>
            <stop offset="0.71" stop-color="#0C112C" stop-opacity="0.11"/>
            <stop offset="1" stop-color="#0C112C" stop-opacity="0"/>
        </linearGradient>
        <linearGradient id="paint32_linear_675_39699" x1="199.157" y1="61.3801" x2="-55.6285" y2="61.3801" gradientUnits="userSpaceOnUse">
            <stop stop-color="#0C112C"/>
            <stop offset="0.01" stop-color="#0C112C" stop-opacity="0.98"/>
            <stop offset="0.38" stop-color="#0C112C" stop-opacity="0.44"/>
            <stop offset="0.71" stop-color="#0C112C" stop-opacity="0.11"/>
            <stop offset="1" stop-color="#0C112C" stop-opacity="0"/>
        </linearGradient>
        <linearGradient id="paint33_linear_675_39699" x1="110.259" y1="81.3837" x2="51.2937" y2="81.3837" gradientUnits="userSpaceOnUse">
            <stop stop-color="white"/>
            <stop offset="0.08" stop-color="white" stop-opacity="0.86"/>
            <stop offset="0.22" stop-color="white" stop-opacity="0.64"/>
            <stop offset="0.36" stop-color="white" stop-opacity="0.44"/>
            <stop offset="0.5" stop-color="white" stop-opacity="0.28"/>
            <stop offset="0.64" stop-color="white" stop-opacity="0.16"/>
            <stop offset="0.77" stop-color="white" stop-opacity="0.07"/>
            <stop offset="0.89" stop-color="white" stop-opacity="0.02"/>
            <stop offset="1" stop-color="white" stop-opacity="0"/>
        </linearGradient>
    </defs>
</svg>
