<svg width="188" height="98" viewBox="0 0 188 98" fill="none" xmlns="http://www.w3.org/2000/svg">
<mask id="mask0_111_349" style="mask-type:luminance" maskUnits="userSpaceOnUse" x="50" y="5" width="87" height="89">
<path d="M50 5H137V93.747H50V5Z" fill="white"/>
</mask>
<g mask="url(#mask0_111_349)">
<path d="M112.193 21.771L111.053 17.3965L109.59 11.9714L109.434 11.3583V11.3569L108.342 7.06276C108.162 6.35966 107.711 5.75652 107.087 5.38571C106.463 5.01489 105.718 4.90668 105.014 5.08482L97.7567 6.92964L52.4098 18.4636C51.7067 18.6434 51.1037 19.0947 50.7329 19.7185C50.3622 20.3424 50.254 21.0878 50.4322 21.7913L51.9972 27.9459L54.5942 37.8143L55.357 40.5123L55.4338 40.8135H55.7651L55.6882 40.5123L54.9918 38.0718V38.0704L52.2229 27.5284L50.7442 21.7127C50.5869 21.0917 50.6824 20.4337 51.0096 19.883C51.3369 19.3323 51.8692 18.934 52.4898 18.7753L97.7417 7.26611L105.093 5.39683C105.714 5.23965 106.372 5.33514 106.922 5.66238C107.473 5.98961 107.871 6.52187 108.03 7.14242L109.19 11.7003L109.347 12.3194L110.731 17.4388L111.86 21.771L111.941 22.0935H112.276L112.193 21.771Z" fill="#CBD5E0"/>
<path d="M65.5153 39.5371C69.8045 39.5371 73.2818 36.0599 73.2818 31.7711C73.2818 27.4819 69.8045 24.005 65.5153 24.005C61.2261 24.005 57.7489 27.4819 57.7489 31.7711C57.7489 36.0599 61.2261 39.5371 65.5153 39.5371Z" fill="#EDF2F7"/>
<path d="M74.9819 31.5541V47.4517L74.6325 46.9276L68.5181 41.3372C68.1058 40.9728 67.3214 40.6381 66.7711 40.6384H62.0542L69.2266 21.4478L70.0851 19.1536C70.1378 19.0125 70.2239 18.8863 70.336 18.7858C70.4481 18.6852 70.5829 18.6133 70.7289 18.5761C70.8748 18.539 71.0276 18.5377 71.1742 18.5724C71.3207 18.6072 71.4567 18.6769 71.5704 18.7756L76.0301 22.2951C76.0301 22.2951 74.9819 22.6445 74.9819 24.042C74.9819 25.4396 74.9879 26.2747 74.9819 31.5541ZM99.6145 21.771H92.8012L93.9759 18.6341C94.0285 18.4933 94.1144 18.3674 94.2262 18.267C94.3381 18.1667 94.4725 18.0948 94.6182 18.0577C94.7638 18.0206 94.9162 18.0192 95.0624 18.0537C95.2087 18.0883 95.3444 18.1577 95.458 18.256L99.6145 21.771ZM114.738 24.9823C114.032 24.9818 113.336 25.1452 112.704 25.4594C112.072 25.7737 111.521 26.2304 111.096 26.7936C110.639 26.5971 110.14 26.5172 109.645 26.5609C109.15 26.6046 108.673 26.7705 108.258 27.0439C107.842 27.3173 107.501 27.6895 107.265 28.1271C107.029 28.5647 106.906 29.0541 106.905 29.5513H119.307C119.307 28.3396 118.825 27.1776 117.969 26.3208C117.112 25.464 115.95 24.9826 114.738 24.9823Z" fill="#E2E8F0"/>
<path d="M131.869 21.8209H77.5912C76.9806 21.822 76.3877 22.0267 75.9064 22.4026C75.4252 22.7785 75.083 23.3041 74.9341 23.8963V23.8981C74.88 24.1143 74.8527 24.3363 74.8526 24.5592V47.4999L75.0291 47.655L75.1751 47.7843V24.5592C75.1758 23.9186 75.4305 23.3044 75.8835 22.8514C76.3365 22.3985 76.9506 22.1437 77.5912 22.1431H131.869C132.51 22.1435 133.124 22.3982 133.577 22.8512C134.03 23.3042 134.285 23.9185 134.286 24.5592V52.475H134.439C134.496 52.4746 134.552 52.4771 134.608 52.4827V24.5592C134.607 23.8332 134.318 23.1374 133.805 22.6241C133.291 22.1109 132.595 21.822 131.869 21.8209Z" fill="#CBD5E0"/>
<path d="M87.3583 42.7152C91.4218 42.7152 94.7163 39.4211 94.7163 35.3576C94.7163 33.3692 93.9274 31.565 92.6456 30.2408C91.3079 28.859 89.4334 28 87.3583 28C83.2945 28 80 31.2941 80 35.3576C80 38.3258 81.7578 40.8835 84.2893 42.0467C85.2235 42.4759 86.2629 42.7152 87.3583 42.7152Z" fill="#DDABFE"/>
<path d="M131.93 52.475H81.4625C80.8389 52.4732 80.237 52.2459 79.768 51.8349L78.6352 50.8364L78.8085 50.5862L79.1216 50.1344L92.724 30.551L94.1205 28.5402C94.2065 28.4166 94.3211 28.3155 94.4546 28.2458C94.5881 28.176 94.7365 28.1395 94.8871 28.1395C95.0377 28.1395 95.1861 28.176 95.3196 28.2458C95.4531 28.3155 95.5677 28.4166 95.6537 28.5402L99.8989 34.6512V34.6526L102.396 38.2483L108.358 46.8309L117.401 33.9238C117.487 33.8006 117.601 33.7 117.735 33.6305C117.868 33.5611 118.016 33.5248 118.166 33.5248C118.316 33.5248 118.464 33.5611 118.598 33.6305C118.731 33.7 118.845 33.8006 118.931 33.9238L124.732 42.2024L125.065 42.6783L131.719 52.1739L131.93 52.475Z" fill="#A689B8"/>
<path d="M104.972 32.6113C104.102 32.6105 103.242 32.8118 102.462 33.1996C101.683 33.5873 101.003 34.1508 100.479 34.8457C99.9149 34.6031 99.2999 34.5043 98.6887 34.558C98.0775 34.6118 97.4892 34.8166 96.9767 35.1539C96.4642 35.4912 96.0434 35.9505 95.7522 36.4906C95.4611 37.0306 95.3086 37.6346 95.3085 38.2482H110.61C110.61 37.1332 110.279 36.0433 109.66 35.1163C109.04 34.1893 108.16 33.4669 107.13 33.0404C106.446 32.7571 105.713 32.6113 104.972 32.6113Z" fill="#CBD5E0"/>
<path d="M78.6247 50.4234L76.7509 48.7725L76.746 48.7697L76.7401 48.7651L76.7355 48.7606C76.6764 48.7182 76.6181 48.6745 76.5608 48.6296C76.5465 48.6195 76.5325 48.6089 76.5189 48.5978C76.5112 48.5918 76.5049 48.5873 76.498 48.5814C76.4945 48.58 76.4931 48.5768 76.4903 48.5754C76.4472 48.5417 76.4044 48.5076 76.362 48.473C76.3411 48.4577 76.3215 48.4412 76.3002 48.4248C76.2433 48.378 76.1859 48.3298 76.1286 48.2816C76.0685 48.2302 76.0081 48.1792 75.948 48.1264L75.9417 48.1219C75.9298 48.1114 75.9194 48.1009 75.9071 48.0918C75.8498 48.0405 75.7925 47.9895 75.7356 47.935C75.6875 47.8912 75.6397 47.8471 75.5923 47.8025C75.5481 47.7621 75.505 47.7204 75.463 47.6775L75.454 47.6684C75.4214 47.6373 75.3892 47.6057 75.3575 47.5737C75.3257 47.5436 75.2957 47.5118 75.2656 47.4804C75.2342 47.4503 75.2039 47.4191 75.1748 47.3868L75.151 47.3627L75.1433 47.3553L74.8526 47.0978V47.5L75.0291 47.6551L75.1751 47.7844L78.2708 50.5139L78.5615 50.7714L78.6349 50.8364L78.7048 50.7354L78.8085 50.5862L78.6247 50.4234ZM123.613 52.1739C123.618 52.2731 123.625 52.3741 123.633 52.475H134.286V52.1739H123.613ZM78.6247 50.4234L76.7509 48.7725L76.746 48.7697L76.7401 48.7651L76.7355 48.7606C76.6764 48.7182 76.6181 48.6745 76.5608 48.6296C76.5465 48.6195 76.5325 48.6089 76.5189 48.5978C76.5112 48.5918 76.5049 48.5873 76.498 48.5814C76.4945 48.58 76.4931 48.5768 76.4903 48.5754C76.4472 48.5417 76.4044 48.5076 76.362 48.473C76.3411 48.4577 76.3215 48.4412 76.3002 48.4248C76.2433 48.378 76.1859 48.3298 76.1286 48.2816C76.0685 48.2302 76.0081 48.1792 75.948 48.1264L75.9417 48.1219C75.9298 48.1114 75.9194 48.1009 75.9071 48.0918C75.8498 48.0405 75.7925 47.9895 75.7356 47.935C75.6875 47.8912 75.6397 47.8471 75.5923 47.8025C75.5481 47.7621 75.505 47.7204 75.463 47.6775L75.454 47.6684C75.4214 47.6373 75.3892 47.6057 75.3575 47.5737C75.3257 47.5436 75.2957 47.5118 75.2656 47.4804C75.2342 47.4503 75.2039 47.4191 75.1748 47.3868L75.151 47.3627L75.1433 47.3553L74.8526 47.0978V47.5L75.0291 47.6551L75.1751 47.7844L78.2708 50.5139L78.5615 50.7714L78.6349 50.8364L78.7048 50.7354L78.8085 50.5862L78.6247 50.4234ZM131.719 52.1739H123.613C123.618 52.2731 123.625 52.3741 123.633 52.475H131.93L131.719 52.1739ZM78.6244 50.4234L76.7509 48.7725L76.746 48.7697L76.7401 48.7651L76.7355 48.7606C76.6764 48.7182 76.6181 48.6745 76.5608 48.6296C76.5465 48.6195 76.5325 48.6089 76.5189 48.5978C76.5112 48.5918 76.5049 48.5873 76.498 48.5814C76.4945 48.58 76.4931 48.5768 76.4903 48.5754C76.4472 48.5417 76.4044 48.5076 76.362 48.473C76.3411 48.4577 76.3215 48.4412 76.3002 48.4248C76.2433 48.378 76.1859 48.3298 76.1286 48.2816C76.0685 48.2302 76.0081 48.1792 75.948 48.1264L75.9417 48.1219C75.9298 48.1114 75.9194 48.1009 75.9071 48.0918C75.8498 48.0405 75.7925 47.9895 75.7356 47.935C75.6875 47.8912 75.6397 47.8471 75.5923 47.8025C75.5481 47.7621 75.505 47.7204 75.463 47.6775L75.454 47.6684C75.4214 47.6373 75.3892 47.6057 75.3575 47.5737C75.3257 47.5436 75.2957 47.5118 75.2656 47.4804C75.2342 47.4503 75.2039 47.4191 75.1748 47.3868L75.151 47.3627L75.1433 47.3553L74.8526 47.0978V47.5L75.0291 47.6551L75.1751 47.7844L78.2708 50.5139L78.5615 50.7714L78.6349 50.8364L78.7048 50.7354L78.8085 50.5862L78.6247 50.4234H78.6244ZM71.3098 43.9735L68.3528 41.3663C67.8854 40.9536 67.2832 40.7259 66.6596 40.7262H57.801L57.8779 41.0274H66.6593C67.2097 41.027 67.7412 41.2279 68.1536 41.5924L70.9558 44.064L74.8523 47.5V47.0978L71.3094 43.9735H71.3098ZM134.608 52.1798C134.552 52.1755 134.496 52.1735 134.439 52.1739H81.4625C80.9121 52.1746 80.3805 51.9736 79.9682 51.6089L78.9168 50.6812L78.8085 50.5862L78.6247 50.4234L76.7509 48.7725L76.746 48.7697L76.7401 48.7651L76.7355 48.7606L75.484 47.6551L75.1751 47.3822L75.151 47.3627L75.1433 47.3553L74.8526 47.0978L71.3098 43.9735L68.3528 41.3663C67.8854 40.9536 67.2832 40.7259 66.6596 40.7262H53.6991C53.0202 40.7272 52.3694 40.9973 51.8894 41.4773C51.4093 41.9573 51.1391 42.6081 51.138 43.2869V91.1862C51.1387 91.8652 51.4088 92.5161 51.8889 92.9962C52.3691 93.4763 53.0201 93.7463 53.6991 93.7469H134.439C135.118 93.7459 135.769 93.4758 136.249 92.9958C136.729 92.5158 136.999 91.865 137 91.1862V54.7346C136.999 54.0851 136.751 53.4602 136.307 52.986C135.863 52.5119 135.256 52.2238 134.608 52.1798ZM136.699 91.1862C136.698 91.7852 136.46 92.3595 136.036 92.7829C135.613 93.2067 135.038 93.4451 134.439 93.4458H53.6991C53.0999 93.4453 52.5255 93.2071 52.1018 92.7834C51.6782 92.3598 51.44 91.7853 51.4395 91.1862V43.2869C51.4403 42.6879 51.6787 42.1137 52.1022 41.6901C52.5258 41.2665 53.1001 41.0282 53.6991 41.0274H66.6593C67.2097 41.027 67.7412 41.2279 68.1536 41.5924L70.9558 44.064L74.8526 47.5L75.0291 47.6551L75.1751 47.7844L78.2708 50.5139L78.5615 50.7714L78.6349 50.8364L79.768 51.8349C80.237 52.2459 80.8389 52.4733 81.4625 52.475H134.439C134.496 52.4743 134.552 52.4771 134.608 52.4827C135.176 52.5257 135.707 52.7815 136.095 53.199C136.482 53.6165 136.698 54.1649 136.699 54.7346V91.1862ZM78.6247 50.4234L76.7509 48.7725L76.746 48.7697L76.7401 48.7651L76.7355 48.7606C76.6764 48.7182 76.6181 48.6745 76.5608 48.6296C76.5465 48.6195 76.5325 48.6089 76.5189 48.5978C76.5112 48.5918 76.5049 48.5873 76.498 48.5814C76.4945 48.58 76.4931 48.5768 76.4903 48.5754C76.4472 48.5417 76.4044 48.5076 76.362 48.473C76.3411 48.4577 76.3215 48.4412 76.3002 48.4248C76.2433 48.378 76.1859 48.3298 76.1286 48.2816C76.0685 48.2302 76.0081 48.1792 75.948 48.1264L75.9417 48.1219C75.9298 48.1114 75.9194 48.1009 75.9071 48.0918C75.8498 48.0405 75.7925 47.9895 75.7356 47.935C75.6875 47.8912 75.6397 47.8471 75.5923 47.8025C75.5481 47.7621 75.505 47.7204 75.463 47.6775L75.454 47.6684C75.4214 47.6373 75.3892 47.6057 75.3575 47.5737C75.3257 47.5436 75.2957 47.5118 75.2656 47.4804C75.2342 47.4503 75.2039 47.4191 75.1748 47.3868L75.151 47.3627L75.1433 47.3553L74.8526 47.0978V47.5L75.0291 47.6551L75.1751 47.7844L78.2708 50.5139L78.5615 50.7714L78.6349 50.8364L78.7048 50.7354L78.8085 50.5862L78.6247 50.4234ZM123.613 52.1739C123.618 52.2731 123.625 52.3741 123.633 52.475H134.286V52.1739H123.613ZM78.6247 50.4234L76.7509 48.7725L76.746 48.7697L76.7401 48.7651L76.7355 48.7606C76.6764 48.7182 76.6181 48.6745 76.5608 48.6296C76.5465 48.6195 76.5325 48.6089 76.5189 48.5978C76.5112 48.5918 76.5049 48.5873 76.498 48.5814C76.4945 48.58 76.4931 48.5768 76.4903 48.5754C76.4472 48.5417 76.4044 48.5076 76.362 48.473C76.3411 48.4577 76.3215 48.4412 76.3002 48.4248C76.2433 48.378 76.1859 48.3298 76.1286 48.2816C76.0685 48.2302 76.0081 48.1792 75.948 48.1264L75.9417 48.1219C75.9298 48.1114 75.9194 48.1009 75.9071 48.0918C75.8498 48.0405 75.7925 47.9895 75.7356 47.935C75.6875 47.8912 75.6397 47.8471 75.5923 47.8025C75.5481 47.7621 75.505 47.7204 75.463 47.6775L75.454 47.6684C75.4214 47.6373 75.3892 47.6057 75.3575 47.5737C75.3257 47.5436 75.2957 47.5118 75.2656 47.4804C75.2342 47.4503 75.2039 47.4191 75.1748 47.3868L75.151 47.3627L75.1433 47.3553L74.8526 47.0978V47.5L75.0291 47.6551L75.1751 47.7844L78.2708 50.5139L78.5615 50.7714L78.6349 50.8364L78.7048 50.7354L78.8085 50.5862L78.6247 50.4234ZM78.6247 50.4234L76.7509 48.7725L76.746 48.7697L76.7401 48.7651L76.7355 48.7606C76.6764 48.7182 76.6181 48.6745 76.5608 48.6296C76.5465 48.6195 76.5325 48.6089 76.5189 48.5978C76.5112 48.5918 76.5049 48.5873 76.498 48.5814C76.4945 48.58 76.4931 48.5768 76.4903 48.5754C76.4472 48.5417 76.4044 48.5076 76.362 48.473C76.3411 48.4577 76.3215 48.4412 76.3002 48.4248C76.2433 48.378 76.1859 48.3298 76.1286 48.2816C76.0685 48.2302 76.0081 48.1792 75.948 48.1264L75.9417 48.1219C75.9298 48.1114 75.9194 48.1009 75.9071 48.0918C75.8498 48.0405 75.7925 47.9895 75.7356 47.935C75.6875 47.8912 75.6397 47.8471 75.5923 47.8025C75.5481 47.7621 75.505 47.7204 75.463 47.6775L75.454 47.6684C75.4214 47.6373 75.3892 47.6057 75.3575 47.5737C75.3257 47.5436 75.2957 47.5118 75.2656 47.4804C75.2342 47.4503 75.2039 47.4191 75.1748 47.3868L75.151 47.3627L75.1433 47.3553L74.8526 47.0978V47.5L75.0291 47.6551L75.1751 47.7844L78.2708 50.5139L78.5615 50.7714L78.6349 50.8364L78.7048 50.7354L78.8085 50.5862L78.6247 50.4234ZM131.719 52.1739H123.613C123.618 52.2731 123.625 52.3741 123.633 52.475H131.93L131.719 52.1739Z" fill="#CBD5E0"/>
<path d="M130.309 91.864H57.0764C56.4407 91.8631 55.8313 91.6101 55.3818 91.1606C54.9323 90.7112 54.6794 90.1018 54.6784 89.4661V46.0206C54.6793 45.3849 54.9322 44.7754 55.3817 44.3259C55.8312 43.8764 56.4406 43.6235 57.0764 43.6227C57.6386 43.6235 58.1775 43.8472 58.5751 44.2448C58.9727 44.6423 59.1964 45.1813 59.1972 45.7435V86.6042C59.1979 87.2 59.4349 87.7712 59.8562 88.1925C60.2775 88.6137 60.8487 88.8508 61.4445 88.8515H130.062C130.403 88.8476 130.735 88.958 131.006 89.1652C131.276 89.3724 131.47 89.6643 131.555 89.9944C131.651 90.3073 131.639 90.6432 131.521 90.9486C131.404 91.2539 131.187 91.5111 130.907 91.6792C130.728 91.7951 130.522 91.8591 130.309 91.864Z" fill="#EDF2F7"/>
</g>
</svg>
