<svg width="630" height="238" viewBox="0 0 630 238" fill="none" xmlns="http://www.w3.org/2000/svg">
<g clip-path="url(#clip0_601_230)">
<mask id="mask0_601_230" style="mask-type:alpha" maskUnits="userSpaceOnUse" x="195" y="0" width="238" height="238">
<path d="M314 238C379.722 238 433 184.722 433 119C433 53.2781 379.722 0 314 0C248.278 0 195 53.2781 195 119C195 184.722 248.278 238 314 238Z" fill="#484848"/>
</mask>
<g mask="url(#mask0_601_230)">
<path d="M314 238C379.722 238 433 184.722 433 119C433 53.2781 379.722 0 314 0C248.278 0 195 53.2781 195 119C195 184.722 248.278 238 314 238Z" fill="url(#paint0_linear_601_230)"/>
<path opacity="0.5" fill-rule="evenodd" clip-rule="evenodd" d="M373.891 -10.772L268.761 186.549H231.414L231.561 186.108H230.679L194.214 120.383L230.679 54.658H267.144L230.679 120.383L248.911 153.466L336.544 -10.772H373.891ZM390.653 55.541H391.535L428 121.265L391.535 186.99H355.071L391.535 121.265L373.303 88.182L285.67 252.421H248.323L353.453 55.1H390.8L390.653 55.541Z" fill="url(#paint1_linear_601_230)"/>
</g>
<g filter="url(#filter0_d_601_230)">
<path d="M414.268 99.8408H213.732C209.314 99.8408 205.732 103.423 205.732 107.841V149.842C205.732 154.26 209.314 157.842 213.732 157.842H414.268C418.686 157.842 422.268 154.26 422.268 149.842V107.841C422.268 103.423 418.686 99.8408 414.268 99.8408Z" fill="#101214"/>
<path d="M414.268 100.341H213.732C209.59 100.341 206.232 103.699 206.232 107.841V149.842C206.232 153.984 209.59 157.342 213.732 157.342H414.268C418.41 157.342 421.768 153.984 421.768 149.842V107.841C421.768 103.699 418.41 100.341 414.268 100.341Z" stroke="#060D14"/>
</g>
<g filter="url(#filter1_d_601_230)">
<path d="M424.634 86.832H203.366C198.948 86.832 195.366 90.4138 195.366 94.832V142.386C195.366 146.804 198.948 150.386 203.366 150.386H424.634C429.052 150.386 432.634 146.804 432.634 142.386V94.832C432.634 90.4138 429.052 86.832 424.634 86.832Z" fill="#101214"/>
<path d="M424.634 87.332H203.366C199.224 87.332 195.866 90.6899 195.866 94.832V142.386C195.866 146.528 199.224 149.886 203.366 149.886H424.634C428.776 149.886 432.134 146.528 432.134 142.386V94.832C432.134 90.6899 428.776 87.332 424.634 87.332Z" stroke="#060D14"/>
</g>
<g filter="url(#filter2_d_601_230)">
<path d="M193 73.5H435C439.142 73.5 442.5 76.8579 442.5 81V134.107C442.5 138.249 439.142 141.607 435 141.607H193C188.858 141.607 185.5 138.249 185.5 134.107V81C185.5 76.8579 188.858 73.5 193 73.5Z" fill="#101214" stroke="#060D14"/>
<path d="M435 73.5H193C188.858 73.5 185.5 76.8579 185.5 81V134.107C185.5 138.249 188.858 141.607 193 141.607H435C439.142 141.607 442.5 138.249 442.5 134.107V81C442.5 76.8579 439.142 73.5 435 73.5Z" fill="#101214" stroke="#060D14"/>
</g>
<path opacity="0.5" d="M214 118C219.523 118 224 113.523 224 108C224 102.477 219.523 98 214 98C208.477 98 204 102.477 204 108C204 113.523 208.477 118 214 118Z" fill="url(#paint2_radial_601_230)"/>
<path d="M214 113C216.761 113 219 110.761 219 108C219 105.239 216.761 103 214 103C211.239 103 209 105.239 209 108C209 110.761 211.239 113 214 113Z" fill="#36CFC9"/>
<path d="M328.991 92.5962H243.759C240.578 92.5962 238 95.1746 238 98.3552C238 101.536 240.578 104.114 243.759 104.114H328.991C332.172 104.114 334.75 101.536 334.75 98.3552C334.75 95.1746 332.172 92.5962 328.991 92.5962Z" fill="#1D2125"/>
<path d="M394.643 109.872H243.759C240.578 109.872 238 112.45 238 115.631C238 118.812 240.578 121.39 243.759 121.39H394.643C397.824 121.39 400.402 118.812 400.402 115.631C400.402 112.45 397.824 109.872 394.643 109.872Z" fill="#1D2125"/>
<path d="M606 143V117C606 114.878 605.157 112.843 603.657 111.343C602.157 109.843 600.122 109 598 109H443H536C538.122 109 540.157 108.157 541.657 106.657C543.157 105.157 544 103.122 544 101V66" stroke="#9359BB" stroke-width="2"/>
<path d="M499 130.5V117C499 114.878 498.157 112.843 496.657 111.343C495.157 109.843 493.122 109 491 109H443" stroke="#9359BB" stroke-width="2"/>
<path d="M522 38.496C522 37.3036 522.474 36.16 523.317 35.3168C524.16 34.4737 525.304 34 526.496 34H562.223C563.415 34 564.559 34.4737 565.402 35.3168C566.245 36.16 566.719 37.3036 566.719 38.496V74.223C566.719 75.4154 566.245 76.559 565.402 77.4022C564.559 78.2453 563.415 78.719 562.223 78.719H526.496C525.304 78.719 524.16 78.2453 523.317 77.4022C522.474 76.559 522 75.4154 522 74.223V38.496Z" fill="#101214" stroke="#9359BB" stroke-width="2"/>
<path fill-rule="evenodd" clip-rule="evenodd" d="M559.475 48.8679L558.888 67.1529L546.743 72.0289L539.429 67.3339L548.981 57.4179L545.434 45.9779H545.433L549.632 40.9209L559.475 48.8679ZM535.862 65.0759L528.232 59.0259L532.024 51.9829L542.905 56.2269L535.862 65.0769V65.0759Z" fill="#9359BB"/>
<path d="M543.086 66.6558L530.399 71.2608L532.431 64.1278L535.094 55.3678L527.871 52.9308L532.431 40.4238L542.363 41.6438L552.116 52.7948L543.086 66.6558Z" fill="#9359BB"/>
<path d="M553.978 45.9199H534.741V66.5319H553.978V45.9209V45.9199Z" fill="#251D2A"/>
<path fill-rule="evenodd" clip-rule="evenodd" d="M541.612 50.1889V48.6689H537.489V50.1889H538.68V55.3939H537.489V56.9139H541.612V55.3939H540.466V50.1889H541.612ZM542.986 62.4099H536.115V63.7839H542.986V62.4099ZM544.03 56.5509C544.439 56.7779 544.984 56.9139 545.62 56.9139C546.075 56.9139 546.438 56.8239 546.801 56.6869C547.165 56.5969 547.483 56.3699 547.71 56.1439C547.982 55.8719 548.164 55.5999 548.3 55.2379C548.437 54.8749 548.482 54.4679 548.482 53.9689V48.6689H546.665V53.8789C546.665 54.3769 546.574 54.6939 546.392 54.9199C546.165 55.1469 545.893 55.2379 545.575 55.2379C545.302 55.2379 545.03 55.1469 544.803 55.0109C544.543 54.8555 544.313 54.6562 544.121 54.4219L542.986 55.6909C543.258 56.0079 543.622 56.3249 544.03 56.5509Z" fill="#9359BB"/>
<path d="M477 135.496C477 134.304 477.474 133.16 478.317 132.317C479.16 131.474 480.304 131 481.496 131H517.223C518.415 131 519.559 131.474 520.402 132.317C521.245 133.16 521.719 134.304 521.719 135.496V171.223C521.719 172.415 521.245 173.559 520.402 174.402C519.559 175.245 518.415 175.719 517.223 175.719H481.496C480.304 175.719 479.16 175.245 478.317 174.402C477.474 173.559 477 172.415 477 171.223V135.496Z" fill="#101214" stroke="#9359BB" stroke-width="2"/>
<path fill-rule="evenodd" clip-rule="evenodd" d="M503.957 164.259C504.304 164.394 504.698 164.385 505.048 164.216L509.574 162.027C510.05 161.797 510.353 161.313 510.353 160.782V145.937C510.353 145.406 510.05 144.922 509.574 144.692L505.048 142.503C504.792 142.379 504.504 142.338 504.224 142.386C503.944 142.434 503.686 142.568 503.486 142.77L494.821 150.717L491.046 147.837C490.876 147.707 490.666 147.641 490.452 147.651C490.238 147.66 490.035 147.745 489.877 147.889L488.667 148.996C488.267 149.361 488.267 149.992 488.666 150.358L491.939 153.36L488.666 156.361C488.572 156.448 488.496 156.553 488.445 156.67C488.393 156.788 488.367 156.914 488.367 157.042C488.367 157.17 488.394 157.297 488.445 157.414C488.497 157.531 488.572 157.637 488.667 157.723L489.877 158.83C490.035 158.975 490.238 159.059 490.452 159.069C490.666 159.078 490.876 159.012 491.046 158.882L494.821 156.002L503.486 163.949C503.623 164.087 503.784 164.191 503.957 164.259ZM504.859 148.343L498.284 153.36L504.859 158.377V148.343Z" fill="#9359BB"/>
<path d="M584 147.496C584 146.304 584.474 145.16 585.317 144.317C586.16 143.474 587.304 143 588.496 143H624.223C625.415 143 626.559 143.474 627.402 144.317C628.245 145.16 628.719 146.304 628.719 147.496V183.223C628.719 184.415 628.245 185.559 627.402 186.402C626.559 187.245 625.415 187.719 624.223 187.719H588.496C587.304 187.719 586.16 187.245 585.317 186.402C584.474 185.559 584 184.415 584 183.223V147.496Z" fill="#101214" stroke="#9359BB" stroke-width="2"/>
<path fill-rule="evenodd" clip-rule="evenodd" d="M614.317 161.729V160L613.247 160.255V161.721H612.291V162.545H613.23V165.839C613.17 166.396 613.323 166.955 613.658 167.404C613.813 167.562 613.999 167.685 614.206 167.764C614.412 167.844 614.632 167.878 614.853 167.865C615.186 167.876 615.518 167.826 615.833 167.717L615.783 166.893C615.573 166.946 615.357 166.971 615.141 166.967C614.531 166.967 614.317 166.539 614.317 165.798V162.553H615.899V161.729H614.317ZM599.193 161.733C599.242 162.301 599.242 162.927 599.242 163.693V170.224H600.329V166.93C600.533 167.235 600.812 167.483 601.14 167.649C601.467 167.814 601.832 167.893 602.199 167.877C603.632 167.877 604.958 166.806 604.958 164.649C604.958 162.82 603.854 161.593 602.388 161.593C601.956 161.575 601.528 161.674 601.148 161.88C600.768 162.086 600.451 162.391 600.231 162.763L600.181 161.733H599.193ZM600.379 165.744C600.349 165.597 600.332 165.449 600.329 165.299V164.27C600.35 163.809 600.538 163.372 600.858 163.04C601.178 162.708 601.608 162.504 602.067 162.466C603.228 162.466 603.871 163.496 603.871 164.698C603.871 166.073 603.187 167.02 602.026 167.02C601.649 167.02 601.282 166.895 600.984 166.664C600.686 166.433 600.473 166.109 600.379 165.744ZM588.92 166.748C588.92 168.19 588.805 168.659 588.509 169.005C588.179 169.302 587.75 169.466 587.306 169.466L587.422 170.29C588.11 170.299 588.778 170.056 589.299 169.606C589.58 169.264 589.789 168.87 589.914 168.445C590.039 168.021 590.076 167.575 590.024 167.136V161.684H588.92V166.748ZM597.151 166.099C597.151 166.717 597.151 167.268 597.2 167.746H596.22L596.154 166.766C595.949 167.113 595.656 167.399 595.305 167.596C594.953 167.793 594.556 167.893 594.153 167.886C593.198 167.886 592.061 167.367 592.061 165.251V161.734H593.165V165.028C593.165 166.173 593.519 166.939 594.515 166.939C594.72 166.941 594.923 166.902 595.113 166.824C595.303 166.747 595.476 166.633 595.621 166.488C595.766 166.343 595.88 166.17 595.958 165.981C596.035 165.791 596.074 165.587 596.072 165.382V161.693H597.175V166.066L597.151 166.099ZM606.924 161.728L608.25 165.277C608.39 165.672 608.538 166.15 608.637 166.504C608.681 166.367 608.726 166.215 608.773 166.057C608.849 165.797 608.932 165.518 609.024 165.252L610.226 161.728H611.388L609.741 166.01C608.917 168.069 608.415 169.131 607.657 169.774C607.275 170.122 606.81 170.366 606.306 170.482L606.035 169.56C606.387 169.444 606.714 169.262 606.998 169.024C607.4 168.697 607.719 168.279 607.929 167.805C607.974 167.723 608.004 167.634 608.019 167.542C608.01 167.443 607.985 167.345 607.945 167.254L605.705 161.711H606.908L606.924 161.728ZM618.044 165.753C617.951 165.5 617.912 165.231 617.929 164.962H622.164C622.175 164.792 622.175 164.622 622.164 164.452C622.164 163.348 621.67 161.619 619.694 161.619C617.931 161.619 616.853 163.052 616.853 164.864C616.818 165.266 616.871 165.671 617.008 166.051C617.145 166.431 617.362 166.777 617.646 167.064C617.929 167.352 618.271 167.575 618.649 167.719C619.027 167.862 619.431 167.922 619.834 167.894C620.525 167.913 621.212 167.787 621.851 167.524L621.662 166.7C621.141 166.919 620.58 167.026 620.015 167.013C619.594 167.046 619.174 166.941 618.818 166.714C618.462 166.486 618.19 166.149 618.044 165.753ZM621.16 164.106C621.192 163.886 621.176 163.661 621.114 163.448C621.051 163.234 620.944 163.037 620.799 162.868C620.654 162.699 620.474 162.564 620.272 162.471C620.07 162.377 619.85 162.328 619.628 162.327C619.176 162.36 618.752 162.56 618.439 162.89C618.127 163.219 617.949 163.652 617.94 164.106H621.16ZM623.789 161.723C623.839 162.283 623.839 162.892 623.839 163.6L623.798 163.609V167.726H624.885V164.523C624.887 164.352 624.903 164.181 624.934 164.012C624.968 163.64 625.136 163.292 625.407 163.034C625.679 162.777 626.034 162.627 626.408 162.612C626.534 162.598 626.661 162.598 626.787 162.612V161.583C626.683 161.569 626.578 161.569 626.474 161.583C626.097 161.605 625.736 161.743 625.441 161.979C625.146 162.215 624.931 162.537 624.827 162.9H624.778V161.723H623.789Z" fill="#9359BB"/>
<path fill-rule="evenodd" clip-rule="evenodd" d="M617.831 151.979C617.849 152.253 617.805 152.527 617.703 152.782C617.601 153.036 617.443 153.265 617.242 153.451C617.04 153.637 616.799 153.776 616.537 153.856C616.275 153.937 615.998 153.959 615.727 153.919C615.364 153.868 615.025 153.709 614.753 153.463C614.48 153.218 614.286 152.898 614.196 152.542C614.107 152.186 614.126 151.812 614.251 151.467C614.375 151.122 614.599 150.822 614.894 150.604C615.189 150.387 615.543 150.263 615.909 150.247C616.149 150.235 616.389 150.269 616.615 150.35C616.842 150.43 617.05 150.554 617.229 150.715C617.407 150.876 617.552 151.07 617.656 151.287C617.759 151.504 617.819 151.739 617.831 151.979ZM607.063 173.307C602.161 173.307 597.853 171.548 595.626 168.951C596.49 171.288 598.05 173.304 600.095 174.727C602.139 176.151 604.571 176.914 607.062 176.914C609.554 176.914 611.986 176.151 614.03 174.727C616.075 173.304 617.635 171.288 618.499 168.951C616.277 171.548 611.986 173.307 607.063 173.307ZM618.499 160.772C616.272 158.174 611.964 156.415 607.063 156.415C602.139 156.415 597.853 158.169 595.626 160.772C596.491 158.435 598.05 156.419 600.095 154.996C602.14 153.572 604.571 152.808 607.063 152.808C609.554 152.808 611.986 153.572 614.031 154.996C616.075 156.419 617.635 158.435 618.499 160.772ZM600.315 178.363C600.343 178.824 600.234 179.282 600.001 179.68C599.768 180.078 599.421 180.398 599.006 180.599C598.591 180.799 598.125 180.872 597.668 180.807C597.211 180.742 596.784 180.542 596.441 180.234C596.098 179.925 595.855 179.522 595.742 179.074C595.629 178.627 595.652 178.156 595.807 177.722C595.963 177.288 596.244 176.91 596.616 176.636C596.987 176.362 597.431 176.205 597.892 176.184C598.347 176.161 598.798 176.273 599.19 176.506C599.581 176.738 599.895 177.081 600.093 177.491C600.224 177.764 600.299 178.06 600.315 178.363ZM595.435 155.619C595.659 155.759 595.919 155.83 596.183 155.823C596.54 155.809 596.877 155.655 597.121 155.394C597.365 155.133 597.495 154.786 597.485 154.429C597.473 154.165 597.384 153.911 597.229 153.697C597.074 153.484 596.859 153.321 596.612 153.228C596.364 153.136 596.095 153.119 595.838 153.18C595.58 153.241 595.347 153.377 595.167 153.57C594.986 153.763 594.866 154.005 594.823 154.266C594.78 154.527 594.816 154.794 594.925 155.035C595.033 155.275 595.211 155.479 595.435 155.619Z" fill="#9359BB"/>
<path d="M97 38.945H86.477C85.2742 38.946 84.1202 38.4698 83.268 37.621L83.213 37.561C82.3959 36.7265 81.937 35.6059 81.934 34.438V24H55.631C54.907 24 54.247 24.294 53.771 24.765C53.5269 25.0063 53.333 25.2936 53.2007 25.6103C53.0683 25.927 53.0001 26.2668 53 26.61V76.39C53 77.109 53.296 77.763 53.772 78.234C54.2665 78.725 54.9352 79.0004 55.632 79H94.369C95.093 79 95.753 78.706 96.229 78.234C96.473 77.9929 96.6668 77.7057 96.7992 77.3892C96.9315 77.0727 96.9998 76.7331 97 76.39V38.945Z" fill="#101214"/>
<path d="M96.507 39.328H86.305C85.1394 39.3289 84.021 38.8675 83.195 38.045L83.141 37.988C82.3486 37.1786 81.9036 36.0917 81.901 34.959V24.84H56.4C55.699 24.84 55.06 25.125 54.598 25.582C54.3613 25.8158 54.1734 26.0942 54.045 26.4011C53.9166 26.708 53.8503 27.0373 53.85 27.37V75.634C53.85 76.331 54.137 76.965 54.598 77.423C55.059 77.88 55.698 78.165 56.401 78.165H93.955C94.657 78.165 95.296 77.88 95.757 77.423C95.994 77.1892 96.1822 76.9107 96.3108 76.6036C96.4394 76.2965 96.5057 75.9669 96.506 75.634V39.328H96.507ZM83.754 26.138V34.959C83.754 35.637 84.024 36.252 84.461 36.704L84.505 36.745C84.968 37.205 85.605 37.49 86.305 37.49H95.196L83.754 26.138ZM83.484 23.268L98.09 37.758C98.27 37.938 98.36 38.172 98.36 38.409V75.631C98.36 76.831 97.865 77.921 97.069 78.714C96.2433 79.5372 95.125 79.9996 93.959 80H56.403C55.194 80 54.093 79.51 53.295 78.72C52.8853 78.3168 52.5599 77.8361 52.3375 77.306C52.1152 76.7759 52.0005 76.2069 52 75.632V27.37C52 26.17 52.495 25.08 53.291 24.287C54.1166 23.4634 55.2349 23.0006 56.401 23H82.828C83.083 23 83.315 23.103 83.484 23.268ZM59.766 71.262C59.6447 71.2625 59.5245 71.2391 59.4122 71.1932C59.3 71.1472 59.1979 71.0796 59.1118 70.9941C59.0257 70.9087 58.9573 70.8071 58.9105 70.6952C58.8637 70.5833 58.8394 70.4633 58.839 70.342C58.839 69.835 59.254 69.422 59.766 69.422H85.106C85.617 69.422 86.033 69.835 86.033 70.342C86.033 70.85 85.617 71.262 85.106 71.262H59.766ZM59.766 65.817C59.6447 65.8175 59.5245 65.7941 59.4122 65.7482C59.3 65.7022 59.1979 65.6346 59.1118 65.5491C59.0257 65.4637 58.9573 65.3621 58.9105 65.2502C58.8637 65.1383 58.8394 65.0183 58.839 64.897C58.839 64.39 59.254 63.979 59.766 63.979H76.876C77.387 63.979 77.803 64.39 77.803 64.898C77.803 65.406 77.388 65.818 76.876 65.818L59.766 65.817ZM59.766 60.375C59.6448 60.3755 59.5247 60.3522 59.4125 60.3063C59.3003 60.2604 59.1982 60.1928 59.1122 60.1075C59.0261 60.0222 58.9577 59.9207 58.9108 59.8089C58.8639 59.6971 58.8395 59.5772 58.839 59.456C58.839 58.948 59.254 58.536 59.766 58.536H71.388C71.899 58.536 72.315 58.949 72.315 59.456C72.315 59.964 71.9 60.376 71.388 60.376H59.765L59.766 60.375Z" fill="#9359BB"/>
<path d="M119 45H32C27.5817 45 24 48.5817 24 53C24 57.4183 27.5817 61 32 61H119C123.418 61 127 57.4183 127 53C127 48.5817 123.418 45 119 45Z" fill="#9359BB"/>
<path d="M32.093 56.0891C31.6946 56.0936 31.3035 55.9825 30.967 55.7691C30.633 55.5541 30.368 55.2381 30.172 54.8211C29.977 54.4021 29.88 53.8881 29.88 53.2801C29.88 52.6551 29.981 52.1351 30.182 51.7201C30.384 51.3041 30.651 50.9931 30.985 50.7871C31.3159 50.5802 31.6988 50.4716 32.089 50.4741C32.395 50.4741 32.649 50.5271 32.853 50.6311C33.059 50.7331 33.224 50.8611 33.35 51.0141C33.478 51.1661 33.575 51.3142 33.641 51.4622H33.687V48.7271H35.197V56.0001H33.705V55.1261H33.641C33.5619 55.2898 33.4602 55.4416 33.339 55.5771C33.1996 55.7326 33.0293 55.8572 32.839 55.9431C32.6043 56.0467 32.3494 56.0966 32.093 56.0891ZM32.573 54.8851C32.816 54.8851 33.022 54.8191 33.19 54.6861C33.36 54.5511 33.49 54.3631 33.58 54.1211C33.673 53.8801 33.72 53.5971 33.72 53.2731C33.72 52.9481 33.674 52.6671 33.584 52.4281C33.494 52.1881 33.364 52.0041 33.194 51.8741C33.0146 51.7407 32.7955 51.6717 32.572 51.6781C32.3455 51.6712 32.1236 51.7429 31.944 51.8811C31.774 52.0161 31.644 52.2032 31.557 52.4412C31.4645 52.7086 31.4198 52.9902 31.425 53.2731C31.425 53.5901 31.469 53.8701 31.556 54.1141C31.646 54.3561 31.776 54.5451 31.944 54.6831C32.1237 54.821 32.3456 54.8924 32.572 54.8851H32.573ZM39.126 56.1061C38.565 56.1061 38.082 55.9931 37.677 55.7661C37.2782 55.5401 36.9548 55.2017 36.747 54.7931C36.529 54.3711 36.42 53.8731 36.42 53.2981C36.42 52.7361 36.529 52.2441 36.747 51.8201C36.965 51.3971 37.271 51.0662 37.667 50.8302C38.064 50.5932 38.531 50.4741 39.066 50.4741C39.426 50.4741 39.76 50.5321 40.071 50.6481C40.383 50.7621 40.655 50.9341 40.887 51.1631C41.122 51.3931 41.304 51.6821 41.434 52.0301C41.564 52.3761 41.63 52.7801 41.63 53.2441V53.6601H37.024V52.7221H40.206C40.206 52.5041 40.158 52.3121 40.063 52.1441C39.9711 51.9783 39.8346 51.8415 39.669 51.7491C39.4929 51.6497 39.2932 51.5996 39.091 51.6041C38.861 51.6041 38.657 51.6571 38.48 51.7641C38.3074 51.8655 38.1652 52.0112 38.068 52.1861C37.968 52.3611 37.918 52.5561 37.915 52.7721V53.6631C37.915 53.9331 37.965 54.1661 38.065 54.3631C38.166 54.5591 38.309 54.7111 38.494 54.8181C38.679 54.9241 38.898 54.9781 39.151 54.9781C39.319 54.9781 39.473 54.9541 39.612 54.9061C39.7458 54.8632 39.8681 54.7903 39.9696 54.6932C40.0712 54.596 40.1492 54.477 40.198 54.3451L41.598 54.4381C41.5316 54.7646 41.3809 55.0679 41.161 55.3181C40.943 55.5671 40.661 55.7611 40.316 55.9011C39.972 56.0381 39.576 56.1061 39.126 56.1061ZM47.756 50.5461L45.849 56.0001H44.144L42.237 50.5451H43.835L44.968 54.4482H45.025L46.154 50.5451H47.755L47.756 50.5461ZM51.018 56.1061C50.46 56.1061 49.979 55.9881 49.577 55.7511C49.1798 55.5156 48.859 55.1705 48.653 54.7571C48.44 54.3331 48.333 53.8461 48.333 53.2941C48.333 52.7351 48.441 52.2451 48.657 51.8241C48.8644 51.4119 49.1863 51.0682 49.584 50.8341C49.984 50.5941 50.46 50.4741 51.011 50.4741C51.487 50.4741 51.904 50.5611 52.261 50.7341C52.619 50.9061 52.901 51.1492 53.11 51.4622C53.318 51.7742 53.433 52.1421 53.455 52.5621H52.027C51.9979 52.3135 51.885 52.0822 51.707 51.9061C51.537 51.7371 51.313 51.6531 51.037 51.6531C50.802 51.6531 50.597 51.7171 50.422 51.8451C50.2374 51.9862 50.0969 52.177 50.017 52.3951C49.9129 52.6759 49.8634 52.9739 49.871 53.2731C49.871 53.6211 49.919 53.9171 50.013 54.1601C50.111 54.4041 50.247 54.5901 50.422 54.7181C50.597 54.8461 50.802 54.9101 51.036 54.9101C51.1974 54.9126 51.3569 54.8759 51.501 54.8031C51.641 54.732 51.7599 54.6255 51.846 54.4941C51.938 54.3571 51.999 54.1931 52.026 54.0011H53.454C53.4386 54.3912 53.3214 54.7704 53.114 55.1012C52.909 55.4199 52.6201 55.676 52.279 55.8411C51.924 56.0181 51.503 56.1061 51.018 56.1061ZM57.088 56.1061C56.536 56.1061 56.058 55.9891 55.656 55.7551C55.2593 55.5215 54.9379 55.179 54.73 54.7681C54.512 54.3441 54.403 53.8531 54.403 53.2941C54.403 52.7311 54.512 52.2381 54.73 51.8171C54.947 51.3931 55.256 51.0642 55.656 50.8302C56.059 50.5932 56.536 50.4741 57.087 50.4741C57.639 50.4741 58.115 50.5932 58.515 50.8302C58.917 51.0642 59.228 51.3931 59.445 51.8171C59.663 52.2381 59.772 52.7311 59.772 53.2941C59.772 53.8531 59.663 54.3441 59.446 54.7681C59.2373 55.1797 58.9144 55.5224 58.516 55.7551C58.115 55.9891 57.639 56.1061 57.088 56.1061ZM57.095 54.9351C57.3233 54.9428 57.5465 54.8671 57.723 54.7221C57.9006 54.5634 58.0319 54.3595 58.103 54.1321C58.191 53.8841 58.234 53.6011 58.234 53.2831C58.234 52.9661 58.191 52.6831 58.104 52.4351C58.0329 52.2078 57.9016 52.0039 57.724 51.8451C57.5479 51.6978 57.3235 51.6209 57.094 51.6291C56.8619 51.6218 56.635 51.6985 56.455 51.8451C56.285 51.9901 56.155 52.1861 56.068 52.4351C55.9792 52.7089 55.9363 52.9954 55.941 53.2831C55.941 53.6011 55.983 53.8831 56.068 54.1331C56.156 54.3811 56.285 54.5771 56.455 54.7221C56.6362 54.8671 56.8631 54.9426 57.095 54.9351ZM62.469 52.8471V56.0001H60.956V50.5451H62.398V51.5081H62.461C62.582 51.1911 62.785 50.9401 63.069 50.7551C63.353 50.5681 63.697 50.4751 64.102 50.4751C64.481 50.4751 64.812 50.5571 65.092 50.7231C65.375 50.8891 65.594 51.1261 65.75 51.4331C65.906 51.7391 65.984 52.1031 65.984 52.5271V56.0001H64.472V52.7971C64.474 52.4631 64.389 52.2031 64.216 52.0161C64.043 51.8261 63.805 51.7311 63.502 51.7311C63.298 51.7311 63.118 51.7751 62.962 51.8631C62.8065 51.9526 62.6806 52.0858 62.6 52.2461C62.5101 52.4332 62.4653 52.6397 62.469 52.8471ZM70.278 50.5451V51.6821H66.993V50.5451H70.278ZM67.738 49.2391H69.251V54.3241C69.251 54.4641 69.273 54.5721 69.315 54.6511C69.3539 54.7236 69.4168 54.7802 69.493 54.8111C69.571 54.8411 69.661 54.8561 69.763 54.8561C69.833 54.8561 69.905 54.8511 69.976 54.8391L70.139 54.8071L70.377 55.9321C70.2714 55.9636 70.1647 55.991 70.057 56.0141C69.8927 56.0505 69.7252 56.0706 69.557 56.0741C69.2307 56.0945 68.9037 56.0451 68.598 55.9291C68.3372 55.8269 68.1151 55.6454 67.963 55.4101C67.811 55.1761 67.736 54.8801 67.739 54.5231L67.738 49.2391ZM73.018 56.1031C72.671 56.1031 72.361 56.0431 72.088 55.9221C71.8251 55.8068 71.6008 55.6184 71.442 55.3791C71.286 55.1371 71.208 54.8361 71.208 54.4771C71.208 54.1741 71.263 53.9191 71.374 53.7131C71.486 53.5071 71.637 53.3411 71.829 53.2161C72.021 53.0901 72.239 52.9961 72.482 52.9321C72.7364 52.8668 72.9955 52.8216 73.257 52.7971C73.574 52.7641 73.829 52.7332 74.024 52.7052C74.218 52.6742 74.359 52.6291 74.446 52.5701C74.489 52.5416 74.5237 52.5023 74.5469 52.4561C74.57 52.41 74.5808 52.3587 74.578 52.3071V52.2851C74.578 52.0611 74.507 51.8871 74.365 51.7641C74.225 51.6401 74.026 51.5791 73.768 51.5791C73.496 51.5791 73.279 51.6391 73.118 51.7591C72.9637 51.868 72.8509 52.0259 72.798 52.2071L71.399 52.0942C71.47 51.7622 71.61 51.4761 71.819 51.2341C72.037 50.9839 72.3136 50.7915 72.624 50.6741C72.9914 50.5347 73.3821 50.4668 73.775 50.4741C74.078 50.4741 74.368 50.5101 74.645 50.5811C74.925 50.6521 75.172 50.7621 75.387 50.9111C75.605 51.0611 75.777 51.2521 75.902 51.4861C76.028 51.7191 76.09 51.9961 76.09 52.3211V56.0001H74.656V55.2441H74.613C74.5251 55.4147 74.406 55.5673 74.262 55.6941C74.106 55.8273 73.9261 55.9298 73.732 55.9961C73.5019 56.0711 73.26 56.1072 73.018 56.1031ZM73.452 55.0591C73.674 55.0591 73.871 55.0151 74.042 54.9281C74.212 54.8381 74.346 54.7171 74.442 54.5651C74.5399 54.4114 74.5906 54.2324 74.588 54.0501V53.4721C74.527 53.5089 74.4615 53.5375 74.393 53.5571C74.3029 53.5831 74.2119 53.6054 74.12 53.6241C74.0182 53.6433 73.9162 53.6613 73.814 53.6781L73.537 53.7171C73.3773 53.7383 73.221 53.78 73.072 53.8411C72.9506 53.8894 72.8441 53.9687 72.763 54.0711C72.6869 54.1739 72.6481 54.2994 72.653 54.4271C72.653 54.6331 72.728 54.7901 72.877 54.8991C73.028 55.0061 73.22 55.0591 73.452 55.0591ZM77.464 56.0001V50.5451H78.977V56.0001H77.464ZM78.224 49.8421C78.0093 49.8464 77.8014 49.7664 77.645 49.6191C77.5692 49.5504 77.5088 49.4664 77.4678 49.3726C77.4267 49.2789 77.406 49.1775 77.407 49.0751C77.4062 48.974 77.427 48.8739 77.4681 48.7814C77.5091 48.689 77.5694 48.6064 77.645 48.5391C77.8004 48.3898 78.0086 48.3082 78.224 48.3121C78.449 48.3121 78.641 48.3881 78.799 48.5391C78.8756 48.6067 78.937 48.6898 78.979 48.7829C79.021 48.876 79.0428 48.977 79.0428 49.0791C79.0428 49.1813 79.021 49.2823 78.979 49.3754C78.937 49.4685 78.8756 49.5516 78.799 49.6191C78.6442 49.7664 78.4376 49.8465 78.224 49.8421ZM81.901 52.8471V56.0001H80.39V50.5451H81.831V51.5081H81.895C82.016 51.1911 82.218 50.9401 82.503 50.7551C82.787 50.5681 83.131 50.4751 83.536 50.4751C83.915 50.4751 84.245 50.5571 84.526 50.7231C84.808 50.8891 85.027 51.1261 85.184 51.4331C85.34 51.7391 85.418 52.1031 85.418 52.5271V56.0001H83.905V52.7971C83.908 52.4631 83.822 52.2031 83.65 52.0161C83.477 51.8261 83.239 51.7311 82.936 51.7311C82.732 51.7311 82.552 51.7751 82.396 51.8631C82.2405 51.9526 82.1146 52.0858 82.034 52.2461C81.9438 52.4331 81.8986 52.6386 81.902 52.8461L81.901 52.8471ZM89.295 56.1071C88.735 56.1071 88.251 55.9931 87.846 55.7661C87.4472 55.5401 87.1238 55.2017 86.916 54.7931C86.698 54.3711 86.589 53.8731 86.589 53.2981C86.589 52.7361 86.699 52.2441 86.916 51.8201C87.134 51.3971 87.44 51.0662 87.836 50.8302C88.233 50.5932 88.7 50.4741 89.235 50.4741C89.595 50.4741 89.93 50.5321 90.24 50.6481C90.552 50.7621 90.825 50.9341 91.057 51.1631C91.291 51.3931 91.473 51.6821 91.603 52.0301C91.733 52.3761 91.799 52.7801 91.799 53.2441V53.6601H87.193V52.7221H90.375C90.375 52.5041 90.327 52.3121 90.233 52.1441C90.1408 51.9782 90.004 51.8414 89.838 51.7491C89.6619 51.6497 89.4622 51.5996 89.26 51.6041C89.03 51.6041 88.826 51.6571 88.649 51.7641C88.4764 51.8655 88.3342 52.0112 88.237 52.1861C88.137 52.3611 88.087 52.5561 88.084 52.7721V53.6631C88.084 53.9331 88.134 54.1661 88.234 54.3631C88.335 54.5591 88.478 54.7111 88.664 54.8181C88.848 54.9241 89.067 54.9781 89.32 54.9781C89.488 54.9781 89.642 54.9541 89.782 54.9061C89.9159 54.8632 90.0382 54.7904 90.1397 54.6932C90.2412 54.596 90.3193 54.477 90.368 54.3451L91.767 54.4381C91.696 54.7741 91.55 55.0681 91.33 55.3181C91.112 55.5671 90.83 55.7611 90.485 55.9011C90.141 56.0381 89.745 56.1071 89.295 56.1071ZM92.985 56.0001V50.5451H94.453V51.4971H94.509C94.609 51.1591 94.776 50.9031 95.01 50.7301C95.244 50.5551 95.514 50.4671 95.82 50.4671C95.9801 50.4686 96.1396 50.4867 96.296 50.5211V51.8631C96.0868 51.8098 95.8719 51.7822 95.656 51.7811C95.4481 51.7778 95.2428 51.8281 95.06 51.9271C94.8835 52.0226 94.7373 52.1658 94.6381 52.3403C94.5389 52.5148 94.4907 52.7136 94.499 52.9141V56.0001H92.985ZM97.537 56.0921C97.4248 56.0938 97.3134 56.0727 97.2096 56.03C97.1058 55.9874 97.0117 55.9242 96.933 55.8442C96.853 55.7655 96.7897 55.6714 96.7471 55.5676C96.7045 55.4637 96.6834 55.3524 96.685 55.2401C96.685 55.0081 96.767 54.8101 96.933 54.6441C97.0115 54.5638 97.1055 54.5002 97.2094 54.4572C97.3132 54.4142 97.4247 54.3928 97.537 54.3941C97.764 54.3941 97.963 54.4781 98.133 54.6441C98.304 54.8091 98.389 55.0081 98.389 55.2401C98.389 55.3961 98.349 55.5401 98.269 55.6701C98.1921 55.7967 98.0858 55.9027 97.959 55.9791C97.8313 56.0546 97.6854 56.0937 97.537 56.0921ZM99.831 50.5451H101.344V56.2701C101.344 56.6911 101.261 57.0321 101.095 57.2931C100.93 57.5531 100.692 57.7431 100.382 57.8641C100.074 57.9851 99.706 58.0451 99.277 58.0451C99.225 58.0451 99.175 58.0451 99.128 58.0421C99.078 58.0421 99.026 58.0411 98.972 58.0381V56.8561L99.078 56.8591C99.107 56.8621 99.138 56.8631 99.171 56.8631C99.415 56.8631 99.585 56.8111 99.682 56.7071C99.782 56.6051 99.832 56.4511 99.832 56.2451L99.831 50.5451ZM100.584 49.8421C100.371 49.8457 100.164 49.7657 100.009 49.6191C99.9322 49.551 99.8709 49.4672 99.8291 49.3733C99.7874 49.2795 99.7662 49.1778 99.767 49.0751C99.767 48.8671 99.847 48.6881 100.009 48.5391C100.163 48.3904 100.37 48.3088 100.584 48.3121C100.811 48.3121 101.004 48.3881 101.163 48.5391C101.324 48.6891 101.404 48.8671 101.404 49.0751C101.405 49.1778 101.384 49.2794 101.342 49.3732C101.301 49.467 101.24 49.5509 101.163 49.6191C101.007 49.7669 100.799 49.8471 100.584 49.8421ZM107.294 52.1012L105.909 52.1861C105.886 52.0683 105.834 51.9582 105.757 51.8661C105.674 51.7661 105.568 51.6873 105.448 51.6361C105.306 51.5733 105.152 51.5425 104.997 51.5461C104.762 51.5461 104.565 51.5961 104.404 51.6961C104.243 51.7931 104.162 51.9231 104.162 52.0861C104.162 52.2161 104.214 52.3261 104.318 52.4161C104.423 52.5061 104.601 52.5791 104.855 52.6341L105.842 52.8321C106.372 52.9421 106.767 53.1172 107.028 53.3582C107.288 53.5992 107.418 53.9171 107.418 54.3101C107.418 54.6671 107.313 54.9801 107.102 55.2501C106.894 55.5201 106.608 55.7311 106.243 55.8831C105.844 56.0388 105.418 56.1146 104.99 56.1061C104.267 56.1061 103.692 55.9561 103.264 55.6561C103.059 55.515 102.886 55.3318 102.756 55.1187C102.627 54.9056 102.544 54.6675 102.514 54.4201L104.002 54.3421C104.047 54.5621 104.156 54.7301 104.329 54.8461C104.502 54.9601 104.723 55.0161 104.993 55.0161C105.258 55.0161 105.471 54.9661 105.632 54.8641C105.796 54.7601 105.878 54.6262 105.881 54.4622C105.88 54.3963 105.864 54.3314 105.834 54.2729C105.804 54.2143 105.76 54.1637 105.707 54.1251C105.593 54.0351 105.418 53.9661 105.181 53.9191L104.237 53.7311C103.704 53.6241 103.307 53.4401 103.047 53.1771C102.789 52.9141 102.66 52.5791 102.66 52.1721C102.66 51.8221 102.755 51.5201 102.944 51.2661C103.136 51.0131 103.405 50.8181 103.75 50.6801C104.098 50.5431 104.505 50.4741 104.972 50.4741C105.661 50.4741 106.203 50.6201 106.598 50.9111C106.996 51.2021 107.228 51.5992 107.294 52.1012ZM111.036 56.1061C110.484 56.1061 110.007 55.9891 109.604 55.7551C109.207 55.5218 108.886 55.1792 108.678 54.7681C108.46 54.3441 108.351 53.8531 108.351 53.2941C108.351 52.7311 108.46 52.2381 108.678 51.8171C108.895 51.3931 109.204 51.0642 109.604 50.8302C110.007 50.5932 110.484 50.4741 111.036 50.4741C111.587 50.4741 112.063 50.5932 112.463 50.8302C112.866 51.0642 113.176 51.3931 113.394 51.8171C113.611 52.2381 113.72 52.7311 113.72 53.2941C113.72 53.8531 113.611 54.3441 113.394 54.7681C113.176 55.1891 112.866 55.5181 112.463 55.7551C112.063 55.9891 111.587 56.1061 111.036 56.1061ZM111.043 54.9351C111.294 54.9351 111.503 54.8641 111.671 54.7221C111.849 54.5634 111.98 54.3595 112.051 54.1321C112.139 53.8841 112.183 53.6011 112.183 53.2831C112.183 52.9661 112.139 52.6831 112.051 52.4351C111.98 52.2078 111.849 52.0039 111.671 51.8451C111.495 51.6982 111.272 51.6213 111.043 51.6291C110.811 51.6217 110.583 51.6984 110.403 51.8451C110.224 52.0037 110.09 52.2074 110.016 52.4351C109.927 52.7089 109.884 52.9954 109.889 53.2831C109.889 53.6011 109.931 53.8831 110.016 54.1331C110.104 54.3811 110.233 54.5771 110.403 54.7221C110.584 54.867 110.811 54.9426 111.043 54.9351ZM116.417 52.8471V56.0001H114.904V50.5451H116.346V51.5081H116.41C116.53 51.1911 116.733 50.9401 117.017 50.7551C117.301 50.5681 117.645 50.4751 118.05 50.4751C118.429 50.4751 118.759 50.5571 119.041 50.7231C119.323 50.8891 119.542 51.1261 119.698 51.4331C119.854 51.7391 119.932 52.1031 119.932 52.5271V56.0001H118.42V52.7971C118.422 52.4631 118.337 52.2031 118.164 52.0161C117.991 51.8261 117.753 51.7311 117.45 51.7311C117.246 51.7311 117.067 51.7751 116.91 51.8631C116.754 51.9526 116.629 52.0858 116.548 52.2461C116.458 52.4332 116.413 52.6397 116.417 52.8471Z" fill="#251D2A"/>
<path d="M75 80V100C75 102.122 75.8429 104.157 77.3431 105.657C78.8434 107.157 80.8783 108 83 108H173" stroke="#9359BB" stroke-width="2"/>
<path d="M96 135.496C96 134.304 96.4737 133.16 97.3168 132.317C98.16 131.474 99.3036 131 100.496 131H136.223C136.813 131 137.398 131.116 137.944 131.342C138.489 131.568 138.985 131.899 139.402 132.317C139.82 132.734 140.151 133.23 140.377 133.775C140.603 134.321 140.719 134.906 140.719 135.496V171.223C140.719 171.813 140.603 172.398 140.377 172.944C140.151 173.489 139.82 173.985 139.402 174.402C138.985 174.82 138.489 175.151 137.944 175.377C137.398 175.603 136.813 175.719 136.223 175.719H100.496C99.3036 175.719 98.16 175.245 97.3168 174.402C96.4737 173.559 96 172.415 96 171.223V135.496Z" fill="#101214" stroke="#9359BB" stroke-width="2"/>
<path fill-rule="evenodd" clip-rule="evenodd" d="M111.028 152.15C110.944 151.879 110.897 151.509 110.897 151.053H110.873V147.057C110.873 145.701 110.54 144.689 109.885 144.024C109.218 143.358 108.182 143.025 106.764 143.025C106.137 143.02 105.513 143.098 104.907 143.259C104.386 143.384 103.882 143.57 103.406 143.814C103.239 143.9 103.132 143.987 103.073 144.073C103.013 144.159 102.989 144.307 102.989 144.505V145.109C102.989 145.368 103.073 145.491 103.239 145.491C103.304 145.488 103.368 145.475 103.43 145.454C103.572 145.41 103.712 145.356 103.847 145.294C104.265 145.123 104.695 144.982 105.133 144.874C105.553 144.768 105.985 144.714 106.419 144.714C107.336 144.714 107.979 144.899 108.36 145.281C108.729 145.664 108.92 146.317 108.92 147.255V148.155C108.444 148.044 107.991 147.945 107.55 147.884C107.132 147.822 106.71 147.789 106.288 147.785C105.062 147.785 104.097 148.105 103.37 148.747C102.644 149.388 102.287 150.239 102.287 151.287C102.287 152.274 102.584 153.063 103.168 153.655C103.752 154.247 104.549 154.543 105.55 154.543C106.955 154.543 108.122 153.976 109.051 152.841C109.182 153.125 109.301 153.359 109.42 153.569C109.539 153.766 109.682 153.963 109.849 154.148C109.968 154.259 110.087 154.321 110.206 154.321C110.318 154.316 110.426 154.277 110.516 154.21L111.266 153.692C111.421 153.569 111.492 153.445 111.492 153.322C111.49 153.222 111.462 153.124 111.409 153.038C111.26 152.752 111.133 152.455 111.028 152.15ZM107.288 152.705C106.895 152.847 106.48 152.922 106.062 152.927C105.514 152.927 105.097 152.779 104.811 152.471C104.514 152.175 104.371 151.743 104.371 151.164C104.371 150.547 104.561 150.079 104.954 149.746C105.347 149.413 105.931 149.252 106.729 149.252C107.098 149.252 107.467 149.277 107.848 149.326C108.229 149.376 108.598 149.45 108.944 149.536V150.054C108.944 150.473 108.896 150.831 108.825 151.127C108.751 151.417 108.613 151.687 108.42 151.916C108.098 152.286 107.717 152.557 107.288 152.705ZM115.172 154.136C115.267 154.222 115.41 154.259 115.625 154.259H116.649C116.863 154.259 117.03 154.222 117.125 154.136C117.22 154.05 117.292 153.889 117.351 153.643L119.185 145.701L121.031 153.655C121.079 153.902 121.162 154.062 121.257 154.148C121.353 154.235 121.508 154.272 121.734 154.272H122.758C122.96 154.272 123.115 154.222 123.211 154.148C123.306 154.074 123.389 153.914 123.461 153.667L126.331 144.135C126.367 144.035 126.395 143.931 126.414 143.826L126.419 143.795C126.429 143.734 126.438 143.682 126.438 143.629C126.438 143.419 126.331 143.321 126.14 143.321H125.033C124.818 143.321 124.663 143.37 124.568 143.444C124.485 143.518 124.401 143.678 124.33 143.925L122.27 152.187L120.388 143.925C120.341 143.691 120.257 143.518 120.162 143.444C120.067 143.358 119.912 143.321 119.686 143.321H118.733C118.518 143.321 118.352 143.37 118.256 143.444C118.161 143.518 118.09 143.678 118.03 143.925L116.172 152.089L114.172 143.925C114.1 143.691 114.029 143.518 113.934 143.444C113.85 143.358 113.695 143.321 113.469 143.321H112.302C112.112 143.321 112.016 143.432 112.016 143.629C112.016 143.715 112.052 143.876 112.123 144.122L114.922 153.655C114.993 153.889 115.077 154.062 115.172 154.136ZM129.093 154.37C129.693 154.518 130.309 154.593 130.927 154.592C131.505 154.596 132.08 154.509 132.63 154.333C133.142 154.173 133.583 153.951 133.952 153.643C134.321 153.347 134.607 152.977 134.822 152.557C135.024 152.138 135.131 151.657 135.131 151.127C135.131 150.486 134.953 149.906 134.583 149.4C134.214 148.895 133.595 148.5 132.738 148.216L131.047 147.662C130.415 147.452 129.975 147.218 129.737 146.983C129.62 146.87 129.528 146.734 129.467 146.583C129.405 146.432 129.375 146.271 129.379 146.108C129.379 145.602 129.57 145.244 129.939 145.01C130.308 144.776 130.844 144.665 131.523 144.665C132.368 144.665 133.131 144.825 133.809 145.146C134.012 145.244 134.167 145.294 134.262 145.294C134.441 145.294 134.536 145.158 134.536 144.899V144.32C134.536 144.147 134.5 144.011 134.429 143.913C134.357 143.802 134.238 143.703 134.071 143.604C133.913 143.512 133.745 143.438 133.571 143.382C133.347 143.308 133.121 143.242 132.892 143.185C132.642 143.136 132.392 143.086 132.118 143.049C131.853 143.014 131.587 142.998 131.32 143C130.796 143 130.296 143.062 129.82 143.21C129.37 143.344 128.95 143.562 128.581 143.851C128.227 144.123 127.934 144.468 127.724 144.862C127.51 145.257 127.402 145.713 127.402 146.231C127.402 146.872 127.605 147.477 127.998 148.019C128.391 148.574 129.034 148.993 129.903 149.277L131.63 149.832C132.214 150.029 132.618 150.239 132.833 150.473C133.047 150.708 133.154 150.991 133.154 151.336C133.154 151.842 132.94 152.237 132.535 152.508C132.13 152.779 131.547 152.915 130.796 152.915C130.32 152.915 129.856 152.866 129.379 152.767C128.928 152.671 128.489 152.526 128.069 152.335L127.948 152.284C127.89 152.258 127.831 152.234 127.772 152.212C127.703 152.188 127.63 152.175 127.557 152.175C127.379 152.175 127.283 152.298 127.283 152.557V153.186C127.283 153.297 127.307 153.421 127.355 153.532C127.402 153.643 127.533 153.766 127.724 153.877C128.034 154.062 128.498 154.222 129.093 154.37ZM134.596 158.04C134.102 157.404 131.325 157.734 130.066 157.887C129.69 157.934 129.631 157.604 129.972 157.357C132.184 155.804 135.82 156.251 136.244 156.769C136.667 157.298 136.126 160.934 134.055 162.676C133.737 162.946 133.432 162.805 133.573 162.452C134.043 161.287 135.091 158.663 134.596 158.04ZM132.984 159.875C129.113 162.734 123.489 164.252 118.653 164.252C111.876 164.252 105.769 161.746 101.157 157.581C100.792 157.251 101.121 156.804 101.557 157.063C106.546 159.958 112.699 161.711 119.065 161.711C123.36 161.711 128.078 160.817 132.42 158.981C133.067 158.687 133.62 159.405 132.984 159.875Z" fill="#9359BB"/>
<path d="M1 147.496C1 146.304 1.47368 145.16 2.31685 144.317C3.16001 143.474 4.30359 143 5.496 143H41.223C41.8134 143 42.3981 143.116 42.9435 143.342C43.489 143.568 43.9847 143.899 44.4022 144.317C44.8196 144.734 45.1508 145.23 45.3768 145.775C45.6027 146.321 45.719 146.906 45.719 147.496V183.223C45.719 183.813 45.6027 184.398 45.3768 184.944C45.1508 185.489 44.8196 185.985 44.4022 186.402C43.9847 186.82 43.489 187.151 42.9435 187.377C42.3981 187.603 41.8134 187.719 41.223 187.719H5.496C4.30359 187.719 3.16001 187.245 2.31685 186.402C1.47368 185.559 1 184.415 1 183.223V147.496Z" fill="#101214" stroke="#9359BB" stroke-width="2"/>
<path d="M22.664 150.667C22.214 150.667 21.85 151.071 21.85 151.571L21.852 151.593C21.852 151.661 21.848 151.743 21.85 151.802C21.86 152.09 21.924 152.31 21.961 152.575C22.03 153.143 22.087 153.614 22.051 154.051C22.017 154.216 21.896 154.367 21.788 154.472L21.768 154.816C19.1793 155.024 16.7603 156.187 14.981 158.079C14.892 158.018 14.735 157.905 14.688 157.87C14.543 157.89 14.396 157.935 14.205 157.823C13.841 157.578 13.509 157.24 13.108 156.833C12.924 156.638 12.791 156.452 12.573 156.264C12.523 156.221 12.447 156.164 12.392 156.12C12.2307 155.99 12.032 155.915 11.825 155.906C11.7021 155.899 11.5793 155.922 11.4667 155.972C11.3541 156.022 11.2548 156.097 11.177 156.193C10.897 156.544 10.987 157.081 11.377 157.392L11.389 157.401C11.442 157.445 11.509 157.5 11.557 157.537C11.789 157.708 12.001 157.795 12.232 157.931C12.719 158.232 13.122 158.481 13.442 158.781C13.567 158.914 13.589 159.149 13.605 159.251L13.865 159.484C12.4264 161.642 11.8352 164.256 12.205 166.823L11.865 166.922C11.775 167.038 11.648 167.22 11.515 167.275C11.097 167.407 10.626 167.455 10.057 167.515C9.79005 167.537 9.56005 167.524 9.27705 167.577C9.21405 167.589 9.12705 167.612 9.05905 167.628L9.05205 167.629L9.04005 167.633C8.56005 167.749 8.25305 168.19 8.35205 168.624C8.45205 169.058 8.91905 169.322 9.40205 169.218L9.41405 169.217L9.43005 169.211C9.49705 169.197 9.58105 169.18 9.64005 169.164C9.91805 169.09 10.12 168.98 10.37 168.885C10.908 168.691 11.354 168.53 11.789 168.467C11.97 168.453 12.161 168.579 12.256 168.632L12.611 168.572C13.4071 171.032 15.0761 173.116 17.303 174.43L17.155 174.784C17.208 174.922 17.267 175.109 17.227 175.244C17.069 175.654 16.799 176.086 16.491 176.568C16.341 176.791 16.189 176.963 16.055 177.218C16.022 177.279 15.981 177.373 15.95 177.437C15.741 177.885 15.895 178.4 16.296 178.593C16.7 178.788 17.202 178.583 17.419 178.134L17.421 178.133V178.131C17.451 178.067 17.496 177.984 17.521 177.924C17.637 177.66 17.675 177.434 17.756 177.178C17.972 176.637 18.09 176.07 18.386 175.717C18.467 175.62 18.6 175.583 18.736 175.546L18.921 175.212C21.336 176.142 24.0094 176.149 26.429 175.231C26.481 175.323 26.577 175.5 26.603 175.544C26.743 175.59 26.894 175.613 27.018 175.796C27.24 176.175 27.392 176.623 27.576 177.164C27.657 177.42 27.697 177.646 27.813 177.91C27.839 177.97 27.883 178.055 27.913 178.119C28.13 178.568 28.633 178.774 29.038 178.579C29.44 178.386 29.593 177.871 29.384 177.423C29.354 177.359 29.31 177.265 29.278 177.204C29.144 176.95 28.991 176.778 28.842 176.556C28.534 176.074 28.278 175.674 28.12 175.264C28.054 175.053 28.131 174.922 28.183 174.784C28.153 174.749 28.086 174.55 28.047 174.456C30.2812 173.131 31.9504 171.031 32.737 168.556C32.843 168.573 33.026 168.605 33.085 168.617C33.208 168.536 33.32 168.431 33.541 168.448C33.975 168.511 34.421 168.672 34.959 168.865C35.209 168.961 35.411 169.073 35.689 169.147C35.748 169.163 35.832 169.177 35.899 169.192L35.915 169.197L35.927 169.199C36.41 169.303 36.878 169.039 36.977 168.605C37.077 168.17 36.768 167.73 36.289 167.614C36.219 167.598 36.12 167.571 36.053 167.558C35.769 167.505 35.539 167.518 35.272 167.496C34.703 167.436 34.232 167.388 33.813 167.256C33.643 167.19 33.521 166.986 33.463 166.903L33.133 166.807C33.304 165.575 33.258 164.292 32.963 163.009C32.6751 161.751 32.1586 160.556 31.439 159.485C31.523 159.409 31.682 159.268 31.727 159.226C31.741 159.08 31.729 158.927 31.88 158.766C32.2 158.465 32.604 158.216 33.09 157.916C33.321 157.78 33.535 157.692 33.766 157.521C33.819 157.482 33.891 157.421 33.946 157.377C34.336 157.065 34.426 156.528 34.146 156.177C33.866 155.826 33.322 155.793 32.932 156.104C32.877 156.148 32.802 156.206 32.752 156.249C32.532 156.436 32.398 156.622 32.214 156.817C31.813 157.224 31.481 157.564 31.117 157.81C30.959 157.901 30.728 157.87 30.624 157.863L30.314 158.084C28.5323 156.215 26.1329 155.055 23.561 154.821C23.5533 154.7 23.5466 154.579 23.541 154.458C23.436 154.357 23.308 154.27 23.276 154.051C23.24 153.614 23.299 153.143 23.368 152.575C23.406 152.31 23.468 152.09 23.479 151.802C23.481 151.736 23.477 151.641 23.477 151.571C23.477 151.071 23.113 150.667 22.664 150.667ZM21.645 156.977L21.403 161.245L21.386 161.253C21.3808 161.383 21.3403 161.509 21.2691 161.617C21.1978 161.726 21.0984 161.813 20.9814 161.869C20.8645 161.926 20.7344 161.95 20.605 161.938C20.4757 161.926 20.352 161.88 20.247 161.803L20.241 161.806L16.741 159.325C18.0695 158.019 19.795 157.193 21.645 156.977ZM23.685 156.977C25.5229 157.206 27.2349 158.031 28.558 159.327L25.082 161.792L25.07 161.787C24.9651 161.863 24.8415 161.909 24.7124 161.921C24.5834 161.932 24.4535 161.909 24.3367 161.853C24.2199 161.797 24.1205 161.71 24.0489 161.602C23.9773 161.494 23.9362 161.368 23.93 161.239L23.926 161.238L23.685 156.977ZM15.472 160.919L18.667 163.777L18.664 163.795C18.7621 163.88 18.8352 163.99 18.8755 164.114C18.9158 164.237 18.9218 164.369 18.8929 164.496C18.8639 164.622 18.8011 164.738 18.7111 164.832C18.6211 164.926 18.5074 164.993 18.382 165.027L18.379 165.041L14.283 166.223C14.0793 164.372 14.497 162.506 15.472 160.919ZM29.832 160.921C30.3194 161.712 30.6738 162.577 30.881 163.482C31.092 164.402 31.145 165.321 31.058 166.209L26.942 165.024L26.938 165.006C26.813 164.972 26.6997 164.904 26.61 164.81C26.5204 164.717 26.4578 164.6 26.429 164.474C26.4001 164.348 26.4061 164.216 26.4463 164.092C26.4864 163.969 26.5593 163.859 26.657 163.774L26.655 163.765L29.832 160.921ZM22.008 163.998H23.318L24.131 165.015L23.839 166.284L22.664 166.849L21.485 166.282L21.193 165.013L22.008 163.998ZM26.205 167.478C26.2603 167.475 26.3157 167.48 26.37 167.49L26.377 167.482L30.613 168.198C29.9879 169.956 28.7947 171.455 27.222 172.459L25.577 168.486L25.582 168.48C25.5363 168.374 25.5169 168.258 25.5256 168.142C25.5343 168.026 25.5708 167.915 25.632 167.816C25.6932 167.718 25.7772 167.636 25.877 167.577C25.9768 167.518 26.0893 167.484 26.205 167.478ZM19.09 167.496C19.2077 167.498 19.3231 167.529 19.4261 167.586C19.529 167.643 19.6164 167.724 19.6804 167.823C19.7444 167.921 19.7832 168.034 19.7932 168.152C19.8033 168.269 19.7843 168.387 19.738 168.495L19.75 168.511L18.123 172.443C16.5614 171.443 15.3733 169.956 14.743 168.212L18.942 167.499L18.949 167.508C18.9952 167.499 19.0431 167.495 19.09 167.496ZM22.638 169.218C22.7539 169.214 22.869 169.239 22.973 169.29C23.1105 169.355 23.2234 169.462 23.295 169.596H23.31L25.38 173.336C23.6225 173.932 21.7175 173.93 19.961 173.331L22.027 169.597H22.031C22.0904 169.486 22.1777 169.393 22.2841 169.327C22.3906 169.26 22.5126 169.223 22.638 169.218Z" fill="#9359BB"/>
<path d="M119 132V116C119 113.878 119.843 111.843 121.343 110.343C122.843 108.843 124.878 108 127 108H173" stroke="#9359BB" stroke-width="2"/>
<path d="M24 143.5V116C24 113.878 24.8429 111.843 26.3431 110.343C27.8434 108.843 29.8783 108 32 108H185.5" stroke="#9359BB" stroke-width="2"/>
</g>
<defs>
<filter id="filter0_d_601_230" x="197.632" y="95.7408" width="232.736" height="74.201" filterUnits="userSpaceOnUse" color-interpolation-filters="sRGB">
<feFlood flood-opacity="0" result="BackgroundImageFix"/>
<feColorMatrix in="SourceAlpha" type="matrix" values="0 0 0 0 0 0 0 0 0 0 0 0 0 0 0 0 0 0 127 0" result="hardAlpha"/>
<feOffset dy="4"/>
<feGaussianBlur stdDeviation="4.05"/>
<feComposite in2="hardAlpha" operator="out"/>
<feColorMatrix type="matrix" values="0 0 0 0 0 0 0 0 0 0.0333124 0 0 0 0 0.0677734 0 0 0 0.12 0"/>
<feBlend mode="normal" in2="BackgroundImageFix" result="effect1_dropShadow_601_230"/>
<feBlend mode="normal" in="SourceGraphic" in2="effect1_dropShadow_601_230" result="shape"/>
</filter>
<filter id="filter1_d_601_230" x="187.266" y="82.732" width="253.468" height="79.7542" filterUnits="userSpaceOnUse" color-interpolation-filters="sRGB">
<feFlood flood-opacity="0" result="BackgroundImageFix"/>
<feColorMatrix in="SourceAlpha" type="matrix" values="0 0 0 0 0 0 0 0 0 0 0 0 0 0 0 0 0 0 127 0" result="hardAlpha"/>
<feOffset dy="4"/>
<feGaussianBlur stdDeviation="4.05"/>
<feComposite in2="hardAlpha" operator="out"/>
<feColorMatrix type="matrix" values="0 0 0 0 0 0 0 0 0 0.0333124 0 0 0 0 0.0677734 0 0 0 0.12 0"/>
<feBlend mode="normal" in2="BackgroundImageFix" result="effect1_dropShadow_601_230"/>
<feBlend mode="normal" in="SourceGraphic" in2="effect1_dropShadow_601_230" result="shape"/>
</filter>
<filter id="filter2_d_601_230" x="176.9" y="68.9" width="274.2" height="85.3069" filterUnits="userSpaceOnUse" color-interpolation-filters="sRGB">
<feFlood flood-opacity="0" result="BackgroundImageFix"/>
<feColorMatrix in="SourceAlpha" type="matrix" values="0 0 0 0 0 0 0 0 0 0 0 0 0 0 0 0 0 0 127 0" result="hardAlpha"/>
<feOffset dy="4"/>
<feGaussianBlur stdDeviation="4.05"/>
<feComposite in2="hardAlpha" operator="out"/>
<feColorMatrix type="matrix" values="0 0 0 0 0 0 0 0 0 0.0333124 0 0 0 0 0.0677734 0 0 0 0.12 0"/>
<feBlend mode="normal" in2="BackgroundImageFix" result="effect1_dropShadow_601_230"/>
<feBlend mode="normal" in="SourceGraphic" in2="effect1_dropShadow_601_230" result="shape"/>
</filter>
<linearGradient id="paint0_linear_601_230" x1="314" y1="0" x2="314" y2="238" gradientUnits="userSpaceOnUse">
<stop stop-color="#C775FF"/>
<stop offset="1" stop-color="#180029" stop-opacity="0.2"/>
</linearGradient>
<linearGradient id="paint1_linear_601_230" x1="311.107" y1="-10.772" x2="311.107" y2="252.421" gradientUnits="userSpaceOnUse">
<stop stop-color="#F7EBFF"/>
<stop offset="1" stop-color="#6600AD" stop-opacity="0"/>
</linearGradient>
<radialGradient id="paint2_radial_601_230" cx="0" cy="0" r="1" gradientUnits="userSpaceOnUse" gradientTransform="translate(214 108) rotate(90) scale(10)">
<stop offset="0.55" stop-color="#36CFC9" stop-opacity="0"/>
<stop offset="1" stop-color="#36CFC9"/>
</radialGradient>
<clipPath id="clip0_601_230">
<rect width="630" height="238" fill="white"/>
</clipPath>
</defs>
</svg>
