<svg width="630" height="238" viewBox="0 0 630 238" fill="none" xmlns="http://www.w3.org/2000/svg">
<g clip-path="url(#clip0_256_8149)">
<mask id="mask0_256_8149" style="mask-type:luminance" maskUnits="userSpaceOnUse" x="0" y="0" width="630" height="238">
<path d="M630 0H0V238H630V0Z" fill="white"/>
</mask>
<g mask="url(#mask0_256_8149)">
<mask id="mask1_256_8149" style="mask-type:alpha" maskUnits="userSpaceOnUse" x="195" y="0" width="238" height="238">
<path d="M314 238C379.722 238 433 184.722 433 119C433 53.2781 379.722 0 314 0C248.278 0 195 53.2781 195 119C195 184.722 248.278 238 314 238Z" fill="#484848"/>
</mask>
<g mask="url(#mask1_256_8149)">
<path d="M314.195 257C390.411 257 452.195 195.215 452.195 119C452.195 42.7847 390.411 -19 314.195 -19C237.98 -19 176.195 42.7847 176.195 119C176.195 195.215 237.98 257 314.195 257Z" fill="url(#paint0_linear_256_8149)"/>
<path opacity="0.5" fill-rule="evenodd" clip-rule="evenodd" d="M221.95 1.45117H343.422C375.814 1.45117 440.599 33.8436 440.599 102.677C440.599 171.511 383.912 220.1 351.52 220.1H302.931V163.413H335.324C359.618 163.413 387.961 147.217 387.961 106.726C387.961 66.2359 355.569 54.0888 343.422 54.0888H274.588V90.5302C230.048 90.5302 221.95 70.285 221.95 50.0398V1.45117ZM278.635 220.103V122.926C238.145 122.926 225.997 151.269 221.948 167.465C205.752 171.515 173.36 183.662 173.36 220.103H278.635Z" fill="url(#paint1_linear_256_8149)"/>
</g>
<g filter="url(#filter0_d_256_8149)">
<path d="M213.732 100.341H414.268C418.41 100.341 421.768 103.699 421.768 107.841V149.842C421.768 153.984 418.41 157.342 414.268 157.342H213.732C209.59 157.342 206.232 153.984 206.232 149.842V107.841C206.232 103.699 209.59 100.341 213.732 100.341Z" fill="#250A42" stroke="#533473"/>
<path d="M414.268 100.341H213.732C209.59 100.341 206.232 103.699 206.232 107.841V149.842C206.232 153.984 209.59 157.342 213.732 157.342H414.268C418.41 157.342 421.768 153.984 421.768 149.842V107.841C421.768 103.699 418.41 100.341 414.268 100.341Z" fill="#250A42" stroke="#533473"/>
</g>
<g filter="url(#filter1_d_256_8149)">
<path d="M424.634 86.832H203.366C198.948 86.832 195.366 90.4138 195.366 94.832V142.386C195.366 146.804 198.948 150.386 203.366 150.386H424.634C429.052 150.386 432.634 146.804 432.634 142.386V94.832C432.634 90.4138 429.052 86.832 424.634 86.832Z" fill="#250A42"/>
<path d="M424.634 87.332H203.366C199.224 87.332 195.866 90.6899 195.866 94.832V142.386C195.866 146.528 199.224 149.886 203.366 149.886H424.634C428.776 149.886 432.134 146.528 432.134 142.386V94.832C432.134 90.6899 428.776 87.332 424.634 87.332Z" stroke="#533473"/>
</g>
<g filter="url(#filter2_d_256_8149)">
<path d="M193 73.5H435C439.142 73.5 442.5 76.8579 442.5 81V134.107C442.5 138.249 439.142 141.607 435 141.607H193C188.858 141.607 185.5 138.249 185.5 134.107V81C185.5 76.8579 188.858 73.5 193 73.5Z" fill="#101214" stroke="#533473"/>
<path d="M435 73.5H193C188.858 73.5 185.5 76.8579 185.5 81V134.107C185.5 138.249 188.858 141.607 193 141.607H435C439.142 141.607 442.5 138.249 442.5 134.107V81C442.5 76.8579 439.142 73.5 435 73.5Z" fill="#250A42" stroke="#533473"/>
</g>
<path opacity="0.5" d="M214 118C219.523 118 224 113.523 224 108C224 102.477 219.523 98 214 98C208.477 98 204 102.477 204 108C204 113.523 208.477 118 214 118Z" fill="url(#paint2_radial_256_8149)"/>
<path d="M214 113C216.761 113 219 110.761 219 108C219 105.239 216.761 103 214 103C211.239 103 209 105.239 209 108C209 110.761 211.239 113 214 113Z" fill="#36CFC9"/>
<path d="M328.991 92.5967H243.759C240.578 92.5967 238 95.1751 238 98.3557C238 101.536 240.578 104.114 243.759 104.114H328.991C332.172 104.114 334.75 101.536 334.75 98.3557C334.75 95.1751 332.172 92.5967 328.991 92.5967Z" fill="#4E2C72"/>
<path d="M394.643 109.872H243.759C240.578 109.872 238 112.45 238 115.631C238 118.812 240.578 121.39 243.759 121.39H394.643C397.824 121.39 400.402 118.812 400.402 115.631C400.402 112.45 397.824 109.872 394.643 109.872Z" fill="#4E2C72"/>
<path d="M606 143V117C606 114.878 605.157 112.843 603.657 111.343C602.157 109.843 600.122 109 598 109H443H536C538.122 109 540.157 108.157 541.657 106.657C543.157 105.157 544 103.122 544 101V66" stroke="#9359BB" stroke-width="2"/>
<path d="M499 130.5V117C499 114.878 498.157 112.843 496.657 111.343C495.157 109.843 493.122 109 491 109H443" stroke="#9359BB" stroke-width="2"/>
<path d="M522 38.496C522 37.3036 522.474 36.16 523.317 35.3168C524.16 34.4737 525.304 34 526.496 34H562.223C563.415 34 564.559 34.4737 565.402 35.3168C566.245 36.16 566.719 37.3036 566.719 38.496V74.223C566.719 75.4154 566.245 76.559 565.402 77.4022C564.559 78.2453 563.415 78.719 562.223 78.719H526.496C525.304 78.719 524.16 78.2453 523.317 77.4022C522.474 76.559 522 75.4154 522 74.223V38.496Z" fill="#101214" stroke="#9359BB" stroke-width="2"/>
<path fill-rule="evenodd" clip-rule="evenodd" d="M559.475 48.8679L558.888 67.1529L546.743 72.0289L539.429 67.3339L548.981 57.4179L545.434 45.9779H545.433L549.632 40.9209L559.475 48.8679ZM535.862 65.0759L528.232 59.0259L532.024 51.9829L542.905 56.2269L535.862 65.0759Z" fill="#9359BB"/>
<path d="M543.086 66.6558L530.399 71.2608L532.431 64.1278L535.094 55.3678L527.871 52.9308L532.431 40.4238L542.363 41.6438L552.116 52.7948L543.086 66.6558Z" fill="#9359BB"/>
<path d="M553.978 45.9199H534.741V66.5319H553.978V45.9199Z" fill="#251D2A"/>
<path fill-rule="evenodd" clip-rule="evenodd" d="M541.612 50.1889V48.6689H537.489V50.1889H538.68V55.3939H537.489V56.9139H541.612V55.3939H540.466V50.1889H541.612ZM542.986 62.4099H536.115V63.7839H542.986V62.4099ZM544.03 56.5509C544.439 56.7779 544.984 56.9139 545.62 56.9139C546.075 56.9139 546.438 56.8239 546.801 56.6869C547.165 56.5969 547.483 56.3699 547.71 56.1439C547.982 55.8719 548.164 55.5999 548.3 55.2379C548.437 54.8749 548.482 54.4679 548.482 53.9689V48.6689H546.665V53.8789C546.665 54.3769 546.574 54.6939 546.392 54.9199C546.165 55.1469 545.893 55.2379 545.575 55.2379C545.302 55.2379 545.03 55.1469 544.803 55.0109C544.543 54.8555 544.313 54.6562 544.121 54.4219L542.986 55.6909C543.258 56.0079 543.622 56.3249 544.03 56.5509Z" fill="#9359BB"/>
<path d="M477 135.496C477 134.304 477.474 133.16 478.317 132.317C479.16 131.474 480.304 131 481.496 131H517.223C518.415 131 519.559 131.474 520.402 132.317C521.245 133.16 521.719 134.304 521.719 135.496V171.223C521.719 172.415 521.245 173.559 520.402 174.402C519.559 175.245 518.415 175.719 517.223 175.719H481.496C480.304 175.719 479.16 175.245 478.317 174.402C477.474 173.559 477 172.415 477 171.223V135.496Z" fill="#101214" stroke="#9359BB" stroke-width="2"/>
<path fill-rule="evenodd" clip-rule="evenodd" d="M503.957 164.259C504.304 164.394 504.698 164.385 505.048 164.216L509.574 162.027C510.05 161.797 510.353 161.313 510.353 160.782V145.937C510.353 145.406 510.05 144.922 509.574 144.692L505.048 142.503C504.792 142.379 504.504 142.338 504.224 142.386C503.944 142.434 503.686 142.568 503.486 142.77L494.821 150.717L491.046 147.837C490.876 147.707 490.666 147.641 490.452 147.651C490.238 147.66 490.035 147.745 489.877 147.889L488.667 148.996C488.267 149.361 488.267 149.992 488.666 150.358L491.939 153.36L488.666 156.361C488.572 156.448 488.496 156.553 488.445 156.67C488.393 156.788 488.367 156.914 488.367 157.042C488.367 157.17 488.394 157.297 488.445 157.414C488.497 157.531 488.572 157.637 488.667 157.723L489.877 158.83C490.035 158.975 490.238 159.059 490.452 159.069C490.666 159.078 490.876 159.012 491.046 158.882L494.821 156.002L503.486 163.949C503.623 164.087 503.784 164.191 503.957 164.259ZM504.859 148.343L498.284 153.36L504.859 158.377V148.343Z" fill="#9359BB"/>
<path d="M584 147.496C584 146.304 584.474 145.16 585.317 144.317C586.16 143.474 587.304 143 588.496 143H624.223C625.415 143 626.559 143.474 627.402 144.317C628.245 145.16 628.719 146.304 628.719 147.496V183.223C628.719 184.415 628.245 185.559 627.402 186.402C626.559 187.245 625.415 187.719 624.223 187.719H588.496C587.304 187.719 586.16 187.245 585.317 186.402C584.474 185.559 584 184.415 584 183.223V147.496Z" fill="#101214" stroke="#9359BB" stroke-width="2"/>
<path fill-rule="evenodd" clip-rule="evenodd" d="M614.317 161.729V160L613.247 160.255V161.721H612.291V162.545H613.23V165.839C613.17 166.396 613.323 166.955 613.658 167.404C613.813 167.562 613.999 167.685 614.206 167.764C614.412 167.844 614.632 167.878 614.853 167.865C615.186 167.876 615.518 167.826 615.833 167.717L615.783 166.893C615.573 166.946 615.357 166.971 615.141 166.967C614.531 166.967 614.317 166.539 614.317 165.798V162.553H615.899V161.729H614.317ZM599.193 161.733C599.242 162.301 599.242 162.927 599.242 163.693V170.224H600.329V166.93C600.533 167.235 600.812 167.483 601.14 167.649C601.467 167.814 601.832 167.893 602.199 167.877C603.632 167.877 604.958 166.806 604.958 164.649C604.958 162.82 603.854 161.593 602.388 161.593C601.956 161.575 601.528 161.674 601.148 161.88C600.768 162.086 600.451 162.391 600.231 162.763L600.181 161.733H599.193ZM600.379 165.744C600.349 165.597 600.332 165.449 600.329 165.299V164.27C600.35 163.809 600.538 163.372 600.858 163.04C601.178 162.708 601.608 162.504 602.067 162.466C603.228 162.466 603.871 163.496 603.871 164.698C603.871 166.073 603.187 167.02 602.026 167.02C601.649 167.02 601.282 166.895 600.984 166.664C600.686 166.433 600.473 166.109 600.379 165.744ZM588.92 166.748C588.92 168.19 588.805 168.659 588.509 169.005C588.179 169.302 587.75 169.466 587.306 169.466L587.422 170.29C588.11 170.299 588.778 170.056 589.299 169.606C589.58 169.264 589.789 168.87 589.914 168.445C590.039 168.021 590.076 167.575 590.024 167.136V161.684H588.92V166.748ZM597.151 166.099C597.151 166.717 597.151 167.268 597.2 167.746H596.22L596.154 166.766C595.949 167.113 595.656 167.399 595.305 167.596C594.953 167.793 594.556 167.893 594.153 167.886C593.198 167.886 592.061 167.367 592.061 165.251V161.734H593.165V165.028C593.165 166.173 593.519 166.939 594.515 166.939C594.72 166.941 594.923 166.902 595.113 166.824C595.303 166.747 595.476 166.633 595.621 166.488C595.766 166.343 595.88 166.17 595.958 165.981C596.035 165.791 596.074 165.587 596.072 165.382V161.693H597.175V166.066L597.151 166.099ZM606.924 161.728L608.25 165.277C608.39 165.672 608.538 166.15 608.637 166.504C608.681 166.367 608.726 166.215 608.773 166.057C608.849 165.797 608.932 165.518 609.024 165.252L610.226 161.728H611.388L609.741 166.01C608.917 168.069 608.415 169.131 607.657 169.774C607.275 170.122 606.81 170.366 606.306 170.482L606.035 169.56C606.387 169.444 606.714 169.262 606.998 169.024C607.4 168.697 607.719 168.279 607.929 167.805C607.974 167.723 608.004 167.634 608.019 167.542C608.01 167.443 607.985 167.345 607.945 167.254L605.705 161.711H606.908L606.924 161.728ZM618.044 165.753C617.951 165.5 617.912 165.231 617.929 164.962H622.164C622.175 164.792 622.175 164.622 622.164 164.452C622.164 163.348 621.67 161.619 619.694 161.619C617.931 161.619 616.853 163.052 616.853 164.864C616.818 165.266 616.871 165.671 617.008 166.051C617.145 166.431 617.362 166.777 617.646 167.064C617.929 167.352 618.271 167.575 618.649 167.719C619.027 167.862 619.431 167.922 619.834 167.894C620.525 167.913 621.212 167.787 621.851 167.524L621.662 166.7C621.141 166.919 620.58 167.026 620.015 167.013C619.594 167.046 619.174 166.941 618.818 166.714C618.462 166.486 618.19 166.149 618.044 165.753ZM621.16 164.106C621.192 163.886 621.176 163.661 621.114 163.448C621.051 163.234 620.944 163.037 620.799 162.868C620.654 162.699 620.474 162.564 620.272 162.471C620.07 162.377 619.85 162.328 619.628 162.327C619.176 162.36 618.752 162.56 618.439 162.89C618.127 163.219 617.949 163.652 617.94 164.106H621.16ZM623.789 161.723C623.839 162.283 623.839 162.892 623.839 163.6L623.798 163.609V167.726H624.885V164.523C624.887 164.352 624.903 164.181 624.934 164.012C624.968 163.64 625.136 163.292 625.407 163.034C625.679 162.777 626.034 162.627 626.408 162.612C626.534 162.598 626.661 162.598 626.787 162.612V161.583C626.683 161.569 626.578 161.569 626.474 161.583C626.097 161.605 625.736 161.743 625.441 161.979C625.146 162.215 624.931 162.537 624.827 162.9H624.778V161.723H623.789Z" fill="#9359BB"/>
<path fill-rule="evenodd" clip-rule="evenodd" d="M617.831 151.979C617.849 152.253 617.805 152.527 617.703 152.782C617.601 153.036 617.443 153.265 617.242 153.451C617.04 153.637 616.799 153.776 616.537 153.856C616.275 153.937 615.998 153.959 615.727 153.919C615.364 153.868 615.025 153.709 614.753 153.463C614.48 153.218 614.286 152.898 614.196 152.542C614.107 152.186 614.126 151.812 614.251 151.467C614.375 151.122 614.599 150.822 614.894 150.604C615.189 150.387 615.543 150.263 615.909 150.247C616.149 150.235 616.389 150.269 616.615 150.35C616.842 150.43 617.05 150.554 617.229 150.715C617.407 150.876 617.552 151.07 617.656 151.287C617.759 151.504 617.819 151.739 617.831 151.979ZM607.063 173.307C602.161 173.307 597.853 171.548 595.626 168.951C596.49 171.288 598.05 173.304 600.095 174.727C602.139 176.151 604.571 176.914 607.062 176.914C609.554 176.914 611.986 176.151 614.03 174.727C616.075 173.304 617.635 171.288 618.499 168.951C616.277 171.548 611.986 173.307 607.063 173.307ZM618.499 160.772C616.272 158.174 611.964 156.415 607.063 156.415C602.139 156.415 597.853 158.169 595.626 160.772C596.491 158.435 598.05 156.419 600.095 154.996C602.14 153.572 604.571 152.808 607.063 152.808C609.554 152.808 611.986 153.572 614.031 154.996C616.075 156.419 617.635 158.435 618.499 160.772ZM600.315 178.363C600.343 178.824 600.234 179.282 600.001 179.68C599.768 180.078 599.421 180.398 599.006 180.599C598.591 180.799 598.125 180.872 597.668 180.807C597.211 180.742 596.784 180.542 596.441 180.234C596.098 179.925 595.855 179.522 595.742 179.074C595.629 178.627 595.652 178.156 595.807 177.722C595.963 177.288 596.244 176.91 596.616 176.636C596.987 176.362 597.431 176.205 597.892 176.184C598.347 176.161 598.798 176.273 599.19 176.506C599.581 176.738 599.895 177.081 600.093 177.491C600.224 177.764 600.299 178.06 600.315 178.363ZM595.435 155.619C595.659 155.759 595.919 155.83 596.183 155.823C596.54 155.809 596.877 155.655 597.121 155.394C597.365 155.133 597.495 154.786 597.485 154.429C597.473 154.165 597.384 153.911 597.229 153.697C597.074 153.484 596.859 153.321 596.612 153.228C596.364 153.136 596.095 153.119 595.838 153.18C595.58 153.241 595.347 153.377 595.167 153.57C594.986 153.763 594.866 154.005 594.823 154.266C594.78 154.527 594.816 154.794 594.925 155.035C595.033 155.275 595.211 155.479 595.435 155.619Z" fill="#9359BB"/>
<path d="M97 38.945H86.477C85.2742 38.946 84.1202 38.4698 83.268 37.621L83.213 37.561C82.3959 36.7265 81.937 35.6059 81.934 34.438V24H55.631C54.907 24 54.247 24.294 53.771 24.765C53.5269 25.0063 53.333 25.2936 53.2007 25.6103C53.0683 25.927 53.0001 26.2668 53 26.61V76.39C53 77.109 53.296 77.763 53.772 78.234C54.2665 78.725 54.9352 79.0004 55.632 79H94.369C95.093 79 95.753 78.706 96.229 78.234C96.473 77.9929 96.6668 77.7057 96.7992 77.3892C96.9315 77.0727 96.9998 76.7331 97 76.39V38.945Z" fill="#101214"/>
<path d="M96.507 39.328H86.305C85.1394 39.3289 84.021 38.8675 83.195 38.045L83.141 37.988C82.3486 37.1786 81.9036 36.0917 81.901 34.959V24.84H56.4C55.699 24.84 55.06 25.125 54.598 25.582C54.3613 25.8158 54.1734 26.0942 54.045 26.4011C53.9166 26.708 53.8503 27.0373 53.85 27.37V75.634C53.85 76.331 54.137 76.965 54.598 77.423C55.059 77.88 55.698 78.165 56.401 78.165H93.955C94.657 78.165 95.296 77.88 95.757 77.423C95.994 77.1892 96.1822 76.9107 96.3108 76.6036C96.4394 76.2965 96.5057 75.9669 96.506 75.634V39.328H96.507ZM83.754 26.138V34.959C83.754 35.637 84.024 36.252 84.461 36.704L84.505 36.745C84.968 37.205 85.605 37.49 86.305 37.49H95.196L83.754 26.138ZM83.484 23.268L98.09 37.758C98.27 37.938 98.36 38.172 98.36 38.409V75.631C98.36 76.831 97.865 77.921 97.069 78.714C96.2433 79.5372 95.125 79.9996 93.959 80H56.403C55.194 80 54.093 79.51 53.295 78.72C52.8853 78.3168 52.5599 77.8361 52.3375 77.306C52.1152 76.7759 52.0005 76.2069 52 75.632V27.37C52 26.17 52.495 25.08 53.291 24.287C54.1166 23.4634 55.2349 23.0006 56.401 23H82.828C83.083 23 83.315 23.103 83.484 23.268ZM59.766 71.262C59.6447 71.2625 59.5245 71.2391 59.4122 71.1932C59.3 71.1472 59.1979 71.0796 59.1118 70.9941C59.0257 70.9087 58.9573 70.8071 58.9105 70.6952C58.8637 70.5833 58.8394 70.4633 58.839 70.342C58.839 69.835 59.254 69.422 59.766 69.422H85.106C85.617 69.422 86.033 69.835 86.033 70.342C86.033 70.85 85.617 71.262 85.106 71.262H59.766ZM59.766 65.817C59.6447 65.8175 59.5245 65.7941 59.4122 65.7482C59.3 65.7022 59.1979 65.6346 59.1118 65.5491C59.0257 65.4637 58.9573 65.3621 58.9105 65.2502C58.8637 65.1383 58.8394 65.0183 58.839 64.897C58.839 64.39 59.254 63.979 59.766 63.979H76.876C77.387 63.979 77.803 64.39 77.803 64.898C77.803 65.406 77.388 65.818 76.876 65.818L59.766 65.817ZM59.766 60.375C59.6448 60.3755 59.5247 60.3522 59.4125 60.3063C59.3003 60.2604 59.1982 60.1928 59.1122 60.1075C59.0261 60.0222 58.9577 59.9207 58.9108 59.8089C58.8639 59.6971 58.8395 59.5772 58.839 59.456C58.839 58.948 59.254 58.536 59.766 58.536H71.388C71.899 58.536 72.315 58.949 72.315 59.456C72.315 59.964 71.9 60.376 71.388 60.376H59.765L59.766 60.375Z" fill="#9359BB"/>
<path d="M119 45H32C27.5817 45 24 48.5817 24 53C24 57.4183 27.5817 61 32 61H119C123.418 61 127 57.4183 127 53C127 48.5817 123.418 45 119 45Z" fill="#9359BB"/>
<path d="M32.0929 56.0887C31.6945 56.0932 31.3034 55.9821 30.9669 55.7687C30.6329 55.5537 30.3679 55.2377 30.1719 54.8207C29.9769 54.4017 29.8799 53.8877 29.8799 53.2797C29.8799 52.6547 29.9809 52.1347 30.1819 51.7197C30.3839 51.3037 30.6509 50.9927 30.9849 50.7867C31.3158 50.5798 31.6987 50.4712 32.0889 50.4737C32.3949 50.4737 32.6489 50.5267 32.8529 50.6307C33.0589 50.7327 33.2239 50.8607 33.3499 51.0137C33.4779 51.1657 33.5749 51.3138 33.6409 51.4618H33.6869V48.7267H35.1969V55.9997H33.7049V55.1257H33.6409C33.5618 55.2894 33.4601 55.4412 33.3389 55.5767C33.1995 55.7322 33.0292 55.8568 32.8389 55.9427C32.6042 56.0463 32.3493 56.0962 32.0929 56.0887ZM32.5729 54.8847C32.8159 54.8847 33.0219 54.8187 33.1899 54.6857C33.3599 54.5507 33.4899 54.3627 33.5799 54.1207C33.6729 53.8797 33.7199 53.5967 33.7199 53.2727C33.7199 52.9477 33.6739 52.6667 33.5839 52.4277C33.4939 52.1877 33.3639 52.0037 33.1939 51.8737C33.0145 51.7403 32.7954 51.6713 32.5719 51.6777C32.3454 51.6708 32.1235 51.7425 31.9439 51.8807C31.7739 52.0157 31.6439 52.2028 31.5569 52.4408C31.4644 52.7082 31.4197 52.9898 31.4249 53.2727C31.4249 53.5897 31.4689 53.8697 31.5559 54.1137C31.6459 54.3557 31.7759 54.5447 31.9439 54.6827C32.1236 54.8206 32.3455 54.892 32.5719 54.8847H32.5729ZM39.1259 56.1057C38.5649 56.1057 38.0819 55.9927 37.6769 55.7657C37.2781 55.5397 36.9547 55.2013 36.7469 54.7927C36.5289 54.3707 36.4199 53.8727 36.4199 53.2977C36.4199 52.7357 36.5289 52.2437 36.7469 51.8197C36.9649 51.3967 37.2709 51.0658 37.6669 50.8298C38.0639 50.5928 38.5309 50.4737 39.0659 50.4737C39.4259 50.4737 39.7599 50.5317 40.0709 50.6477C40.3829 50.7617 40.6549 50.9337 40.8869 51.1627C41.1219 51.3927 41.3039 51.6817 41.4339 52.0297C41.5639 52.3757 41.6299 52.7797 41.6299 53.2437V53.6597H37.0239V52.7217H40.2059C40.2059 52.5037 40.1579 52.3117 40.0629 52.1437C39.971 51.9779 39.8345 51.8411 39.6689 51.7487C39.4928 51.6493 39.2931 51.5992 39.0909 51.6037C38.8609 51.6037 38.6569 51.6567 38.4799 51.7637C38.3073 51.8651 38.1651 52.0108 38.0679 52.1857C37.9679 52.3607 37.9179 52.5557 37.9149 52.7717V53.6627C37.9149 53.9327 37.9649 54.1657 38.0649 54.3627C38.1659 54.5587 38.3089 54.7107 38.4939 54.8177C38.6789 54.9237 38.8979 54.9777 39.1509 54.9777C39.3189 54.9777 39.4729 54.9537 39.6119 54.9057C39.7457 54.8628 39.868 54.7899 39.9695 54.6928C40.0711 54.5956 40.1491 54.4766 40.1979 54.3447L41.5979 54.4377C41.5315 54.7642 41.3808 55.0675 41.1609 55.3177C40.9429 55.5667 40.6609 55.7607 40.3159 55.9007C39.9719 56.0377 39.5759 56.1057 39.1259 56.1057ZM47.7559 50.5457L45.8489 55.9997H44.1439L42.2369 50.5447H43.8349L44.9679 54.4478H45.0249L46.1539 50.5447H47.7549L47.7559 50.5457ZM51.0179 56.1057C50.4599 56.1057 49.9789 55.9877 49.5769 55.7507C49.1797 55.5152 48.8589 55.1701 48.6529 54.7567C48.4399 54.3327 48.3329 53.8457 48.3329 53.2937C48.3329 52.7347 48.4409 52.2447 48.6569 51.8237C48.8643 51.4115 49.1862 51.0678 49.5839 50.8337C49.9839 50.5937 50.4599 50.4737 51.0109 50.4737C51.4869 50.4737 51.9039 50.5607 52.2609 50.7337C52.6189 50.9057 52.9009 51.1488 53.1099 51.4618C53.3179 51.7738 53.4329 52.1417 53.4549 52.5617H52.0269C51.9978 52.3131 51.8849 52.0818 51.7069 51.9057C51.5369 51.7367 51.3129 51.6527 51.0369 51.6527C50.8019 51.6527 50.5969 51.7167 50.4219 51.8447C50.2373 51.9858 50.0968 52.1766 50.0169 52.3947C49.9128 52.6755 49.8633 52.9735 49.8709 53.2727C49.8709 53.6207 49.9189 53.9167 50.0129 54.1597C50.1109 54.4037 50.2469 54.5897 50.4219 54.7177C50.5969 54.8457 50.8019 54.9097 51.0359 54.9097C51.1973 54.9122 51.3568 54.8755 51.5009 54.8027C51.6409 54.7316 51.7598 54.6251 51.8459 54.4937C51.9379 54.3567 51.9989 54.1927 52.0259 54.0007H53.4539C53.4385 54.3908 53.3213 54.77 53.1139 55.1008C52.9089 55.4195 52.62 55.6756 52.2789 55.8407C51.9239 56.0177 51.5029 56.1057 51.0179 56.1057ZM57.0879 56.1057C56.5359 56.1057 56.0579 55.9887 55.6559 55.7547C55.2592 55.5211 54.9378 55.1786 54.7299 54.7677C54.5119 54.3437 54.4029 53.8527 54.4029 53.2937C54.4029 52.7307 54.5119 52.2377 54.7299 51.8167C54.9469 51.3927 55.2559 51.0638 55.6559 50.8298C56.0589 50.5928 56.5359 50.4737 57.0869 50.4737C57.6389 50.4737 58.1149 50.5928 58.5149 50.8298C58.9169 51.0638 59.2279 51.3927 59.4449 51.8167C59.6629 52.2377 59.7719 52.7307 59.7719 53.2937C59.7719 53.8527 59.6629 54.3437 59.4459 54.7677C59.2372 55.1793 58.9143 55.522 58.5159 55.7547C58.1149 55.9887 57.6389 56.1057 57.0879 56.1057ZM57.0949 54.9347C57.3232 54.9424 57.5464 54.8667 57.7229 54.7217C57.9005 54.563 58.0318 54.3591 58.1029 54.1317C58.1909 53.8837 58.2339 53.6007 58.2339 53.2827C58.2339 52.9657 58.1909 52.6827 58.1039 52.4347C58.0328 52.2074 57.9015 52.0035 57.7239 51.8447C57.5478 51.6974 57.3234 51.6205 57.0939 51.6287C56.8618 51.6214 56.6349 51.6981 56.4549 51.8447C56.2849 51.9897 56.1549 52.1857 56.0679 52.4347C55.9791 52.7085 55.9362 52.995 55.9409 53.2827C55.9409 53.6007 55.9829 53.8827 56.0679 54.1327C56.1559 54.3807 56.2849 54.5767 56.4549 54.7217C56.6361 54.8667 56.863 54.9422 57.0949 54.9347ZM62.4689 52.8467V55.9997H60.9559V50.5447H62.3979V51.5077H62.4609C62.5819 51.1907 62.7849 50.9397 63.0689 50.7547C63.3529 50.5677 63.6969 50.4747 64.1019 50.4747C64.4809 50.4747 64.8119 50.5567 65.0919 50.7227C65.3749 50.8887 65.5939 51.1257 65.7499 51.4327C65.9059 51.7387 65.9839 52.1027 65.9839 52.5267V55.9997H64.4719V52.7967C64.4739 52.4627 64.3889 52.2027 64.2159 52.0157C64.0429 51.8257 63.8049 51.7307 63.5019 51.7307C63.2979 51.7307 63.1179 51.7747 62.9619 51.8627C62.8064 51.9522 62.6805 52.0854 62.5999 52.2457C62.51 52.4328 62.4652 52.6393 62.4689 52.8467ZM70.2779 50.5447V51.6817H66.9929V50.5447H70.2779ZM67.7379 49.2387H69.2509V54.3237C69.2509 54.4637 69.2729 54.5717 69.3149 54.6507C69.3538 54.7232 69.4167 54.7798 69.4929 54.8107C69.5709 54.8407 69.6609 54.8557 69.7629 54.8557C69.8329 54.8557 69.9049 54.8507 69.9759 54.8387L70.1389 54.8067L70.3769 55.9317C70.2713 55.9632 70.1646 55.9906 70.0569 56.0137C69.8926 56.0501 69.7251 56.0702 69.5569 56.0737C69.2306 56.0941 68.9036 56.0447 68.5979 55.9287C68.3371 55.8265 68.115 55.645 67.9629 55.4097C67.8109 55.1757 67.7359 54.8797 67.7389 54.5227L67.7379 49.2387ZM73.0179 56.1027C72.6709 56.1027 72.3609 56.0427 72.0879 55.9217C71.825 55.8064 71.6007 55.618 71.4419 55.3787C71.2859 55.1367 71.2079 54.8357 71.2079 54.4767C71.2079 54.1737 71.2629 53.9187 71.3739 53.7127C71.4859 53.5067 71.6369 53.3407 71.8289 53.2157C72.0209 53.0897 72.2389 52.9957 72.4819 52.9317C72.7363 52.8664 72.9954 52.8212 73.2569 52.7967C73.5739 52.7637 73.8289 52.7328 74.0239 52.7048C74.2179 52.6738 74.3589 52.6287 74.4459 52.5697C74.4889 52.5412 74.5236 52.5019 74.5468 52.4557C74.5699 52.4096 74.5807 52.3583 74.5779 52.3067V52.2847C74.5779 52.0607 74.5069 51.8867 74.3649 51.7637C74.2249 51.6397 74.0259 51.5787 73.7679 51.5787C73.4959 51.5787 73.2789 51.6387 73.1179 51.7587C72.9636 51.8676 72.8508 52.0255 72.7979 52.2067L71.3989 52.0938C71.4699 51.7618 71.6099 51.4757 71.8189 51.2337C72.0369 50.9835 72.3135 50.7911 72.6239 50.6737C72.9913 50.5343 73.382 50.4664 73.7749 50.4737C74.0779 50.4737 74.3679 50.5097 74.6449 50.5807C74.9249 50.6517 75.1719 50.7617 75.3869 50.9107C75.6049 51.0607 75.7769 51.2517 75.9019 51.4857C76.0279 51.7187 76.0899 51.9957 76.0899 52.3207V55.9997H74.6559V55.2437H74.6129C74.525 55.4143 74.4059 55.5669 74.2619 55.6937C74.1059 55.8269 73.926 55.9294 73.7319 55.9957C73.5018 56.0707 73.2599 56.1068 73.0179 56.1027ZM73.4519 55.0587C73.6739 55.0587 73.8709 55.0147 74.0419 54.9277C74.2119 54.8377 74.3459 54.7167 74.4419 54.5647C74.5398 54.411 74.5905 54.232 74.5879 54.0497V53.4717C74.5269 53.5085 74.4614 53.5371 74.3929 53.5567C74.3028 53.5827 74.2118 53.605 74.1199 53.6237C74.0181 53.6429 73.9161 53.6609 73.8139 53.6777L73.5369 53.7167C73.3772 53.7379 73.2209 53.7796 73.0719 53.8407C72.9505 53.889 72.844 53.9683 72.7629 54.0707C72.6868 54.1735 72.648 54.299 72.6529 54.4267C72.6529 54.6327 72.7279 54.7897 72.8769 54.8987C73.0279 55.0057 73.2199 55.0587 73.4519 55.0587ZM77.4639 55.9997V50.5447H78.9769V55.9997H77.4639ZM78.2239 49.8417C78.0092 49.846 77.8013 49.766 77.6449 49.6187C77.5691 49.55 77.5087 49.466 77.4677 49.3722C77.4266 49.2785 77.4059 49.1771 77.4069 49.0747C77.4061 48.9736 77.4269 48.8735 77.468 48.781C77.509 48.6886 77.5693 48.606 77.6449 48.5387C77.8003 48.3894 78.0085 48.3078 78.2239 48.3117C78.4489 48.3117 78.6409 48.3877 78.7989 48.5387C78.8755 48.6063 78.9369 48.6894 78.9789 48.7825C79.0209 48.8756 79.0427 48.9766 79.0427 49.0787C79.0427 49.1809 79.0209 49.2819 78.9789 49.375C78.9369 49.4681 78.8755 49.5512 78.7989 49.6187C78.6441 49.766 78.4375 49.8461 78.2239 49.8417ZM81.9009 52.8467V55.9997H80.3899V50.5447H81.8309V51.5077H81.8949C82.0159 51.1907 82.2179 50.9397 82.5029 50.7547C82.7869 50.5677 83.1309 50.4747 83.5359 50.4747C83.9149 50.4747 84.2449 50.5567 84.5259 50.7227C84.8079 50.8887 85.0269 51.1257 85.1839 51.4327C85.3399 51.7387 85.4179 52.1027 85.4179 52.5267V55.9997H83.9049V52.7967C83.9079 52.4627 83.8219 52.2027 83.6499 52.0157C83.4769 51.8257 83.2389 51.7307 82.9359 51.7307C82.7319 51.7307 82.5519 51.7747 82.3959 51.8627C82.2404 51.9522 82.1145 52.0854 82.0339 52.2457C81.9437 52.4327 81.8985 52.6382 81.9019 52.8457L81.9009 52.8467ZM89.2949 56.1067C88.7349 56.1067 88.2509 55.9927 87.8459 55.7657C87.4471 55.5397 87.1237 55.2013 86.9159 54.7927C86.6979 54.3707 86.5889 53.8727 86.5889 53.2977C86.5889 52.7357 86.6989 52.2437 86.9159 51.8197C87.1339 51.3967 87.4399 51.0658 87.8359 50.8298C88.2329 50.5928 88.6999 50.4737 89.2349 50.4737C89.5949 50.4737 89.9299 50.5317 90.2399 50.6477C90.5519 50.7617 90.8249 50.9337 91.0569 51.1627C91.2909 51.3927 91.4729 51.6817 91.6029 52.0297C91.7329 52.3757 91.7989 52.7797 91.7989 53.2437V53.6597H87.1929V52.7217H90.3749C90.3749 52.5037 90.3269 52.3117 90.2329 52.1437C90.1407 51.9778 90.0039 51.841 89.8379 51.7487C89.6618 51.6493 89.4621 51.5992 89.2599 51.6037C89.0299 51.6037 88.8259 51.6567 88.6489 51.7637C88.4763 51.8651 88.3341 52.0108 88.2369 52.1857C88.1369 52.3607 88.0869 52.5557 88.0839 52.7717V53.6627C88.0839 53.9327 88.1339 54.1657 88.2339 54.3627C88.3349 54.5587 88.4779 54.7107 88.6639 54.8177C88.8479 54.9237 89.0669 54.9777 89.3199 54.9777C89.4879 54.9777 89.6419 54.9537 89.7819 54.9057C89.9158 54.8628 90.0381 54.79 90.1396 54.6928C90.2411 54.5956 90.3192 54.4766 90.3679 54.3447L91.7669 54.4377C91.6959 54.7737 91.5499 55.0677 91.3299 55.3177C91.1119 55.5667 90.8299 55.7607 90.4849 55.9007C90.1409 56.0377 89.7449 56.1067 89.2949 56.1067ZM92.9849 55.9997V50.5447H94.4529V51.4967H94.5089C94.6089 51.1587 94.7759 50.9027 95.0099 50.7297C95.2439 50.5547 95.5139 50.4667 95.8199 50.4667C95.98 50.4682 96.1395 50.4863 96.2959 50.5207V51.8627C96.0867 51.8094 95.8718 51.7818 95.6559 51.7807C95.448 51.7774 95.2427 51.8277 95.0599 51.9267C94.8834 52.0222 94.7372 52.1654 94.638 52.3399C94.5388 52.5144 94.4906 52.7132 94.4989 52.9137V55.9997H92.9849ZM97.5369 56.0917C97.4247 56.0934 97.3133 56.0723 97.2095 56.0296C97.1057 55.987 97.0116 55.9238 96.9329 55.8438C96.8529 55.7651 96.7896 55.671 96.747 55.5672C96.7044 55.4633 96.6833 55.352 96.6849 55.2397C96.6849 55.0077 96.7669 54.8097 96.9329 54.6437C97.0114 54.5634 97.1054 54.4998 97.2093 54.4568C97.3131 54.4138 97.4246 54.3924 97.5369 54.3937C97.7639 54.3937 97.9629 54.4777 98.1329 54.6437C98.3039 54.8087 98.3889 55.0077 98.3889 55.2397C98.3889 55.3957 98.3489 55.5397 98.2689 55.6697C98.192 55.7963 98.0857 55.9023 97.9589 55.9787C97.8312 56.0542 97.6853 56.0933 97.5369 56.0917ZM99.8309 50.5447H101.344V56.2697C101.344 56.6907 101.261 57.0317 101.095 57.2927C100.93 57.5527 100.692 57.7427 100.382 57.8637C100.074 57.9847 99.7059 58.0447 99.2769 58.0447C99.2249 58.0447 99.1749 58.0447 99.1279 58.0417C99.0779 58.0417 99.0259 58.0407 98.9719 58.0377V56.8557L99.0779 56.8587C99.1069 56.8617 99.1379 56.8627 99.1709 56.8627C99.4149 56.8627 99.5849 56.8107 99.6819 56.7067C99.7819 56.6047 99.8319 56.4507 99.8319 56.2447L99.8309 50.5447ZM100.584 49.8417C100.371 49.8453 100.164 49.7653 100.009 49.6187C99.9321 49.5506 99.8708 49.4668 99.829 49.3729C99.7873 49.2791 99.7661 49.1774 99.7669 49.0747C99.7669 48.8667 99.8469 48.6877 100.009 48.5387C100.163 48.39 100.37 48.3084 100.584 48.3117C100.811 48.3117 101.004 48.3877 101.163 48.5387C101.324 48.6887 101.404 48.8667 101.404 49.0747C101.405 49.1774 101.384 49.279 101.342 49.3728C101.301 49.4666 101.24 49.5505 101.163 49.6187C101.007 49.7665 100.799 49.8467 100.584 49.8417ZM107.294 52.1008L105.909 52.1857C105.886 52.0679 105.834 51.9578 105.757 51.8657C105.674 51.7657 105.568 51.6869 105.448 51.6357C105.306 51.5729 105.152 51.5421 104.997 51.5457C104.762 51.5457 104.565 51.5957 104.404 51.6957C104.243 51.7927 104.162 51.9227 104.162 52.0857C104.162 52.2157 104.214 52.3257 104.318 52.4157C104.423 52.5057 104.601 52.5787 104.855 52.6337L105.842 52.8317C106.372 52.9417 106.767 53.1168 107.028 53.3578C107.288 53.5988 107.418 53.9167 107.418 54.3097C107.418 54.6667 107.313 54.9797 107.102 55.2497C106.894 55.5197 106.608 55.7307 106.243 55.8827C105.844 56.0384 105.418 56.1142 104.99 56.1057C104.267 56.1057 103.692 55.9557 103.264 55.6557C103.059 55.5146 102.886 55.3314 102.756 55.1183C102.627 54.9052 102.544 54.6671 102.514 54.4197L104.002 54.3417C104.047 54.5617 104.156 54.7297 104.329 54.8457C104.502 54.9597 104.723 55.0157 104.993 55.0157C105.258 55.0157 105.471 54.9657 105.632 54.8637C105.796 54.7597 105.878 54.6258 105.881 54.4618C105.88 54.3959 105.864 54.331 105.834 54.2725C105.804 54.2139 105.76 54.1633 105.707 54.1247C105.593 54.0347 105.418 53.9657 105.181 53.9187L104.237 53.7307C103.704 53.6237 103.307 53.4397 103.047 53.1767C102.789 52.9137 102.66 52.5787 102.66 52.1717C102.66 51.8217 102.755 51.5197 102.944 51.2657C103.136 51.0127 103.405 50.8177 103.75 50.6797C104.098 50.5427 104.505 50.4737 104.972 50.4737C105.661 50.4737 106.203 50.6197 106.598 50.9107C106.996 51.2017 107.228 51.5988 107.294 52.1008ZM111.036 56.1057C110.484 56.1057 110.007 55.9887 109.604 55.7547C109.207 55.5214 108.886 55.1788 108.678 54.7677C108.46 54.3437 108.351 53.8527 108.351 53.2937C108.351 52.7307 108.46 52.2377 108.678 51.8167C108.895 51.3927 109.204 51.0638 109.604 50.8298C110.007 50.5928 110.484 50.4737 111.036 50.4737C111.587 50.4737 112.063 50.5928 112.463 50.8298C112.866 51.0638 113.176 51.3927 113.394 51.8167C113.611 52.2377 113.72 52.7307 113.72 53.2937C113.72 53.8527 113.611 54.3437 113.394 54.7677C113.176 55.1887 112.866 55.5177 112.463 55.7547C112.063 55.9887 111.587 56.1057 111.036 56.1057ZM111.043 54.9347C111.294 54.9347 111.503 54.8637 111.671 54.7217C111.849 54.563 111.98 54.3591 112.051 54.1317C112.139 53.8837 112.183 53.6007 112.183 53.2827C112.183 52.9657 112.139 52.6827 112.051 52.4347C111.98 52.2074 111.849 52.0035 111.671 51.8447C111.495 51.6978 111.272 51.6209 111.043 51.6287C110.811 51.6213 110.583 51.698 110.403 51.8447C110.224 52.0033 110.09 52.207 110.016 52.4347C109.927 52.7085 109.884 52.995 109.889 53.2827C109.889 53.6007 109.931 53.8827 110.016 54.1327C110.104 54.3807 110.233 54.5767 110.403 54.7217C110.584 54.8666 110.811 54.9422 111.043 54.9347ZM116.417 52.8467V55.9997H114.904V50.5447H116.346V51.5077H116.41C116.53 51.1907 116.733 50.9397 117.017 50.7547C117.301 50.5677 117.645 50.4747 118.05 50.4747C118.429 50.4747 118.759 50.5567 119.041 50.7227C119.323 50.8887 119.542 51.1257 119.698 51.4327C119.854 51.7387 119.932 52.1027 119.932 52.5267V55.9997H118.42V52.7967C118.422 52.4627 118.337 52.2027 118.164 52.0157C117.991 51.8257 117.753 51.7307 117.45 51.7307C117.246 51.7307 117.067 51.7747 116.91 51.8627C116.754 51.9522 116.629 52.0854 116.548 52.2457C116.458 52.4328 116.413 52.6393 116.417 52.8467Z" fill="#251D2A"/>
<path d="M75 80V100C75 102.122 75.8429 104.157 77.3431 105.657C78.8434 107.157 80.8783 108 83 108H173" stroke="#9359BB" stroke-width="2"/>
<path d="M96 135.496C96 134.304 96.4737 133.16 97.3168 132.317C98.16 131.474 99.3036 131 100.496 131H136.223C136.813 131 137.398 131.116 137.944 131.342C138.489 131.568 138.985 131.899 139.402 132.317C139.82 132.734 140.151 133.23 140.377 133.775C140.603 134.321 140.719 134.906 140.719 135.496V171.223C140.719 171.813 140.603 172.398 140.377 172.944C140.151 173.489 139.82 173.985 139.402 174.402C138.985 174.82 138.489 175.151 137.944 175.377C137.398 175.603 136.813 175.719 136.223 175.719H100.496C99.3036 175.719 98.16 175.245 97.3168 174.402C96.4737 173.559 96 172.415 96 171.223V135.496Z" fill="#101214" stroke="#9359BB" stroke-width="2"/>
<path fill-rule="evenodd" clip-rule="evenodd" d="M111.028 152.15C110.944 151.879 110.897 151.509 110.897 151.053H110.873V147.057C110.873 145.701 110.54 144.689 109.885 144.024C109.218 143.358 108.182 143.025 106.764 143.025C106.137 143.02 105.513 143.098 104.907 143.259C104.386 143.384 103.882 143.57 103.406 143.814C103.239 143.9 103.132 143.987 103.073 144.073C103.013 144.159 102.989 144.307 102.989 144.505V145.109C102.989 145.368 103.073 145.491 103.239 145.491C103.304 145.488 103.368 145.475 103.43 145.454C103.572 145.41 103.712 145.356 103.847 145.294C104.265 145.123 104.695 144.982 105.133 144.874C105.553 144.768 105.985 144.714 106.419 144.714C107.336 144.714 107.979 144.899 108.36 145.281C108.729 145.664 108.92 146.317 108.92 147.255V148.155C108.444 148.044 107.991 147.945 107.55 147.884C107.132 147.822 106.71 147.789 106.288 147.785C105.062 147.785 104.097 148.105 103.37 148.747C102.644 149.388 102.287 150.239 102.287 151.287C102.287 152.274 102.584 153.063 103.168 153.655C103.752 154.247 104.549 154.543 105.55 154.543C106.955 154.543 108.122 153.976 109.051 152.841C109.182 153.125 109.301 153.359 109.42 153.569C109.539 153.766 109.682 153.963 109.849 154.148C109.968 154.259 110.087 154.321 110.206 154.321C110.318 154.316 110.426 154.277 110.516 154.21L111.266 153.692C111.421 153.569 111.492 153.445 111.492 153.322C111.49 153.222 111.462 153.124 111.409 153.038C111.26 152.752 111.133 152.455 111.028 152.15ZM107.288 152.705C106.895 152.847 106.48 152.922 106.062 152.927C105.514 152.927 105.097 152.779 104.811 152.471C104.514 152.175 104.371 151.743 104.371 151.164C104.371 150.547 104.561 150.079 104.954 149.746C105.347 149.413 105.931 149.252 106.729 149.252C107.098 149.252 107.467 149.277 107.848 149.326C108.229 149.376 108.598 149.45 108.944 149.536V150.054C108.944 150.473 108.896 150.831 108.825 151.127C108.751 151.417 108.613 151.687 108.42 151.916C108.098 152.286 107.717 152.557 107.288 152.705ZM115.172 154.136C115.267 154.222 115.41 154.259 115.625 154.259H116.649C116.863 154.259 117.03 154.222 117.125 154.136C117.22 154.05 117.292 153.889 117.351 153.643L119.185 145.701L121.031 153.655C121.079 153.902 121.162 154.062 121.257 154.148C121.353 154.235 121.508 154.272 121.734 154.272H122.758C122.96 154.272 123.115 154.222 123.211 154.148C123.306 154.074 123.389 153.914 123.461 153.667L126.331 144.135C126.367 144.035 126.395 143.931 126.414 143.826L126.419 143.795C126.429 143.734 126.438 143.682 126.438 143.629C126.438 143.419 126.331 143.321 126.14 143.321H125.033C124.818 143.321 124.663 143.37 124.568 143.444C124.485 143.518 124.401 143.678 124.33 143.925L122.27 152.187L120.388 143.925C120.341 143.691 120.257 143.518 120.162 143.444C120.067 143.358 119.912 143.321 119.686 143.321H118.733C118.518 143.321 118.352 143.37 118.256 143.444C118.161 143.518 118.09 143.678 118.03 143.925L116.172 152.089L114.172 143.925C114.1 143.691 114.029 143.518 113.934 143.444C113.85 143.358 113.695 143.321 113.469 143.321H112.302C112.112 143.321 112.016 143.432 112.016 143.629C112.016 143.715 112.052 143.876 112.123 144.122L114.922 153.655C114.993 153.889 115.077 154.062 115.172 154.136ZM129.093 154.37C129.693 154.518 130.309 154.593 130.927 154.592C131.505 154.596 132.08 154.509 132.63 154.333C133.142 154.173 133.583 153.951 133.952 153.643C134.321 153.347 134.607 152.977 134.822 152.557C135.024 152.138 135.131 151.657 135.131 151.127C135.131 150.486 134.953 149.906 134.583 149.4C134.214 148.895 133.595 148.5 132.738 148.216L131.047 147.662C130.415 147.452 129.975 147.218 129.737 146.983C129.62 146.87 129.528 146.734 129.467 146.583C129.405 146.432 129.375 146.271 129.379 146.108C129.379 145.602 129.57 145.244 129.939 145.01C130.308 144.776 130.844 144.665 131.523 144.665C132.368 144.665 133.131 144.825 133.809 145.146C134.012 145.244 134.167 145.294 134.262 145.294C134.441 145.294 134.536 145.158 134.536 144.899V144.32C134.536 144.147 134.5 144.011 134.429 143.913C134.357 143.802 134.238 143.703 134.071 143.604C133.913 143.512 133.745 143.438 133.571 143.382C133.347 143.308 133.121 143.242 132.892 143.185C132.642 143.136 132.392 143.086 132.118 143.049C131.853 143.014 131.587 142.998 131.32 143C130.796 143 130.296 143.062 129.82 143.21C129.37 143.344 128.95 143.562 128.581 143.851C128.227 144.123 127.934 144.468 127.724 144.862C127.51 145.257 127.402 145.713 127.402 146.231C127.402 146.872 127.605 147.477 127.998 148.019C128.391 148.574 129.034 148.993 129.903 149.277L131.63 149.832C132.214 150.029 132.618 150.239 132.833 150.473C133.047 150.708 133.154 150.991 133.154 151.336C133.154 151.842 132.94 152.237 132.535 152.508C132.13 152.779 131.547 152.915 130.796 152.915C130.32 152.915 129.856 152.866 129.379 152.767C128.928 152.671 128.489 152.526 128.069 152.335L127.948 152.284C127.89 152.258 127.831 152.234 127.772 152.212C127.703 152.188 127.63 152.175 127.557 152.175C127.379 152.175 127.283 152.298 127.283 152.557V153.186C127.283 153.297 127.307 153.421 127.355 153.532C127.402 153.643 127.533 153.766 127.724 153.877C128.034 154.062 128.498 154.222 129.093 154.37ZM134.596 158.04C134.102 157.404 131.325 157.734 130.066 157.887C129.69 157.934 129.631 157.604 129.972 157.357C132.184 155.804 135.82 156.251 136.244 156.769C136.667 157.298 136.126 160.934 134.055 162.676C133.737 162.946 133.432 162.805 133.573 162.452C134.043 161.287 135.091 158.663 134.596 158.04ZM132.984 159.875C129.113 162.734 123.489 164.252 118.653 164.252C111.876 164.252 105.769 161.746 101.157 157.581C100.792 157.251 101.121 156.804 101.557 157.063C106.546 159.958 112.699 161.711 119.065 161.711C123.36 161.711 128.078 160.817 132.42 158.981C133.067 158.687 133.62 159.405 132.984 159.875Z" fill="#9359BB"/>
<path d="M1 147.496C1 146.304 1.47368 145.16 2.31685 144.317C3.16001 143.474 4.30359 143 5.496 143H41.223C41.8134 143 42.3981 143.116 42.9435 143.342C43.489 143.568 43.9847 143.899 44.4022 144.317C44.8196 144.734 45.1508 145.23 45.3768 145.775C45.6027 146.321 45.719 146.906 45.719 147.496V183.223C45.719 183.813 45.6027 184.398 45.3768 184.944C45.1508 185.489 44.8196 185.985 44.4022 186.402C43.9847 186.82 43.489 187.151 42.9435 187.377C42.3981 187.603 41.8134 187.719 41.223 187.719H5.496C4.30359 187.719 3.16001 187.245 2.31685 186.402C1.47368 185.559 1 184.415 1 183.223V147.496Z" fill="#101214" stroke="#9359BB" stroke-width="2"/>
<path d="M22.664 150.667C22.214 150.667 21.85 151.071 21.85 151.571L21.852 151.593C21.852 151.661 21.848 151.743 21.85 151.802C21.86 152.09 21.924 152.31 21.961 152.575C22.03 153.143 22.087 153.614 22.051 154.051C22.017 154.216 21.896 154.367 21.788 154.472L21.768 154.816C19.1793 155.024 16.7603 156.187 14.981 158.079C14.892 158.018 14.735 157.905 14.688 157.87C14.543 157.89 14.396 157.935 14.205 157.823C13.841 157.578 13.509 157.24 13.108 156.833C12.924 156.638 12.791 156.452 12.573 156.264C12.523 156.221 12.447 156.164 12.392 156.12C12.2307 155.99 12.032 155.915 11.825 155.906C11.7021 155.899 11.5793 155.922 11.4667 155.972C11.3541 156.022 11.2548 156.097 11.177 156.193C10.897 156.544 10.987 157.081 11.377 157.392L11.389 157.401C11.442 157.445 11.509 157.5 11.557 157.537C11.789 157.708 12.001 157.795 12.232 157.931C12.719 158.232 13.122 158.481 13.442 158.781C13.567 158.914 13.589 159.149 13.605 159.251L13.865 159.484C12.4264 161.642 11.8352 164.256 12.205 166.823L11.865 166.922C11.775 167.038 11.648 167.22 11.515 167.275C11.097 167.407 10.626 167.455 10.057 167.515C9.79005 167.537 9.56005 167.524 9.27705 167.577C9.21405 167.589 9.12705 167.612 9.05905 167.628L9.05205 167.629L9.04005 167.633C8.56005 167.749 8.25305 168.19 8.35205 168.624C8.45205 169.058 8.91905 169.322 9.40205 169.218L9.41405 169.217L9.43005 169.211C9.49705 169.197 9.58105 169.18 9.64005 169.164C9.91805 169.09 10.12 168.98 10.37 168.885C10.908 168.691 11.354 168.53 11.789 168.467C11.97 168.453 12.161 168.579 12.256 168.632L12.611 168.572C13.4071 171.032 15.0761 173.116 17.303 174.43L17.155 174.784C17.208 174.922 17.267 175.109 17.227 175.244C17.069 175.654 16.799 176.086 16.491 176.568C16.341 176.791 16.189 176.963 16.055 177.218C16.022 177.279 15.981 177.373 15.95 177.437C15.741 177.885 15.895 178.4 16.296 178.593C16.7 178.788 17.202 178.583 17.419 178.134L17.421 178.133V178.131C17.451 178.067 17.496 177.984 17.521 177.924C17.637 177.66 17.675 177.434 17.756 177.178C17.972 176.637 18.09 176.07 18.386 175.717C18.467 175.62 18.6 175.583 18.736 175.546L18.921 175.212C21.336 176.142 24.0094 176.149 26.429 175.231C26.481 175.323 26.577 175.5 26.603 175.544C26.743 175.59 26.894 175.613 27.018 175.796C27.24 176.175 27.392 176.623 27.576 177.164C27.657 177.42 27.697 177.646 27.813 177.91C27.839 177.97 27.883 178.055 27.913 178.119C28.13 178.568 28.633 178.774 29.038 178.579C29.44 178.386 29.593 177.871 29.384 177.423C29.354 177.359 29.31 177.265 29.278 177.204C29.144 176.95 28.991 176.778 28.842 176.556C28.534 176.074 28.278 175.674 28.12 175.264C28.054 175.053 28.131 174.922 28.183 174.784C28.153 174.749 28.086 174.55 28.047 174.456C30.2812 173.131 31.9504 171.031 32.737 168.556C32.843 168.573 33.026 168.605 33.085 168.617C33.208 168.536 33.32 168.431 33.541 168.448C33.975 168.511 34.421 168.672 34.959 168.865C35.209 168.961 35.411 169.073 35.689 169.147C35.748 169.163 35.832 169.177 35.899 169.192L35.915 169.197L35.927 169.199C36.41 169.303 36.878 169.039 36.977 168.605C37.077 168.17 36.768 167.73 36.289 167.614C36.219 167.598 36.12 167.571 36.053 167.558C35.769 167.505 35.539 167.518 35.272 167.496C34.703 167.436 34.232 167.388 33.813 167.256C33.643 167.19 33.521 166.986 33.463 166.903L33.133 166.807C33.304 165.575 33.258 164.292 32.963 163.009C32.6751 161.751 32.1586 160.556 31.439 159.485C31.523 159.409 31.682 159.268 31.727 159.226C31.741 159.08 31.729 158.927 31.88 158.766C32.2 158.465 32.604 158.216 33.09 157.916C33.321 157.78 33.535 157.692 33.766 157.521C33.819 157.482 33.891 157.421 33.946 157.377C34.336 157.065 34.426 156.528 34.146 156.177C33.866 155.826 33.322 155.793 32.932 156.104C32.877 156.148 32.802 156.206 32.752 156.249C32.532 156.436 32.398 156.622 32.214 156.817C31.813 157.224 31.481 157.564 31.117 157.81C30.959 157.901 30.728 157.87 30.624 157.863L30.314 158.084C28.5323 156.215 26.1329 155.055 23.561 154.821C23.5533 154.7 23.5466 154.579 23.541 154.458C23.436 154.357 23.308 154.27 23.276 154.051C23.24 153.614 23.299 153.143 23.368 152.575C23.406 152.31 23.468 152.09 23.479 151.802C23.481 151.736 23.477 151.641 23.477 151.571C23.477 151.071 23.113 150.667 22.664 150.667ZM21.645 156.977L21.403 161.245L21.386 161.253C21.3808 161.383 21.3403 161.509 21.2691 161.617C21.1978 161.726 21.0984 161.813 20.9814 161.869C20.8645 161.926 20.7344 161.95 20.605 161.938C20.4757 161.926 20.352 161.88 20.247 161.803L20.241 161.806L16.741 159.325C18.0695 158.019 19.795 157.193 21.645 156.977ZM23.685 156.977C25.5229 157.206 27.2349 158.031 28.558 159.327L25.082 161.792L25.07 161.787C24.9651 161.863 24.8415 161.909 24.7124 161.921C24.5834 161.932 24.4535 161.909 24.3367 161.853C24.2199 161.797 24.1205 161.71 24.0489 161.602C23.9773 161.494 23.9362 161.368 23.93 161.239L23.926 161.238L23.685 156.977ZM15.472 160.919L18.667 163.777L18.664 163.795C18.7621 163.88 18.8352 163.99 18.8755 164.114C18.9158 164.237 18.9218 164.369 18.8929 164.496C18.8639 164.622 18.8011 164.738 18.7111 164.832C18.6211 164.926 18.5074 164.993 18.382 165.027L18.379 165.041L14.283 166.223C14.0793 164.372 14.497 162.506 15.472 160.919ZM29.832 160.921C30.3194 161.712 30.6738 162.577 30.881 163.482C31.092 164.402 31.145 165.321 31.058 166.209L26.942 165.024L26.938 165.006C26.813 164.972 26.6997 164.904 26.61 164.81C26.5204 164.717 26.4578 164.6 26.429 164.474C26.4001 164.348 26.4061 164.216 26.4463 164.092C26.4864 163.969 26.5593 163.859 26.657 163.774L26.655 163.765L29.832 160.921ZM22.008 163.998H23.318L24.131 165.015L23.839 166.284L22.664 166.849L21.485 166.282L21.193 165.013L22.008 163.998ZM26.205 167.478C26.2603 167.475 26.3157 167.48 26.37 167.49L26.377 167.482L30.613 168.198C29.9879 169.956 28.7947 171.455 27.222 172.459L25.577 168.486L25.582 168.48C25.5363 168.374 25.5169 168.258 25.5256 168.142C25.5343 168.026 25.5708 167.915 25.632 167.816C25.6932 167.718 25.7772 167.636 25.877 167.577C25.9768 167.518 26.0893 167.484 26.205 167.478ZM19.09 167.496C19.2077 167.498 19.3231 167.529 19.4261 167.586C19.529 167.643 19.6164 167.724 19.6804 167.823C19.7444 167.921 19.7832 168.034 19.7932 168.152C19.8033 168.269 19.7843 168.387 19.738 168.495L19.75 168.511L18.123 172.443C16.5614 171.443 15.3733 169.956 14.743 168.212L18.942 167.499L18.949 167.508C18.9952 167.499 19.0431 167.495 19.09 167.496ZM22.638 169.218C22.7539 169.214 22.869 169.239 22.973 169.29C23.1105 169.355 23.2234 169.462 23.295 169.596H23.31L25.38 173.336C23.6225 173.932 21.7175 173.93 19.961 173.331L22.027 169.597H22.031C22.0904 169.486 22.1777 169.393 22.2841 169.327C22.3906 169.26 22.5126 169.223 22.638 169.218Z" fill="#9359BB"/>
<path d="M119 132V116C119 113.878 119.843 111.843 121.343 110.343C122.843 108.843 124.878 108 127 108H173" stroke="#9359BB" stroke-width="2"/>
<path d="M24 143.5V116C24 113.878 24.8429 111.843 26.3431 110.343C27.8434 108.843 29.8783 108 32 108H185.5" stroke="#9359BB" stroke-width="2"/>
</g>
</g>
<defs>
<filter id="filter0_d_256_8149" x="197.632" y="95.7408" width="232.736" height="74.201" filterUnits="userSpaceOnUse" color-interpolation-filters="sRGB">
<feFlood flood-opacity="0" result="BackgroundImageFix"/>
<feColorMatrix in="SourceAlpha" type="matrix" values="0 0 0 0 0 0 0 0 0 0 0 0 0 0 0 0 0 0 127 0" result="hardAlpha"/>
<feOffset dy="4"/>
<feGaussianBlur stdDeviation="4.05"/>
<feComposite in2="hardAlpha" operator="out"/>
<feColorMatrix type="matrix" values="0 0 0 0 0 0 0 0 0 0.0333124 0 0 0 0 0.0677734 0 0 0 0.12 0"/>
<feBlend mode="normal" in2="BackgroundImageFix" result="effect1_dropShadow_256_8149"/>
<feBlend mode="normal" in="SourceGraphic" in2="effect1_dropShadow_256_8149" result="shape"/>
</filter>
<filter id="filter1_d_256_8149" x="187.266" y="82.732" width="253.468" height="79.7537" filterUnits="userSpaceOnUse" color-interpolation-filters="sRGB">
<feFlood flood-opacity="0" result="BackgroundImageFix"/>
<feColorMatrix in="SourceAlpha" type="matrix" values="0 0 0 0 0 0 0 0 0 0 0 0 0 0 0 0 0 0 127 0" result="hardAlpha"/>
<feOffset dy="4"/>
<feGaussianBlur stdDeviation="4.05"/>
<feComposite in2="hardAlpha" operator="out"/>
<feColorMatrix type="matrix" values="0 0 0 0 0 0 0 0 0 0.0333124 0 0 0 0 0.0677734 0 0 0 0.12 0"/>
<feBlend mode="normal" in2="BackgroundImageFix" result="effect1_dropShadow_256_8149"/>
<feBlend mode="normal" in="SourceGraphic" in2="effect1_dropShadow_256_8149" result="shape"/>
</filter>
<filter id="filter2_d_256_8149" x="176.9" y="68.9" width="274.2" height="85.3074" filterUnits="userSpaceOnUse" color-interpolation-filters="sRGB">
<feFlood flood-opacity="0" result="BackgroundImageFix"/>
<feColorMatrix in="SourceAlpha" type="matrix" values="0 0 0 0 0 0 0 0 0 0 0 0 0 0 0 0 0 0 127 0" result="hardAlpha"/>
<feOffset dy="4"/>
<feGaussianBlur stdDeviation="4.05"/>
<feComposite in2="hardAlpha" operator="out"/>
<feColorMatrix type="matrix" values="0 0 0 0 0 0 0 0 0 0.0333124 0 0 0 0 0.0677734 0 0 0 0.12 0"/>
<feBlend mode="normal" in2="BackgroundImageFix" result="effect1_dropShadow_256_8149"/>
<feBlend mode="normal" in="SourceGraphic" in2="effect1_dropShadow_256_8149" result="shape"/>
</filter>
<linearGradient id="paint0_linear_256_8149" x1="314.195" y1="-19" x2="314.195" y2="257" gradientUnits="userSpaceOnUse">
<stop stop-color="#C775FF"/>
<stop offset="1" stop-color="#180029" stop-opacity="0.2"/>
</linearGradient>
<linearGradient id="paint1_linear_256_8149" x1="306.979" y1="1.45117" x2="306.979" y2="220.103" gradientUnits="userSpaceOnUse">
<stop stop-color="#F7EBFF"/>
<stop offset="1" stop-color="#6600AD" stop-opacity="0"/>
</linearGradient>
<radialGradient id="paint2_radial_256_8149" cx="0" cy="0" r="1" gradientUnits="userSpaceOnUse" gradientTransform="translate(214 108) rotate(90) scale(10)">
<stop offset="0.55" stop-color="#36CFC9" stop-opacity="0"/>
<stop offset="1" stop-color="#36CFC9"/>
</radialGradient>
<clipPath id="clip0_256_8149">
<rect width="630" height="238" fill="white"/>
</clipPath>
</defs>
</svg>
