<svg width="163" height="181" viewBox="0 0 163 181" fill="none" xmlns="http://www.w3.org/2000/svg">
<path opacity="0.3" d="M81.3837 162.767C126.331 162.767 162.767 126.331 162.767 81.3837C162.767 36.4367 126.331 0 81.3837 0C36.4367 0 0 36.4367 0 81.3837C0 126.331 36.4367 162.767 81.3837 162.767Z" fill="url(#paint0_radial_254_35075)"/>
<g opacity="0.4">
<path opacity="0.6" d="M159.418 134.007H3.34863V180.55H159.418V134.007Z" fill="url(#paint1_radial_254_35075)"/>
</g>
<g opacity="0.4">
<path d="M112.269 43.8974L87.2158 33.0869L76.4053 58.1405L101.459 68.951L112.269 43.8974Z" fill="url(#paint2_linear_254_35075)"/>
<path d="M72.5769 12.3545H55.1777V70.0023H72.5769V12.3545Z" fill="url(#paint3_linear_254_35075)"/>
<path d="M84.5632 28.7505C88.8935 28.7505 92.4038 25.2401 92.4038 20.9099C92.4038 16.5797 88.8935 13.0693 84.5632 13.0693C80.233 13.0693 76.7227 16.5797 76.7227 20.9099C76.7227 25.2401 80.233 28.7505 84.5632 28.7505Z" fill="url(#paint4_linear_254_35075)"/>
<path d="M110.764 36.058L109.146 19.2266L95.4365 29.1238L110.764 36.058Z" fill="url(#paint5_linear_254_35075)"/>
</g>
<path d="M101.599 69.2751L100.685 68.8792L100.882 68.4211L101.337 68.6202L101.537 68.1621L101.992 68.3588L101.599 69.2751Z" fill="url(#paint6_linear_254_35075)"/>
<path d="M99.2904 68.2796L97.8961 67.6795L98.0928 67.2214L99.4872 67.8215L99.2904 68.2796ZM96.5043 67.077L95.11 66.4769L95.3067 66.0188L96.701 66.6189L96.5043 67.077ZM93.7181 65.8744L92.3238 65.2743L92.5205 64.8162L93.9148 65.4162L93.7181 65.8744ZM90.932 64.6718L89.5376 64.0717L89.7343 63.6136L91.1287 64.2136L90.932 64.6718ZM88.1458 63.4717L86.754 62.8716L86.9507 62.4135L88.3425 63.0135L88.1458 63.4717ZM85.3597 62.2691L83.9678 61.669L84.1645 61.2109L85.5564 61.8109L85.3597 62.2691ZM82.5735 61.0665L81.1817 60.4664L81.3784 60.0083L82.7702 60.6083L82.5735 61.0665ZM79.7873 59.8639L78.3955 59.2638L78.5922 58.8057L79.984 59.4057L79.7873 59.8639Z" fill="url(#paint7_linear_254_35075)"/>
<path d="M77.0012 58.6607L76.085 58.2673L76.4809 57.3535L76.9365 57.5502L76.7398 58.0059L77.1979 58.2051L77.0012 58.6607Z" fill="url(#paint8_linear_254_35075)"/>
<path d="M77.5392 56.1557L77.0811 55.959L77.6811 54.5646L78.1392 54.7613L77.5392 56.1557ZM78.7418 53.3695L78.2837 53.1728L78.8837 51.7785L79.3419 51.9752L78.7418 53.3695ZM79.9419 50.5833L79.4838 50.3866L80.0838 48.9923L80.542 49.189L79.9419 50.5833ZM81.1445 47.7972L80.6864 47.6005L81.2864 46.2062L81.7446 46.4029L81.1445 47.7972ZM82.3471 45.011L81.889 44.8143L82.489 43.42L82.9472 43.6167L82.3471 45.011ZM83.5497 42.2249L83.0916 42.0282L83.6917 40.6338L84.1498 40.8305L83.5497 42.2249ZM84.7498 39.4387L84.2917 39.242L84.8918 37.8477L85.3499 38.0444L84.7498 39.4387ZM85.9524 36.6526L85.4943 36.4558L86.0944 35.0615L86.5525 35.2582L85.9524 36.6526Z" fill="url(#paint9_linear_254_35075)"/>
<path d="M87.1549 33.8669L86.6968 33.6702L87.0927 32.7539L88.0064 33.1498L87.8097 33.6054L87.3516 33.4087L87.1549 33.8669Z" fill="url(#paint10_linear_254_35075)"/>
<path d="M110.099 43.2239L108.705 42.6239L108.901 42.1657L110.296 42.7658L110.099 43.2239ZM107.313 42.0213L105.921 41.4213L106.118 40.9631L107.51 41.5632L107.313 42.0213ZM104.527 40.8187L103.135 40.2187L103.332 39.7605L104.723 40.3606L104.527 40.8187ZM101.741 39.6161L100.349 39.0161L100.545 38.5579L101.937 39.158L101.741 39.6161ZM98.9545 38.416L97.5601 37.8159L97.7568 37.3578L99.1511 37.9579L98.9545 38.416ZM96.1683 37.2134L94.774 36.6133L94.9707 36.1552L96.365 36.7553L96.1683 37.2134ZM93.3821 36.0108L91.9878 35.4107L92.1845 34.9526L93.5788 35.5527L93.3821 36.0108ZM90.596 34.8082L89.2017 34.2081L89.3984 33.75L90.7927 34.3501L90.596 34.8082Z" fill="url(#paint11_linear_254_35075)"/>
<path d="M112.21 44.6753L111.752 44.4786L111.951 44.0205L111.493 43.8238L111.69 43.3682L112.604 43.7616L112.21 44.6753Z" fill="url(#paint12_linear_254_35075)"/>
<path d="M102.594 66.9667L102.136 66.77L102.736 65.3757L103.194 65.5724L102.594 66.9667ZM103.794 64.1806L103.336 63.9839L103.936 62.5896L104.395 62.7863L103.794 64.1806ZM104.997 61.3944L104.539 61.1977L105.139 59.8034L105.597 60.0001L104.997 61.3944ZM106.2 58.6083L105.742 58.4116L106.342 57.0172L106.8 57.2139L106.2 58.6083ZM107.402 55.8196L106.944 55.6229L107.544 54.2286L108.002 54.4253L107.402 55.8196ZM108.605 53.0335L108.147 52.8368L108.747 51.4424L109.205 51.6391L108.605 53.0335ZM109.805 50.2473L109.347 50.0506L109.947 48.6563L110.405 48.853L109.805 50.2473ZM111.008 47.4611L110.549 47.2644L111.15 45.8701L111.608 46.0668L111.008 47.4611Z" fill="url(#paint13_linear_254_35075)"/>
<path d="M72.826 70.2489H71.8301V69.7509H72.3281V69.2529H72.826V70.2489Z" fill="url(#paint14_linear_254_35075)"/>
<path d="M70.3856 70.2489H68.939V69.751H70.3856V70.2489ZM67.4924 70.2489H66.0458V69.751H67.4924V70.2489ZM64.6017 70.2489H63.1551V69.751H64.6017V70.2489ZM61.7084 70.2489H60.2618V69.751H61.7084V70.2489ZM58.8177 70.2489H57.3711V69.751H58.8177V70.2489Z" fill="url(#paint15_linear_254_35075)"/>
<path d="M55.9247 70.2489H54.9287V69.2529H55.4267V69.7509H55.9247V70.2489Z" fill="url(#paint16_linear_254_35075)"/>
<path d="M55.4267 67.7369H54.9287V66.2181H55.4267V67.7369ZM55.4267 64.7018H54.9287V63.183H55.4267V64.7018ZM55.4267 61.6666H54.9287V60.1478H55.4267V61.6666ZM55.4267 58.6315H54.9287V57.1127H55.4267V58.6315ZM55.4267 55.5963H54.9287V54.0775H55.4267V55.5963ZM55.4267 52.5612H54.9287V51.0424H55.4267V52.5612ZM55.4267 49.5261H54.9287V48.0072H55.4267V49.5261ZM55.4267 46.4884H54.9287V44.9696H55.4267V46.4884ZM55.4267 43.4533H54.9287V41.9345H55.4267V43.4533ZM55.4267 40.4181H54.9287V38.8993H55.4267V40.4181ZM55.4267 37.383H54.9287V35.8642H55.4267V37.383ZM55.4267 34.3478H54.9287V32.829H55.4267V34.3478ZM55.4267 31.3127H54.9287V29.7939H55.4267V31.3127ZM55.4267 28.2776H54.9287V26.7587H55.4267V28.2776ZM55.4267 25.2424H54.9287V23.7236H55.4267V25.2424ZM55.4267 22.2073H54.9287V20.6885H55.4267V22.2073ZM55.4267 19.1721H54.9287V17.6533H55.4267V19.1721ZM55.4267 16.137H54.9287V14.6182H55.4267V16.137Z" fill="url(#paint17_linear_254_35075)"/>
<path d="M55.4267 13.1014H54.9287V12.1055H55.9247V12.6034H55.4267V13.1014Z" fill="url(#paint18_linear_254_35075)"/>
<path d="M70.3856 12.6034H68.939V12.1055H70.3856V12.6034ZM67.4924 12.6034H66.0458V12.1055H67.4924V12.6034ZM64.6017 12.6034H63.1551V12.1055H64.6017V12.6034ZM61.7084 12.6034H60.2618V12.1055H61.7084V12.6034ZM58.8177 12.6034H57.3711V12.1055H58.8177V12.6034Z" fill="url(#paint19_linear_254_35075)"/>
<path d="M72.826 13.1014H72.3281V12.6034H71.8301V12.1055H72.826V13.1014Z" fill="url(#paint20_linear_254_35075)"/>
<path d="M72.8261 67.7369H72.3281V66.2181H72.8261V67.7369ZM72.8261 64.7018H72.3281V63.183H72.8261V64.7018ZM72.8261 61.6666H72.3281V60.1478H72.8261V61.6666ZM72.8261 58.6315H72.3281V57.1127H72.8261V58.6315ZM72.8261 55.5963H72.3281V54.0775H72.8261V55.5963ZM72.8261 52.5612H72.3281V51.0424H72.8261V52.5612ZM72.8261 49.5261H72.3281V48.0072H72.8261V49.5261ZM72.8261 46.4884H72.3281V44.9696H72.8261V46.4884ZM72.8261 43.4533H72.3281V41.9345H72.8261V43.4533ZM72.8261 40.4181H72.3281V38.8993H72.8261V40.4181ZM72.8261 37.383H72.3281V35.8642H72.8261V37.383ZM72.8261 34.3478H72.3281V32.829H72.8261V34.3478ZM72.8261 31.3127H72.3281V29.7939H72.8261V31.3127ZM72.8261 28.2776H72.3281V26.7587H72.8261V28.2776ZM72.8261 25.2424H72.3281V23.7236H72.8261V25.2424ZM72.8261 22.2073H72.3281V20.6885H72.8261V22.2073ZM72.8261 19.1721H72.3281V17.6533H72.8261V19.1721ZM72.8261 16.137H72.3281V14.6182H72.8261V16.137Z" fill="url(#paint21_linear_254_35075)"/>
<path d="M84.5732 28.999H84.5657C84.0379 28.999 83.51 28.9467 82.9971 28.8471L83.0917 28.3591C83.5748 28.4537 84.0703 28.501 84.5657 28.501L84.5732 28.999ZM86.1493 28.8422L86.0522 28.3541C86.5377 28.257 87.0183 28.1126 87.4739 27.9209L87.6656 28.3815C87.1776 28.5832 86.6672 28.7401 86.1493 28.8422ZM81.4783 28.389C80.9903 28.1873 80.5197 27.9358 80.079 27.642L80.3554 27.2287C80.7687 27.5051 81.2094 27.7391 81.6675 27.9284L81.4783 28.389ZM89.0624 27.6321L88.786 27.2188C89.1969 26.9424 89.5853 26.6262 89.9364 26.2726L90.2899 26.6237C89.9165 26.9972 89.5031 27.3358 89.0649 27.6296L89.0624 27.6321ZM78.8515 26.6386C78.478 26.2651 78.1369 25.8543 77.8431 25.4161L78.2564 25.1372C78.5328 25.5481 78.8515 25.934 79.2026 26.2851L78.8515 26.6386ZM91.2933 25.4012L90.88 25.1248C91.1564 24.7115 91.3929 24.2708 91.5822 23.8126L92.0428 24.0043C91.8411 24.4924 91.5896 24.9629 91.2958 25.4012H91.2933ZM77.0937 24.0193C76.8895 23.5313 76.7351 23.0208 76.6305 22.503L77.1186 22.4059C77.2157 22.8914 77.3626 23.3694 77.5518 23.8276L77.0912 24.0193H77.0937ZM92.5009 22.4855L92.0129 22.3884C92.1075 21.9029 92.1573 21.4049 92.1573 20.907V20.8746H92.6553V20.902C92.6553 21.4373 92.603 21.9676 92.5009 22.4855ZM76.4737 20.9244V20.907C76.4737 20.3816 76.5235 19.8562 76.6231 19.3458L77.1111 19.4404C77.0165 19.9185 76.9692 20.4115 76.9692 20.9045L76.4712 20.9219L76.4737 20.9244ZM92.0054 19.3956C91.9058 18.9101 91.7589 18.432 91.5697 17.9739L92.0279 17.7822C92.232 18.2702 92.3889 18.7781 92.4935 19.2985L92.0054 19.3981V19.3956ZM77.5418 18.0187L77.0812 17.8295C77.2829 17.3415 77.5344 16.8709 77.8257 16.4302L78.239 16.7066C77.9651 17.1199 77.7286 17.5606 77.5393 18.0187H77.5418ZM90.8626 16.6667C90.5862 16.2559 90.2675 15.87 89.914 15.5214L90.265 15.1678C90.641 15.5413 90.9796 15.9521 91.2759 16.3879L90.8626 16.6667ZM79.1826 15.5537L78.8291 15.2027C79.2026 14.8292 79.6134 14.4881 80.0516 14.1943L80.3305 14.6076C79.9197 14.884 79.5337 15.2027 79.1826 15.5562V15.5537ZM88.7587 14.5802C88.3453 14.3063 87.9022 14.0698 87.444 13.883L87.6332 13.4224C88.1213 13.6241 88.5918 13.8731 89.0325 14.1669L88.7562 14.5827L88.7587 14.5802ZM81.6377 13.9005L81.4459 13.4398C81.9339 13.2357 82.4444 13.0788 82.9623 12.9767L83.0594 13.4647C82.5738 13.5619 82.0958 13.7088 81.6377 13.9005ZM86.0223 13.4548C85.5467 13.3627 85.0562 13.3154 84.5657 13.3154L84.5408 12.8174H84.5657C85.0886 12.8174 85.609 12.8672 86.1169 12.9668L86.0223 13.4548Z" fill="url(#paint22_linear_254_35075)"/>
<path d="M111.053 36.4613L109.979 35.9757L110.186 35.5226L110.475 35.652L110.443 35.3383L110.938 35.291L111.053 36.4613Z" fill="url(#paint23_linear_254_35075)"/>
<path d="M110.311 33.9415L110.177 32.5472L110.672 32.4999L110.807 33.8942L110.311 33.9415ZM110.042 31.1528L109.908 29.7585L110.403 29.7112L110.538 31.1055L110.042 31.1528ZM109.773 28.3642L109.639 26.9699L110.134 26.9226L110.269 28.3169L109.773 28.3642ZM109.504 25.5731L109.37 24.1787L109.865 24.1314L110 25.5257L109.504 25.5731ZM109.238 22.7844L109.104 21.3901L109.599 21.3428L109.733 22.7371L109.238 22.7844Z" fill="url(#paint24_linear_254_35075)"/>
<path d="M108.969 19.993L108.939 19.6818L108.685 19.8661L108.394 19.4627L109.35 18.7705L109.464 19.9457L108.969 19.993Z" fill="url(#paint25_linear_254_35075)"/>
<path d="M97.3236 28.0675L97.0322 27.6641L98.1676 26.845L98.4589 27.2483L97.3236 28.0675ZM99.5943 26.4267L99.303 26.0233L100.438 25.2041L100.73 25.6075L99.5943 26.4267ZM101.868 24.7859L101.576 24.3825L102.712 23.5633L103.003 23.9667L101.868 24.7859ZM104.141 23.145L103.849 22.7417L104.985 21.9225L105.276 22.3259L104.141 23.145ZM106.412 21.5067L106.12 21.1033L107.256 20.2842L107.547 20.6875L106.412 21.5067Z" fill="url(#paint26_linear_254_35075)"/>
<path d="M96.014 29.6586L94.9409 29.1731L95.8945 28.4834L96.1858 28.8892L95.9294 29.0735L96.2182 29.2055L96.014 29.6586Z" fill="url(#paint27_linear_254_35075)"/>
<path d="M108.71 35.4004L107.44 34.8253L107.644 34.3721L108.914 34.9473L108.71 35.4004ZM106.17 34.2526L104.9 33.6774L105.104 33.2243L106.374 33.7995L106.17 34.2526ZM103.63 33.1048L102.361 32.5296L102.565 32.0765L103.835 32.6516L103.63 33.1048ZM101.091 31.9545L99.8209 31.3793L100.025 30.9262L101.295 31.5013L101.091 31.9545ZM98.5535 30.8066L97.2837 30.2315L97.4879 29.7783L98.7577 30.3535L98.5535 30.8066Z" fill="url(#paint28_linear_254_35075)"/>
<path d="M39.8877 51.0146H122.88V130.374C122.88 132.378 121.251 134.007 119.247 134.007H43.5204C41.5161 134.007 39.8877 132.378 39.8877 130.374V51.0146Z" fill="url(#paint29_linear_254_35075)"/>
<path d="M39.8877 51.0146H122.88V130.374C122.88 132.378 121.251 134.007 119.247 134.007H43.5204C41.5161 134.007 39.8877 132.378 39.8877 130.374V51.0146Z" fill="url(#paint30_linear_254_35075)"/>
<path d="M125.967 71.7453H36.8027C35.6399 71.7453 34.7933 70.6472 35.0846 69.5243L39.8901 51.0146H122.882L127.688 69.5243C127.979 70.6497 127.13 71.7453 125.97 71.7453H125.967Z" fill="white"/>
<path d="M125.967 71.7453H36.8027C35.6399 71.7453 34.7933 70.6472 35.0846 69.5243L39.8901 51.0146H122.882L127.688 69.5243C127.979 70.6497 127.13 71.7453 125.97 71.7453H125.967Z" fill="url(#paint31_linear_254_35075)"/>
<path d="M88.079 79.2744H74.6861C73.5213 79.2744 72.5771 80.2186 72.5771 81.3833C72.5771 82.5481 73.5213 83.4922 74.6861 83.4922H88.079C89.2438 83.4922 90.188 82.5481 90.188 81.3833C90.188 80.2186 89.2438 79.2744 88.079 79.2744Z" fill="#75519A"/>
<path opacity="0.3" d="M88.079 79.2744H74.6861C73.5213 79.2744 72.5771 80.2186 72.5771 81.3833C72.5771 82.5481 73.5213 83.4922 74.6861 83.4922H88.079C89.2438 83.4922 90.188 82.5481 90.188 81.3833C90.188 80.2186 89.2438 79.2744 88.079 79.2744Z" fill="url(#paint32_linear_254_35075)"/>
<defs>
<radialGradient id="paint0_radial_254_35075" cx="0" cy="0" r="1" gradientUnits="userSpaceOnUse" gradientTransform="translate(81.0276 -12.4369) scale(145.097)">
<stop stop-color="#0C112C"/>
<stop offset="0.01" stop-color="#0C112C" stop-opacity="0.98"/>
<stop offset="0.38" stop-color="#0C112C" stop-opacity="0.44"/>
<stop offset="0.71" stop-color="#0C112C" stop-opacity="0.11"/>
<stop offset="1" stop-color="#0C112C" stop-opacity="0"/>
</radialGradient>
<radialGradient id="paint1_radial_254_35075" cx="0" cy="0" r="1" gradientUnits="userSpaceOnUse" gradientTransform="translate(80.9477 96.7609) scale(84.0927 84.0927)">
<stop stop-color="#0C112C"/>
<stop offset="0.01" stop-color="#0C112C" stop-opacity="0.98"/>
<stop offset="0.38" stop-color="#0C112C" stop-opacity="0.44"/>
<stop offset="0.71" stop-color="#0C112C" stop-opacity="0.11"/>
<stop offset="1" stop-color="#0C112C" stop-opacity="0"/>
</radialGradient>
<linearGradient id="paint2_linear_254_35075" x1="97.0644" y1="44.699" x2="90.1514" y2="60.7199" gradientUnits="userSpaceOnUse">
<stop stop-color="#855FAC"/>
<stop offset="1" stop-color="#10031D"/>
</linearGradient>
<linearGradient id="paint3_linear_254_35075" x1="63.8773" y1="26.6364" x2="63.8773" y2="63.5" gradientUnits="userSpaceOnUse">
<stop stop-color="#855FAC"/>
<stop offset="1" stop-color="#10031D"/>
</linearGradient>
<linearGradient id="paint4_linear_254_35075" x1="84.5632" y1="16.9542" x2="84.5632" y2="26.9818" gradientUnits="userSpaceOnUse">
<stop stop-color="#855FAC"/>
<stop offset="1" stop-color="#10031D"/>
</linearGradient>
<linearGradient id="paint5_linear_254_35075" x1="103.1" y1="23.3964" x2="103.1" y2="34.1596" gradientUnits="userSpaceOnUse">
<stop stop-color="#855FAC"/>
<stop offset="1" stop-color="#10031D"/>
</linearGradient>
<linearGradient id="paint6_linear_254_35075" x1="101.337" y1="39.937" x2="101.337" y2="83.5171" gradientUnits="userSpaceOnUse">
<stop stop-color="white"/>
<stop offset="0.08" stop-color="white" stop-opacity="0.86"/>
<stop offset="0.22" stop-color="white" stop-opacity="0.64"/>
<stop offset="0.36" stop-color="white" stop-opacity="0.44"/>
<stop offset="0.5" stop-color="white" stop-opacity="0.28"/>
<stop offset="0.64" stop-color="white" stop-opacity="0.16"/>
<stop offset="0.77" stop-color="white" stop-opacity="0.07"/>
<stop offset="0.89" stop-color="white" stop-opacity="0.02"/>
<stop offset="1" stop-color="white" stop-opacity="0"/>
</linearGradient>
<linearGradient id="paint7_linear_254_35075" x1="88.9401" y1="39.9375" x2="88.9401" y2="83.5176" gradientUnits="userSpaceOnUse">
<stop stop-color="white"/>
<stop offset="0.08" stop-color="white" stop-opacity="0.86"/>
<stop offset="0.22" stop-color="white" stop-opacity="0.64"/>
<stop offset="0.36" stop-color="white" stop-opacity="0.44"/>
<stop offset="0.5" stop-color="white" stop-opacity="0.28"/>
<stop offset="0.64" stop-color="white" stop-opacity="0.16"/>
<stop offset="0.77" stop-color="white" stop-opacity="0.07"/>
<stop offset="0.89" stop-color="white" stop-opacity="0.02"/>
<stop offset="1" stop-color="white" stop-opacity="0"/>
</linearGradient>
<linearGradient id="paint8_linear_254_35075" x1="76.6427" y1="39.9369" x2="76.6427" y2="83.517" gradientUnits="userSpaceOnUse">
<stop stop-color="white"/>
<stop offset="0.08" stop-color="white" stop-opacity="0.86"/>
<stop offset="0.22" stop-color="white" stop-opacity="0.64"/>
<stop offset="0.36" stop-color="white" stop-opacity="0.44"/>
<stop offset="0.5" stop-color="white" stop-opacity="0.28"/>
<stop offset="0.64" stop-color="white" stop-opacity="0.16"/>
<stop offset="0.77" stop-color="white" stop-opacity="0.07"/>
<stop offset="0.89" stop-color="white" stop-opacity="0.02"/>
<stop offset="1" stop-color="white" stop-opacity="0"/>
</linearGradient>
<linearGradient id="paint9_linear_254_35075" x1="81.8168" y1="39.9367" x2="81.8168" y2="83.5168" gradientUnits="userSpaceOnUse">
<stop stop-color="white"/>
<stop offset="0.08" stop-color="white" stop-opacity="0.86"/>
<stop offset="0.22" stop-color="white" stop-opacity="0.64"/>
<stop offset="0.36" stop-color="white" stop-opacity="0.44"/>
<stop offset="0.5" stop-color="white" stop-opacity="0.28"/>
<stop offset="0.64" stop-color="white" stop-opacity="0.16"/>
<stop offset="0.77" stop-color="white" stop-opacity="0.07"/>
<stop offset="0.89" stop-color="white" stop-opacity="0.02"/>
<stop offset="1" stop-color="white" stop-opacity="0"/>
</linearGradient>
<linearGradient id="paint10_linear_254_35075" x1="87.3516" y1="39.9372" x2="87.3516" y2="83.5173" gradientUnits="userSpaceOnUse">
<stop stop-color="white"/>
<stop offset="0.08" stop-color="white" stop-opacity="0.86"/>
<stop offset="0.22" stop-color="white" stop-opacity="0.64"/>
<stop offset="0.36" stop-color="white" stop-opacity="0.44"/>
<stop offset="0.5" stop-color="white" stop-opacity="0.28"/>
<stop offset="0.64" stop-color="white" stop-opacity="0.16"/>
<stop offset="0.77" stop-color="white" stop-opacity="0.07"/>
<stop offset="0.89" stop-color="white" stop-opacity="0.02"/>
<stop offset="1" stop-color="white" stop-opacity="0"/>
</linearGradient>
<linearGradient id="paint11_linear_254_35075" x1="99.7512" y1="39.9373" x2="99.7512" y2="83.5174" gradientUnits="userSpaceOnUse">
<stop stop-color="white"/>
<stop offset="0.08" stop-color="white" stop-opacity="0.86"/>
<stop offset="0.22" stop-color="white" stop-opacity="0.64"/>
<stop offset="0.36" stop-color="white" stop-opacity="0.44"/>
<stop offset="0.5" stop-color="white" stop-opacity="0.28"/>
<stop offset="0.64" stop-color="white" stop-opacity="0.16"/>
<stop offset="0.77" stop-color="white" stop-opacity="0.07"/>
<stop offset="0.89" stop-color="white" stop-opacity="0.02"/>
<stop offset="1" stop-color="white" stop-opacity="0"/>
</linearGradient>
<linearGradient id="paint12_linear_254_35075" x1="112.048" y1="39.9371" x2="112.048" y2="83.5172" gradientUnits="userSpaceOnUse">
<stop stop-color="white"/>
<stop offset="0.08" stop-color="white" stop-opacity="0.86"/>
<stop offset="0.22" stop-color="white" stop-opacity="0.64"/>
<stop offset="0.36" stop-color="white" stop-opacity="0.44"/>
<stop offset="0.5" stop-color="white" stop-opacity="0.28"/>
<stop offset="0.64" stop-color="white" stop-opacity="0.16"/>
<stop offset="0.77" stop-color="white" stop-opacity="0.07"/>
<stop offset="0.89" stop-color="white" stop-opacity="0.02"/>
<stop offset="1" stop-color="white" stop-opacity="0"/>
</linearGradient>
<linearGradient id="paint13_linear_254_35075" x1="106.872" y1="39.9368" x2="106.872" y2="83.5169" gradientUnits="userSpaceOnUse">
<stop stop-color="white"/>
<stop offset="0.08" stop-color="white" stop-opacity="0.86"/>
<stop offset="0.22" stop-color="white" stop-opacity="0.64"/>
<stop offset="0.36" stop-color="white" stop-opacity="0.44"/>
<stop offset="0.5" stop-color="white" stop-opacity="0.28"/>
<stop offset="0.64" stop-color="white" stop-opacity="0.16"/>
<stop offset="0.77" stop-color="white" stop-opacity="0.07"/>
<stop offset="0.89" stop-color="white" stop-opacity="0.02"/>
<stop offset="1" stop-color="white" stop-opacity="0"/>
</linearGradient>
<linearGradient id="paint14_linear_254_35075" x1="72.3281" y1="20.0184" x2="72.3281" y2="63.3943" gradientUnits="userSpaceOnUse">
<stop stop-color="white"/>
<stop offset="0.08" stop-color="white" stop-opacity="0.86"/>
<stop offset="0.22" stop-color="white" stop-opacity="0.64"/>
<stop offset="0.36" stop-color="white" stop-opacity="0.44"/>
<stop offset="0.5" stop-color="white" stop-opacity="0.28"/>
<stop offset="0.64" stop-color="white" stop-opacity="0.16"/>
<stop offset="0.77" stop-color="white" stop-opacity="0.07"/>
<stop offset="0.89" stop-color="white" stop-opacity="0.02"/>
<stop offset="1" stop-color="white" stop-opacity="0"/>
</linearGradient>
<linearGradient id="paint15_linear_254_35075" x1="63.8771" y1="20.0184" x2="63.8771" y2="63.3944" gradientUnits="userSpaceOnUse">
<stop stop-color="white"/>
<stop offset="0.08" stop-color="white" stop-opacity="0.86"/>
<stop offset="0.22" stop-color="white" stop-opacity="0.64"/>
<stop offset="0.36" stop-color="white" stop-opacity="0.44"/>
<stop offset="0.5" stop-color="white" stop-opacity="0.28"/>
<stop offset="0.64" stop-color="white" stop-opacity="0.16"/>
<stop offset="0.77" stop-color="white" stop-opacity="0.07"/>
<stop offset="0.89" stop-color="white" stop-opacity="0.02"/>
<stop offset="1" stop-color="white" stop-opacity="0"/>
</linearGradient>
<linearGradient id="paint16_linear_254_35075" x1="55.4267" y1="20.0184" x2="55.4267" y2="63.3943" gradientUnits="userSpaceOnUse">
<stop stop-color="white"/>
<stop offset="0.08" stop-color="white" stop-opacity="0.86"/>
<stop offset="0.22" stop-color="white" stop-opacity="0.64"/>
<stop offset="0.36" stop-color="white" stop-opacity="0.44"/>
<stop offset="0.5" stop-color="white" stop-opacity="0.28"/>
<stop offset="0.64" stop-color="white" stop-opacity="0.16"/>
<stop offset="0.77" stop-color="white" stop-opacity="0.07"/>
<stop offset="0.89" stop-color="white" stop-opacity="0.02"/>
<stop offset="1" stop-color="white" stop-opacity="0"/>
</linearGradient>
<linearGradient id="paint17_linear_254_35075" x1="55.1777" y1="20.0187" x2="55.1777" y2="63.3946" gradientUnits="userSpaceOnUse">
<stop stop-color="white"/>
<stop offset="0.08" stop-color="white" stop-opacity="0.86"/>
<stop offset="0.22" stop-color="white" stop-opacity="0.64"/>
<stop offset="0.36" stop-color="white" stop-opacity="0.44"/>
<stop offset="0.5" stop-color="white" stop-opacity="0.28"/>
<stop offset="0.64" stop-color="white" stop-opacity="0.16"/>
<stop offset="0.77" stop-color="white" stop-opacity="0.07"/>
<stop offset="0.89" stop-color="white" stop-opacity="0.02"/>
<stop offset="1" stop-color="white" stop-opacity="0"/>
</linearGradient>
<linearGradient id="paint18_linear_254_35075" x1="55.4267" y1="20.0183" x2="55.4267" y2="63.3942" gradientUnits="userSpaceOnUse">
<stop stop-color="white"/>
<stop offset="0.08" stop-color="white" stop-opacity="0.86"/>
<stop offset="0.22" stop-color="white" stop-opacity="0.64"/>
<stop offset="0.36" stop-color="white" stop-opacity="0.44"/>
<stop offset="0.5" stop-color="white" stop-opacity="0.28"/>
<stop offset="0.64" stop-color="white" stop-opacity="0.16"/>
<stop offset="0.77" stop-color="white" stop-opacity="0.07"/>
<stop offset="0.89" stop-color="white" stop-opacity="0.02"/>
<stop offset="1" stop-color="white" stop-opacity="0"/>
</linearGradient>
<linearGradient id="paint19_linear_254_35075" x1="63.8771" y1="20.0183" x2="63.8771" y2="63.3942" gradientUnits="userSpaceOnUse">
<stop stop-color="white"/>
<stop offset="0.08" stop-color="white" stop-opacity="0.86"/>
<stop offset="0.22" stop-color="white" stop-opacity="0.64"/>
<stop offset="0.36" stop-color="white" stop-opacity="0.44"/>
<stop offset="0.5" stop-color="white" stop-opacity="0.28"/>
<stop offset="0.64" stop-color="white" stop-opacity="0.16"/>
<stop offset="0.77" stop-color="white" stop-opacity="0.07"/>
<stop offset="0.89" stop-color="white" stop-opacity="0.02"/>
<stop offset="1" stop-color="white" stop-opacity="0"/>
</linearGradient>
<linearGradient id="paint20_linear_254_35075" x1="72.3281" y1="20.0183" x2="72.3281" y2="63.3942" gradientUnits="userSpaceOnUse">
<stop stop-color="white"/>
<stop offset="0.08" stop-color="white" stop-opacity="0.86"/>
<stop offset="0.22" stop-color="white" stop-opacity="0.64"/>
<stop offset="0.36" stop-color="white" stop-opacity="0.44"/>
<stop offset="0.5" stop-color="white" stop-opacity="0.28"/>
<stop offset="0.64" stop-color="white" stop-opacity="0.16"/>
<stop offset="0.77" stop-color="white" stop-opacity="0.07"/>
<stop offset="0.89" stop-color="white" stop-opacity="0.02"/>
<stop offset="1" stop-color="white" stop-opacity="0"/>
</linearGradient>
<linearGradient id="paint21_linear_254_35075" x1="72.5771" y1="20.0187" x2="72.5771" y2="63.3946" gradientUnits="userSpaceOnUse">
<stop stop-color="white"/>
<stop offset="0.08" stop-color="white" stop-opacity="0.86"/>
<stop offset="0.22" stop-color="white" stop-opacity="0.64"/>
<stop offset="0.36" stop-color="white" stop-opacity="0.44"/>
<stop offset="0.5" stop-color="white" stop-opacity="0.28"/>
<stop offset="0.64" stop-color="white" stop-opacity="0.16"/>
<stop offset="0.77" stop-color="white" stop-opacity="0.07"/>
<stop offset="0.89" stop-color="white" stop-opacity="0.02"/>
<stop offset="1" stop-color="white" stop-opacity="0"/>
</linearGradient>
<linearGradient id="paint22_linear_254_35075" x1="85.965" y1="19.5076" x2="71.1205" y2="34.3522" gradientUnits="userSpaceOnUse">
<stop stop-color="white"/>
<stop offset="0.08" stop-color="white" stop-opacity="0.86"/>
<stop offset="0.22" stop-color="white" stop-opacity="0.64"/>
<stop offset="0.36" stop-color="white" stop-opacity="0.44"/>
<stop offset="0.5" stop-color="white" stop-opacity="0.28"/>
<stop offset="0.64" stop-color="white" stop-opacity="0.16"/>
<stop offset="0.77" stop-color="white" stop-opacity="0.07"/>
<stop offset="0.89" stop-color="white" stop-opacity="0.02"/>
<stop offset="1" stop-color="white" stop-opacity="0"/>
</linearGradient>
<linearGradient id="paint23_linear_254_35075" x1="110.515" y1="26.6985" x2="110.515" y2="40.6393" gradientUnits="userSpaceOnUse">
<stop stop-color="white"/>
<stop offset="0.08" stop-color="white" stop-opacity="0.86"/>
<stop offset="0.22" stop-color="white" stop-opacity="0.64"/>
<stop offset="0.36" stop-color="white" stop-opacity="0.44"/>
<stop offset="0.5" stop-color="white" stop-opacity="0.28"/>
<stop offset="0.64" stop-color="white" stop-opacity="0.16"/>
<stop offset="0.77" stop-color="white" stop-opacity="0.07"/>
<stop offset="0.89" stop-color="white" stop-opacity="0.02"/>
<stop offset="1" stop-color="white" stop-opacity="0"/>
</linearGradient>
<linearGradient id="paint24_linear_254_35075" x1="109.955" y1="26.6985" x2="109.955" y2="40.6392" gradientUnits="userSpaceOnUse">
<stop stop-color="white"/>
<stop offset="0.08" stop-color="white" stop-opacity="0.86"/>
<stop offset="0.22" stop-color="white" stop-opacity="0.64"/>
<stop offset="0.36" stop-color="white" stop-opacity="0.44"/>
<stop offset="0.5" stop-color="white" stop-opacity="0.28"/>
<stop offset="0.64" stop-color="white" stop-opacity="0.16"/>
<stop offset="0.77" stop-color="white" stop-opacity="0.07"/>
<stop offset="0.89" stop-color="white" stop-opacity="0.02"/>
<stop offset="1" stop-color="white" stop-opacity="0"/>
</linearGradient>
<linearGradient id="paint25_linear_254_35075" x1="108.929" y1="26.6982" x2="108.929" y2="40.639" gradientUnits="userSpaceOnUse">
<stop stop-color="white"/>
<stop offset="0.08" stop-color="white" stop-opacity="0.86"/>
<stop offset="0.22" stop-color="white" stop-opacity="0.64"/>
<stop offset="0.36" stop-color="white" stop-opacity="0.44"/>
<stop offset="0.5" stop-color="white" stop-opacity="0.28"/>
<stop offset="0.64" stop-color="white" stop-opacity="0.16"/>
<stop offset="0.77" stop-color="white" stop-opacity="0.07"/>
<stop offset="0.89" stop-color="white" stop-opacity="0.02"/>
<stop offset="1" stop-color="white" stop-opacity="0"/>
</linearGradient>
<linearGradient id="paint26_linear_254_35075" x1="102.291" y1="26.6981" x2="102.291" y2="40.6388" gradientUnits="userSpaceOnUse">
<stop stop-color="white"/>
<stop offset="0.08" stop-color="white" stop-opacity="0.86"/>
<stop offset="0.22" stop-color="white" stop-opacity="0.64"/>
<stop offset="0.36" stop-color="white" stop-opacity="0.44"/>
<stop offset="0.5" stop-color="white" stop-opacity="0.28"/>
<stop offset="0.64" stop-color="white" stop-opacity="0.16"/>
<stop offset="0.77" stop-color="white" stop-opacity="0.07"/>
<stop offset="0.89" stop-color="white" stop-opacity="0.02"/>
<stop offset="1" stop-color="white" stop-opacity="0"/>
</linearGradient>
<linearGradient id="paint27_linear_254_35075" x1="95.5808" y1="26.6982" x2="95.5808" y2="40.6389" gradientUnits="userSpaceOnUse">
<stop stop-color="white"/>
<stop offset="0.08" stop-color="white" stop-opacity="0.86"/>
<stop offset="0.22" stop-color="white" stop-opacity="0.64"/>
<stop offset="0.36" stop-color="white" stop-opacity="0.44"/>
<stop offset="0.5" stop-color="white" stop-opacity="0.28"/>
<stop offset="0.64" stop-color="white" stop-opacity="0.16"/>
<stop offset="0.77" stop-color="white" stop-opacity="0.07"/>
<stop offset="0.89" stop-color="white" stop-opacity="0.02"/>
<stop offset="1" stop-color="white" stop-opacity="0"/>
</linearGradient>
<linearGradient id="paint28_linear_254_35075" x1="103.1" y1="26.6984" x2="103.1" y2="40.6391" gradientUnits="userSpaceOnUse">
<stop stop-color="white"/>
<stop offset="0.08" stop-color="white" stop-opacity="0.86"/>
<stop offset="0.22" stop-color="white" stop-opacity="0.64"/>
<stop offset="0.36" stop-color="white" stop-opacity="0.44"/>
<stop offset="0.5" stop-color="white" stop-opacity="0.28"/>
<stop offset="0.64" stop-color="white" stop-opacity="0.16"/>
<stop offset="0.77" stop-color="white" stop-opacity="0.07"/>
<stop offset="0.89" stop-color="white" stop-opacity="0.02"/>
<stop offset="1" stop-color="white" stop-opacity="0"/>
</linearGradient>
<linearGradient id="paint29_linear_254_35075" x1="81.3838" y1="131.994" x2="81.3838" y2="56.8985" gradientUnits="userSpaceOnUse">
<stop stop-color="#25123A"/>
<stop offset="1" stop-color="#68458C"/>
</linearGradient>
<linearGradient id="paint30_linear_254_35075" x1="81.3838" y1="80" x2="81.3838" y2="105.5" gradientUnits="userSpaceOnUse">
<stop stop-color="#25123A"/>
<stop offset="1" stop-color="#68458C" stop-opacity="0"/>
</linearGradient>
<linearGradient id="paint31_linear_254_35075" x1="128" y1="71.2425" x2="41.5" y2="71.2425" gradientUnits="userSpaceOnUse">
<stop stop-color="#25123A"/>
<stop offset="1" stop-color="#68458C"/>
</linearGradient>
<linearGradient id="paint32_linear_254_35075" x1="110.259" y1="81.3833" x2="51.2938" y2="81.3833" gradientUnits="userSpaceOnUse">
<stop stop-color="white"/>
<stop offset="0.08" stop-color="white" stop-opacity="0.86"/>
<stop offset="0.22" stop-color="white" stop-opacity="0.64"/>
<stop offset="0.36" stop-color="white" stop-opacity="0.44"/>
<stop offset="0.5" stop-color="white" stop-opacity="0.28"/>
<stop offset="0.64" stop-color="white" stop-opacity="0.16"/>
<stop offset="0.77" stop-color="white" stop-opacity="0.07"/>
<stop offset="0.89" stop-color="white" stop-opacity="0.02"/>
<stop offset="1" stop-color="white" stop-opacity="0"/>
</linearGradient>
</defs>
</svg>
