<svg width="128" height="128" viewBox="0 0 128 128" fill="none" xmlns="http://www.w3.org/2000/svg">
<path d="M114 57C114 72.464 97.2105 85 76.4992 85C55.7895 85 39 72.464 39 57C39 41.536 55.7895 29 76.5008 29C97.2105 29 114 41.536 114 57Z" fill="url(#paint0_radial_311_200)"/>
<path d="M114 57C114 72.464 97.2105 85 76.4992 85C55.7895 85 39 72.464 39 57C39 41.536 55.7895 29 76.5008 29C97.2105 29 114 41.536 114 57Z" fill="url(#paint1_radial_311_200)"/>
<path d="M115 64C115 92.1652 92.1652 115 64 115C35.8348 115 13 92.1652 13 64C13 35.8348 35.8348 13 64 13C77.237 18.9917 91.0859 41.2869 96.8868 48.2542C102.684 55.2214 117.695 64 110.338 45.5841C113.475 50.5623 115 58.821 115 64Z" fill="url(#paint2_radial_311_200)"/>
<path d="M115 64C115 92.1652 92.1652 115 64 115C35.8348 115 13 92.1652 13 64C13 35.8348 35.8348 13 64 13C77.237 18.9917 91.0859 41.2869 96.8868 48.2542C102.684 55.2214 117.695 64 110.338 45.5841C113.475 50.5623 115 58.821 115 64Z" fill="url(#paint3_radial_311_200)"/>
<path d="M115 64C115 92.1652 92.1652 115 64 115C35.8348 115 13 92.1652 13 64C13 35.8348 35.8348 13 64 13C77.237 18.9917 91.0859 41.2869 96.8868 48.2542C102.684 55.2214 117.695 64 110.338 45.5841C113.475 50.5623 115 58.821 115 64Z" fill="url(#paint4_radial_311_200)"/>
<path d="M115 64C115 92.1652 92.1652 115 64 115C35.8348 115 13 92.1652 13 64C13 35.8348 35.8348 13 64 13C77.237 18.9917 91.0859 41.2869 96.8868 48.2542C102.684 55.2214 117.695 64 110.338 45.5841C113.475 50.5623 115 58.821 115 64Z" fill="url(#paint5_linear_311_200)"/>
<path d="M98.6564 71.977C101.322 84.8514 88.1894 98.656 69.3244 102.81C50.4609 106.964 33.009 99.8964 30.3436 87.0236C27.6782 74.1492 40.8106 60.3446 59.6756 56.1907C78.5391 52.0353 95.991 59.1042 98.6564 71.977Z" fill="url(#paint6_radial_311_200)"/>
<path d="M98.6564 71.977C101.322 84.8514 88.1894 98.656 69.3244 102.81C50.4609 106.964 33.009 99.8964 30.3436 87.0236C27.6782 74.1492 40.8106 60.3446 59.6756 56.1907C78.5391 52.0353 95.991 59.1042 98.6564 71.977Z" fill="url(#paint7_linear_311_200)"/>
<path fill-rule="evenodd" clip-rule="evenodd" d="M90.3147 88.8925C95.2564 83.6973 97.3655 77.8487 96.2595 72.506C95.1535 67.1615 90.9127 62.7109 84.3457 60.0527C77.798 57.3996 69.2151 56.6749 60.1868 58.6631C51.1586 60.6514 43.6126 64.9296 38.6854 70.1065C33.7436 75.3017 31.6345 81.1502 32.7405 86.4947C33.8465 91.8391 38.0873 96.2881 44.6559 98.9479C51.202 101.601 59.7833 102.326 68.8132 100.337C77.8414 98.3476 85.3874 94.0711 90.3147 88.8925ZM69.3244 102.81C88.1894 98.6561 101.322 84.8514 98.6564 71.977C95.991 59.1042 78.5391 52.0352 59.6756 56.1907C40.8106 60.3446 27.6782 74.1492 30.3436 87.022C33.009 99.8964 50.4609 106.964 69.3244 102.81Z" fill="#D6F8F8" fill-opacity="0.19"/>
<defs>
<radialGradient id="paint0_radial_311_200" cx="0" cy="0" r="1" gradientUnits="userSpaceOnUse" gradientTransform="translate(70.2132 76.0336) rotate(-42.2256) scale(49.8711 65.7552)">
<stop offset="0.771" stop-color="#001AFF"/>
<stop offset="1" stop-color="#8ACEFF"/>
</radialGradient>
<radialGradient id="paint1_radial_311_200" cx="0" cy="0" r="1" gradientUnits="userSpaceOnUse" gradientTransform="translate(83.4906 56.9998) rotate(-30.1843) scale(27.6145 36.2015)">
<stop offset="0.719" stop-color="#FA00FF" stop-opacity="0"/>
<stop offset="1" stop-color="#FF00D6" stop-opacity="0.44"/>
</radialGradient>
<radialGradient id="paint2_radial_311_200" cx="0" cy="0" r="1" gradientUnits="userSpaceOnUse" gradientTransform="translate(47.3161 55.199) rotate(49.385) scale(78.7789)">
<stop offset="0.026" stop-color="#8DFDFD"/>
<stop offset="0.271" stop-color="#87FBFB"/>
<stop offset="0.484" stop-color="#74D6F4"/>
<stop offset="0.932" stop-color="#0038FF"/>
</radialGradient>
<radialGradient id="paint3_radial_311_200" cx="0" cy="0" r="1" gradientUnits="userSpaceOnUse" gradientTransform="translate(59.2435 62.0565) rotate(137.237) scale(54.0133)">
<stop offset="0.267" stop-color="#0500FF" stop-opacity="0"/>
<stop offset="1" stop-color="#0500FF" stop-opacity="0.15"/>
</radialGradient>
<radialGradient id="paint4_radial_311_200" cx="0" cy="0" r="1" gradientUnits="userSpaceOnUse" gradientTransform="translate(52.6512 53.7504) rotate(75.198) scale(84.1474)">
<stop offset="0.42" stop-color="#FF00E5" stop-opacity="0"/>
<stop offset="0.774" stop-color="#FF00F5" stop-opacity="0.64"/>
<stop offset="0.899" stop-color="#BE46FF" stop-opacity="0.87"/>
</radialGradient>
<linearGradient id="paint5_linear_311_200" x1="25.5756" y1="76.2268" x2="141.92" y2="77.821" gradientUnits="userSpaceOnUse">
<stop offset="0.432" stop-color="#FE62EE" stop-opacity="0"/>
<stop offset="0.818" stop-color="#FD3AF5" stop-opacity="0.47"/>
</linearGradient>
<radialGradient id="paint6_radial_311_200" cx="0" cy="0" r="1" gradientUnits="userSpaceOnUse" gradientTransform="translate(54.9413 64.6709) rotate(83.355) scale(37.9936 55.7207)">
<stop stop-color="#00B2FF"/>
<stop offset="0.571" stop-color="#74C5FF"/>
<stop offset="0.979" stop-color="#9FD7FF"/>
</radialGradient>
<linearGradient id="paint7_linear_311_200" x1="60.7222" y1="44.6313" x2="68.0579" y2="87.9259" gradientUnits="userSpaceOnUse">
<stop offset="0.042" stop-color="#0038FF"/>
<stop offset="0.724" stop-color="#48BFF1" stop-opacity="0.59"/>
<stop offset="1" stop-color="#74C5FF" stop-opacity="0"/>
</linearGradient>
</defs>
</svg>
