<svg width="128" height="128" viewBox="0 0 128 128" fill="none" xmlns="http://www.w3.org/2000/svg">
<path d="M76.6459 47.378H79.5143L87.6862 39.384L88.0881 35.9922C72.883 22.8642 49.6717 24.2787 36.2515 39.1527C32.5202 43.2846 29.8133 48.1989 28.3397 53.518C29.2499 53.1518 30.2586 53.094 31.2081 53.3484L47.5479 50.712C47.5479 50.712 48.3793 49.3668 48.8088 49.4516C56.0783 41.6427 68.3125 40.733 76.705 47.378H76.6459Z" fill="#EA4335"/>
<path d="M99.3253 53.5181C97.4459 46.7537 93.5924 40.6715 88.2299 36.0193L76.7641 47.2355C81.6065 51.1053 84.3646 56.9369 84.2464 63.0538V65.0465C89.8848 65.0465 94.4514 69.5176 94.4514 75.0293C94.4514 80.5449 89.8808 85.0122 84.2464 85.0122H63.8325L61.7955 87.0318V99.0074L63.8325 101H84.2464C95.9486 101.089 106.331 93.6691 109.806 82.7381C113.273 71.8032 109.018 59.9318 99.3253 53.5181Z" fill="#4285F4"/>
<path d="M43.3911 100.888H63.805V84.9042H43.3911C41.9372 84.9042 40.499 84.5997 39.1751 84.0061L36.3067 84.8733L28.0797 92.8673L27.3626 95.6733C31.9765 99.0805 37.607 100.911 43.3911 100.888Z" fill="#34A853"/>
<path d="M43.3911 49.0316C32.0514 49.0972 22.0079 56.2008 18.3909 66.7116C14.7738 77.2225 18.3791 88.8241 27.3665 95.5847L39.2067 84.0023C34.0687 81.7321 31.7874 75.8195 34.1081 70.7934C36.4289 65.7673 42.473 63.5356 47.611 65.8058C49.8726 66.808 51.6851 68.581 52.7095 70.7934L64.5497 59.211C59.5102 52.7704 51.6811 49.0047 43.3911 49.0316Z" fill="#FBBC05"/>
</svg>
