<svg width="128" height="128" viewBox="0 0 128 128" fill="none" xmlns="http://www.w3.org/2000/svg">
<path d="M15.4487 55.3693C15.2321 55.3693 15.1779 55.2609 15.2863 55.0983L16.4236 53.6348C16.5319 53.4721 16.8027 53.3637 17.0193 53.3637H36.354C36.5706 53.3637 36.6248 53.5263 36.5164 53.689L35.5957 55.0983C35.4874 55.2609 35.2166 55.4235 35.0542 55.4235L15.4487 55.3693ZM7.27079 60.3562C7.05415 60.3562 6.99999 60.2478 7.10831 60.0851L8.24564 58.6216C8.35396 58.459 8.62475 58.3506 8.84139 58.3506H33.5377C33.7543 58.3506 33.8627 58.5132 33.8085 58.6758L33.3752 59.9767C33.3211 60.1936 33.1044 60.302 32.8878 60.302L7.27079 60.3562ZM20.3772 65.343C20.1605 65.343 20.1064 65.1804 20.2147 65.0178L20.9729 63.6627C21.0812 63.5001 21.2979 63.3374 21.5145 63.3374H32.3462C32.5629 63.3374 32.6712 63.5001 32.6712 63.7169L32.5629 65.0178C32.5629 65.2346 32.3462 65.3972 32.1837 65.3972L20.3772 65.343ZM76.5938 54.3936C73.1818 55.2609 70.853 55.9114 67.4952 56.7786C66.6828 56.9955 66.6286 57.0497 65.9246 56.2366C65.1122 55.3151 64.5164 54.7189 63.3791 54.1768C59.9671 52.4964 56.6634 52.9843 53.5764 54.9899C49.8936 57.3749 47.9981 60.8982 48.0522 65.2888C48.1064 69.6252 51.0851 73.2028 55.3636 73.799C59.0464 74.2869 62.1335 72.9859 64.5706 70.2215C65.058 69.6252 65.4913 68.9748 66.0329 68.2159H55.5803C54.4429 68.2159 54.1721 67.5112 54.5512 66.5897C55.2553 64.9094 56.5551 62.0907 57.3133 60.6814C57.4758 60.3562 57.8549 59.8141 58.6673 59.8141H78.381C78.2727 61.2777 78.2727 62.7412 78.0561 64.2047C77.4603 68.1075 75.9981 71.685 73.6151 74.8289C69.7157 79.9784 64.6248 83.1765 58.1799 84.0438C52.8723 84.7484 47.9439 83.7185 43.6112 80.4662C39.6035 77.4307 37.3288 73.4196 36.7331 68.4327C36.029 62.5244 37.7621 57.2123 41.3365 52.5507C45.1818 47.5096 50.2727 44.3115 56.501 43.1732C61.5919 42.2517 66.4661 42.848 70.853 45.8292C73.7234 47.7264 75.7814 50.3282 77.1354 53.4721C77.4603 53.96 77.2437 54.231 76.5938 54.3936Z" fill="white"/>
<path d="M94.5203 84.369C89.5919 84.2606 85.0967 82.8513 81.3056 79.599C78.1102 76.8345 76.1064 73.3112 75.4565 69.1374C74.4816 63.0122 76.1605 57.5917 79.8433 52.7675C83.7969 47.5638 88.5628 44.8536 95.0077 43.7153C100.532 42.7396 105.731 43.2816 110.443 46.4797C114.721 49.4068 117.375 53.3638 118.079 58.5674C119 65.8851 116.888 71.8477 111.851 76.9429C108.277 80.5747 103.89 82.8513 98.853 83.8812C97.3907 84.1522 95.9284 84.2064 94.5203 84.369ZM107.41 62.4702C107.356 61.7655 107.356 61.2235 107.248 60.6814C106.273 55.3151 101.344 52.2797 96.1992 53.4722C91.1625 54.6105 87.913 57.8086 86.7215 62.9038C85.7466 67.1318 87.8046 71.414 91.7041 73.1486C94.6828 74.4495 97.6615 74.2869 100.532 72.8233C104.81 70.6009 107.139 67.1318 107.41 62.4702Z" fill="white"/>
</svg>
