<svg width="128" height="128" viewBox="0 0 128 128" fill="none" xmlns="http://www.w3.org/2000/svg">
<path d="M101.06 53.6299L112.5 78.9999L92.92 112.5L80.86 83.2199L101.06 53.6299Z" fill="url(#paint0_linear_105_387)"/>
<path d="M80.86 83.22L92.92 112.5L62.58 102.07L80.86 83.22Z" fill="#B74AF7"/>
<path d="M84.13 43.61L77.91 16.5H43.42L16.5 57.68L24.29 76.6L16.5 93.87L72.25 46.44L84.13 43.61Z" fill="url(#paint1_linear_105_387)"/>
<path d="M112.5 36.8799L72.25 46.4399L16.5 93.8699L52.46 112.5L80.86 83.2199L112.5 36.8799Z" fill="url(#paint2_linear_105_387)"/>
<path d="M34.5 34.5H94.5V94.5H34.5V34.5Z" fill="black"/>
<path d="M40.13 83.25H62.63V87H40.13V83.25Z" fill="white"/>
<path d="M38.44 54.8101V54.7401C38.4343 53.046 38.7676 51.3678 39.4203 49.8045C40.0729 48.2411 41.0318 46.8242 42.2404 45.637C43.449 44.4498 44.8829 43.5165 46.4577 42.8919C48.0324 42.2673 49.7163 41.9641 51.41 42.0001C54.9721 41.8124 58.4657 43.0296 61.14 45.3901L57.71 49.5301C55.971 47.8671 53.6458 46.9579 51.24 47.0001C47.24 47.0001 44.13 50.5001 44.13 54.7001V54.7701C44.13 59.3001 47.24 62.6201 51.63 62.6201C53.4508 62.6736 55.2423 62.1523 56.75 61.1301V57.5701H51.27V52.8701H62V63.6101C59.0671 66.1539 55.3124 67.5499 51.43 67.5401C43.74 67.5401 38.44 62.1301 38.44 54.8101Z" fill="white"/>
<path d="M64.3 54.8102V54.7402C64.3058 53.0306 64.6544 51.3395 65.325 49.7669C65.9956 48.1943 66.9746 46.7721 68.2043 45.5844C69.434 44.3967 70.8893 43.4676 72.4842 42.852C74.0791 42.2363 75.7812 41.9467 77.49 42.0002C85.12 42.0002 90.6 47.6902 90.6 54.7202V54.7902C90.6021 56.5039 90.2598 58.2007 89.5934 59.7796C88.927 61.3585 87.9501 62.7873 86.7207 63.9813C85.4912 65.1753 84.0344 66.11 82.4367 66.7299C80.839 67.3499 79.133 67.6424 77.42 67.5902C69.78 67.5402 64.3 61.8502 64.3 54.8102ZM84.91 54.8102V54.7402C84.9407 53.7364 84.7699 52.7367 84.4075 51.8002C84.0452 50.8636 83.4987 50.0093 82.8003 49.2876C82.102 48.566 81.266 47.9917 80.3419 47.5988C79.4177 47.2059 78.4242 47.0024 77.42 47.0002C76.4234 46.9968 75.4364 47.1948 74.5182 47.5822C73.5999 47.9697 72.7695 48.5386 72.0765 49.2549C71.3836 49.9712 70.8425 50.8201 70.4856 51.7506C70.1288 52.6812 69.9636 53.6742 70 54.6702V54.7402C69.9651 55.7477 70.1332 56.7519 70.4942 57.6932C70.8553 58.6344 71.4018 59.4935 72.1015 60.2193C72.8012 60.9451 73.6397 61.5228 74.5671 61.9181C75.4945 62.3133 76.4919 62.5181 77.5 62.5202C78.4993 62.5224 79.4886 62.3222 80.4084 61.9317C81.3282 61.5412 82.1594 60.9684 82.8518 60.2479C83.5443 59.5275 84.0836 58.6742 84.4374 57.7396C84.7911 56.8051 84.9519 55.8086 84.91 54.8102Z" fill="white"/>
<defs>
<linearGradient id="paint0_linear_105_387" x1="111.03" y1="71.1799" x2="73.54" y2="102.91" gradientUnits="userSpaceOnUse">
<stop stop-color="#087CFA"/>
<stop offset="0.02" stop-color="#0D7BFA"/>
<stop offset="0.37" stop-color="#5566F9"/>
<stop offset="0.66" stop-color="#8A57F8"/>
<stop offset="0.88" stop-color="#AB4EF7"/>
<stop offset="1" stop-color="#B74AF7"/>
</linearGradient>
<linearGradient id="paint1_linear_105_387" x1="49.54" y1="46.26" x2="72.33" y2="20.33" gradientUnits="userSpaceOnUse">
<stop stop-color="#087CFA"/>
<stop offset="0.02" stop-color="#0D7BFA"/>
<stop offset="0.37" stop-color="#5566F9"/>
<stop offset="0.66" stop-color="#8A57F8"/>
<stop offset="0.88" stop-color="#AB4EF7"/>
<stop offset="1" stop-color="#B74AF7"/>
</linearGradient>
<linearGradient id="paint2_linear_105_387" x1="29.84" y1="100.36" x2="99.09" y2="55.8599" gradientUnits="userSpaceOnUse">
<stop stop-color="#087CFA"/>
<stop offset="0.1" stop-color="#1598D3"/>
<stop offset="0.22" stop-color="#23B6AA"/>
<stop offset="0.35" stop-color="#2DCC8B"/>
<stop offset="0.46" stop-color="#35DD74"/>
<stop offset="0.57" stop-color="#39E767"/>
<stop offset="0.67" stop-color="#3BEA62"/>
</linearGradient>
</defs>
</svg>
