<svg width="128" height="128" viewBox="0 0 128 128" fill="none" xmlns="http://www.w3.org/2000/svg">
<path d="M92.3881 97.4705H91.9538V97.2261H93.1233V97.4705H92.6916V98.6902H92.3881V97.4705ZM94.7207 97.5342H94.7139L94.2833 98.6906H94.0863L93.6586 97.5342H93.6535V98.6906H93.3672V97.2265H93.7885L94.185 98.2633L94.5802 97.2265H95V98.6906H94.7205L94.7207 97.5342Z" fill="#E76F00"/>
<path d="M53.4985 67.532C53.4985 67.532 50.476 69.3 55.6495 69.8983C61.9171 70.6174 65.1204 70.5143 72.0273 69.1994C72.0273 69.1994 73.8432 70.3447 76.3793 71.3366C60.8957 78.0113 41.337 70.95 53.4985 67.532ZM51.6065 58.822C51.6065 58.822 48.2164 61.346 53.3938 61.8847C60.0891 62.5794 65.3764 62.6362 74.5256 60.8642C74.5256 60.8642 75.7913 62.1546 77.7812 62.8603C59.0604 68.3664 38.2092 63.2945 51.6065 58.822Z" fill="#5382A1"/>
<path d="M67.5566 44.0469C71.3718 48.4649 66.5545 52.4408 66.5545 52.4408C66.5545 52.4408 76.2413 47.4108 71.7926 41.112C67.6374 35.2378 64.451 32.3194 81.7012 22.2566C81.7014 22.2564 54.6241 29.0584 67.5566 44.0469Z" fill="#E76F00"/>
<path d="M88.0349 73.9745C88.0349 73.9745 90.2716 75.8284 85.5715 77.2623C76.6342 79.9855 48.3735 80.8078 40.5228 77.371C37.7007 76.1359 42.993 74.4222 44.6577 74.0626C46.3939 73.6839 47.3861 73.7545 47.3861 73.7545C44.2476 71.5307 27.1001 78.1209 38.676 80.0085C70.2451 85.1579 96.2237 77.6896 88.0349 73.9745ZM54.9519 49.7974C54.9519 49.7974 40.5768 53.2317 49.8613 54.4788C53.7816 55.0067 61.5965 54.8873 68.8756 54.2738C74.8247 53.769 80.7985 52.696 80.7985 52.696C80.7985 52.696 78.7008 53.5996 77.1832 54.6417C62.5854 58.5036 34.3853 56.7069 42.5037 52.7569C49.3695 49.4187 54.9519 49.7974 54.9519 49.7974ZM80.7393 64.2957C95.5786 56.5396 88.7177 49.0859 83.9285 50.0903C82.7547 50.336 82.2314 50.549 82.2314 50.549C82.2314 50.549 82.6673 49.8624 83.4992 49.5652C92.9733 46.215 100.259 59.4462 80.4408 64.6868C80.4408 64.6868 80.6709 64.4805 80.7393 64.2957Z" fill="#5382A1"/>
<path d="M71.7926 6.00757C71.7926 6.00757 80.0109 14.2763 63.998 26.9918C51.1573 37.1915 61.0699 43.0072 63.9927 49.652C56.4975 42.8498 50.997 36.8621 54.6872 31.2892C60.1033 23.1086 75.1085 19.1423 71.7926 6.00757Z" fill="#E76F00"/>
<path d="M56.4101 85.3129C70.654 86.23 92.5271 84.804 93.0449 78.0251C93.0449 78.0251 92.0493 80.5948 81.2731 82.636C69.1159 84.937 54.1212 84.6685 45.2278 83.1937C45.2282 83.1933 47.0486 84.7091 56.4101 85.3129Z" fill="#5382A1"/>
<path d="M54.0758 111.216C52.7321 112.388 51.3129 113.047 50.0393 113.047C48.2215 113.047 47.2394 111.95 47.2394 110.192C47.2394 108.29 48.2919 106.899 52.5133 106.899H54.0756L54.0758 111.216ZM57.7835 115.424V102.399C57.7835 99.0717 55.8968 96.8764 51.3479 96.8764C48.6922 96.8764 46.366 97.536 44.4753 98.3772L45.021 100.683C46.5097 100.133 48.4366 99.6215 50.328 99.6215C52.9484 99.6215 54.0758 100.683 54.0758 102.877V104.523H52.7679C46.4012 104.523 43.5291 107.009 43.5291 110.74C43.5291 113.96 45.4218 115.791 48.9854 115.791C51.276 115.791 52.986 114.839 54.5844 113.447L54.8746 115.424L57.7835 115.424ZM70.1573 115.424H65.5331L59.9677 97.2062H64.0063L67.4594 108.399L68.2271 111.765C69.9742 106.898 71.21 101.96 71.828 97.2062H75.7563C74.7036 103.205 72.8097 109.79 70.1573 115.424ZM87.8971 111.216C86.5509 112.388 85.1294 113.047 83.8556 113.047C82.041 113.047 81.0563 111.95 81.0563 110.192C81.0563 108.29 82.1109 106.899 86.3322 106.899H87.8971V111.216ZM91.6044 115.424V102.399C91.6044 99.0717 89.7133 96.8764 85.1692 96.8764C82.5119 96.8764 80.1848 97.536 78.2949 98.3772L78.84 100.683C80.3291 100.133 82.2597 99.6215 84.1496 99.6215C86.7681 99.6215 87.8971 100.683 87.8971 102.877V104.523H86.5869C80.2185 104.523 77.3475 107.009 77.3475 110.74C77.3475 113.96 79.2387 115.791 82.8016 115.791C85.0938 115.791 86.8031 114.839 88.4041 113.447L88.6953 115.424L91.6044 115.424ZM39.4637 118.517C38.4068 120.07 36.6996 121.298 34.8306 121.992L33 119.826C34.4226 119.091 35.6426 117.906 36.2095 116.801C36.6998 115.819 36.9028 114.553 36.9028 111.526V90.7273H40.842V111.241C40.8417 115.288 40.5201 116.923 39.4637 118.517Z" fill="#E76F00"/>
</svg>
