<svg width="128" height="128" viewBox="0 0 128 128" fill="none" xmlns="http://www.w3.org/2000/svg">
<path d="M22.7074 66.5496C22.7074 69.8598 22.4426 70.938 21.7617 71.7324C21.0038 72.4149 20.0199 72.7923 19 72.7917L19.2648 74.6832C20.846 74.7046 22.3802 74.1461 23.5776 73.1133C24.2218 72.3276 24.7012 71.4202 24.9872 70.4453C25.2732 69.4703 25.3599 68.4478 25.2421 67.4386V54.9165H22.7074V66.4739V66.5496Z" fill="white"/>
<path d="M41.6105 65.0576C41.6105 66.4762 41.6105 67.7436 41.7239 68.8407H39.473L39.3217 66.5897C38.8509 67.3862 38.1775 68.0437 37.3702 68.4956C36.5628 68.9474 35.6503 69.1774 34.7252 69.1622C32.531 69.1622 29.9207 67.9706 29.9207 63.1092V55.0323H32.4553V62.5985C32.4553 65.2278 33.2687 66.9869 35.5575 66.9869C36.0284 66.992 36.4955 66.903 36.9316 66.7251C37.3676 66.5472 37.7637 66.2841 38.0967 65.9511C38.4297 65.6181 38.6928 65.222 38.8707 64.786C39.0486 64.3499 39.1376 63.8828 39.1325 63.4119V54.9377H41.6672V64.9819L41.6105 65.0576Z" fill="white"/>
<path d="M46.4149 59.5326C46.4149 57.7735 46.4149 56.3359 46.3014 55.0307H48.5713L48.6847 57.3952C49.1905 56.5409 49.9185 55.8399 50.7913 55.3669C51.664 54.8939 52.6488 54.6665 53.6406 54.7092C57.0076 54.7092 59.5423 57.5276 59.5423 61.7268C59.5423 66.6827 56.4969 69.1417 53.2056 69.1417C52.3632 69.1793 51.5253 68.9988 50.7731 68.6178C50.0209 68.2367 49.3797 67.6679 48.9117 66.9664V74.5326H46.4149V59.5894V59.5326ZM48.9117 63.2212C48.9186 63.5644 48.9566 63.9062 49.0252 64.2426C49.2398 65.0825 49.7284 65.8268 50.4136 66.3578C51.0988 66.8889 51.9415 67.1762 52.8083 67.1745C55.4754 67.1745 57.0454 64.9992 57.0454 61.8403C57.0454 59.0787 55.57 56.7142 52.9029 56.7142C51.8474 56.8006 50.8597 57.2691 50.125 58.0317C49.3902 58.7943 48.9589 59.7988 48.9117 60.8567V63.2212Z" fill="white"/>
<path d="M64.0585 55.0176L67.1039 63.1702C67.4255 64.0781 67.766 65.1752 67.993 65.9886C68.2578 65.1563 68.5415 64.097 68.882 63.1134L71.6437 55.0176H74.3108L70.5277 64.8536C68.6361 69.5825 67.4822 72.0226 65.742 73.4981C64.8655 74.2987 63.7969 74.859 62.6399 75.1248L62.0157 73.0062C62.8246 72.7404 63.5757 72.3232 64.2288 71.7767C65.1516 71.0247 65.8839 70.0656 66.3662 68.9772C66.4695 68.7888 66.5398 68.5841 66.5743 68.3719C66.5528 68.1437 66.4953 67.9202 66.4041 67.7099L61.259 54.9797H64.0207L64.0585 55.0176Z" fill="white"/>
<path d="M81.0396 51.0498V55.0221H84.6714V56.9136H81.0396V64.3663C81.0396 66.0687 81.5314 67.0523 82.9311 67.0523C83.4283 67.0605 83.9243 67.0032 84.4065 66.8821L84.52 68.7737C83.7969 69.0242 83.0339 69.1396 82.2691 69.1141C81.7626 69.1458 81.2552 69.0676 80.7817 68.8848C80.3083 68.7019 79.8801 68.4188 79.5263 68.0549C78.7558 67.0243 78.4044 65.7402 78.5427 64.4609V56.8947H76.3864V55.0031H78.5805V51.6362L81.0396 51.0498Z" fill="white"/>
<path d="M89.3404 62.3719C89.2891 63.0134 89.3776 63.6584 89.6 64.2623C89.8223 64.8662 90.1731 65.4146 90.6282 65.8697C91.0832 66.3248 91.6317 66.6756 92.2356 66.8979C92.8395 67.1203 93.4845 67.2088 94.126 67.1575C95.4236 67.1865 96.7126 66.9416 97.9091 66.4387L98.3442 68.3303C96.876 68.9351 95.2972 69.225 93.7099 69.1815C92.7845 69.2448 91.8564 69.1073 90.9892 68.7782C90.122 68.4492 89.3363 67.9365 88.6858 67.2753C88.0354 66.614 87.5356 65.8199 87.2209 64.9475C86.9062 64.075 86.7839 63.1447 86.8625 62.2205C86.8625 58.0591 89.3404 54.7678 93.3883 54.7678C97.928 54.7678 99.063 58.7401 99.063 61.2748C99.0872 61.6653 99.0872 62.057 99.063 62.4475H89.2837L89.3404 62.3719ZM96.7553 60.4803C96.8283 59.9746 96.792 59.4591 96.649 58.9686C96.5059 58.4781 96.2594 58.0239 95.926 57.6367C95.5926 57.2496 95.18 56.9383 94.7162 56.7241C94.2523 56.5098 93.7479 56.3974 93.237 56.3946C92.1977 56.4698 91.224 56.9304 90.5067 57.6863C89.7893 58.4421 89.3802 59.4385 89.3593 60.4803H96.7553Z" fill="white"/>
<path d="M102.909 59.3192C102.909 57.6924 102.909 56.2927 102.795 55.0064H105.065V57.7113H105.179C105.417 56.8765 105.909 56.1365 106.587 55.5942C107.265 55.0518 108.095 54.734 108.962 54.6849C109.2 54.6535 109.442 54.6535 109.681 54.6849V57.0493C109.392 57.0158 109.1 57.0158 108.811 57.0493C107.952 57.0826 107.135 57.4273 106.512 58.019C105.889 58.6108 105.502 59.4091 105.425 60.2649C105.354 60.652 105.316 61.0443 105.311 61.4377V68.7959H102.814V59.3381L102.909 59.3192Z" fill="white"/>
<path d="M101.798 17.0247C101.876 18.2955 101.573 19.5606 100.929 20.6589C100.286 21.7572 99.3294 22.639 98.1826 23.192C97.0358 23.7449 95.7504 23.944 94.4901 23.7638C93.2298 23.5836 92.0516 23.0323 91.1057 22.1802C90.1598 21.3281 89.489 20.2137 89.1786 18.979C88.8683 17.7442 88.9326 16.4451 89.3632 15.247C89.7938 14.0489 90.5714 13.0061 91.5967 12.2515C92.6221 11.4969 93.8489 11.0645 95.1208 11.0096C95.9548 10.9637 96.7896 11.0831 97.5772 11.361C98.3648 11.6388 99.0897 12.0697 99.7102 12.6287C100.331 13.1877 100.835 13.8638 101.193 14.6183C101.551 15.3727 101.757 16.1905 101.798 17.0247Z" fill="#767677"/>
<path d="M64.3951 91.1039C47.3713 91.1039 32.4091 84.9942 24.6726 75.9714C27.6744 84.0884 33.0907 91.091 40.1926 96.0365C47.2944 100.982 55.7411 103.633 64.3951 103.633C73.0494 103.633 81.4959 100.982 88.5979 96.0365C95.6997 91.091 101.116 84.0884 104.118 75.9714C96.4004 84.9942 81.4948 91.1039 64.3951 91.1039Z" fill="#F37726"/>
<path d="M64.3951 32.4316C81.4192 32.4316 96.3815 38.5413 104.118 47.564C101.116 39.4471 95.6997 32.4445 88.5979 27.4989C81.4959 22.5533 73.0494 19.9021 64.3951 19.9021C55.7411 19.9021 47.2944 22.5533 40.1926 27.4989C33.0907 32.4445 27.6744 39.4471 24.6726 47.564C32.4091 38.5224 47.2957 32.4316 64.3951 32.4316Z" fill="#F37726"/>
<path d="M40.9597 108.662C41.0596 110.263 40.6807 111.857 39.8713 113.242C39.0619 114.626 37.8587 115.738 36.4149 116.436C34.9712 117.135 33.3522 117.387 31.7644 117.162C30.1766 116.937 28.6917 116.244 27.499 115.172C26.3063 114.1 25.4598 112.697 25.0672 111.142C24.6747 109.587 24.7539 107.951 25.2949 106.441C25.8358 104.931 26.8139 103.617 28.1046 102.665C29.3953 101.713 30.9402 101.167 32.5423 101.096C33.5919 101.04 34.6422 101.191 35.6333 101.541C36.6244 101.891 37.5369 102.433 38.3186 103.135C39.1002 103.838 39.7358 104.688 40.189 105.636C40.6422 106.584 40.9041 107.613 40.9597 108.662Z" fill="#9E9E9E"/>
<path d="M26.6074 30.3755C25.6901 30.4008 24.7858 30.1543 24.0081 29.6671C23.2305 29.1798 22.6144 28.4735 22.2371 27.637C21.8598 26.8005 21.7383 25.8711 21.8879 24.9657C22.0374 24.0603 22.4514 23.2193 23.0776 22.5486C23.7038 21.8778 24.5144 21.4072 25.4074 21.1959C26.3004 20.9845 27.2359 21.042 28.0964 21.361C28.9568 21.6799 29.7037 22.2462 30.2432 22.9886C30.7826 23.7309 31.0906 24.6162 31.1282 25.5331C31.1641 26.7729 30.7094 27.9768 29.863 28.8834C29.0166 29.79 27.8467 30.3262 26.6074 30.3755Z" fill="#616262"/>
</svg>
