<svg width="128" height="128" viewBox="0 0 128 128" fill="none" xmlns="http://www.w3.org/2000/svg">
<path d="M22.0004 63H26V66H22L22.0004 63Z" fill="white"/>
<path d="M71.9081 68.8987C71.7923 68.8763 71.6742 68.8675 71.5563 68.8726C71.3526 68.8831 71.1531 68.9336 70.9699 69.0211C70.6143 69.1887 70.3386 69.4836 70.2004 69.8445C70.0622 70.2055 70.0721 70.6045 70.2279 70.9585L70.2172 70.9734L73.7265 79.2461C77.084 77.1556 79.6317 74.0329 80.9669 70.3715L71.9237 68.8802L71.9081 68.8987ZM57.8372 70.0711C57.7612 69.745 57.5751 69.4532 57.3089 69.2425C57.0427 69.0319 56.7117 68.9144 56.369 68.9091C56.2678 68.9079 56.1667 68.9166 56.0673 68.9352L56.0521 68.9171L47.0876 70.402C48.4337 74.0345 50.9709 77.132 54.3053 79.214L57.7792 71.0232L57.752 70.9911C57.8804 70.7012 57.9102 70.3788 57.8372 70.0711ZM65.3451 73.2834C65.2141 73.0452 65.0194 72.8462 64.7816 72.7076C64.5438 72.5689 64.272 72.4959 63.995 72.4962C63.718 72.4965 63.4463 72.5702 63.2089 72.7094C62.9714 72.8486 62.7772 73.0481 62.6469 73.2866H62.6394L58.231 81.0651C61.3875 82.1137 64.7809 82.284 68.0309 81.5569C68.6337 81.4231 69.2224 81.2626 69.7971 81.0755L65.3784 73.283L65.3451 73.2834ZM79.3007 55.2145L72.5179 61.1383L72.5217 61.1572C72.3133 61.3349 72.1581 61.5644 72.0726 61.8213C71.9871 62.0782 71.9745 62.3528 72.0361 62.6161C72.0977 62.8794 72.2313 63.1216 72.4225 63.3168C72.6138 63.512 72.8557 63.6531 73.1224 63.725L73.1307 63.7607L81.9162 66.2301C82.296 62.3786 81.3777 58.5114 79.3007 55.2153V55.2145ZM66.6993 55.8782C66.7121 56.148 66.7995 56.4094 66.9522 56.6347C67.105 56.8599 67.3174 57.0406 67.5669 57.1575C67.8164 57.2744 68.0937 57.3233 68.3693 57.2988C68.645 57.2744 68.9087 57.1775 69.1325 57.0186L69.1593 57.0298L76.5811 51.8947C73.756 49.1946 70.1 47.4749 66.1755 47L66.6911 55.8758L66.6993 55.8782ZM58.8396 57.0515C59.0635 57.2103 59.3273 57.3069 59.603 57.3311C59.8787 57.3552 60.156 57.3059 60.4052 57.1885C60.6545 57.0711 60.8665 56.8899 61.0186 56.6643C61.1707 56.4387 61.2573 56.177 61.2691 55.9072L61.307 55.8895L61.8226 47C61.2002 47.0729 60.582 47.1767 59.9704 47.3112C56.7171 48.0247 53.7329 49.6115 51.3548 51.8922L58.8252 57.0595L58.8396 57.0515ZM54.8571 63.7683C55.1245 63.6971 55.3671 63.5565 55.559 63.3613C55.7508 63.1661 55.8848 62.9238 55.9466 62.6601C56.0083 62.3965 55.9956 62.1214 55.9097 61.8643C55.8237 61.6071 55.6679 61.3776 55.4587 61.2001L55.4661 61.1652L48.6459 55.2125C46.5652 58.5171 45.6721 62.4039 46.1078 66.259L54.8501 63.7976L54.8571 63.7683ZM61.4815 66.3831L63.9974 67.5636L66.5059 66.3859L67.1289 63.743L65.3928 61.6245H62.5987L60.8576 63.7398L61.4815 66.3831Z" fill="#326CE5"/>
<path d="M104.87 72.6792L97.8246 41.915C97.6351 41.1191 97.2723 40.3754 96.7624 39.7375C96.2524 39.0997 95.6079 38.5836 94.8755 38.2265L66.3586 24.5386C65.6195 24.184 64.8109 24 63.992 24C63.173 24 62.3645 24.184 61.6254 24.5386L33.1141 38.2338C32.3815 38.5907 31.7369 39.1067 31.2267 39.7444C30.7166 40.3822 30.3537 41.1259 30.1642 41.9219L23.1305 72.6853C22.957 73.4629 22.9565 74.2694 23.1289 75.0472C23.1797 75.2842 23.246 75.5175 23.3274 75.7457C23.4651 76.135 23.6474 76.5069 23.8705 76.8539C23.9672 77.0023 24.0691 77.1466 24.1799 77.2864L43.915 101.954C44.0011 102.061 44.0961 102.159 44.1904 102.259C44.5 102.59 44.8497 102.882 45.2312 103.126C45.7138 103.431 46.2397 103.661 46.7909 103.808C47.2429 103.932 47.7092 103.997 48.1779 104H48.4848L79.8255 103.993C80.016 103.992 80.2063 103.981 80.3956 103.959C80.6672 103.928 80.9361 103.877 81.1999 103.805C81.3891 103.755 81.5755 103.695 81.7584 103.626C81.9011 103.571 82.0435 103.516 82.1809 103.45C82.3869 103.35 82.5866 103.239 82.779 103.115C83.2756 102.801 83.7177 102.408 84.088 101.951L84.6897 101.199L103.816 77.2783C104.183 76.8161 104.471 76.2962 104.669 75.7396C104.751 75.5107 104.819 75.2765 104.871 75.0387C105.044 74.2611 105.043 73.4546 104.869 72.6772L104.87 72.6792ZM75.2908 84.6442C75.3709 84.8808 75.4658 85.1121 75.5751 85.3366C75.4006 85.6435 75.3531 86.007 75.4429 86.3488C75.8578 87.3041 76.3646 88.2164 76.956 89.0726C77.287 89.5103 77.5926 89.9669 77.8711 90.4401C77.9399 90.5682 78.0296 90.7666 78.0947 90.902C78.2176 91.1084 78.2961 91.3383 78.3253 91.5771C78.3544 91.8158 78.3335 92.058 78.264 92.2882C78.1944 92.5183 78.0777 92.7312 77.9214 92.9133C77.7651 93.0954 77.5725 93.2426 77.3562 93.3454C77.14 93.4482 76.9047 93.5043 76.6655 93.5102C76.4263 93.5161 76.1885 93.4716 75.9675 93.3796C75.7464 93.2875 75.547 93.15 75.382 92.9759C75.217 92.8017 75.0901 92.5948 75.0094 92.3683C74.9443 92.2342 74.8537 92.0553 74.7983 91.9285C74.6033 91.4143 74.4379 90.8893 74.3029 90.356C74.007 89.3582 73.6148 88.3919 73.1319 87.4708C72.9218 87.186 72.6091 86.9953 72.2608 86.9395C72.2062 86.8448 72.004 86.4724 71.8957 86.2797C66.8192 88.2124 61.2126 88.1979 56.1461 86.2391L55.7599 86.9428C55.4843 86.9857 55.2279 87.1112 55.0244 87.3029C54.4424 88.2631 53.9976 89.3007 53.7029 90.3853C53.5691 90.9186 53.4047 91.4436 53.2103 91.9577C53.1557 92.0838 53.0644 92.2602 52.9992 92.3939V92.3976L52.9964 92.4008C52.9159 92.6276 52.7889 92.8349 52.6238 93.0093C52.4587 93.1837 52.259 93.3213 52.0377 93.4134C51.8164 93.5055 51.5784 93.5499 51.339 93.5438C51.0996 93.5376 50.8641 93.4811 50.6477 93.3779C50.4313 93.2747 50.2389 93.127 50.0828 92.9444C49.9267 92.7618 49.8104 92.5483 49.7414 92.3177C49.6724 92.0872 49.6523 91.8446 49.6822 91.6057C49.7122 91.3669 49.7917 91.1369 49.9155 90.9308C49.9798 90.7946 50.0659 90.5975 50.1338 90.4694C50.4122 89.995 50.7176 89.5372 51.0485 89.0982C51.6507 88.2193 52.1679 87.2847 52.5933 86.3069C52.6385 85.9755 52.5856 85.638 52.4412 85.3366L52.7518 84.5885C48.0809 81.8171 44.5802 77.423 42.9101 72.2353L42.1665 72.3625C41.8779 72.1567 41.5378 72.0363 41.1846 72.0149C40.1671 72.2107 39.1709 72.5055 38.2101 72.8951C37.7112 73.1207 37.1999 73.3175 36.6787 73.4845C36.5554 73.5187 36.3774 73.5528 36.2367 73.5837C36.2254 73.5878 36.2157 73.5927 36.2044 73.5955C36.1956 73.5968 36.1869 73.5976 36.1781 73.598C35.9515 73.6729 35.712 73.6994 35.4747 73.6759C35.2373 73.6523 35.0075 73.5792 34.7999 73.4613C34.5924 73.3433 34.4115 73.183 34.2691 72.9908C34.1267 72.7985 34.0257 72.5785 33.9727 72.3447C33.9198 72.111 33.9159 71.8687 33.9614 71.6334C34.007 71.398 34.1009 71.1749 34.2371 70.9781C34.3734 70.7814 34.549 70.6154 34.7527 70.4908C34.9565 70.3662 35.1838 70.2858 35.4203 70.2547L35.4449 70.2486L35.4599 70.2445C35.6026 70.2107 35.7854 70.1632 35.9156 70.138C36.4586 70.0622 37.0054 70.0179 37.5534 70.0054C38.5868 69.9375 39.6112 69.7684 40.612 69.5005C40.9086 69.3106 41.1593 69.0564 41.3456 68.7566L42.0601 68.5468C41.2848 63.1323 42.525 57.6207 45.543 53.069L44.9959 52.5787C44.9759 52.2228 44.8571 51.8797 44.653 51.5884C43.8669 50.9091 43.0168 50.3087 42.1147 49.7956C41.6276 49.5458 41.1552 49.2681 40.6998 48.9638C40.5963 48.8862 40.4588 48.7695 40.3464 48.6776L40.3209 48.6597C39.9327 48.3794 39.6707 47.956 39.592 47.482C39.5134 47.0081 39.6245 46.5221 39.9011 46.1303C40.0646 45.9291 40.2729 45.7695 40.5092 45.6644C40.7455 45.5593 41.0031 45.5117 41.2611 45.5254C41.6954 45.5441 42.1123 45.7022 42.4507 45.9766C42.5668 46.0681 42.7257 46.1904 42.8288 46.2795C43.2261 46.6572 43.6015 47.0576 43.953 47.4787C44.6505 48.2491 45.4211 48.9492 46.2539 49.5691C46.5659 49.7341 46.9299 49.7696 47.2676 49.6679C47.4709 49.817 47.6761 49.9636 47.8831 50.1078C50.8821 46.9032 54.7655 44.6729 59.0345 43.7033C60.0506 43.4719 61.0816 43.3126 62.1199 43.2264L62.1604 42.5012C62.4254 42.2643 62.6176 41.9563 62.7143 41.6133C62.7516 40.5724 62.6879 39.5303 62.5243 38.5017C62.4158 37.9627 62.338 37.4179 62.2914 36.8699C62.2869 36.7451 62.2938 36.5727 62.2954 36.4304C62.2954 36.4142 62.2914 36.3983 62.2914 36.3825C62.2671 36.1426 62.2932 35.9003 62.3679 35.6712C62.4426 35.4421 62.5642 35.2313 62.7249 35.0524C62.8857 34.8735 63.0819 34.7304 63.3011 34.6325C63.5202 34.5345 63.7573 34.4839 63.9971 34.4838C64.237 34.4836 64.4741 34.5341 64.6933 34.6318C64.9126 34.7295 65.109 34.8724 65.2699 35.0512C65.4308 35.2299 65.5526 35.4406 65.6275 35.6697C65.7024 35.8987 65.7287 36.141 65.7047 36.3808C65.7047 36.5313 65.7136 36.7309 65.7083 36.8687C65.6616 37.4166 65.5834 37.9613 65.4742 38.5001C65.3096 39.5288 65.2448 40.5712 65.2809 41.6125C65.3484 41.9606 65.5485 42.2684 65.8386 42.4703C65.8446 42.5943 65.8648 43.0081 65.8798 43.2362C71.275 43.7295 76.3087 46.1746 80.0458 50.1175L80.6953 49.6512C81.0441 49.7114 81.4027 49.6723 81.7305 49.5382C82.5631 48.9173 83.3337 48.2164 84.0314 47.4454C84.3836 47.0241 84.7599 46.6236 85.1584 46.2461C85.2631 46.1559 85.4212 46.0347 85.5369 45.9429C85.7081 45.7731 85.913 45.6415 86.1381 45.5564C86.3632 45.4714 86.6037 45.435 86.8437 45.4494C87.0838 45.4639 87.3182 45.5289 87.5316 45.6403C87.7451 45.7517 87.9328 45.907 88.0827 46.0961C88.2326 46.2852 88.3413 46.5038 88.4016 46.7379C88.462 46.9719 88.4728 47.2161 88.4332 47.4546C88.3936 47.6931 88.3046 47.9205 88.1719 48.1222C88.0393 48.3239 87.8659 48.4952 87.6631 48.6252C87.5486 48.7183 87.3974 48.8479 87.2874 48.9301C86.831 49.2346 86.3575 49.5123 85.8693 49.7618C84.9673 50.2752 84.1172 50.8756 83.331 51.5546C83.1021 51.824 82.9872 52.1727 83.0107 52.5262C82.9157 52.614 82.5821 52.9112 82.4054 53.0722C85.4319 57.6077 86.697 63.1023 85.9606 68.5135L86.6497 68.7151C86.8219 69.0269 87.0766 69.2845 87.3857 69.4595C88.387 69.7277 89.4119 69.8972 90.446 69.9656C90.9934 69.9782 91.5396 70.0222 92.0821 70.0973C92.2256 70.1238 92.4331 70.1815 92.5794 70.2152C92.8159 70.2465 93.0432 70.327 93.2469 70.4517C93.4506 70.5763 93.6262 70.7424 93.7624 70.9392C93.8986 71.136 93.9924 71.3593 94.0378 71.5946C94.0832 71.83 94.0792 72.0723 94.0261 72.306C93.973 72.5398 93.872 72.7598 93.7294 72.952C93.5869 73.1442 93.406 73.3043 93.1983 73.4222C92.9906 73.5401 92.7608 73.613 92.5234 73.6364C92.2861 73.6598 92.0465 73.6332 91.82 73.5581L91.7954 73.5549C91.784 73.552 91.7735 73.5459 91.7618 73.5431C91.6211 73.5122 91.4444 73.4813 91.321 73.4488C90.7999 73.2805 90.2888 73.082 89.7905 72.8544C88.8288 72.4645 87.8316 72.1697 86.8131 71.9743C86.4606 71.9631 86.1177 72.0911 85.8579 72.3308C85.6153 72.2845 85.3721 72.2416 85.1284 72.2023C83.4783 77.4224 79.9771 81.8505 75.2908 84.6442Z" fill="#326CE5"/>
<path d="M108.857 73.3285L101.125 40.2574C100.918 39.4017 100.519 38.6021 99.9596 37.9163C99.3997 37.2305 98.6923 36.6757 97.8882 36.2918L66.5915 21.5791C65.7802 21.1979 64.8927 21 63.9939 21C63.095 21 62.2075 21.1979 61.3963 21.5791L30.1024 36.3007C29.2983 36.6842 28.5907 37.2386 28.0307 37.924C27.4707 38.6095 27.0722 39.4088 26.8639 40.2643L19.1454 73.3369C18.9713 74.0993 18.9534 74.8883 19.0927 75.6576C19.2321 76.4269 19.5259 77.1611 19.9569 77.8172C20.0631 77.9775 20.1758 78.1329 20.2978 78.2827L41.958 104.802C42.5257 105.485 43.2392 106.035 44.0477 106.415C44.8563 106.795 45.7399 106.995 46.6357 107L81.3707 106.992C82.2664 106.987 83.1499 106.788 83.9584 106.408C84.767 106.029 85.4807 105.479 86.0489 104.797L107.701 78.2751C108.256 77.5875 108.647 76.7866 108.847 75.9309C109.047 75.0753 109.051 74.1864 108.857 73.3293V73.3285ZM105.116 74.8771C105.064 75.1113 104.996 75.3418 104.914 75.5673C104.714 76.1158 104.424 76.6281 104.055 77.0834L84.8142 100.652L84.2097 101.394C83.8369 101.844 83.3917 102.232 82.8917 102.541C82.6988 102.663 82.4985 102.773 82.2921 102.871C82.153 102.934 82.0113 102.991 81.867 103.043C81.6828 103.112 81.495 103.172 81.3044 103.221C81.039 103.292 80.7685 103.342 80.4953 103.373C80.3048 103.394 80.1134 103.405 79.9217 103.406L48.3935 103.413H48.0843C47.613 103.41 47.144 103.346 46.6894 103.224C46.1352 103.079 45.6064 102.853 45.1212 102.552C44.7372 102.311 44.3851 102.024 44.0733 101.698C43.9785 101.599 43.883 101.503 43.7967 101.397L23.9431 77.0914C23.8324 76.9541 23.7287 76.8118 23.6319 76.6644C23.4074 76.3225 23.2241 75.9561 23.0856 75.5725C23.0036 75.3475 22.9369 75.1175 22.8858 74.8839C22.7125 74.1176 22.713 73.3231 22.8875 72.557L29.9633 42.2442C30.154 41.4601 30.5191 40.7275 31.0323 40.0992C31.5455 39.4709 32.1939 38.9627 32.9308 38.6111L61.6131 25.1177C62.3566 24.7683 63.17 24.587 63.9939 24.587C64.8177 24.587 65.6311 24.7683 66.3746 25.1177L95.0614 38.6047C95.7982 38.9566 96.4465 39.4651 96.9596 40.0936C97.4726 40.7221 97.8376 41.4548 98.0281 42.239L105.115 72.5518C105.29 73.3176 105.29 74.112 105.116 74.8779V74.8771Z" fill="white"/>
<path d="M92.5157 70.0918C92.3705 70.0587 92.1631 70.002 92.0207 69.976C91.4795 69.902 90.9344 69.8585 90.3883 69.8459C89.3563 69.7791 88.3334 69.613 87.334 69.35C87.0256 69.178 86.7715 68.9249 86.5997 68.6186L85.9122 68.4205C86.6472 63.1064 85.3852 57.7101 82.3658 53.2557C82.5417 53.0976 82.875 52.8057 82.969 52.7199C82.9455 52.3727 83.0602 52.0303 83.2885 51.7657C84.073 51.0988 84.9211 50.5092 85.8211 50.005C86.3082 49.7599 86.7807 49.4872 87.236 49.1881C87.3457 49.1074 87.4958 48.9797 87.6108 48.8887C87.8131 48.7611 87.9861 48.5928 88.1184 48.3948C88.2508 48.1968 88.3396 47.9735 88.3791 47.7393C88.4186 47.5052 88.408 47.2654 88.3478 47.0356C88.2876 46.8058 88.1793 46.591 88.0298 46.4053C87.8804 46.2196 87.6932 46.0671 87.4803 45.9576C87.2674 45.8481 87.0337 45.7841 86.7942 45.7698C86.5547 45.7555 86.3149 45.7912 86.0902 45.8745C85.8656 45.9579 85.6612 46.087 85.4902 46.2536C85.374 46.3442 85.2159 46.4632 85.1126 46.5518C84.7148 46.9225 84.3391 47.3158 83.9873 47.7296C83.2913 48.4868 82.5224 49.1751 81.6916 49.785C81.3645 49.9166 81.0068 49.9551 80.6588 49.896L80.0108 50.3539C76.282 46.4816 71.2597 44.0802 65.8767 43.5957C65.861 43.3718 65.8416 42.9661 65.8356 42.8436C65.5465 42.6452 65.3471 42.3429 65.28 42.0011C65.244 40.9785 65.3086 39.9547 65.4728 38.9444C65.5813 38.4154 65.6587 37.8805 65.7048 37.3426C65.7101 37.2069 65.702 37.0097 65.702 36.8631C65.726 36.6275 65.6997 36.3896 65.625 36.1647C65.5503 35.9398 65.4287 35.7328 65.2682 35.5573C65.1076 35.3817 64.9117 35.2414 64.6929 35.1454C64.4742 35.0494 64.2376 34.9999 63.9983 35C63.759 35.0001 63.5224 35.0499 63.3038 35.1461C63.0852 35.2423 62.8894 35.3827 62.729 35.5585C62.5686 35.7342 62.4472 35.9412 62.3727 36.1662C62.2982 36.3912 62.2722 36.6292 62.2964 36.8647C62.2964 36.8807 62.3 36.8959 62.3004 36.9118C62.2988 37.0516 62.2919 37.2209 62.2964 37.343C62.3429 37.8813 62.4205 38.4165 62.5288 38.946C62.6921 39.9562 62.7556 40.9796 62.7184 42.0019C62.6218 42.3385 62.43 42.6407 62.1657 42.8731L62.1253 43.5862C61.0894 43.6708 60.0607 43.8273 59.0469 44.0545C54.7879 45.0069 50.9138 47.1973 47.9218 50.3443C47.7147 50.203 47.5095 50.059 47.3061 49.9123C46.9693 50.0121 46.6063 49.9772 46.2951 49.8153C45.4642 49.2067 44.6953 48.5192 43.9994 47.7628C43.649 47.3492 43.2749 46.956 42.879 46.585C42.7753 46.4971 42.6167 46.3773 42.5005 46.2859C42.1629 46.0165 41.7469 45.8611 41.3135 45.8427C41.0561 45.8294 40.799 45.8762 40.5633 45.9795C40.3275 46.0828 40.1197 46.2396 39.9567 46.4372C39.6806 46.822 39.5698 47.2993 39.6482 47.7648C39.7267 48.2303 39.9882 48.6461 40.3755 48.9214L40.4017 48.9398C40.513 49.03 40.6502 49.1454 40.7535 49.22C41.2078 49.5192 41.6792 49.7922 42.1652 50.0377C43.0652 50.5419 43.9133 51.1319 44.6974 51.7992C44.901 52.0851 45.0197 52.4218 45.0399 52.771L45.585 53.2533C42.5741 57.7237 41.3369 63.1366 42.1108 68.4541L41.3978 68.6593C41.2118 68.9533 40.9618 69.2025 40.666 69.3887C39.6673 69.6525 38.6451 69.8192 37.6138 69.8866C37.0672 69.8989 36.5217 69.9423 35.9801 70.0167C35.8494 70.0407 35.6679 70.0862 35.5254 70.1214L35.5105 70.1245L35.4863 70.1317C35.2505 70.1624 35.0237 70.2415 34.8205 70.3639C34.6173 70.4863 34.4421 70.6493 34.3062 70.8425C34.1704 71.0357 34.0767 71.2549 34.0314 71.486C33.986 71.7171 33.9899 71.955 34.0428 72.1845C34.0956 72.414 34.1964 72.6301 34.3385 72.8188C34.4806 73.0076 34.6609 73.165 34.868 73.2808C35.0751 73.3967 35.3043 73.4684 35.5411 73.4916C35.7778 73.5147 36.0168 73.4887 36.2428 73.4152L36.2682 73.4112C36.2795 73.4088 36.2892 73.4032 36.3005 73.4012C36.4409 73.3697 36.6176 73.3361 36.7411 73.303C37.261 73.1388 37.771 72.9454 38.2686 72.7237C39.2275 72.341 40.2217 72.0515 41.2373 71.8593C41.5894 71.8806 41.9285 71.9992 42.2161 72.2015L42.9584 72.0757C44.6249 77.1707 48.118 81.4861 52.7787 84.2078L52.4684 84.9424C52.6127 85.2384 52.6656 85.5699 52.6205 85.8955C52.1961 86.8554 51.68 87.7731 51.0793 88.6359C50.749 89.0669 50.4442 89.5164 50.1663 89.9822C50.0985 90.1092 50.0126 90.3036 49.9476 90.4366C49.8247 90.639 49.746 90.8647 49.7165 91.099C49.687 91.3334 49.7075 91.5712 49.7765 91.7973C49.8455 92.0234 49.9616 92.2326 50.1172 92.4116C50.2729 92.5906 50.4647 92.7354 50.6803 92.8366C50.8959 92.9379 51.1306 92.9933 51.3691 92.9994C51.6077 93.0055 51.8449 92.9621 52.0655 92.8721C52.2861 92.782 52.4852 92.6472 52.65 92.4764C52.8148 92.3056 52.9417 92.1025 53.0224 91.8803L53.0252 91.8771V91.8731C53.0898 91.7413 53.1814 91.5685 53.2358 91.4451C53.4297 90.9402 53.5938 90.4245 53.7272 89.9008C54.0213 88.8356 54.4651 87.8166 55.0458 86.8736C55.2488 86.6851 55.5046 86.5615 55.7797 86.5191L56.1658 85.8284C61.2207 87.7519 66.8143 87.7659 71.879 85.8679C71.9871 86.0588 72.1889 86.4237 72.2421 86.5159C72.59 86.5709 72.9021 86.7587 73.1116 87.0389C73.5937 87.9433 73.9853 88.8922 74.2808 89.872C74.4155 90.3957 74.5805 90.9114 74.7751 91.4163C74.8303 91.5409 74.9203 91.7162 74.9857 91.8483C75.0662 92.0707 75.1928 92.274 75.3575 92.445C75.5221 92.616 75.7211 92.7511 75.9416 92.8415C76.1622 92.9318 76.3994 92.9755 76.638 92.9698C76.8767 92.964 77.1115 92.9088 77.3273 92.8079C77.5431 92.7069 77.7351 92.5624 77.8911 92.3836C78.0471 92.2047 78.1635 91.9956 78.2329 91.7696C78.3023 91.5436 78.3232 91.3057 78.2941 91.0712C78.265 90.8368 78.1867 90.6109 78.0641 90.4082C77.9991 90.2753 77.9096 90.0808 77.8422 89.9547C77.5643 89.4899 77.2594 89.0415 76.9292 88.6116C76.3391 87.7707 75.8334 86.8748 75.4194 85.9366C75.3295 85.6011 75.3765 85.244 75.5501 84.9424C75.4411 84.722 75.3464 84.4949 75.2665 84.2625C79.9422 81.5188 83.4355 77.1699 85.0819 72.0434C85.3022 72.0781 85.6859 72.1444 85.8106 72.1695C86.0696 71.9343 86.4113 71.8086 86.7627 71.8194C87.7786 72.0114 88.7731 72.3009 89.7322 72.6838C90.2299 72.9073 90.7402 73.1022 91.2605 73.2675C91.3836 73.2994 91.5591 73.3297 91.7003 73.3605C91.712 73.3637 91.7225 73.3689 91.7338 73.3717L91.758 73.3753C91.9839 73.4486 92.2228 73.4745 92.4594 73.4513C92.696 73.4282 92.9251 73.3564 93.1321 73.2406C93.3391 73.1248 93.5193 72.9675 93.6614 72.7788C93.8035 72.5902 93.9042 72.3742 93.9571 72.1449C94.01 71.9155 94.014 71.6777 93.9688 71.4467C93.9236 71.2157 93.8302 70.9966 93.6945 70.8034C93.5588 70.6102 93.3839 70.4471 93.181 70.3245C92.978 70.202 92.7514 70.1227 92.5157 70.0918ZM76.3369 52.9291L69.0596 58.0343L69.0342 58.0228C68.8149 58.1811 68.5563 58.2776 68.286 58.3021C68.0156 58.3266 67.7437 58.2781 67.4989 58.1618C67.2542 58.0455 67.0459 57.8658 66.8962 57.6417C66.7464 57.4177 66.6609 57.1576 66.6485 56.8893L66.6405 56.8857L66.1349 48.0606C69.9827 48.5334 73.5669 50.2439 76.3365 52.9291H76.3369ZM62.628 62.6022H65.3667L67.0693 64.7087L66.4589 67.3362L63.9994 68.5072L61.5326 67.3334L60.921 64.7051L62.628 62.6022ZM60.0515 48.3696C60.6514 48.236 61.2578 48.1329 61.8683 48.0606L61.362 56.8989L61.3248 56.9164C61.3134 57.1848 61.2286 57.4451 61.0795 57.6696C60.9304 57.894 60.7226 58.0743 60.4781 58.1911C60.2337 58.308 59.9618 58.357 59.6915 58.3331C59.4211 58.3091 59.1624 58.2131 58.9428 58.0551L58.9287 58.0631L51.6042 52.9239C53.936 50.6563 56.8618 49.0789 60.0515 48.3696ZM48.9482 56.2273L55.6352 62.1455L55.628 62.1818C55.8328 62.3583 55.9854 62.5865 56.0695 62.8421C56.1536 63.0976 56.1661 63.371 56.1055 63.633C56.045 63.895 55.9137 64.1359 55.7257 64.3299C55.5378 64.5239 55.3001 64.6638 55.0381 64.7346L55.0312 64.7634L46.4597 67.2112C46.0326 63.3781 46.9082 59.513 48.9482 56.2273ZM57.9015 71.9499L54.4958 80.0931C51.227 78.0225 48.7401 74.9423 47.4207 71.3303L56.2093 69.8535L56.2243 69.8726C56.3213 69.8542 56.42 69.8455 56.5188 69.8467C56.7653 69.8503 57.007 69.9139 57.2227 70.0319C57.4384 70.15 57.6215 70.3187 57.7556 70.5233C57.8898 70.728 57.9709 70.9621 57.9919 71.2052C58.013 71.4482 57.9731 71.6926 57.876 71.9168L57.9015 71.9499ZM67.9541 82.4224C64.7676 83.1454 61.4405 82.9762 58.3457 81.9337L62.668 74.1993H62.6752C62.8038 73.963 62.9945 73.7655 63.2272 73.6278C63.46 73.49 63.7261 73.4172 63.9973 73.4169C64.2685 73.4167 64.5347 73.4891 64.7677 73.6264C65.0007 73.7637 65.1918 73.9608 65.3207 74.1969H65.353L69.6862 81.944C69.1238 82.1298 68.5464 82.2894 67.9541 82.4228V82.4224ZM73.5385 80.1258L70.0977 71.8992L70.1082 71.8845C69.9556 71.5325 69.9461 71.1359 70.0816 70.7773C70.2171 70.4186 70.4872 70.1254 70.8357 69.9589C71.0153 69.8718 71.2109 69.8216 71.4106 69.8111C71.5262 69.8059 71.642 69.8143 71.7556 69.8363L71.7705 69.8179L80.6374 71.3007C79.3285 74.9418 76.8305 78.0473 73.5385 80.1262V80.1258ZM81.5686 67.1824L72.9538 64.727L72.9458 64.6911C72.6841 64.6197 72.4469 64.4794 72.2593 64.2853C72.0717 64.0911 71.9407 63.8503 71.8803 63.5884C71.8199 63.3266 71.8323 63.0534 71.9162 62.7979C72.0001 62.5424 72.1523 62.3142 72.3567 62.1375L72.3535 62.1203L79.0034 56.2309C81.0397 59.508 81.9402 63.353 81.5682 67.1824H81.5686Z" fill="white"/>
</svg>
