<svg width="128" height="128" viewBox="0 0 128 128" fill="none" xmlns="http://www.w3.org/2000/svg">
<path d="M26.1011 29.4884C26.8219 28.639 27.621 27.5066 27.105 26.5027C29.9882 24.8041 32.5361 22.5635 34.6203 19.9392C33.4879 20.8407 32.253 21.5615 30.94 22.1277C40.7983 12.3979 55.6239 7.9707 69.2389 10.6993C58.2743 10.2877 47.1047 13.1951 38.0436 19.373C28.9582 25.5249 22.0614 34.9697 19.411 45.6252C23.4247 33.9658 31.8936 23.9027 42.7036 17.9836C41.8543 18.859 41.0031 19.7586 40.1296 20.6339C44.2477 18.9353 47.9783 16.3874 52.0721 14.6106C64.0909 9.36013 78.5552 11.3419 89.7508 18.1885C100.946 25.0351 109.004 36.2567 113.688 48.5084C115.746 53.8612 117.188 59.8064 115.36 65.2375C114.949 58.1599 112.632 51.3394 109.62 44.9305C104.627 34.2489 97.4728 24.2379 87.4096 18.1121C77.3464 12.0124 64.0388 10.3901 53.7446 16.1304C59.0211 15.5642 64.3479 15.255 69.5723 16.0019C79.4045 17.3913 88.4899 22.5393 95.3868 29.6672C102.259 36.8229 107.022 45.8562 109.827 55.3531C112.555 64.6452 113.455 74.8891 109.955 83.9483C120.173 67.4241 118.475 44.4164 105.992 29.5647C100.768 23.3625 93.9973 18.6001 86.6888 15.1526C78.246 11.1891 68.98 8.89823 59.6637 9.15526C50.3474 9.41228 41.0292 12.3215 33.5922 17.9314C39.7683 12.4743 47.8237 9.38621 56.0094 8.5369C64.2194 7.71366 72.5318 9.05282 80.3321 11.6771C96.5453 17.1846 111.319 29.3338 116.081 45.7798C117.29 50.0002 117.83 54.3753 118.32 58.7522C118.732 62.535 119.067 66.3178 118.989 70.1266C118.629 88.9418 106.608 107.319 89.0822 114.19C84.1148 116.121 78.8644 117.176 73.5879 117.923C65.1451 119.105 56.395 119.467 48.2614 116.945C44.067 115.632 40.1538 113.598 36.5257 111.102C21.4951 100.806 11.9982 82.8681 11.9982 64.6452C11.9982 61.4026 12.2813 58.186 12.719 54.9937C13.1045 52.0602 13.6186 49.1509 14.4679 46.3199C15.7549 42.1497 17.7627 38.2124 20.4149 34.7388C20.8768 34.4557 21.3406 34.1465 21.7782 33.8373C15.6785 46.7315 12.0485 61.9688 17.6341 75.12C15.6264 66.5506 15.4978 57.5677 17.2747 48.9703C17.8409 48.7654 18.4071 48.5345 18.9472 48.3016C18.9733 47.7354 18.9975 47.1953 19.0236 46.6291C18.612 47.0929 18.2264 47.5548 17.8148 47.9925C18.7666 41.1719 21.7 34.7127 26.1011 29.4884ZM30.2452 29.1531C31.8414 28.0728 33.4376 26.9907 35.0338 25.9105C34.0299 27.9443 32.1767 29.5386 30.0143 30.2594C19.9772 40.6318 16.8873 56.1 18.0718 70.4619C18.5356 75.893 19.6419 81.5289 23.1416 85.6991C20.698 75.6601 20.5676 65.0568 22.8082 54.9676C23.2459 54.9415 23.3986 55.5077 23.3986 55.9454C23.5793 62.7157 22.4208 69.484 22.9107 76.2524C23.3986 82.9966 25.9223 90.1263 31.5844 93.8066C36.0116 96.688 40.4127 99.5711 44.8139 102.454C34.5179 99.1595 25.5349 92.0037 19.9772 82.7396C21.4691 86.7794 23.5532 90.6143 26.1272 94.0637C25.7938 93.1361 25.4847 92.1844 25.1494 91.2326C27.7495 93.6781 30.3738 96.0715 32.9738 98.4909C34.8792 100.266 37.8648 102.067 39.8204 100.368C40.1296 101.013 39.5634 101.81 38.8687 101.991C38.1721 102.197 37.4271 101.991 36.7324 101.784C39.8465 104.024 43.0892 106.082 46.4342 107.962C45.9463 108.038 45.7917 108.759 46.1009 109.171C46.4082 109.584 46.9241 109.686 47.4121 109.815C59.6898 112.465 72.7646 111.488 84.5004 106.958C74.4111 109.325 63.6532 109.867 53.8731 106.444C45.611 103.561 38.3789 97.8725 33.6425 90.5379C32.1245 88.1688 30.8636 85.673 29.7051 83.1251C25.9726 74.7345 23.6054 65.5728 24.274 56.4092C24.9445 47.2475 28.9582 38.1099 36.1662 32.4479C36.9112 31.8556 37.8387 31.2894 38.7644 31.5204C31.6608 36.6684 27.4403 45.1875 26.334 53.8873C25.2276 62.6114 27.0287 71.4658 30.195 79.6497C32.4598 85.4421 35.4696 91.052 39.6137 95.6841C41.3905 97.6658 43.3983 99.4687 45.6874 100.832C49.8836 103.354 54.851 104.308 59.7159 104.924C66.3297 105.773 72.9956 106.135 79.6615 105.98C71.2448 107.962 62.4426 106.546 53.9234 105.131C68.3896 110.562 85.3497 107.241 97.782 98.1035C100.252 96.2763 102.595 94.2443 104.472 91.7989C107.355 88.0403 109.08 83.4604 109.955 78.8003C112.22 66.653 108.978 53.9637 103.083 43.0773C98.9907 35.5099 93.5596 28.5105 86.4057 23.7481C79.7137 19.3209 71.7608 16.9797 63.7557 16.542C51.4537 15.8212 38.431 19.8871 30.2452 29.1531ZM54.4133 112.748C59.9468 114.138 65.5325 115.142 71.1945 115.812C64.2455 117.407 57.0897 114.963 50.3735 112.57C46.4082 111.178 42.3944 109.737 38.7141 107.679C29.8076 102.737 23.1155 94.2685 19.2303 84.8498C18.5617 83.1773 17.9433 81.5029 17.4293 79.8042C17.3771 79.5994 17.2225 80.0873 17.4293 79.9849C17.6341 79.9085 17.6081 79.5994 17.5056 79.3926C15.1887 73.8088 13.7731 67.8115 13.3355 61.7881C12.8978 70.8996 15.1626 80.0613 19.2806 88.221C23.76 97.0996 30.4781 104.9 38.919 110.174C47.3357 115.451 57.4752 118.127 67.3596 117.176C81.2577 115.812 93.4572 107.705 104.653 99.3905C99.7115 105.928 92.2224 109.97 84.9381 113.778C97.5231 110.253 107.612 100.292 113.688 88.7108C110.676 93.8569 105.966 97.8986 100.844 100.934C95.696 103.972 90.06 106.082 84.424 108.116C81.9524 109.018 79.4567 109.891 76.9087 110.612C69.6244 112.698 61.9546 113.419 54.4133 112.748ZM105.888 95.3507C107.175 94.14 108.437 92.9052 109.466 91.5157C111.088 89.277 112.168 86.6769 113.198 84.1029C114.587 80.6033 116.003 77.0757 116.364 73.319C115.694 73.9112 115.463 74.7866 115.206 75.6359C111.783 87.5002 103.316 97.8464 92.3248 103.508C97.4989 102.35 101.95 98.9789 105.888 95.3507ZM42.9867 107.962C43.5269 108.09 44.1955 108.321 44.2216 108.863C44.4265 108.502 45.0448 108.502 45.2758 108.863C45.3801 108.837 45.3018 108.656 45.1733 108.604C44.4022 108.193 43.6293 107.781 42.8824 107.369C39.7683 105.697 36.9112 103.613 34.3633 101.193C34.0541 101.862 34.2869 102.711 34.8792 103.123C36.0116 103.946 37.144 104.769 38.2764 105.595C39.6398 106.727 41.262 107.55 42.9867 107.962ZM117.316 69.0463C117.214 70.9517 117.109 72.8813 116.981 74.7866C116.957 75.0436 116.957 75.3007 116.957 75.5577C116.931 76.0215 116.904 76.4852 116.852 76.9229C116.826 77.4891 116.802 78.0032 116.802 78.5694C117.882 74.1943 118.268 69.6126 117.934 65.1351C117.806 65.0829 117.676 65.0065 117.573 64.9283C117.497 66.2917 117.392 67.6569 117.316 69.0463ZM17.2747 40.8385C17.094 41.1719 16.9394 41.5072 16.7848 41.8424C16.9655 42.0734 17.2989 41.7903 17.3771 41.5072C17.4535 41.2501 17.5317 40.8888 17.8148 40.8646C17.6863 40.7342 17.5578 40.6057 17.4293 40.4772C17.3771 40.5815 17.325 40.7342 17.3771 40.8385M35.9855 19.4755C36.2426 19.2706 36.4996 19.0638 36.7566 18.8329C36.3189 18.6522 35.7527 18.8832 35.5739 19.3469C35.7024 19.3991 35.8309 19.4494 35.9855 19.4755ZM36.7827 18.2667C37.3489 18.3952 37.9933 18.2406 38.4552 17.8551C37.8648 17.829 37.2725 17.9575 36.7827 18.2667ZM16.2969 44.3904C16.2708 44.2618 16.2447 44.1333 16.2447 44.029C15.7549 44.2097 15.5239 44.8783 15.807 45.316C15.9095 44.9826 16.064 44.6735 16.2969 44.3904ZM13.3876 57.5155C13.2591 57.6962 13.3615 58.0054 13.5943 58.0314C13.7229 57.6198 13.6968 57.1821 13.5683 56.7444C13.3112 56.8729 13.233 57.2324 13.3876 57.4652" fill="#1C7361"/>
<path d="M30.7351 22.2561C30.7854 22.3325 30.8375 22.4349 30.8897 22.5131C30.6569 22.8465 30.2192 23.0011 29.8336 22.8987C30.0404 22.6156 30.3495 22.4107 30.6829 22.3325" fill="#1C7361"/>
<path d="M28.7013 23.9027C29.0626 23.7742 29.4481 23.696 29.8337 23.722C29.7573 24.2882 28.8037 24.4428 28.5728 23.9027" fill="#1C7361"/>
<path d="M27.4142 22.7182C27.647 22.3588 28.0828 22.1018 28.5466 22.152C28.6491 22.4109 28.5727 22.7182 28.366 22.8989C28.0065 22.9511 27.5688 23.0013 27.3118 22.7182" fill="#1C7361"/>
<path d="M99.5568 24.4167C99.7114 24.3925 99.866 24.5453 99.84 24.6998C99.8139 24.8544 99.6351 24.9587 99.4805 24.9066C99.2477 24.6496 99.0167 24.3664 98.7858 24.0833C99.0428 23.8766 99.5047 24.0573 99.5568 24.3664" fill="#1C7361"/>
<path d="M29.731 20.6078C29.9117 20.4029 30.2712 20.4029 30.4779 20.5817C30.1427 20.9169 29.705 21.1479 29.2412 21.3025C29.1909 21.0194 29.4479 20.686 29.731 20.7102" fill="#1C7361"/>
<path d="M25.5107 44.5451C25.7416 44.2099 26.36 44.3384 26.4363 44.75C26.1272 44.6997 25.7938 44.8021 25.587 45.0331C25.4585 45.0852 25.2518 44.9828 25.2518 44.8282C25.2276 44.6997 25.3822 44.5451 25.5349 44.5693" fill="#1C7361"/>
<path d="M40.2321 28.0728C40.3606 28.0206 40.5413 27.9685 40.6698 28.0206C40.8244 28.0728 40.9007 28.3037 40.7983 28.4062C40.3084 28.7153 39.7422 28.896 39.176 28.9221C39.4349 28.5608 39.8205 28.2777 40.2321 28.0728Z" fill="#1C7361"/>
<path d="M47.8236 108.502C48.0825 108.683 48.3656 108.863 48.6226 109.042C48.0564 109.275 47.3878 109.146 46.924 108.735C46.8216 108.554 47.0264 108.297 47.2071 108.297C47.4381 108.271 47.6448 108.4 47.8236 108.502Z" fill="#1C7361"/>
<path d="M36.0619 25.7036C35.9333 25.3181 36.0358 24.8543 36.345 24.5712C36.5517 24.5209 36.7566 24.3664 36.8348 24.1335C37.1682 24.2621 37.4774 24.3924 37.8126 24.5209C37.2464 24.9065 36.6541 25.292 36.0619 25.7036Z" fill="#1C7361"/>
<path d="M23.503 53.3471C23.503 53.1925 23.503 53.038 23.503 52.8834C23.76 52.7549 24.0431 52.7549 24.2741 52.8573C23.8122 53.3471 23.5533 54.0158 23.6054 54.6844C23.3223 54.4795 23.0132 54.2467 22.704 54.0419C22.9629 53.8351 23.246 53.6042 23.5291 53.3713" fill="#1C7361"/>
<path d="M21.8043 30.6207C21.9068 29.8216 22.3705 29.1009 23.0131 28.6129C23.1938 28.4844 23.4769 28.4061 23.5793 28.5868C23.0131 29.153 22.5493 29.7956 22.2159 30.5164C22.1377 30.6467 21.9328 30.7231 21.8043 30.6207Z" fill="#1C7361"/>
<path d="M24.4547 46.5767C24.9688 46.1912 25.4586 45.8056 25.9727 45.4182C25.8442 45.9081 25.7156 46.3457 25.5871 46.8337C25.4065 46.938 25.2779 47.1187 25.0991 47.2211C24.9185 47.3236 24.6615 47.3496 24.5329 47.169C24.4286 46.9883 24.7117 46.7313 24.816 46.912C24.7117 46.8095 24.5832 46.7052 24.4547 46.5767Z" fill="#1C7361"/>
<path d="M44.0671 26.6312C44.0149 26.7598 43.9646 26.8883 44.0149 27.0429C43.6033 27.1192 43.2178 27.1974 42.8564 27.2738C42.8062 27.4284 42.754 27.583 42.7037 27.7376C42.3945 27.7115 42.0854 27.7115 41.8023 27.7115C41.5452 27.583 41.8023 27.2235 42.0593 27.095C42.5733 26.8361 43.1153 26.6815 43.6815 26.6052C43.6033 26.4766 43.527 26.3742 43.4487 26.2457C43.8603 25.9104 44.3502 25.6795 44.8903 25.5249C44.9928 25.7037 45.0188 25.9104 44.9685 26.1153C44.7879 26.1935 44.6072 26.2196 44.4266 26.1675C44.4526 26.296 44.4787 26.4245 44.5048 26.5791C44.3241 26.6312 44.1956 26.6573 44.0671 26.6312Z" fill="#1C7361"/>
<path d="M23.9406 29.0505C24.1454 28.922 24.4285 28.8698 24.6614 28.922C24.5571 28.7935 24.4807 28.6631 24.4025 28.5346C24.6614 28.4843 24.9184 28.4321 25.2015 28.4061C25.3039 28.149 25.3039 27.8399 25.2015 27.5828C25.4846 27.5567 25.7938 27.6089 26.0508 27.7113C26.1272 27.8138 26.1532 27.9684 26.1272 28.0969C25.9986 28.149 25.8441 28.2012 25.6895 28.2515C25.6392 28.5104 25.5609 28.7674 25.5107 29.0244C25.3821 29.1008 25.1754 29.1269 25.0208 29.0766C24.7899 30.466 23.2701 31.2632 22.7299 32.5502C22.5493 32.9879 22.3705 33.5541 21.9067 33.5541C21.7782 33.3995 21.8043 33.1164 21.9831 32.9879C21.8043 32.9357 21.6497 32.8854 21.4951 32.8333C21.469 32.5502 21.9328 32.6284 22.1637 32.8072C22.3705 32.6284 22.1898 32.2149 21.9328 32.2149C22.2159 31.984 22.3965 31.6245 22.4468 31.2632C22.7299 31.2892 23.013 31.1868 23.1937 30.9801C22.9869 31.0322 22.756 30.8776 22.7038 30.6467C23.1155 30.723 23.5289 30.3375 23.5029 29.9259C23.812 29.7452 24.1194 29.5645 24.4285 29.3839C24.3 29.3075 24.1194 29.179 23.9406 29.0505Z" fill="#1C7361"/>
<path d="M104.781 30.4141C104.215 29.643 103.623 28.8962 102.904 28.2517C101.9 27.3521 100.613 26.5531 100.406 25.2158C106.456 30.3377 111.114 37.1061 113.712 44.5953C113.945 44.802 113.688 45.2658 113.405 45.1876C111.14 39.9632 108.231 34.9698 104.781 30.4141Z" fill="#1C7361"/>
<path d="M36.8348 26.3482C37.889 25.4989 39.0996 24.6999 39.5373 23.4129C39.6659 23.0534 40.0253 22.7703 40.3606 22.5636C45.5589 19.2948 51.6344 17.4938 57.7583 17.3914C54.6964 18.2146 51.6586 19.0117 48.5966 19.8368C43.836 21.0978 40.3345 25.0351 37.1179 28.7937C34.3372 32.0624 31.5322 35.3311 28.7534 38.624C28.4181 39.5255 28.1089 40.4512 27.7755 41.3526C27.647 41.7643 27.4924 42.1759 27.1311 42.4329C26.7977 42.6918 26.2315 42.6918 26.0248 42.3044C27.2596 40.1439 28.4963 37.9554 29.7573 35.7669C31.7651 32.3697 33.771 28.87 36.8348 26.3482Z" fill="#1C7361"/>
</svg>
