<svg width="128" height="128" viewBox="0 0 128 128" fill="none" xmlns="http://www.w3.org/2000/svg">
<path d="M64 118.798C62.5094 118.798 61.1181 118.398 59.8263 117.698L46.6086 109.802C44.6211 108.703 45.6149 108.303 46.2111 108.103C48.8943 107.204 49.3911 107.004 52.1736 105.404C52.4721 105.204 52.8696 105.304 53.1674 105.504L63.3044 111.601C63.7019 111.801 64.1987 111.801 64.4969 111.601L104.149 88.5125C104.547 88.3126 104.746 87.9128 104.746 87.4131V41.3347C104.746 40.835 104.547 40.4352 104.149 40.2353L64.4969 17.2461C64.0994 17.0462 63.6025 17.0462 63.3044 17.2461L23.6519 40.2357C23.2544 40.4356 23.0556 40.9353 23.0556 41.3351V87.4131C23.0556 87.8129 23.2544 88.3126 23.6519 88.5125L34.4845 94.8092C40.348 97.8077 44.0245 94.3095 44.0245 90.8113V45.3327C44.0245 44.733 44.5218 44.1333 45.2174 44.1333H50.2859C50.8821 44.1333 51.4784 44.633 51.4784 45.3327V90.8109C51.4784 98.7072 47.2049 103.305 39.7514 103.305C37.4658 103.305 35.677 103.305 30.6089 100.806L20.1738 94.8092C17.59 93.3096 16 90.5111 16 87.5126V41.4351C16 38.4366 17.59 35.6381 20.1738 34.1385L59.8263 11.0497C62.3106 9.65043 65.6894 9.65043 68.1738 11.0497L107.826 34.1385C110.41 35.6377 112 38.4362 112 41.4351V87.513C112 90.5115 110.41 93.31 107.826 94.8092L68.1738 117.899C66.8819 118.498 65.3913 118.798 64 118.798V118.798ZM76.2235 87.1128C58.8321 87.1128 55.2546 79.117 55.2546 72.3201C55.2546 71.7205 55.7515 71.1208 56.4471 71.1208H61.6146C62.2109 71.1208 62.7081 71.5206 62.7081 72.1202C63.5031 77.4175 65.7887 80.0165 76.3229 80.0165C84.6707 80.0165 88.2486 78.1175 88.2486 73.6198C88.2486 71.0208 87.2549 69.1218 74.236 67.8221C63.4038 66.7227 56.6459 64.3239 56.6459 55.6284C56.6459 47.5319 63.4034 42.7344 74.7329 42.7344C87.4533 42.7344 93.7143 47.1321 94.5093 56.7275C94.5093 57.0273 94.4099 57.3272 94.2111 57.627C94.0124 57.8269 93.7142 58.0268 93.4161 58.0268H88.2486C87.7514 58.0268 87.2549 57.627 87.1551 57.1273C85.9626 51.6301 82.882 49.8311 74.7329 49.8311C65.5904 49.8311 64.4969 53.0294 64.4969 55.4282C64.4969 58.327 65.7887 59.2262 78.1116 60.8254C90.3355 62.4245 96.0993 64.7237 96.0993 73.3196C95.9999 82.1154 88.8449 87.1128 76.2235 87.1128Z" fill="#539E43"/>
</svg>
