<svg width="128" height="128" viewBox="0 0 128 128" fill="none" xmlns="http://www.w3.org/2000/svg">
<g clip-path="url(#clip0_108_268)">
<path d="M64 22C40.8042 22 22 40.8042 22 64C22 87.1958 40.8042 106 64 106C87.1958 106 106 87.1958 106 64C106 40.8042 87.1958 22 64 22ZM64 97.6C45.4436 97.6 30.4 82.5573 30.4 64C30.4 45.4436 45.4436 30.4 64 30.4C82.5573 30.4 97.6 45.4436 97.6 64C97.6 82.5573 82.5573 97.6 64 97.6Z" fill="white"/>
<path d="M96.6676 25.3925L25.392 96.6682L31.3316 102.608L102.607 31.3322L96.6676 25.3925Z" fill="white"/>
</g>
<defs>
<clipPath id="clip0_108_268">
<rect width="84" height="84" fill="white" transform="translate(22 22)"/>
</clipPath>
</defs>
</svg>
