<svg width="128" height="128" viewBox="0 0 128 128" fill="none" xmlns="http://www.w3.org/2000/svg">
<path d="M15.9846 47.9901H32.8219C37.7637 48.0315 41.3448 49.4552 43.565 52.2588C45.7853 55.0624 46.5178 58.8917 45.7639 63.7467C45.4711 65.9652 44.8215 68.141 43.8163 70.2753C42.8394 72.4291 41.4767 74.3864 39.7955 76.0507C37.7009 78.2265 35.4605 79.6075 33.0732 80.1938C30.6858 80.7801 28.2142 81.0727 25.6597 81.0727H18.1207L15.7333 93H7.00055L15.9846 47.9901ZM23.3352 55.1465L19.5657 73.9791C19.817 74.0205 20.0683 74.0418 20.3196 74.0418H21.1991C25.22 74.0833 28.5711 73.6865 31.2512 72.8491C33.9314 71.9703 35.7332 68.9156 36.6542 63.6839C37.4081 59.2896 36.6542 56.7573 34.3925 56.0881C32.1723 55.4189 29.3878 55.105 26.0367 55.1465C25.5341 55.1879 25.0528 55.2093 24.5917 55.2093H23.2724L23.3352 55.1465ZM55.7117 36H64.3816L61.9314 47.9901H69.7218C73.9939 48.0742 77.1767 48.953 79.2713 50.6267C81.4073 52.3003 82.0356 55.4817 81.156 60.1685L76.9467 81.0727H68.1511L72.172 61.1101C72.5904 59.0172 72.4648 57.5319 71.795 56.6531C71.1253 55.7742 69.6803 55.3348 67.4601 55.3348L60.4864 55.272L55.3347 81.0727H46.6648L55.7117 36ZM90.4661 47.9901H107.303C112.245 48.0315 115.826 49.4552 118.046 52.2588C120.267 55.0624 120.999 58.8917 120.245 63.7467C119.953 65.9652 119.303 68.141 118.298 70.2753C117.321 72.4291 115.958 74.3864 114.277 76.0507C112.182 78.2265 109.942 79.6075 107.555 80.1938C105.167 80.7801 102.696 81.0727 100.141 81.0727H92.6021L90.2148 93H81.482L90.4661 47.9901ZM97.8167 55.1465L94.0471 73.9791C94.2984 74.0205 94.5497 74.0418 94.801 74.0418H95.6806C99.7014 74.0833 103.053 73.6865 105.733 72.8491C108.413 71.9703 110.215 68.9156 111.136 63.6839C111.89 59.2896 111.136 56.7573 108.874 56.0881C106.654 55.4189 103.869 55.105 100.518 55.1465C100.016 55.1879 99.5343 55.2093 99.0732 55.2093H97.7538L97.8167 55.1465Z" fill="black"/>
</svg>
