<svg width="128" height="128" viewBox="0 0 128 128" fill="none" xmlns="http://www.w3.org/2000/svg">
<path d="M89.7727 12.9456H38.2273C24.2645 12.9456 12.9455 24.2646 12.9455 38.2274V89.7728C12.9455 103.736 24.2645 115.055 38.2273 115.055H89.7727C103.736 115.055 115.055 103.736 115.055 89.7728V38.2274C115.055 24.2646 103.736 12.9456 89.7727 12.9456Z" fill="#3A78B1"/>
<path d="M30.52 101.702V57.8636C30.52 42.4 43.3818 22.5918 65.5464 22.5918C87.7109 22.5918 100.916 39.7 100.916 57.2254C100.916 87.3182 72.2964 92.35 72.2964 92.35C72.2964 92.35 74.0636 89.5273 74.0636 85.1091C74.0636 80.6909 72.1 78.2363 72.1 78.2363C72.1 78.2363 86.8273 74.3091 86.8273 56.8818C86.8273 39.4545 73.8182 36.5091 65.7182 36.5091C51.7273 36.5091 44.0445 48.4136 44.0445 57.2009V101.849C44.0445 108.206 39.7491 107.715 39.7491 107.715H35.0364C35.0364 107.715 30.52 107.715 30.52 101.726V101.702Z" fill="white"/>
<path d="M60.2936 97.0382C66.8005 97.0382 72.0754 91.7633 72.0754 85.2564C72.0754 78.7495 66.8005 73.4746 60.2936 73.4746C53.7867 73.4746 48.5118 78.7495 48.5118 85.2564C48.5118 91.7633 53.7867 97.0382 60.2936 97.0382Z" fill="white"/>
</svg>
