<svg width="128" height="128" viewBox="0 0 128 128" fill="none" xmlns="http://www.w3.org/2000/svg">
<path d="M64 110C89.4051 110 110 89.4051 110 64C110 38.5949 89.4051 18 64 18C38.5949 18 18 38.5949 18 64C18 89.4051 38.5949 110 64 110Z" fill="#EDF2F7"/>
<path d="M63.5253 50.1199C63.6712 50.0412 63.8343 50 64 50C64.1657 50 64.3288 50.0412 64.4747 50.1199L77.4749 57.12C77.6337 57.2057 77.7663 57.3328 77.8588 57.4876C77.9512 57.6425 78 57.8196 78 58C78 58.1804 77.9512 58.3575 77.8588 58.5124C77.7663 58.6673 77.6337 58.7944 77.4749 58.88L64.4747 65.8801C64.3288 65.9588 64.1657 66 64 66C63.8343 66 63.6712 65.9588 63.5253 65.8801L50.5251 58.88C50.3664 58.7944 50.2337 58.6673 50.1413 58.5124C50.0488 58.3575 50 58.1804 50 58C50 57.8196 50.0488 57.6425 50.1413 57.4876C50.2337 57.3328 50.3664 57.2057 50.5251 57.12L63.5253 50.1199Z" fill="black"/>
<path d="M52.352 62.0014L62.5772 67.5824C63.0144 67.8211 63.5033 67.9461 64 67.9461C64.4966 67.9461 64.9856 67.8211 65.4228 67.5824L75.648 62L77.4749 62.9989C77.6337 63.0857 77.7662 63.2145 77.8587 63.3715C77.9512 63.5286 78 63.7081 78 63.891C78 64.0739 77.9512 64.2534 77.8587 64.4103C77.7662 64.5673 77.6337 64.6962 77.4749 64.7831L64.4734 71.8793C64.3279 71.9585 64.1652 72 64 72C63.8348 72 63.6721 71.9585 63.5266 71.8793L50.5251 64.7831C50.3663 64.6962 50.2338 64.5673 50.1412 64.4103C50.0488 64.2534 50 64.0739 50 63.891C50 63.7081 50.0488 63.5286 50.1412 63.3715C50.2338 63.2145 50.3663 63.0857 50.5251 62.9989L52.352 62.0014Z" fill="black"/>
<path d="M62.5772 73.5818L52.352 68L50.5251 68.9988C50.3663 69.0856 50.2338 69.2144 50.1412 69.3714C50.0488 69.5284 50 69.7079 50 69.8908C50 70.0737 50.0488 70.2531 50.1412 70.4101C50.2338 70.5671 50.3663 70.6959 50.5251 70.7828L63.5266 77.8784C63.8213 78.0405 64.1787 78.0405 64.4734 77.8784L77.4749 70.7828C77.6337 70.6959 77.7662 70.5671 77.8587 70.4101C77.9512 70.2531 78 70.0737 78 69.8908C78 69.7079 77.9512 69.5284 77.8587 69.3714C77.7662 69.2144 77.6337 69.0856 77.4749 68.9988L75.648 68.0014L65.4228 73.5832C64.9854 73.8216 64.4965 73.9463 63.9999 73.9462C63.5031 73.9459 63.0143 73.8208 62.5772 73.5818Z" fill="black"/>
</svg>
