<svg width="128" height="128" viewBox="0 0 128 128" fill="none" xmlns="http://www.w3.org/2000/svg">
<path d="M63.5376 10.0305C36.1892 10.0305 37.8968 21.938 37.8968 21.938L37.9272 34.2746H64.0253V37.9784H27.5614C27.5614 37.9784 10.0612 35.9857 10.0612 63.6908C10.0612 91.3969 25.3358 90.4143 25.3358 90.4143H34.4517V77.5576C34.4517 77.5576 33.9602 62.2216 49.4825 62.2216H75.3672C75.3672 62.2216 89.9099 62.4575 89.9099 48.11V24.3873C89.9099 24.3873 92.1187 10.0305 63.5376 10.0305ZM49.1472 18.3266C49.7639 18.3261 50.3746 18.4476 50.9445 18.6843C51.5144 18.921 52.0322 19.2682 52.4683 19.706C52.9044 20.1439 53.2502 20.6637 53.4859 21.2359C53.7217 21.8081 53.8427 22.4213 53.8422 23.0405C53.8427 23.6597 53.7217 24.2729 53.4859 24.8451C53.2502 25.4172 52.9044 25.9371 52.4683 26.375C52.0322 26.8128 51.5144 27.16 50.9445 27.3967C50.3746 27.6334 49.7639 27.7549 49.1472 27.7544C48.5304 27.7549 47.9197 27.6334 47.3498 27.3967C46.7799 27.16 46.2621 26.8128 45.826 26.375C45.39 25.9371 45.0441 25.4172 44.8084 24.8451C44.5726 24.2729 44.4516 23.6597 44.4521 23.0405C44.4516 22.4213 44.5726 21.8081 44.8084 21.2359C45.0441 20.6637 45.39 20.1439 45.826 19.706C46.2621 19.2682 46.7799 18.921 47.3498 18.6843C47.9197 18.4476 48.5304 18.3261 49.1472 18.3266Z" fill="url(#paint0_linear_106_492)"/>
<path d="M64.3142 117.63C91.6627 117.63 89.9551 105.722 89.9551 105.722L89.9247 93.3861H63.8262V89.6823H100.29C100.29 89.6823 117.79 91.675 117.79 63.969C117.79 36.2634 102.516 37.246 102.516 37.246H93.3998V50.1022C93.3998 50.1022 93.8912 65.4382 78.369 65.4382H52.4843C52.4843 65.4382 37.9415 65.2023 37.9415 79.5502V103.273C37.9415 103.273 35.7332 117.63 64.3138 117.63H64.3142ZM78.7047 109.335C78.088 109.335 77.4772 109.214 76.9074 108.977C76.3375 108.74 75.8197 108.393 75.3836 107.955C74.9475 107.517 74.6017 106.997 74.366 106.425C74.1302 105.853 74.0092 105.24 74.0097 104.621C74.0091 104.001 74.1301 103.388 74.3658 102.816C74.6016 102.244 74.9474 101.724 75.3835 101.286C75.8196 100.848 76.3374 100.501 76.9073 100.264C77.4772 100.027 78.088 99.9058 78.7047 99.9063C79.3215 99.9058 79.9322 100.027 80.5021 100.264C81.072 100.501 81.5898 100.848 82.0259 101.286C82.4619 101.724 82.8078 102.243 83.0435 102.816C83.2793 103.388 83.4003 104.001 83.3998 104.62C83.4003 105.239 83.2793 105.853 83.0435 106.425C82.8078 106.997 82.4619 107.517 82.0259 107.955C81.5898 108.393 81.072 108.74 80.5021 108.976C79.9322 109.213 79.3215 109.335 78.7047 109.335Z" fill="url(#paint1_linear_106_492)"/>
<defs>
<linearGradient id="paint0_linear_106_492" x1="1045.33" y1="977.822" x2="6405.25" y2="6263.04" gradientUnits="userSpaceOnUse">
<stop stop-color="#387EB8"/>
<stop offset="1" stop-color="#366994"/>
</linearGradient>
<linearGradient id="paint1_linear_106_492" x1="1566.01" y1="1691.55" x2="7320.87" y2="7110.04" gradientUnits="userSpaceOnUse">
<stop stop-color="#FFE052"/>
<stop offset="1" stop-color="#FFC331"/>
</linearGradient>
</defs>
</svg>
