<svg width="128" height="128" viewBox="0 0 128 128" fill="none" xmlns="http://www.w3.org/2000/svg">
<path d="M112.5 53.7299L45.2 16.3799L90.26 83.3299L99.52 77.2599L112.5 53.7299Z" fill="url(#paint0_linear_105_367)"/>
<path d="M85.65 38.4999L77.22 17.8899L58.57 36.2499L66.2 102.87L84.27 112.38L112.5 95.8899L85.65 38.4999Z" fill="url(#paint1_linear_105_367)"/>
<path d="M45.2 16.3799L16.5 35.7099L27.17 101.64L54.69 112.22L90.26 83.3299L45.2 16.3799Z" fill="url(#paint2_linear_105_367)"/>
<path d="M34.5 34.5H94.5V94.5H34.5V34.5Z" fill="black"/>
<path d="M41.98 83.1602H64.48V86.9102H41.98V83.1602Z" fill="white"/>
<path d="M42 41.9201H52.3C53.4923 41.8467 54.6873 42.0114 55.8152 42.4045C56.9432 42.7977 57.9817 43.4115 58.87 44.2101C59.522 44.8967 60.0296 45.7072 60.3628 46.5935C60.6961 47.4798 60.8481 48.424 60.81 49.3701V49.4301C60.8845 50.9666 60.4508 52.4848 59.5759 53.7501C58.7011 55.0153 57.4338 55.9572 55.97 56.4301L61.49 64.4901H55.68L50.85 57.2701H47V64.4901H42V41.9201ZM52 52.9201C54.42 52.9201 55.81 51.6301 55.81 49.7301V49.6701C55.81 47.5401 54.33 46.4401 51.91 46.4401H47V52.9201H52Z" fill="white"/>
<path d="M64.93 41.9202H73.73C80.82 41.9202 85.73 46.7902 85.73 53.1402V53.2102C85.73 59.5602 80.83 64.4902 73.73 64.4902H64.93V41.9202ZM69.93 46.4002V60.0002H73.77C74.6718 60.0533 75.5746 59.9158 76.4196 59.5967C77.2647 59.2776 78.033 58.784 78.6746 58.1481C79.3161 57.5122 79.8165 56.7483 80.1431 55.9061C80.4697 55.0639 80.6151 54.1623 80.57 53.2602V53.2002C80.6158 52.2946 80.4714 51.3895 80.146 50.5432C79.8206 49.6969 79.3215 48.9282 78.6808 48.2866C78.0401 47.645 77.2722 47.1448 76.4263 46.8181C75.5805 46.4915 74.6756 46.3457 73.77 46.3902L69.93 46.4002Z" fill="white"/>
<defs>
<linearGradient id="paint0_linear_105_367" x1="106.33" y1="71.3699" x2="32.33" y2="28.9099" gradientUnits="userSpaceOnUse">
<stop stop-color="#DD1265"/>
<stop offset="0.48" stop-color="#DD1265"/>
<stop offset="0.94" stop-color="#FDB60D"/>
</linearGradient>
<linearGradient id="paint1_linear_105_367" x1="62.33" y1="24.7599" x2="91.66" y2="105.76" gradientUnits="userSpaceOnUse">
<stop offset="0.14" stop-color="#087CFA"/>
<stop offset="0.48" stop-color="#DD1265"/>
<stop offset="0.96" stop-color="#087CFA"/>
</linearGradient>
<linearGradient id="paint2_linear_105_367" x1="40.36" y1="27.2599" x2="62.02" y2="104.26" gradientUnits="userSpaceOnUse">
<stop offset="0.28" stop-color="#DD1265"/>
<stop offset="0.97" stop-color="#FDB60D"/>
</linearGradient>
</defs>
</svg>
