<svg width="128" height="128" viewBox="0 0 128 128" fill="none" xmlns="http://www.w3.org/2000/svg">
<circle cx="64" cy="64" r="54" fill="#76AADB"/>
<path d="M44.5938 37.422C45.0625 37.4905 45.5313 37.559 46.0143 37.6296C48.0927 37.8886 50.1482 37.906 52.2402 37.8966C52.6062 37.8982 52.9722 37.8999 53.3493 37.9015C54.8065 37.8993 56.1881 37.8804 57.6274 37.6395C63.7264 36.6269 70.3186 36.7079 75.5637 40.2103C77.737 41.9301 79.3077 44.0406 79.7702 46.829C79.835 47.8472 79.84 48.8473 79.8203 49.8673C79.8301 50.3755 79.8301 50.3755 79.8401 50.894C79.8166 54.5158 78.3311 57.2056 75.8125 59.7814C73.9361 61.1838 72.1323 62.0099 69.9062 62.7345C70.1521 63.1186 70.1521 63.1186 70.403 63.5105C70.6388 63.8798 70.8746 64.2491 71.1175 64.6296C71.3882 65.0537 71.659 65.4777 71.938 65.9146C72.5819 66.9294 73.2133 67.9509 73.8385 68.9773C74.722 70.4265 75.6269 71.8607 76.5429 73.2896C76.9192 73.8848 77.2883 74.4847 77.6503 75.0888C79.7783 78.8322 79.7783 78.8322 83.3236 80.9373C84.7981 81.0446 86.1578 81.0418 87.625 80.8751C87.625 82.4065 87.625 83.9379 87.625 85.5157C84.5136 86.0687 81.4057 86.5115 78.3438 85.5157C75.3289 83.2673 73.5992 79.6263 71.7783 76.4191C71.2522 75.5479 70.7229 74.6786 70.1905 73.8112C69.0193 71.8947 67.8793 69.9632 66.765 68.0131C65.9104 66.6316 64.9442 65.322 64 64.0001C61.4941 63.8609 58.9881 63.7217 56.4062 63.5782C56.4062 69.2862 56.4062 74.9942 56.4062 80.8751C58.9122 80.8751 61.4181 80.8751 64 80.8751C64 82.4065 64 83.9379 64 85.5157C57.5959 85.5157 51.1919 85.5157 44.5938 85.5157C44.5938 83.9843 44.5938 82.4529 44.5938 80.8751C46.8213 80.8751 49.0487 80.8751 51.3438 80.8751C51.3438 68.2062 51.3438 55.5373 51.3438 42.4845C49.8123 42.3453 48.2809 42.2061 46.7031 42.0626C46.007 41.9234 45.3109 41.7842 44.5938 41.6407C44.5938 40.2486 44.5938 38.8564 44.5938 37.422Z" fill="#FDFDFE"/>
<path d="M62.7607 41.9044C63.2227 41.8886 63.6847 41.8728 64.1607 41.8566C67.3578 41.8223 69.7821 42.3244 72.4375 44.172C74.3609 46.4706 74.7238 48.586 74.6935 51.5119C74.3892 53.7894 73.1309 55.3537 71.4702 56.8645C67.0512 59.989 61.5698 59.3595 56.4062 59.3595C56.4062 53.7907 56.4062 48.222 56.4062 42.4845C58.474 41.7952 60.5951 41.9318 62.7607 41.9044Z" fill="#76AADB"/>
</svg>
