<svg width="128" height="128" viewBox="0 0 128 128" fill="none" xmlns="http://www.w3.org/2000/svg">
<g clip-path="url(#clip0_463_216)">
<path d="M102.675 103.325L107.89 38.8999L87.755 78.2499L38.755 107.75C58.97 106.331 81.555 104.782 102.68 103.335L102.675 103.325Z" fill="#A00403"/>
<path d="M106.598 48.7443L80.75 28.5L74 51.75C101.449 54.0793 96.9408 49.3385 106.598 48.7443ZM48.75 74.5L82.75 85.25L74 51.75L48.75 74.5ZM26.5 79.25C37.5 114 40.25 121.5 48.75 74.5L26.25 79.75L26.5 79.25ZM69.75 21L94 21.25L80.75 28.5C78 26.75 71.75 22.5 69.75 21ZM22 65.5L21 90.25L26.75 79.5L22 65.5ZM75.25 25.25C81.75 31.75 75 47.5 62 60.25C49 73 32.5 81 26 74.5C19.75 68.0275 26.175 52 39.2125 39.25C52.25 26.5 69.0125 18.75 75.2625 25.25H75.25Z" fill="#B11205"/>
<path d="M48.75 74.5L82 85.25C70 96.5 47.625 106.875 38.75 107.75L48.75 74.5Z" fill="#9F0D02"/>
<path d="M74 51.75L82.25 85C92.25 74.5 101.25 63 105.75 49L74 51.75ZM102.675 103.325L97.505 65.25L82.25 85L102.675 103.325Z" fill="#891102"/>
<path d="M106 49.25C109.25 39 110 24 94 21.25L80.75 28.5L106 49.25Z" fill="#AA1401"/>
<path d="M21 90.25C21.5 107.25 33.5 107.5 38.75 107.75L26.5 79.5L21 90.25Z" fill="#9E1209"/>
<path d="M48.75 74.5L62.25 100.25C70.25 96 76.5 90.75 82 85L48.75 74.5Z" fill="#900E04"/>
<path d="M26.5 79.5L24.5 102.25C28 107.25 33 107.5 38.25 107.25C34.5 98 27 79.25 26.5 79.5Z" fill="#8B1104"/>
</g>
<defs>
<clipPath id="clip0_463_216">
<rect width="128" height="128" fill="white"/>
</clipPath>
</defs>
</svg>
