<svg xmlns="http://www.w3.org/2000/svg" fill="none" viewBox="0 0 128 128"><mask id="a" width="108" height="108" x="10" y="10" maskUnits="userSpaceOnUse" style="mask-type:luminance"><path fill="#fff" d="M10.531 10.531H117.47V117.47H10.531V10.531Z"/></mask><g mask="url(#a)"><path fill="url(#b)" d="m84.32 10.531 30.676 21.945-31.512 41.15-30.033-34.738L84.32 10.531Z"/><path fill="url(#c)" d="m84.32 10.531 30.676 21.945-39.703 18.376-21.842-11.964L84.32 10.531Z"/><path fill="url(#d)" d="m84.32 10.531-9.027 40.321-21.842-11.964L84.32 10.531Z"/><path fill="url(#e)" d="M117.469 76.253 75.512 50.54l-53.08 37.438 12.545 24.133 82.492-35.857Z"/><path fill="url(#f)" d="M117.469 76.253 93.093 61.42l-29.165 7.55-28.603 48.498 82.144-41.216Z"/><path fill="url(#g)" d="m92.766 61.506 24.703 14.747-36.171.483 11.468-15.23Z"/><path fill="url(#h)" d="m69.15 67.387-22.378 44.507 34.526-35.158-12.148-9.349Z"/><path fill="url(#i)" d="m33.635 11.293 56.537 13.98-54.847 92.196-24.794-39.951 23.104-66.225Z"/><path fill="url(#j)" d="M90.172 25.273 66.286 41.146 35.3 116.654l1.096-.984 10.377-3.776 43.4-86.62Z"/><path fill="url(#k)" d="m33.635 11.293 39.278 9.725-14.703 13.39-24.575-23.116Z"/><path fill="url(#l)" d="m90.172 25.273-17.284-4.274.025.019-14.703 13.39 7.218 7.17 24.744-16.305Z"/><path fill="url(#m)" d="M35.299 116.653 10.531 77.518l47.68-43.11 7.218 7.17-30.13 75.075Z"/><path fill="url(#n)" d="M35.299 116.653 10.531 77.518l47.68-43.11 7.218 7.17-30.13 75.075Z"/><path fill="url(#o)" d="M35.299 116.653 10.531 77.518l47.68-43.11 7.218 7.17-30.13 75.075Z"/><path fill="url(#p)" d="M33.635 11.293 10.53 77.517l47.68-43.108-24.576-23.116Z"/><path fill="url(#q)" d="m69.206 67.314 23.765-6.076-15.875-9.796-7.89 15.872Z"/></g><path fill="url(#r)" d="M97.188 30.813H30.811v66.374h66.376V30.814Z"/><mask id="s" width="68" height="68" x="30" y="30" maskUnits="userSpaceOnUse" style="mask-type:luminance"><path fill="#fff" d="M30.813 30.813h66.374v66.374H30.814V30.814Z"/></mask><g mask="url(#s)" opacity=".3"><path fill="url(#t)" d="M97.188 30.813H63.044L36.145 66.684l47.205 7.373 13.838-18.07V30.812Z" opacity=".5"/><path fill="url(#u)" d="m76.199 97.188 20.989-10.532V64.55l-4.296-2.614-28.964 7.498L47.56 97.188H76.2Z"/><path fill="url(#v)" d="M87.15 30.813H30.813v66.374h16.852l39.487-66.374Z"/></g><path fill="#fff" d="M63.954 84.696H39.017v4.148h24.937v-4.148ZM39.11 38.833h11.726c3.215 0 5.769.946 7.471 2.553 1.418 1.419 2.175 3.405 2.175 5.864v.094c0 4.161-2.27 6.715-5.485 7.944l6.242 9.173h-6.62l-5.485-8.227h-4.445v8.227h-5.58V38.833Zm11.348 12.483c2.742 0 4.35-1.419 4.35-3.594v-.094c0-2.459-1.702-3.688-4.445-3.688h-5.58v7.376h5.675ZM64.922 38.833h11.727c3.215 0 5.768.946 7.47 2.553 1.419 1.419 2.176 3.405 2.176 5.864v.094c0 4.161-2.27 6.715-5.486 7.944l6.242 9.173h-6.62l-5.485-8.227h-4.445v8.227h-5.58V38.833ZM76.27 51.316c2.743 0 4.35-1.419 4.35-3.594v-.094c0-2.459-1.702-3.688-4.444-3.688h-5.58v7.376h5.674Z"/><defs><linearGradient id="b" x1="74.321" x2="90.929" y1="60.889" y2="18.614" gradientUnits="userSpaceOnUse"><stop offset=".049" stop-color="#219E89"/><stop offset=".279" stop-color="#21BD89"/><stop offset=".753" stop-color="#6EDD88"/><stop offset="1" stop-color="#71DE88"/></linearGradient><linearGradient id="c" x1="88.326" x2="77.22" y1="15.433" y2="70.245" gradientUnits="userSpaceOnUse"><stop stop-color="#5EF789"/><stop offset=".163" stop-color="#21D789"/><stop offset=".505" stop-color="#0EA67B"/><stop offset=".982" stop-color="#21D789"/></linearGradient><linearGradient id="d" x1="56.455" x2="93.674" y1="55.717" y2="4.729" gradientUnits="userSpaceOnUse"><stop offset=".39" stop-color="#5EF789"/><stop offset=".636" stop-color="#21D789"/><stop offset=".928" stop-color="#0EA67B"/></linearGradient><linearGradient id="e" x1="101.929" x2="46.384" y1="36.156" y2="115.985" gradientUnits="userSpaceOnUse"><stop offset=".244" stop-color="#21D789"/><stop offset=".891" stop-color="#FDB60D"/></linearGradient><linearGradient id="f" x1="119.753" x2="61.16" y1="30.855" y2="115.064" gradientUnits="userSpaceOnUse"><stop stop-color="#21D789"/><stop offset="1" stop-color="#FDB60D"/></linearGradient><linearGradient id="g" x1="99.143" x2="99.79" y1="82.668" y2="66.063" gradientUnits="userSpaceOnUse"><stop offset=".065" stop-color="#037F5C"/><stop offset=".898" stop-color="#038E5C" stop-opacity="0"/></linearGradient><linearGradient id="h" x1="87.505" x2="29.063" y1="66.868" y2="111.915" gradientUnits="userSpaceOnUse"><stop stop-color="#21BD89"/><stop offset=".733" stop-color="#FDB60D"/></linearGradient><linearGradient id="i" x1="61.253" x2="34.393" y1="16.895" y2="101.902" gradientUnits="userSpaceOnUse"><stop stop-color="#FE2857"/><stop offset="1" stop-color="#FDB60D"/></linearGradient><linearGradient id="j" x1="89.474" x2="38.208" y1="11.876" y2="112.469" gradientUnits="userSpaceOnUse"><stop offset=".121" stop-color="#FD7430"/><stop offset=".254" stop-color="#FDB60D"/><stop offset=".535" stop-color="#FE2857"/><stop offset=".914" stop-color="#FDB60D"/></linearGradient><linearGradient id="k" x1="31.5" x2="64.5" y1="29.593" y2="14.165" gradientUnits="userSpaceOnUse"><stop offset=".216" stop-color="#BE0059"/><stop offset=".884" stop-color="#FE2857" stop-opacity="0"/></linearGradient><linearGradient id="l" x1="78.4" x2="70.357" y1="39.684" y2="20.874" gradientUnits="userSpaceOnUse"><stop offset=".46" stop-color="#FE2857"/><stop offset=".853" stop-color="#FDB60D"/><stop offset="1" stop-color="#FDFFA1"/></linearGradient><linearGradient id="m" x1="80.57" x2="18.969" y1="21.343" y2="102.269" gradientUnits="userSpaceOnUse"><stop offset=".272" stop-color="#FE2857"/><stop offset="1" stop-color="#FDB60D"/></linearGradient><linearGradient id="n" x1="74.902" x2="37.731" y1="106.65" y2="64.94" gradientUnits="userSpaceOnUse"><stop offset=".39" stop-color="#FDD468"/><stop offset=".975" stop-color="#FDB60D" stop-opacity="0"/></linearGradient><linearGradient id="o" x1="48.719" x2="12.157" y1="76.302" y2="61.966" gradientUnits="userSpaceOnUse"><stop offset=".35" stop-color="#FDB60D" stop-opacity="0"/><stop offset=".985" stop-color="#FDFFA1"/></linearGradient><linearGradient id="p" x1="46.991" x2="28.96" y1="16.023" y2="73.088" gradientUnits="userSpaceOnUse"><stop offset=".03" stop-color="#FF7F39"/><stop offset=".129" stop-color="#FE2857"/><stop offset="1" stop-color="#FDB60D"/></linearGradient><linearGradient id="q" x1="58.761" x2="84.198" y1="77.624" y2="57.017" gradientUnits="userSpaceOnUse"><stop offset=".065" stop-color="#037F5C"/><stop offset=".898" stop-color="#038E5C" stop-opacity="0"/></linearGradient><linearGradient id="r" x1="29.726" x2="92.31" y1="29.726" y2="92.31" gradientUnits="userSpaceOnUse"><stop offset=".028" stop-color="#5A1F3A"/><stop offset=".08" stop-color="#4E1B32"/><stop offset=".277" stop-color="#260D18"/><stop offset=".38" stop-color="#16080E"/><stop offset=".391" stop-color="#15080E"/><stop offset=".683" stop-color="#060204"/><stop offset=".914"/></linearGradient><linearGradient id="t" x1="64.171" x2="79.788" y1="71.515" y2="27.858" gradientUnits="userSpaceOnUse"><stop offset=".049" stop-color="#219E89" stop-opacity="0"/><stop offset=".822" stop-color="#6EDD88"/><stop offset="1" stop-color="#71DE88"/></linearGradient><linearGradient id="u" x1="75.528" x2="135.336" y1="102.573" y2="25.551" gradientUnits="userSpaceOnUse"><stop stop-color="#21D789" stop-opacity="0"/><stop offset="1" stop-color="#FDB60D"/></linearGradient><linearGradient id="v" x1="32.581" x2="63.821" y1="15.79" y2="72.821" gradientUnits="userSpaceOnUse"><stop stop-color="#FE2857"/><stop offset="1" stop-color="#FDB60D" stop-opacity="0"/></linearGradient></defs></svg>
