<svg width="128" height="128" viewBox="0 0 128 128" fill="none" xmlns="http://www.w3.org/2000/svg">
<path d="M117.262 62.676L112.728 59.8693C112.69 59.4287 112.647 58.9885 112.599 58.5488L116.496 54.9144C116.69 54.7334 116.836 54.5054 116.917 54.2523C116.999 53.9992 117.014 53.7294 116.962 53.4686C116.911 53.2077 116.793 52.9643 116.621 52.7616C116.449 52.5589 116.228 52.4038 115.979 52.311L110.998 50.4484C110.873 50.0183 110.743 49.5896 110.607 49.1625L113.715 44.8472C113.87 44.6315 113.968 44.3795 113.999 44.1153C114.03 43.8511 113.993 43.5834 113.891 43.3376C113.789 43.0918 113.626 42.8762 113.418 42.7111C113.209 42.546 112.962 42.437 112.699 42.3944L107.447 41.5401C107.243 41.1419 107.03 40.7495 106.816 40.3605L109.023 35.5162C109.134 35.2744 109.181 35.0082 109.16 34.743C109.138 34.4778 109.049 34.2226 108.901 34.0016C108.754 33.78 108.552 33.5999 108.316 33.4786C108.079 33.3573 107.815 33.2988 107.549 33.3089L102.218 33.4945C101.943 33.1497 101.662 32.8092 101.376 32.4732L102.602 27.2807C102.663 27.0218 102.657 26.7514 102.584 26.4955C102.511 26.2395 102.374 26.0064 102.186 25.8185C101.998 25.6304 101.765 25.4934 101.509 25.4206C101.253 25.3478 100.983 25.3416 100.724 25.4025L95.533 26.6264C95.1961 26.3407 94.8549 26.06 94.5096 25.7843L94.696 20.454C94.706 20.1882 94.6477 19.9244 94.5265 19.6876C94.4054 19.4509 94.2255 19.2492 94.0042 19.1018C93.7832 18.9539 93.5279 18.8649 93.2628 18.8435C92.9977 18.8221 92.7315 18.8689 92.4896 18.9795L87.6465 21.1876C87.2559 20.972 86.8626 20.761 86.467 20.5548L85.6105 15.3016C85.5677 15.0393 85.4585 14.7923 85.2935 14.5839C85.1284 14.3756 84.9129 14.2129 84.6673 14.1112C84.4217 14.0095 84.1543 13.9722 83.8902 14.0028C83.6262 14.0334 83.3744 14.1309 83.1586 14.2861L78.8403 17.3932C78.4155 17.2582 77.9881 17.1279 77.557 17.0043L75.6944 12.0224C75.6017 11.7728 75.4466 11.5511 75.2439 11.3786C75.0411 11.2061 74.7975 11.0884 74.5363 11.0369C74.2757 10.9856 74.0064 11.0015 73.7537 11.0831C73.5009 11.1648 73.2732 11.3094 73.0918 11.5035L69.4574 15.4028C69.0179 15.3536 68.5776 15.3105 68.1369 15.2737L65.3302 10.7386C65.1903 10.5126 64.995 10.3261 64.7629 10.1968C64.5307 10.0674 64.2693 9.99951 64.0036 9.99951C63.7378 9.99951 63.4765 10.0674 63.2443 10.1968C63.0121 10.3261 62.8169 10.5126 62.677 10.7386L59.8703 15.2737C59.4291 15.3105 58.9885 15.3535 58.5485 15.4028L54.9132 11.5035C54.7321 11.3087 54.5041 11.1636 54.2509 11.0818C53.9978 11.0001 53.728 10.9845 53.4671 11.0365C53.2063 11.0885 52.9631 11.2064 52.7606 11.379C52.5582 11.5515 52.4033 11.773 52.3107 12.0224L50.4485 17.0043C50.017 17.1279 49.59 17.2591 49.1639 17.3932L44.8465 14.2861C44.6308 14.1302 44.3787 14.0323 44.1144 14.0016C43.85 13.971 43.5822 14.0086 43.3366 14.1111C43.0912 14.213 42.8758 14.3758 42.7108 14.5841C42.5458 14.7924 42.4367 15.0394 42.3937 15.3016L41.5373 20.5548C41.1407 20.7602 40.7488 20.9716 40.3577 21.1876L35.5142 18.9791C35.2724 18.8684 35.0063 18.8216 34.7413 18.8431C34.4763 18.8646 34.2212 18.9537 34.0005 19.1018C33.7789 19.2491 33.5989 19.4507 33.4776 19.6875C33.3564 19.9242 33.2979 20.1881 33.3078 20.454L33.4934 25.7843C33.1485 26.0605 32.8073 26.3412 32.4699 26.6264L27.2787 25.403C27.0198 25.3423 26.7496 25.3486 26.4938 25.4213C26.2379 25.494 26.0049 25.6307 25.8165 25.8185C25.6281 26.0064 25.491 26.2395 25.4181 26.4955C25.3453 26.7514 25.3393 27.0218 25.4005 27.2807L26.6236 32.4732C26.3396 32.8094 26.0591 33.1499 25.7836 33.4945L20.4528 33.3089C20.1873 33.3005 19.9241 33.3596 19.6877 33.4807C19.4513 33.6018 19.2494 33.7809 19.1011 34.0012C18.9532 34.2222 18.8642 34.4774 18.8428 34.7425C18.8213 35.0076 18.8679 35.2738 18.9783 35.5157L21.1864 40.3605C20.9717 40.7495 20.7595 41.1419 20.5536 41.5401L15.3017 42.3944C15.0393 42.4372 14.7921 42.5463 14.5836 42.7115C14.3752 42.8766 14.2124 43.0922 14.1107 43.3379C14.009 43.5836 13.9717 43.8512 14.0024 44.1154C14.0332 44.3795 14.1309 44.6314 14.2863 44.8472L17.3934 49.163C17.2584 49.5891 17.1272 50.0168 17.0031 50.4484L12.0216 52.311C11.7728 52.4045 11.552 52.5599 11.3801 52.7625C11.2081 52.9651 11.0907 53.2083 11.039 53.4689C10.9872 53.7296 11.0029 53.9991 11.0844 54.2521C11.1659 54.505 11.3106 54.733 11.5048 54.9144L15.4017 58.5484C15.3532 58.9872 15.3101 59.4289 15.273 59.8693L10.7383 62.676C10.5123 62.8159 10.3259 63.0113 10.1967 63.2435C10.0675 63.4757 9.99976 63.7371 10 64.0028C10 64.5445 10.2797 65.0461 10.7387 65.3288L15.273 68.1355C15.3101 68.5772 15.3532 69.0181 15.4017 69.4564L11.5044 73.0917C11.3098 73.2729 11.1648 73.5008 11.0831 73.7538C11.0014 74.0068 10.9857 74.2764 11.0375 74.5372C11.0893 74.7979 11.207 75.0411 11.3792 75.2436C11.5514 75.4461 11.7726 75.6013 12.0216 75.6943L17.0031 77.5568C17.1272 77.988 17.2584 78.4162 17.3934 78.8423L14.2863 83.1585C14.1306 83.3742 14.0327 83.6262 14.0019 83.8905C13.9711 84.1547 14.0084 84.4225 14.1103 84.6682C14.2122 84.914 14.3753 85.1296 14.5841 85.2945C14.7928 85.4594 15.0403 85.5682 15.303 85.6104L20.554 86.4647C20.7595 86.863 20.97 87.2553 21.1869 87.646L18.9783 92.4891C18.8677 92.731 18.821 92.9972 18.8424 93.2624C18.8639 93.5275 18.953 93.7827 19.1011 94.0036C19.2484 94.225 19.45 94.4049 19.6866 94.5261C19.9233 94.6473 20.1871 94.7058 20.4528 94.6959L25.7811 94.5095C26.0591 94.8558 26.3388 95.1954 26.6236 95.5329L25.4005 100.726C25.3393 100.985 25.3454 101.255 25.4182 101.51C25.491 101.766 25.6282 101.998 25.8165 102.185C26.0043 102.374 26.2374 102.511 26.4935 102.584C26.7495 102.656 27.0199 102.662 27.2787 102.6L32.4699 101.378C32.8074 101.664 33.1491 101.943 33.4938 102.217L33.3082 107.549C33.2986 107.815 33.3571 108.079 33.4782 108.315C33.5994 108.552 33.779 108.754 34.0001 108.901C34.2212 109.049 34.4764 109.138 34.7414 109.159C35.0064 109.18 35.2724 109.133 35.5142 109.022L40.3577 106.816C40.7477 107.032 41.1409 107.243 41.5373 107.448L42.3937 112.698C42.436 112.961 42.5448 113.208 42.7099 113.417C42.875 113.626 43.0907 113.788 43.3366 113.89C43.5823 113.992 43.8499 114.029 44.1141 113.999C44.3783 113.968 44.6304 113.871 44.8465 113.716L49.1618 110.607C49.5879 110.742 50.0161 110.874 50.4473 110.998L52.3098 115.977C52.4026 116.227 52.5577 116.448 52.7604 116.62C52.9631 116.792 53.2065 116.91 53.4675 116.961C53.7281 117.013 53.9979 116.998 54.2509 116.916C54.5039 116.835 54.7317 116.689 54.9124 116.494L58.5477 112.597C58.9864 112.648 59.4277 112.69 59.8694 112.729L62.6762 117.263C62.8162 117.489 63.0114 117.675 63.2434 117.804C63.4754 117.934 63.7366 118.001 64.0021 118.002C64.2678 118.001 64.5291 117.934 64.7612 117.804C64.9934 117.675 65.1888 117.489 65.3289 117.263L68.1356 112.729C68.5773 112.69 69.0182 112.648 69.4565 112.597L73.091 116.494C73.2717 116.689 73.4994 116.834 73.7523 116.916C74.0052 116.998 74.2749 117.013 74.5355 116.961C74.7964 116.909 75.0397 116.792 75.2424 116.62C75.445 116.448 75.6002 116.227 75.6931 115.977L77.5557 110.998C77.9868 110.874 78.4155 110.742 78.8416 110.607L83.1578 113.716C83.3737 113.871 83.6257 113.968 83.8899 113.999C84.154 114.029 84.4216 113.992 84.6672 113.89C84.9128 113.788 85.1283 113.625 85.2933 113.417C85.4582 113.208 85.5671 112.961 85.6097 112.698L86.4661 107.448C86.8623 107.243 87.2542 107.029 87.6453 106.815L92.4888 109.022C92.7305 109.133 92.9967 109.181 93.2618 109.16C93.527 109.139 93.7824 109.05 94.0036 108.902C94.2248 108.755 94.4045 108.553 94.5256 108.316C94.6467 108.079 94.7051 107.815 94.6952 107.549L94.5096 102.218C94.8547 101.943 95.1955 101.663 95.5318 101.378L100.723 102.6C101.251 102.724 101.803 102.571 102.184 102.185C102.373 101.998 102.51 101.766 102.583 101.51C102.655 101.255 102.662 100.985 102.6 100.726L101.378 95.5329C101.662 95.1954 101.943 94.8558 102.217 94.5095L107.548 94.6959C107.814 94.706 108.078 94.6476 108.314 94.5265C108.551 94.4053 108.753 94.2255 108.9 94.0041C109.048 93.783 109.137 93.5276 109.159 93.2623C109.18 92.997 109.133 92.7306 109.022 92.4887L106.814 87.6464C107.03 87.2553 107.242 86.863 107.446 86.4652L112.698 85.6104C112.961 85.5683 113.208 85.4594 113.417 85.2942C113.625 85.1291 113.788 84.9131 113.889 84.6671C113.991 84.4216 114.028 84.1541 113.997 83.8901C113.967 83.626 113.869 83.3742 113.714 83.1585L110.607 78.8427C110.741 78.4162 110.872 77.988 110.997 77.5568L115.978 75.6943C116.227 75.6015 116.448 75.4464 116.62 75.2436C116.793 75.0408 116.91 74.7973 116.961 74.5362C117.013 74.2756 116.998 74.0059 116.916 73.753C116.835 73.5 116.689 73.2723 116.494 73.0917L112.598 69.4564C112.646 69.0177 112.689 68.5764 112.727 68.136L117.261 65.3288C117.487 65.1892 117.674 64.994 117.803 64.762C117.933 64.5299 118 64.2685 118 64.0028C118 63.4624 117.722 62.96 117.262 62.676ZM86.9158 100.289C85.1845 99.9154 84.0834 98.2089 84.455 96.472C84.8254 94.7373 86.5307 93.6332 88.2616 94.0066C89.993 94.3774 91.0958 96.0869 90.7245 97.8203C90.3533 99.5543 88.6464 100.66 86.9158 100.289ZM85.3751 89.8688C84.9994 89.7883 84.6116 89.7826 84.2336 89.852C83.8557 89.9215 83.4952 90.0648 83.1728 90.2737C82.8503 90.4827 82.5722 90.7531 82.3543 91.0696C82.1365 91.3861 81.9831 91.7425 81.9031 92.1183L80.2932 99.6306C75.3257 101.885 69.8096 103.138 64 103.138C58.0575 103.138 52.4212 101.823 47.3655 99.4724L45.7564 91.9605C45.4181 90.3797 43.8639 89.3727 42.2852 89.7119L35.6534 91.1362C34.4208 89.8676 33.2752 88.5173 32.2244 87.0946H64.4936C64.8585 87.0946 65.1019 87.0284 65.1019 86.6959V75.2812C65.1019 74.9492 64.8585 74.883 64.4932 74.883H55.0563V67.6478H65.2635C66.195 67.6478 70.2454 67.9136 71.5402 73.0909C71.946 74.683 72.8362 79.862 73.4454 81.5199C74.052 83.3796 76.5221 87.0942 79.1546 87.0942H95.2344C95.417 87.0942 95.6119 87.0735 95.8174 87.0364C94.7017 88.5516 93.4796 89.9853 92.1602 91.3268L85.3751 89.8688ZM40.745 100.132C39.0132 100.506 37.3084 99.4015 36.9359 97.6668C36.5655 95.9291 37.6666 94.2234 39.3979 93.8501C40.2303 93.6723 41.0991 93.8325 41.8134 94.2953C42.5277 94.7581 43.0288 95.4857 43.2066 96.318C43.577 98.052 42.4755 99.7605 40.745 100.132ZM28.5034 50.494C29.2219 52.1148 28.4908 54.0145 26.872 54.7317C25.2533 55.451 23.3587 54.7191 22.6406 53.097C22.2955 52.3186 22.2734 51.4351 22.5793 50.6405C22.8852 49.8459 23.494 49.2052 24.272 48.8592C24.6571 48.6884 25.0721 48.5952 25.4933 48.5849C25.9145 48.5746 26.3335 48.6474 26.7265 48.7992C27.1195 48.951 27.4787 49.1788 27.7836 49.4695C28.0885 49.7602 28.3331 50.1087 28.5034 50.494ZM24.7412 59.4124L31.6498 56.3424C32.359 56.0269 32.914 55.4428 33.1927 54.7184C33.4715 53.9939 33.4513 53.1884 33.1365 52.4789L31.7139 49.2617H37.3097V74.4847H26.0199C25.0191 70.9617 24.5128 67.3168 24.5155 63.6544C24.5155 62.2208 24.5927 60.8046 24.7412 59.4124ZM55.0579 56.9626V49.5279H68.3833C69.0718 49.5279 73.2433 50.3235 73.2433 53.4429C73.2433 56.0328 70.0438 56.9613 67.4125 56.9613H55.0579V56.9626ZM103.486 63.6544C103.486 64.6407 103.45 65.6169 103.377 66.5856H99.3261C98.9207 66.5856 98.7574 66.8522 98.7574 67.2492V69.1096C98.7574 73.4887 96.2882 74.4413 94.1244 74.6839C92.064 74.9159 89.7791 73.8211 89.4977 72.5602C88.2819 65.7233 86.2564 64.2631 83.0578 61.7399C87.0276 59.2192 91.1578 55.5004 91.1578 50.5222C91.1578 45.1476 87.4731 41.762 84.9613 40.1019C81.4378 37.7791 77.5363 37.3133 76.4837 37.3133H34.5865C40.2678 30.9726 47.9679 26.4809 56.6767 24.8465L61.6151 30.0271C61.8801 30.3052 62.1973 30.5283 62.5486 30.6836C62.8999 30.839 63.2783 30.9235 63.6623 30.9323C64.0463 30.9412 64.4283 30.8742 64.7864 30.7353C65.1445 30.5963 65.4716 30.3881 65.7491 30.1225L71.2748 24.8372C82.8532 26.993 92.6563 34.2003 98.3056 44.0887L94.5227 52.6329C93.8696 54.1116 94.5362 55.8408 96.0106 56.496L103.294 59.7309C103.42 61.024 103.486 62.3301 103.486 63.6544ZM61.6172 20.4392C62.8968 19.2136 64.9264 19.2622 66.1516 20.5434C67.3742 21.8284 67.3278 23.8602 66.0453 25.0849C64.7657 26.3108 62.7361 26.2632 61.5109 24.9794C60.9239 24.3628 60.6054 23.5385 60.6254 22.6873C60.6453 21.8362 61.002 21.0277 61.6172 20.4392ZM99.157 50.6497C99.3272 50.2644 99.5717 49.9164 99.8765 49.6257C100.181 49.335 100.541 49.1073 100.933 48.9556C101.326 48.8038 101.745 48.7311 102.167 48.7415C102.588 48.7519 103.003 48.8452 103.388 49.0162C105.007 49.7342 105.737 51.633 105.019 53.2539C104.849 53.6394 104.604 53.9875 104.299 54.2784C103.995 54.5692 103.635 54.7971 103.242 54.949C102.849 55.1008 102.43 55.1736 102.009 55.1633C101.588 55.1529 101.173 55.0596 100.787 54.8887C99.1705 54.1702 98.4398 52.273 99.157 50.6497Z" fill="white"/>
</svg>
