<svg width="128" height="128" viewBox="0 0 128 128" fill="none" xmlns="http://www.w3.org/2000/svg">
<path d="M19 19H109V109H19V19Z" fill="#323330"/>
<path d="M34.6084 97.731C34.4443 97.8953 34.4033 98.2237 34.6084 98.429C37.2336 101.016 40.9252 102.494 44.6579 102.494C50.8927 102.494 54.8304 98.7165 54.8304 94.0351C54.8304 89.8876 52.3283 87.6701 49.0879 86.2739L45.4372 84.7545C43.1402 83.81 41.4994 83.153 41.4994 81.4693C41.4994 79.8678 42.771 78.8412 45.1911 78.8412C47.3651 78.8412 49.0058 79.6214 50.6876 81.0176C50.9337 81.2229 51.2618 81.1408 51.4259 80.9355L53.846 77.8967C54.0101 77.7324 54.0101 77.4039 53.8049 77.1986C51.631 75.0221 48.4316 73.667 45.1911 73.667C39.7356 73.667 35.6748 77.1164 35.6748 81.7157C35.6748 85.9454 38.6692 88.1629 41.3764 89.3127L45.068 90.9142C47.5702 91.9819 48.9238 92.5568 48.9238 94.4047C48.9238 96.1294 47.6522 97.3614 44.7399 97.3614C42.4428 97.3614 39.9817 96.1705 38.1359 94.4458C37.8898 94.2404 37.5617 94.2815 37.3976 94.4868L34.6084 97.731ZM56.307 97.731C56.1429 97.8953 56.1018 98.2237 56.307 98.429C58.9321 101.016 62.6237 102.494 66.3564 102.494C72.5912 102.494 76.529 98.7165 76.529 94.0351C76.529 89.8876 74.0269 87.6701 70.7864 86.2739L67.1358 84.7545C64.8387 83.81 63.198 83.153 63.198 81.4693C63.198 79.8678 64.4695 78.8412 66.8897 78.8412C69.0636 78.8412 70.7044 79.6214 72.3861 81.0176C72.6322 81.2229 72.9604 81.1408 73.1244 80.9355L75.5446 77.8967C75.7086 77.7324 75.7086 77.4039 75.5035 77.1986C73.3296 75.0221 70.1302 73.667 66.8897 73.667C61.4342 73.667 57.3734 77.1164 57.3734 81.7157C57.3734 85.9454 60.3678 88.1629 63.075 89.3127L66.7666 90.9142C69.2688 91.9819 70.6224 92.5568 70.6224 94.4047C70.6224 96.1294 69.3508 97.3614 66.4385 97.3614C64.1414 97.3614 61.6803 96.1705 59.8345 94.4458C59.5884 94.2404 59.2603 94.2815 59.0962 94.4868L56.307 97.731ZM80.3436 101.509C80.3436 101.714 80.5487 102.002 80.8768 102.002H85.635C85.84 102.002 86.1272 101.837 86.1272 101.509V90.093H96.0126V101.509C96.0126 101.714 96.1766 102.002 96.5048 102.002H101.263C101.468 102.002 101.796 101.838 101.796 101.509V74.6526C101.796 74.4473 101.591 74.1599 101.263 74.1599H96.5048C96.2997 74.1599 96.0126 74.3241 96.0126 74.6526V84.9189H86.1272V74.6525C86.1272 74.4472 85.9631 74.1598 85.635 74.1598H80.8767C80.6716 74.1598 80.3435 74.3241 80.3435 74.6525L80.3436 101.509Z" fill="white"/>
</svg>
