<svg width="128" height="128" viewBox="0 0 128 128" fill="none" xmlns="http://www.w3.org/2000/svg">
<mask id="mask0_114_200" style="mask-type:alpha" maskUnits="userSpaceOnUse" x="15" y="15" width="98" height="98">
<path fill-rule="evenodd" clip-rule="evenodd" d="M84.4937 112.331C86.0372 112.932 87.7971 112.894 89.355 112.144L109.532 102.435C111.652 101.415 113 99.2694 113 96.9154V31.085C113 28.731 111.652 26.5853 109.532 25.5652L89.355 15.8562C87.3105 14.8724 84.9177 15.1134 83.1232 16.418C82.867 16.6043 82.6227 16.8124 82.3936 17.0417L43.768 52.2806L26.9435 39.5094C25.3772 38.3205 23.1866 38.4179 21.7319 39.7411L16.3358 44.6498C14.5565 46.2682 14.5545 49.0674 16.3314 50.6886L30.9222 64.0001L16.3314 77.3115C14.5545 78.9326 14.5565 81.7319 16.3358 83.3504L21.7319 88.259C23.1866 89.5822 25.3772 89.6796 26.9435 88.4907L43.768 75.7195L82.3936 110.958C83.0046 111.57 83.7221 112.03 84.4937 112.331ZM88.5149 41.7529L59.2069 64.0001L88.5149 86.2471V41.7529Z" fill="white"/>
</mask>
<g mask="url(#mask0_114_200)">
<path d="M109.532 25.5804L89.3398 15.8582C87.0025 14.7328 84.2093 15.2075 82.375 17.0418L16.2726 77.3117C14.4946 78.9327 14.4967 81.732 16.277 83.3504L21.6765 88.2591C23.132 89.5822 25.324 89.6797 26.8911 88.4908L106.494 28.1026C109.164 26.0767 113 27.9814 113 31.3335V31.0991C113 28.7461 111.652 26.6012 109.532 25.5804Z" fill="#0065A9"/>
<g filter="url(#filter0_d_114_200)">
<path d="M109.532 102.42L89.3398 112.142C87.0025 113.268 84.2093 112.793 82.375 110.958L16.2726 50.6886C14.4946 49.0675 14.4967 46.2682 16.277 44.6498L21.6765 39.7411C23.132 38.4179 25.324 38.3205 26.8911 39.5094L106.494 99.8976C109.164 101.924 113 100.019 113 96.6668V96.9012C113 99.2541 111.652 101.399 109.532 102.42Z" fill="#007ACC"/>
</g>
<path d="M89.3406 112.144C87.0027 113.269 84.2095 112.793 82.375 110.958C84.6353 113.219 88.5 111.618 88.5 108.421V19.5788C88.5 16.3823 84.6353 14.7814 82.375 17.0417C84.2095 15.2073 87.0027 14.7319 89.3406 15.8562L109.53 25.5652C111.651 26.5854 113 28.7311 113 31.085V96.9154C113 99.2694 111.651 101.415 109.529 102.435L89.3406 112.144Z" fill="#1F9CF0"/>
<g style="mix-blend-mode:overlay" opacity="0.25">
<path fill-rule="evenodd" clip-rule="evenodd" d="M84.4341 112.331C85.9776 112.932 87.7377 112.894 89.2955 112.144L109.472 102.435C111.592 101.415 112.94 99.2694 112.94 96.9154V31.0851C112.94 28.731 111.592 26.5853 109.472 25.5651L89.2955 15.8563C87.251 14.8724 84.8581 15.1134 83.0636 16.418C82.8074 16.6043 82.5632 16.8124 82.334 17.0417L43.7084 52.2806L26.8839 39.5094C25.3177 38.3205 23.127 38.418 21.6724 39.7411L16.2762 44.6497C14.4969 46.2683 14.4949 49.0675 16.2718 50.6886L30.8626 64L16.2718 77.3116C14.4949 78.9327 14.4969 81.7319 16.2762 83.3503L21.6724 88.2589C23.127 89.5821 25.3177 89.6796 26.8839 88.4907L43.7084 75.7195L82.334 110.958C82.9451 111.57 83.6625 112.03 84.4341 112.331ZM88.4553 41.753L59.1473 64L88.4553 86.2472V41.753Z" fill="url(#paint0_linear_114_200)"/>
</g>
</g>
<circle cx="90" cy="90" r="29" fill="#23A8F2"/>
<path d="M90 112C94.8766 112 99.6151 110.38 103.471 107.395C107.328 104.41 110.083 100.228 111.306 95.5073M90 112C85.1233 112 80.3849 110.38 76.5286 107.395C72.6723 104.41 69.9166 100.228 68.6942 95.5073M90 112C96.0744 112 101 102.149 101 90C101 77.8511 96.0744 68 90 68M90 112C83.9256 112 79 102.149 79 90C79 77.8511 83.9256 68 90 68M111.306 95.5073C111.758 93.7473 112 91.9018 112 90C112.006 86.2163 111.032 82.4955 109.172 79.2004M111.306 95.5073C104.787 99.1212 97.4536 101.012 90 101C82.2707 101 75.0082 99.0078 68.6942 95.5073M68.6942 95.5073C68.2316 93.7082 67.9984 91.8577 68 90C68 86.0767 69.0267 82.3904 70.8282 79.2004M90 68C93.9019 67.9984 97.734 69.0349 101.103 71.0032C104.472 72.9714 107.257 75.8006 109.172 79.2004M90 68C86.0981 67.9984 82.266 69.0349 78.8969 71.0032C75.5278 72.9714 72.743 75.8006 70.8282 79.2004M109.172 79.2004C103.849 83.8105 97.0413 86.3435 90 86.3333C82.6716 86.3333 75.9689 83.6444 70.8282 79.2004" stroke="white" stroke-width="2.5" stroke-linecap="round" stroke-linejoin="round"/>
<defs>
<filter id="filter0_d_114_200" x="6.60709" y="30.3459" width="114.726" height="90.7341" filterUnits="userSpaceOnUse" color-interpolation-filters="sRGB">
<feFlood flood-opacity="0" result="BackgroundImageFix"/>
<feColorMatrix in="SourceAlpha" type="matrix" values="0 0 0 0 0 0 0 0 0 0 0 0 0 0 0 0 0 0 127 0" result="hardAlpha"/>
<feOffset/>
<feGaussianBlur stdDeviation="4.16667"/>
<feColorMatrix type="matrix" values="0 0 0 0 0 0 0 0 0 0 0 0 0 0 0 0 0 0 0.25 0"/>
<feBlend mode="overlay" in2="BackgroundImageFix" result="effect1_dropShadow_114_200"/>
<feBlend mode="normal" in="SourceGraphic" in2="effect1_dropShadow_114_200" result="shape"/>
</filter>
<linearGradient id="paint0_linear_114_200" x1="63.9404" y1="15.2527" x2="63.9404" y2="112.747" gradientUnits="userSpaceOnUse">
<stop stop-color="white"/>
<stop offset="1" stop-color="white" stop-opacity="0"/>
</linearGradient>
</defs>
</svg>
