<svg width="166" height="263" viewBox="0 0 166 263" fill="none" xmlns="http://www.w3.org/2000/svg">
<g filter="url(#filter0_i_15473_4390)">
<path d="M42.0858 128.474L28.4271 90.0885C26.0444 83.3926 30.863 76.2871 37.7183 76.6086C114.255 80.1979 153.522 108.143 149.862 188.729C136.551 132.449 72.7094 128.474 42.0858 128.474Z" fill="#58E5BB"/>
</g>
<g filter="url(#filter1_i_15473_4390)">
<path d="M21.4532 57.8327L7.23553 20.6391C4.66234 13.9076 9.47768 6.59913 16.4397 6.68271C94.603 7.6211 149.178 12.9261 149.178 117.405C135.867 61.1251 52.0767 57.8327 21.4532 57.8327Z" fill="#58E5BB"/>
</g>
<g filter="url(#filter2_i_15473_4390)">
<path d="M63.2445 201.377L48.5918 160.302C46.2158 153.641 50.9684 146.551 57.7876 146.914C120.232 150.241 151.465 177.501 147.848 257.153C134.537 200.873 94.0886 201.377 63.2445 201.377Z" fill="#58E5BB"/>
</g>
<defs>
<filter id="filter0_i_15473_4390" x="27.8101" y="76.5977" width="122.286" height="116.131" filterUnits="userSpaceOnUse" color-interpolation-filters="sRGB">
<feFlood flood-opacity="0" result="BackgroundImageFix"/>
<feBlend mode="normal" in="SourceGraphic" in2="BackgroundImageFix" result="shape"/>
<feColorMatrix in="SourceAlpha" type="matrix" values="0 0 0 0 0 0 0 0 0 0 0 0 0 0 0 0 0 0 127 0" result="hardAlpha"/>
<feOffset dy="4"/>
<feGaussianBlur stdDeviation="2"/>
<feComposite in2="hardAlpha" operator="arithmetic" k2="-1" k3="1"/>
<feColorMatrix type="matrix" values="0 0 0 0 0 0 0 0 0 0 0 0 0 0 0 0 0 0 0.25 0"/>
<feBlend mode="normal" in2="shape" result="effect1_innerShadow_15473_4390"/>
</filter>
<filter id="filter1_i_15473_4390" x="6.53281" y="6.68164" width="142.645" height="114.724" filterUnits="userSpaceOnUse" color-interpolation-filters="sRGB">
<feFlood flood-opacity="0" result="BackgroundImageFix"/>
<feBlend mode="normal" in="SourceGraphic" in2="BackgroundImageFix" result="shape"/>
<feColorMatrix in="SourceAlpha" type="matrix" values="0 0 0 0 0 0 0 0 0 0 0 0 0 0 0 0 0 0 127 0" result="hardAlpha"/>
<feOffset dy="4"/>
<feGaussianBlur stdDeviation="2"/>
<feComposite in2="hardAlpha" operator="arithmetic" k2="-1" k3="1"/>
<feColorMatrix type="matrix" values="0 0 0 0 0 0 0 0 0 0 0 0 0 0 0 0 0 0 0.25 0"/>
<feBlend mode="normal" in2="shape" result="effect1_innerShadow_15473_4390"/>
</filter>
<filter id="filter2_i_15473_4390" x="47.9721" y="146.9" width="100.158" height="114.252" filterUnits="userSpaceOnUse" color-interpolation-filters="sRGB">
<feFlood flood-opacity="0" result="BackgroundImageFix"/>
<feBlend mode="normal" in="SourceGraphic" in2="BackgroundImageFix" result="shape"/>
<feColorMatrix in="SourceAlpha" type="matrix" values="0 0 0 0 0 0 0 0 0 0 0 0 0 0 0 0 0 0 127 0" result="hardAlpha"/>
<feOffset dy="4"/>
<feGaussianBlur stdDeviation="2"/>
<feComposite in2="hardAlpha" operator="arithmetic" k2="-1" k3="1"/>
<feColorMatrix type="matrix" values="0 0 0 0 0 0 0 0 0 0 0 0 0 0 0 0 0 0 0.25 0"/>
<feBlend mode="normal" in2="shape" result="effect1_innerShadow_15473_4390"/>
</filter>
</defs>
</svg>
