<svg width="826" height="514" viewBox="0 0 826 514" fill="none" xmlns="http://www.w3.org/2000/svg">
<path d="M0 4.99999C0 2.23857 2.23858 0 5 0H821C823.761 0 826 2.23858 826 5V285C826 287.761 823.761 290 821 290H5C2.23858 290 0 287.761 0 285V4.99999Z" fill="#EFF3F9"/>
<path d="M0 331C0 328.239 2.23858 326 5 326H821C823.761 326 826 328.239 826 331V509C826 511.761 823.761 514 821 514H5C2.23858 514 0 511.761 0 509V331Z" fill="#EFF3F9"/>
<path d="M629.322 434H625.121V423.066H613.256V434H609.072V408.793H613.256V419.393H625.121V408.793H629.322V434ZM643.068 434.422C640.291 434.422 638.07 433.584 636.406 431.908C634.754 430.221 633.928 427.988 633.928 425.211C633.928 422.188 634.789 419.826 636.512 418.127C638.246 416.428 640.578 415.578 643.508 415.578C646.32 415.578 648.512 416.404 650.082 418.057C651.652 419.709 652.438 422 652.438 424.93C652.438 427.801 651.588 430.104 649.889 431.838C648.201 433.561 645.928 434.422 643.068 434.422ZM643.262 418.83C641.668 418.83 640.408 419.387 639.482 420.5C638.557 421.613 638.094 423.148 638.094 425.105C638.094 426.992 638.562 428.48 639.5 429.57C640.438 430.648 641.691 431.188 643.262 431.188C644.867 431.188 646.098 430.654 646.953 429.588C647.82 428.521 648.254 427.004 648.254 425.035C648.254 423.055 647.82 421.525 646.953 420.447C646.098 419.369 644.867 418.83 643.262 418.83ZM655.479 433.438V429.658C657.002 430.818 658.684 431.398 660.523 431.398C662.984 431.398 664.215 430.672 664.215 429.219C664.215 428.809 664.109 428.463 663.898 428.182C663.688 427.889 663.4 427.631 663.037 427.408C662.686 427.186 662.264 426.986 661.771 426.811C661.291 426.635 660.752 426.436 660.154 426.213C659.416 425.92 658.748 425.609 658.15 425.281C657.564 424.953 657.072 424.584 656.674 424.174C656.287 423.752 655.994 423.277 655.795 422.75C655.596 422.223 655.496 421.607 655.496 420.904C655.496 420.037 655.701 419.275 656.111 418.619C656.521 417.951 657.072 417.395 657.764 416.949C658.455 416.492 659.24 416.152 660.119 415.93C660.998 415.695 661.906 415.578 662.844 415.578C664.508 415.578 665.996 415.83 667.309 416.334V419.902C666.043 419.035 664.59 418.602 662.949 418.602C662.434 418.602 661.965 418.654 661.543 418.76C661.133 418.865 660.781 419.012 660.488 419.199C660.195 419.387 659.967 419.615 659.803 419.885C659.639 420.143 659.557 420.43 659.557 420.746C659.557 421.133 659.639 421.461 659.803 421.73C659.967 422 660.207 422.24 660.523 422.451C660.852 422.65 661.238 422.838 661.684 423.014C662.141 423.178 662.662 423.359 663.248 423.559C664.021 423.875 664.713 424.197 665.322 424.525C665.943 424.854 666.471 425.229 666.904 425.65C667.338 426.061 667.672 426.541 667.906 427.092C668.141 427.631 668.258 428.275 668.258 429.025C668.258 429.939 668.047 430.736 667.625 431.416C667.203 432.096 666.641 432.658 665.938 433.104C665.234 433.549 664.42 433.877 663.494 434.088C662.58 434.311 661.613 434.422 660.594 434.422C658.625 434.422 656.92 434.094 655.479 433.438ZM681.635 433.807C680.838 434.205 679.789 434.404 678.488 434.404C674.996 434.404 673.25 432.729 673.25 429.377V419.199H670.244V416H673.25V411.834L677.328 410.674V416H681.635V419.199H677.328V428.199C677.328 429.266 677.521 430.027 677.908 430.484C678.295 430.941 678.939 431.17 679.842 431.17C680.533 431.17 681.131 430.971 681.635 430.572V433.807ZM713.1 432.945C711.201 433.93 708.84 434.422 706.016 434.422C702.359 434.422 699.43 433.268 697.227 430.959C695.023 428.65 693.922 425.621 693.922 421.871C693.922 417.84 695.158 414.582 697.631 412.098C700.115 409.613 703.25 408.371 707.035 408.371C709.473 408.371 711.494 408.717 713.1 409.408V413.557C711.4 412.549 709.525 412.045 707.475 412.045C704.744 412.045 702.529 412.918 700.83 414.664C699.143 416.41 698.299 418.742 698.299 421.66C698.299 424.438 699.09 426.652 700.672 428.305C702.254 429.945 704.334 430.766 706.912 430.766C709.291 430.766 711.354 430.203 713.1 429.078V432.945ZM721.52 434H717.424V407.352H721.52V434ZM742.543 434H738.465V431.152H738.395C737.211 433.332 735.371 434.422 732.875 434.422C728.621 434.422 726.494 431.867 726.494 426.758V416H730.572V426.336C730.572 429.57 731.82 431.188 734.316 431.188C735.523 431.188 736.514 430.742 737.287 429.852C738.072 428.961 738.465 427.795 738.465 426.354V416H742.543V434ZM746.744 433.438V429.658C748.268 430.818 749.949 431.398 751.789 431.398C754.25 431.398 755.48 430.672 755.48 429.219C755.48 428.809 755.375 428.463 755.164 428.182C754.953 427.889 754.666 427.631 754.303 427.408C753.951 427.186 753.529 426.986 753.037 426.811C752.557 426.635 752.018 426.436 751.42 426.213C750.682 425.92 750.014 425.609 749.416 425.281C748.83 424.953 748.338 424.584 747.939 424.174C747.553 423.752 747.26 423.277 747.061 422.75C746.861 422.223 746.762 421.607 746.762 420.904C746.762 420.037 746.967 419.275 747.377 418.619C747.787 417.951 748.338 417.395 749.029 416.949C749.721 416.492 750.506 416.152 751.385 415.93C752.264 415.695 753.172 415.578 754.109 415.578C755.773 415.578 757.262 415.83 758.574 416.334V419.902C757.309 419.035 755.855 418.602 754.215 418.602C753.699 418.602 753.23 418.654 752.809 418.76C752.398 418.865 752.047 419.012 751.754 419.199C751.461 419.387 751.232 419.615 751.068 419.885C750.904 420.143 750.822 420.43 750.822 420.746C750.822 421.133 750.904 421.461 751.068 421.73C751.232 422 751.473 422.24 751.789 422.451C752.117 422.65 752.504 422.838 752.949 423.014C753.406 423.178 753.928 423.359 754.514 423.559C755.287 423.875 755.979 424.197 756.588 424.525C757.209 424.854 757.736 425.229 758.17 425.65C758.604 426.061 758.938 426.541 759.172 427.092C759.406 427.631 759.523 428.275 759.523 429.025C759.523 429.939 759.312 430.736 758.891 431.416C758.469 432.096 757.906 432.658 757.203 433.104C756.5 433.549 755.686 433.877 754.76 434.088C753.846 434.311 752.879 434.422 751.859 434.422C749.891 434.422 748.186 434.094 746.744 433.438ZM772.9 433.807C772.104 434.205 771.055 434.404 769.754 434.404C766.262 434.404 764.516 432.729 764.516 429.377V419.199H761.51V416H764.516V411.834L768.594 410.674V416H772.9V419.199H768.594V428.199C768.594 429.266 768.787 430.027 769.174 430.484C769.561 430.941 770.205 431.17 771.107 431.17C771.799 431.17 772.396 430.971 772.9 430.572V433.807ZM791.445 426.107H779.176C779.223 427.771 779.732 429.055 780.705 429.957C781.689 430.859 783.037 431.311 784.748 431.311C786.67 431.311 788.434 430.736 790.039 429.588V432.875C788.398 433.906 786.23 434.422 783.535 434.422C780.887 434.422 778.807 433.607 777.295 431.979C775.795 430.338 775.045 428.035 775.045 425.07C775.045 422.27 775.871 419.99 777.523 418.232C779.188 416.463 781.25 415.578 783.711 415.578C786.172 415.578 788.076 416.369 789.424 417.951C790.771 419.533 791.445 421.73 791.445 424.543V426.107ZM787.508 423.225C787.496 421.76 787.15 420.623 786.471 419.814C785.791 418.994 784.854 418.584 783.658 418.584C782.486 418.584 781.49 419.012 780.67 419.867C779.861 420.723 779.363 421.842 779.176 423.225H787.508ZM805.771 419.885C805.279 419.498 804.57 419.305 803.645 419.305C802.438 419.305 801.43 419.85 800.621 420.939C799.812 422.029 799.408 423.512 799.408 425.387V434H795.33V416H799.408V419.709H799.479C799.877 418.443 800.486 417.459 801.307 416.756C802.139 416.041 803.064 415.684 804.084 415.684C804.822 415.684 805.385 415.795 805.771 416.018V419.885Z" fill="#FF7521"/>
<g filter="url(#filter0_d)">
<path d="M23 174C23 171.239 25.2386 169 28 169H524C526.761 169 529 171.239 529 174V263C529 265.761 526.761 268 524 268H28C25.2386 268 23 265.761 23 263V174Z" fill="url(#paint0_linear)"/>
<path d="M401.637 217H398.766L394.879 212.195H394.84V217H392.564V202.195H394.84V211.58H394.879L398.551 207H401.275L397.145 211.824L401.637 217ZM411.793 217H409.527V215.418H409.488C408.831 216.629 407.809 217.234 406.422 217.234C404.059 217.234 402.877 215.815 402.877 212.977V207H405.143V212.742C405.143 214.539 405.836 215.438 407.223 215.438C407.893 215.438 408.443 215.19 408.873 214.695C409.309 214.201 409.527 213.553 409.527 212.752V207H411.793V217ZM417.057 215.555H417.018V217H414.752V202.195H417.018V208.758H417.057C417.831 207.43 418.964 206.766 420.455 206.766C421.718 206.766 422.704 207.215 423.414 208.113C424.13 209.005 424.488 210.203 424.488 211.707C424.488 213.38 424.088 214.721 423.287 215.73C422.486 216.733 421.393 217.234 420.006 217.234C418.704 217.234 417.721 216.674 417.057 215.555ZM416.998 211.58V212.82C416.998 213.549 417.229 214.168 417.691 214.676C418.16 215.184 418.753 215.438 419.469 215.438C420.309 215.438 420.966 215.112 421.441 214.461C421.923 213.803 422.164 212.889 422.164 211.717C422.164 210.734 421.939 209.965 421.49 209.412C421.048 208.852 420.445 208.572 419.684 208.572C418.876 208.572 418.225 208.859 417.73 209.432C417.242 210.005 416.998 210.721 416.998 211.58ZM435.27 212.615H428.453C428.479 213.54 428.762 214.253 429.303 214.754C429.85 215.255 430.598 215.506 431.549 215.506C432.617 215.506 433.596 215.187 434.488 214.549V216.375C433.577 216.948 432.372 217.234 430.875 217.234C429.404 217.234 428.248 216.782 427.408 215.877C426.575 214.965 426.158 213.686 426.158 212.039C426.158 210.483 426.617 209.217 427.535 208.24C428.46 207.257 429.605 206.766 430.973 206.766C432.34 206.766 433.398 207.205 434.146 208.084C434.895 208.963 435.27 210.184 435.27 211.746V212.615ZM433.082 211.014C433.076 210.2 432.883 209.568 432.506 209.119C432.128 208.663 431.607 208.436 430.943 208.436C430.292 208.436 429.739 208.673 429.283 209.148C428.834 209.624 428.557 210.245 428.453 211.014H433.082ZM442.691 212.371H437.359V210.701H442.691V212.371ZM444.85 216.688V214.588C445.696 215.232 446.63 215.555 447.652 215.555C449.02 215.555 449.703 215.151 449.703 214.344C449.703 214.116 449.645 213.924 449.527 213.768C449.41 213.605 449.251 213.462 449.049 213.338C448.854 213.214 448.619 213.104 448.346 213.006C448.079 212.908 447.779 212.798 447.447 212.674C447.037 212.511 446.666 212.339 446.334 212.156C446.008 211.974 445.735 211.769 445.514 211.541C445.299 211.307 445.136 211.043 445.025 210.75C444.915 210.457 444.859 210.115 444.859 209.725C444.859 209.243 444.973 208.82 445.201 208.455C445.429 208.084 445.735 207.775 446.119 207.527C446.503 207.273 446.939 207.085 447.428 206.961C447.916 206.831 448.421 206.766 448.941 206.766C449.866 206.766 450.693 206.906 451.422 207.186V209.168C450.719 208.686 449.911 208.445 449 208.445C448.714 208.445 448.453 208.475 448.219 208.533C447.991 208.592 447.796 208.673 447.633 208.777C447.47 208.882 447.343 209.008 447.252 209.158C447.161 209.301 447.115 209.461 447.115 209.637C447.115 209.852 447.161 210.034 447.252 210.184C447.343 210.333 447.477 210.467 447.652 210.584C447.835 210.695 448.049 210.799 448.297 210.896C448.551 210.988 448.84 211.089 449.166 211.199C449.596 211.375 449.98 211.554 450.318 211.736C450.663 211.919 450.956 212.127 451.197 212.361C451.438 212.589 451.624 212.856 451.754 213.162C451.884 213.462 451.949 213.82 451.949 214.236C451.949 214.744 451.832 215.187 451.598 215.564C451.363 215.942 451.051 216.255 450.66 216.502C450.27 216.749 449.817 216.932 449.303 217.049C448.795 217.173 448.258 217.234 447.691 217.234C446.598 217.234 445.65 217.052 444.85 216.688ZM462.77 207L458.258 218.602C457.32 220.672 456.005 221.707 454.312 221.707C453.837 221.707 453.44 221.665 453.121 221.58V219.695C453.479 219.812 453.805 219.871 454.098 219.871C454.944 219.871 455.576 219.454 455.992 218.621L456.666 216.98L452.691 207H455.201L457.584 214.266C457.61 214.357 457.669 214.598 457.76 214.988H457.809C457.841 214.839 457.9 214.604 457.984 214.285L460.484 207H462.77ZM463.658 216.688V214.588C464.505 215.232 465.439 215.555 466.461 215.555C467.828 215.555 468.512 215.151 468.512 214.344C468.512 214.116 468.453 213.924 468.336 213.768C468.219 213.605 468.059 213.462 467.857 213.338C467.662 213.214 467.428 213.104 467.154 213.006C466.887 212.908 466.588 212.798 466.256 212.674C465.846 212.511 465.475 212.339 465.143 212.156C464.817 211.974 464.544 211.769 464.322 211.541C464.107 211.307 463.945 211.043 463.834 210.75C463.723 210.457 463.668 210.115 463.668 209.725C463.668 209.243 463.782 208.82 464.01 208.455C464.238 208.084 464.544 207.775 464.928 207.527C465.312 207.273 465.748 207.085 466.236 206.961C466.725 206.831 467.229 206.766 467.75 206.766C468.674 206.766 469.501 206.906 470.23 207.186V209.168C469.527 208.686 468.72 208.445 467.809 208.445C467.522 208.445 467.262 208.475 467.027 208.533C466.799 208.592 466.604 208.673 466.441 208.777C466.279 208.882 466.152 209.008 466.061 209.158C465.969 209.301 465.924 209.461 465.924 209.637C465.924 209.852 465.969 210.034 466.061 210.184C466.152 210.333 466.285 210.467 466.461 210.584C466.643 210.695 466.858 210.799 467.105 210.896C467.359 210.988 467.649 211.089 467.975 211.199C468.404 211.375 468.788 211.554 469.127 211.736C469.472 211.919 469.765 212.127 470.006 212.361C470.247 212.589 470.432 212.856 470.562 213.162C470.693 213.462 470.758 213.82 470.758 214.236C470.758 214.744 470.641 215.187 470.406 215.564C470.172 215.942 469.859 216.255 469.469 216.502C469.078 216.749 468.626 216.932 468.111 217.049C467.604 217.173 467.066 217.234 466.5 217.234C465.406 217.234 464.459 217.052 463.658 216.688ZM478.189 216.893C477.747 217.114 477.164 217.225 476.441 217.225C474.501 217.225 473.531 216.294 473.531 214.432V208.777H471.861V207H473.531V204.686L475.797 204.041V207H478.189V208.777H475.797V213.777C475.797 214.37 475.904 214.793 476.119 215.047C476.334 215.301 476.692 215.428 477.193 215.428C477.577 215.428 477.91 215.317 478.189 215.096V216.893ZM488.492 212.615H481.676C481.702 213.54 481.985 214.253 482.525 214.754C483.072 215.255 483.821 215.506 484.771 215.506C485.839 215.506 486.819 215.187 487.711 214.549V216.375C486.799 216.948 485.595 217.234 484.098 217.234C482.626 217.234 481.471 216.782 480.631 215.877C479.798 214.965 479.381 213.686 479.381 212.039C479.381 210.483 479.84 209.217 480.758 208.24C481.682 207.257 482.828 206.766 484.195 206.766C485.562 206.766 486.62 207.205 487.369 208.084C488.118 208.963 488.492 210.184 488.492 211.746V212.615ZM486.305 211.014C486.298 210.2 486.106 209.568 485.729 209.119C485.351 208.663 484.83 208.436 484.166 208.436C483.515 208.436 482.962 208.673 482.506 209.148C482.057 209.624 481.78 210.245 481.676 211.014H486.305ZM505.602 217H503.336V211.551C503.336 210.503 503.186 209.744 502.887 209.275C502.594 208.807 502.096 208.572 501.393 208.572C500.8 208.572 500.296 208.868 499.879 209.461C499.469 210.053 499.264 210.763 499.264 211.59V217H496.988V211.365C496.988 209.503 496.331 208.572 495.016 208.572C494.404 208.572 493.899 208.852 493.502 209.412C493.111 209.972 492.916 210.698 492.916 211.59V217H490.65V207H492.916V208.582H492.955C493.678 207.371 494.729 206.766 496.109 206.766C496.799 206.766 497.402 206.958 497.916 207.342C498.437 207.719 498.792 208.217 498.98 208.836C499.723 207.456 500.829 206.766 502.301 206.766C504.501 206.766 505.602 208.123 505.602 210.838V217ZM413.072 237H410.807V231.365C410.807 229.497 410.146 228.562 408.824 228.562C408.134 228.562 407.564 228.823 407.115 229.344C406.666 229.858 406.441 230.509 406.441 231.297V237H404.166V227H406.441V228.66H406.48C407.229 227.397 408.31 226.766 409.723 226.766C410.81 226.766 411.64 227.12 412.213 227.83C412.786 228.533 413.072 229.552 413.072 230.887V237ZM423.521 237H421.324V235.438H421.285C420.595 236.635 419.583 237.234 418.248 237.234C417.265 237.234 416.493 236.967 415.934 236.434C415.38 235.9 415.104 235.193 415.104 234.314C415.104 232.426 416.191 231.326 418.365 231.014L421.334 230.594C421.334 229.168 420.657 228.455 419.303 228.455C418.111 228.455 417.037 228.865 416.08 229.686V227.703C417.135 227.078 418.352 226.766 419.732 226.766C422.258 226.766 423.521 228.009 423.521 230.496V237ZM421.334 232.088L419.234 232.381C418.583 232.465 418.092 232.625 417.76 232.859C417.434 233.087 417.271 233.491 417.271 234.07C417.271 234.493 417.421 234.842 417.721 235.115C418.027 235.382 418.434 235.516 418.941 235.516C419.632 235.516 420.201 235.275 420.65 234.793C421.106 234.305 421.334 233.693 421.334 232.957V232.088ZM441.246 237H438.98V231.551C438.98 230.503 438.831 229.744 438.531 229.275C438.238 228.807 437.74 228.572 437.037 228.572C436.445 228.572 435.94 228.868 435.523 229.461C435.113 230.053 434.908 230.763 434.908 231.59V237H432.633V231.365C432.633 229.503 431.975 228.572 430.66 228.572C430.048 228.572 429.544 228.852 429.146 229.412C428.756 229.972 428.561 230.698 428.561 231.59V237H426.295V227H428.561V228.582H428.6C429.322 227.371 430.374 226.766 431.754 226.766C432.444 226.766 433.046 226.958 433.561 227.342C434.081 227.719 434.436 228.217 434.625 228.836C435.367 227.456 436.474 226.766 437.945 226.766C440.146 226.766 441.246 228.123 441.246 230.838V237ZM452.477 232.615H445.66C445.686 233.54 445.969 234.253 446.51 234.754C447.057 235.255 447.805 235.506 448.756 235.506C449.824 235.506 450.803 235.187 451.695 234.549V236.375C450.784 236.948 449.579 237.234 448.082 237.234C446.611 237.234 445.455 236.782 444.615 235.877C443.782 234.965 443.365 233.686 443.365 232.039C443.365 230.483 443.824 229.217 444.742 228.24C445.667 227.257 446.812 226.766 448.18 226.766C449.547 226.766 450.605 227.205 451.354 228.084C452.102 228.963 452.477 230.184 452.477 231.746V232.615ZM450.289 231.014C450.283 230.2 450.09 229.568 449.713 229.119C449.335 228.663 448.814 228.436 448.15 228.436C447.499 228.436 446.946 228.673 446.49 229.148C446.041 229.624 445.764 230.245 445.66 231.014H450.289ZM454.01 236.688V234.588C454.856 235.232 455.79 235.555 456.812 235.555C458.18 235.555 458.863 235.151 458.863 234.344C458.863 234.116 458.805 233.924 458.688 233.768C458.57 233.605 458.411 233.462 458.209 233.338C458.014 233.214 457.779 233.104 457.506 233.006C457.239 232.908 456.939 232.798 456.607 232.674C456.197 232.511 455.826 232.339 455.494 232.156C455.169 231.974 454.895 231.769 454.674 231.541C454.459 231.307 454.296 231.043 454.186 230.75C454.075 230.457 454.02 230.115 454.02 229.725C454.02 229.243 454.133 228.82 454.361 228.455C454.589 228.084 454.895 227.775 455.279 227.527C455.663 227.273 456.1 227.085 456.588 226.961C457.076 226.831 457.581 226.766 458.102 226.766C459.026 226.766 459.853 226.906 460.582 227.186V229.168C459.879 228.686 459.072 228.445 458.16 228.445C457.874 228.445 457.613 228.475 457.379 228.533C457.151 228.592 456.956 228.673 456.793 228.777C456.63 228.882 456.503 229.008 456.412 229.158C456.321 229.301 456.275 229.461 456.275 229.637C456.275 229.852 456.321 230.034 456.412 230.184C456.503 230.333 456.637 230.467 456.812 230.584C456.995 230.695 457.21 230.799 457.457 230.896C457.711 230.988 458.001 231.089 458.326 231.199C458.756 231.375 459.14 231.554 459.479 231.736C459.824 231.919 460.117 232.127 460.357 232.361C460.598 232.589 460.784 232.856 460.914 233.162C461.044 233.462 461.109 233.82 461.109 234.236C461.109 234.744 460.992 235.187 460.758 235.564C460.523 235.942 460.211 236.255 459.82 236.502C459.43 236.749 458.977 236.932 458.463 237.049C457.955 237.173 457.418 237.234 456.852 237.234C455.758 237.234 454.811 237.052 454.01 236.688ZM465.572 235.525H465.533V241.6H463.268V227H465.533V228.758H465.572C466.347 227.43 467.48 226.766 468.971 226.766C470.24 226.766 471.23 227.212 471.939 228.104C472.649 228.995 473.004 230.193 473.004 231.697C473.004 233.364 472.604 234.699 471.803 235.701C471.002 236.704 469.908 237.205 468.521 237.205C467.245 237.205 466.262 236.645 465.572 235.525ZM465.514 231.58V232.82C465.514 233.549 465.745 234.168 466.207 234.676C466.676 235.184 467.268 235.438 467.984 235.438C468.824 235.438 469.482 235.112 469.957 234.461C470.439 233.803 470.68 232.889 470.68 231.717C470.68 230.734 470.455 229.965 470.006 229.412C469.563 228.852 468.961 228.572 468.199 228.572C467.392 228.572 466.741 228.859 466.246 229.432C465.758 230.005 465.514 230.721 465.514 231.58ZM482.76 237H480.562V235.438H480.523C479.833 236.635 478.821 237.234 477.486 237.234C476.503 237.234 475.732 236.967 475.172 236.434C474.618 235.9 474.342 235.193 474.342 234.314C474.342 232.426 475.429 231.326 477.604 231.014L480.572 230.594C480.572 229.168 479.895 228.455 478.541 228.455C477.35 228.455 476.275 228.865 475.318 229.686V227.703C476.373 227.078 477.59 226.766 478.971 226.766C481.497 226.766 482.76 228.009 482.76 230.496V237ZM480.572 232.088L478.473 232.381C477.822 232.465 477.33 232.625 476.998 232.859C476.673 233.087 476.51 233.491 476.51 234.07C476.51 234.493 476.66 234.842 476.959 235.115C477.265 235.382 477.672 235.516 478.18 235.516C478.87 235.516 479.439 235.275 479.889 234.793C480.344 234.305 480.572 233.693 480.572 232.957V232.088ZM492.691 236.541C491.891 237.003 490.943 237.234 489.85 237.234C488.365 237.234 487.167 236.772 486.256 235.848C485.344 234.917 484.889 233.712 484.889 232.234C484.889 230.587 485.377 229.266 486.354 228.27C487.337 227.267 488.648 226.766 490.289 226.766C491.201 226.766 492.005 226.925 492.701 227.244V229.354C492.005 228.833 491.262 228.572 490.475 228.572C489.518 228.572 488.733 228.898 488.121 229.549C487.509 230.193 487.203 231.04 487.203 232.088C487.203 233.123 487.49 233.94 488.062 234.539C488.642 235.138 489.417 235.438 490.387 235.438C491.201 235.438 491.969 235.148 492.691 234.568V236.541ZM503.414 232.615H496.598C496.624 233.54 496.907 234.253 497.447 234.754C497.994 235.255 498.743 235.506 499.693 235.506C500.761 235.506 501.741 235.187 502.633 234.549V236.375C501.721 236.948 500.517 237.234 499.02 237.234C497.548 237.234 496.393 236.782 495.553 235.877C494.719 234.965 494.303 233.686 494.303 232.039C494.303 230.483 494.762 229.217 495.68 228.24C496.604 227.257 497.75 226.766 499.117 226.766C500.484 226.766 501.542 227.205 502.291 228.084C503.04 228.963 503.414 230.184 503.414 231.746V232.615ZM501.227 231.014C501.22 230.2 501.028 229.568 500.65 229.119C500.273 228.663 499.752 228.436 499.088 228.436C498.437 228.436 497.883 228.673 497.428 229.148C496.979 229.624 496.702 230.245 496.598 231.014H501.227Z" fill="#263544"/>
</g>
<g filter="url(#filter1_d)">
<path d="M23 358C23 355.239 25.2386 353 28 353H355C357.761 353 360 355.239 360 358V485C360 487.761 357.761 490 355 490H28C25.2386 490 23 487.761 23 485V358Z" fill="url(#paint1_linear)"/>
<path d="M127.916 468H125.65V462.531C125.65 460.552 124.99 459.562 123.668 459.562C123.004 459.562 122.444 459.849 121.988 460.422C121.533 460.995 121.305 461.727 121.305 462.619V468H119.029V453.195H121.305V459.66H121.344C122.099 458.397 123.18 457.766 124.586 457.766C126.806 457.766 127.916 459.123 127.916 461.838V468ZM135.104 468.234C133.561 468.234 132.327 467.769 131.402 466.838C130.484 465.9 130.025 464.66 130.025 463.117C130.025 461.438 130.504 460.126 131.461 459.182C132.424 458.238 133.72 457.766 135.348 457.766C136.91 457.766 138.128 458.225 139 459.143C139.872 460.061 140.309 461.333 140.309 462.961C140.309 464.556 139.837 465.835 138.893 466.799C137.955 467.756 136.692 468.234 135.104 468.234ZM135.211 459.572C134.326 459.572 133.626 459.882 133.111 460.5C132.597 461.118 132.34 461.971 132.34 463.059C132.34 464.107 132.6 464.934 133.121 465.539C133.642 466.138 134.339 466.438 135.211 466.438C136.103 466.438 136.786 466.141 137.262 465.549C137.743 464.956 137.984 464.113 137.984 463.02C137.984 461.919 137.743 461.07 137.262 460.471C136.786 459.872 136.103 459.572 135.211 459.572ZM141.998 467.688V465.588C142.844 466.232 143.779 466.555 144.801 466.555C146.168 466.555 146.852 466.151 146.852 465.344C146.852 465.116 146.793 464.924 146.676 464.768C146.559 464.605 146.399 464.462 146.197 464.338C146.002 464.214 145.768 464.104 145.494 464.006C145.227 463.908 144.928 463.798 144.596 463.674C144.186 463.511 143.814 463.339 143.482 463.156C143.157 462.974 142.883 462.769 142.662 462.541C142.447 462.307 142.285 462.043 142.174 461.75C142.063 461.457 142.008 461.115 142.008 460.725C142.008 460.243 142.122 459.82 142.35 459.455C142.577 459.084 142.883 458.775 143.268 458.527C143.652 458.273 144.088 458.085 144.576 457.961C145.064 457.831 145.569 457.766 146.09 457.766C147.014 457.766 147.841 457.906 148.57 458.186V460.168C147.867 459.686 147.06 459.445 146.148 459.445C145.862 459.445 145.602 459.475 145.367 459.533C145.139 459.592 144.944 459.673 144.781 459.777C144.618 459.882 144.492 460.008 144.4 460.158C144.309 460.301 144.264 460.461 144.264 460.637C144.264 460.852 144.309 461.034 144.4 461.184C144.492 461.333 144.625 461.467 144.801 461.584C144.983 461.695 145.198 461.799 145.445 461.896C145.699 461.988 145.989 462.089 146.314 462.199C146.744 462.375 147.128 462.554 147.467 462.736C147.812 462.919 148.105 463.127 148.346 463.361C148.587 463.589 148.772 463.856 148.902 464.162C149.033 464.462 149.098 464.82 149.098 465.236C149.098 465.744 148.98 466.187 148.746 466.564C148.512 466.942 148.199 467.255 147.809 467.502C147.418 467.749 146.965 467.932 146.451 468.049C145.943 468.173 145.406 468.234 144.84 468.234C143.746 468.234 142.799 468.052 141.998 467.688ZM156.529 467.893C156.087 468.114 155.504 468.225 154.781 468.225C152.841 468.225 151.871 467.294 151.871 465.432V459.777H150.201V458H151.871V455.686L154.137 455.041V458H156.529V459.777H154.137V464.777C154.137 465.37 154.244 465.793 154.459 466.047C154.674 466.301 155.032 466.428 155.533 466.428C155.917 466.428 156.249 466.317 156.529 466.096V467.893ZM162.73 463.371H157.398V461.701H162.73V463.371ZM174.42 468H172.154V462.365C172.154 460.497 171.493 459.562 170.172 459.562C169.482 459.562 168.912 459.823 168.463 460.344C168.014 460.858 167.789 461.509 167.789 462.297V468H165.514V458H167.789V459.66H167.828C168.577 458.397 169.658 457.766 171.07 457.766C172.158 457.766 172.988 458.12 173.561 458.83C174.133 459.533 174.42 460.552 174.42 461.887V468ZM184.869 468H182.672V466.438H182.633C181.943 467.635 180.93 468.234 179.596 468.234C178.613 468.234 177.841 467.967 177.281 467.434C176.728 466.9 176.451 466.193 176.451 465.314C176.451 463.426 177.538 462.326 179.713 462.014L182.682 461.594C182.682 460.168 182.005 459.455 180.65 459.455C179.459 459.455 178.385 459.865 177.428 460.686V458.703C178.482 458.078 179.7 457.766 181.08 457.766C183.606 457.766 184.869 459.009 184.869 461.496V468ZM182.682 463.088L180.582 463.381C179.931 463.465 179.439 463.625 179.107 463.859C178.782 464.087 178.619 464.491 178.619 465.07C178.619 465.493 178.769 465.842 179.068 466.115C179.374 466.382 179.781 466.516 180.289 466.516C180.979 466.516 181.549 466.275 181.998 465.793C182.454 465.305 182.682 464.693 182.682 463.957V463.088ZM202.594 468H200.328V462.551C200.328 461.503 200.178 460.744 199.879 460.275C199.586 459.807 199.088 459.572 198.385 459.572C197.792 459.572 197.288 459.868 196.871 460.461C196.461 461.053 196.256 461.763 196.256 462.59V468H193.98V462.365C193.98 460.503 193.323 459.572 192.008 459.572C191.396 459.572 190.891 459.852 190.494 460.412C190.104 460.972 189.908 461.698 189.908 462.59V468H187.643V458H189.908V459.582H189.947C190.67 458.371 191.721 457.766 193.102 457.766C193.792 457.766 194.394 457.958 194.908 458.342C195.429 458.719 195.784 459.217 195.973 459.836C196.715 458.456 197.822 457.766 199.293 457.766C201.493 457.766 202.594 459.123 202.594 461.838V468ZM213.824 463.615H207.008C207.034 464.54 207.317 465.253 207.857 465.754C208.404 466.255 209.153 466.506 210.104 466.506C211.171 466.506 212.151 466.187 213.043 465.549V467.375C212.132 467.948 210.927 468.234 209.43 468.234C207.958 468.234 206.803 467.782 205.963 466.877C205.13 465.965 204.713 464.686 204.713 463.039C204.713 461.483 205.172 460.217 206.09 459.24C207.014 458.257 208.16 457.766 209.527 457.766C210.895 457.766 211.952 458.205 212.701 459.084C213.45 459.963 213.824 461.184 213.824 462.746V463.615ZM211.637 462.014C211.63 461.2 211.438 460.568 211.061 460.119C210.683 459.663 210.162 459.436 209.498 459.436C208.847 459.436 208.294 459.673 207.838 460.148C207.389 460.624 207.112 461.245 207.008 462.014H211.637ZM215.357 467.688V465.588C216.204 466.232 217.138 466.555 218.16 466.555C219.527 466.555 220.211 466.151 220.211 465.344C220.211 465.116 220.152 464.924 220.035 464.768C219.918 464.605 219.758 464.462 219.557 464.338C219.361 464.214 219.127 464.104 218.854 464.006C218.587 463.908 218.287 463.798 217.955 463.674C217.545 463.511 217.174 463.339 216.842 463.156C216.516 462.974 216.243 462.769 216.021 462.541C215.807 462.307 215.644 462.043 215.533 461.75C215.423 461.457 215.367 461.115 215.367 460.725C215.367 460.243 215.481 459.82 215.709 459.455C215.937 459.084 216.243 458.775 216.627 458.527C217.011 458.273 217.447 458.085 217.936 457.961C218.424 457.831 218.928 457.766 219.449 457.766C220.374 457.766 221.201 457.906 221.93 458.186V460.168C221.227 459.686 220.419 459.445 219.508 459.445C219.221 459.445 218.961 459.475 218.727 459.533C218.499 459.592 218.303 459.673 218.141 459.777C217.978 459.882 217.851 460.008 217.76 460.158C217.669 460.301 217.623 460.461 217.623 460.637C217.623 460.852 217.669 461.034 217.76 461.184C217.851 461.333 217.984 461.467 218.16 461.584C218.342 461.695 218.557 461.799 218.805 461.896C219.059 461.988 219.348 462.089 219.674 462.199C220.104 462.375 220.488 462.554 220.826 462.736C221.171 462.919 221.464 463.127 221.705 463.361C221.946 463.589 222.132 463.856 222.262 464.162C222.392 464.462 222.457 464.82 222.457 465.236C222.457 465.744 222.34 466.187 222.105 466.564C221.871 466.942 221.559 467.255 221.168 467.502C220.777 467.749 220.325 467.932 219.811 468.049C219.303 468.173 218.766 468.234 218.199 468.234C217.105 468.234 216.158 468.052 215.357 467.688ZM226.92 466.525H226.881V472.6H224.615V458H226.881V459.758H226.92C227.695 458.43 228.827 457.766 230.318 457.766C231.588 457.766 232.577 458.212 233.287 459.104C233.997 459.995 234.352 461.193 234.352 462.697C234.352 464.364 233.951 465.699 233.15 466.701C232.35 467.704 231.256 468.205 229.869 468.205C228.593 468.205 227.61 467.645 226.92 466.525ZM226.861 462.58V463.82C226.861 464.549 227.092 465.168 227.555 465.676C228.023 466.184 228.616 466.438 229.332 466.438C230.172 466.438 230.829 466.112 231.305 465.461C231.786 464.803 232.027 463.889 232.027 462.717C232.027 461.734 231.803 460.965 231.354 460.412C230.911 459.852 230.309 459.572 229.547 459.572C228.74 459.572 228.089 459.859 227.594 460.432C227.105 461.005 226.861 461.721 226.861 462.58ZM244.107 468H241.91V466.438H241.871C241.181 467.635 240.169 468.234 238.834 468.234C237.851 468.234 237.079 467.967 236.52 467.434C235.966 466.9 235.689 466.193 235.689 465.314C235.689 463.426 236.777 462.326 238.951 462.014L241.92 461.594C241.92 460.168 241.243 459.455 239.889 459.455C238.697 459.455 237.623 459.865 236.666 460.686V458.703C237.721 458.078 238.938 457.766 240.318 457.766C242.844 457.766 244.107 459.009 244.107 461.496V468ZM241.92 463.088L239.82 463.381C239.169 463.465 238.678 463.625 238.346 463.859C238.02 464.087 237.857 464.491 237.857 465.07C237.857 465.493 238.007 465.842 238.307 466.115C238.613 466.382 239.02 466.516 239.527 466.516C240.217 466.516 240.787 466.275 241.236 465.793C241.692 465.305 241.92 464.693 241.92 463.957V463.088ZM254.039 467.541C253.238 468.003 252.291 468.234 251.197 468.234C249.713 468.234 248.515 467.772 247.604 466.848C246.692 465.917 246.236 464.712 246.236 463.234C246.236 461.587 246.725 460.266 247.701 459.27C248.684 458.267 249.996 457.766 251.637 457.766C252.548 457.766 253.352 457.925 254.049 458.244V460.354C253.352 459.833 252.61 459.572 251.822 459.572C250.865 459.572 250.081 459.898 249.469 460.549C248.857 461.193 248.551 462.04 248.551 463.088C248.551 464.123 248.837 464.94 249.41 465.539C249.99 466.138 250.764 466.438 251.734 466.438C252.548 466.438 253.316 466.148 254.039 465.568V467.541ZM264.762 463.615H257.945C257.971 464.54 258.255 465.253 258.795 465.754C259.342 466.255 260.09 466.506 261.041 466.506C262.109 466.506 263.089 466.187 263.98 465.549V467.375C263.069 467.948 261.865 468.234 260.367 468.234C258.896 468.234 257.74 467.782 256.9 466.877C256.067 465.965 255.65 464.686 255.65 463.039C255.65 461.483 256.109 460.217 257.027 459.24C257.952 458.257 259.098 457.766 260.465 457.766C261.832 457.766 262.89 458.205 263.639 459.084C264.387 459.963 264.762 461.184 264.762 462.746V463.615ZM262.574 462.014C262.568 461.2 262.376 460.568 261.998 460.119C261.62 459.663 261.1 459.436 260.436 459.436C259.785 459.436 259.231 459.673 258.775 460.148C258.326 460.624 258.049 461.245 257.945 462.014H262.574Z" fill="#263544"/>
</g>
<g filter="url(#filter2_d)">
<path d="M23 44C23 41.2386 25.2386 39 28 39H524C526.761 39 529 41.2386 529 44V133C529 135.761 526.761 138 524 138H28C25.2386 138 23 135.761 23 133V44Z" fill="#077EEC"/>
<path d="M422.516 87H420.25V85.3008H420.211C419.482 86.5898 418.359 87.2344 416.842 87.2344C415.611 87.2344 414.625 86.7884 413.883 85.8965C413.147 84.998 412.779 83.7773 412.779 82.2344C412.779 80.5807 413.186 79.2559 414 78.2598C414.82 77.2637 415.911 76.7656 417.271 76.7656C418.619 76.7656 419.599 77.306 420.211 78.3867H420.25V72.1953H422.516V87ZM420.279 82.4297V81.1211C420.279 80.4115 420.048 79.8092 419.586 79.3145C419.124 78.8197 418.535 78.5723 417.818 78.5723C416.972 78.5723 416.305 78.888 415.816 79.5195C415.335 80.151 415.094 81.0267 415.094 82.1465C415.094 83.1621 415.325 83.9661 415.787 84.5586C416.256 85.1445 416.884 85.4375 417.672 85.4375C418.447 85.4375 419.075 85.1543 419.557 84.5879C420.038 84.015 420.279 83.2956 420.279 82.4297ZM433.941 82.6152H427.125C427.151 83.5397 427.434 84.2526 427.975 84.7539C428.521 85.2552 429.27 85.5059 430.221 85.5059C431.288 85.5059 432.268 85.1868 433.16 84.5488V86.375C432.249 86.9479 431.044 87.2344 429.547 87.2344C428.076 87.2344 426.92 86.7819 426.08 85.877C425.247 84.9655 424.83 83.6862 424.83 82.0391C424.83 80.4831 425.289 79.2168 426.207 78.2402C427.132 77.2572 428.277 76.7656 429.645 76.7656C431.012 76.7656 432.07 77.2051 432.818 78.084C433.567 78.9629 433.941 80.1836 433.941 81.7461V82.6152ZM431.754 81.0137C431.747 80.1999 431.555 79.5684 431.178 79.1191C430.8 78.6634 430.279 78.4355 429.615 78.4355C428.964 78.4355 428.411 78.6732 427.955 79.1484C427.506 79.6237 427.229 80.2454 427.125 81.0137H431.754ZM451.051 87H448.785V81.5508C448.785 80.5026 448.635 79.7441 448.336 79.2754C448.043 78.8066 447.545 78.5723 446.842 78.5723C446.249 78.5723 445.745 78.8685 445.328 79.4609C444.918 80.0534 444.713 80.763 444.713 81.5898V87H442.438V81.3652C442.438 79.5033 441.78 78.5723 440.465 78.5723C439.853 78.5723 439.348 78.8522 438.951 79.4121C438.561 79.972 438.365 80.6979 438.365 81.5898V87H436.1V77H438.365V78.582H438.404C439.127 77.3711 440.178 76.7656 441.559 76.7656C442.249 76.7656 442.851 76.9577 443.365 77.3418C443.886 77.7194 444.241 78.2174 444.43 78.8359C445.172 77.4557 446.279 76.7656 447.75 76.7656C449.951 76.7656 451.051 78.123 451.051 80.8379V87ZM458.248 87.2344C456.705 87.2344 455.471 86.7689 454.547 85.8379C453.629 84.9004 453.17 83.6602 453.17 82.1172C453.17 80.4375 453.648 79.1257 454.605 78.1816C455.569 77.2376 456.865 76.7656 458.492 76.7656C460.055 76.7656 461.272 77.2246 462.145 78.1426C463.017 79.0605 463.453 80.3333 463.453 81.9609C463.453 83.556 462.981 84.8353 462.037 85.7988C461.1 86.7559 459.837 87.2344 458.248 87.2344ZM458.355 78.5723C457.47 78.5723 456.77 78.8815 456.256 79.5C455.742 80.1185 455.484 80.9714 455.484 82.0586C455.484 83.1068 455.745 83.9336 456.266 84.5391C456.786 85.138 457.483 85.4375 458.355 85.4375C459.247 85.4375 459.931 85.1413 460.406 84.5488C460.888 83.9564 461.129 83.1133 461.129 82.0195C461.129 80.9193 460.888 80.0697 460.406 79.4707C459.931 78.8717 459.247 78.5723 458.355 78.5723ZM471.031 82.3711H465.699V80.7012H471.031V82.3711ZM481.49 87H479.293V85.4375H479.254C478.564 86.6354 477.551 87.2344 476.217 87.2344C475.234 87.2344 474.462 86.9674 473.902 86.4336C473.349 85.8997 473.072 85.1934 473.072 84.3145C473.072 82.4264 474.16 81.3262 476.334 81.0137L479.303 80.5938C479.303 79.168 478.626 78.4551 477.271 78.4551C476.08 78.4551 475.006 78.8652 474.049 79.6855V77.7031C475.104 77.0781 476.321 76.7656 477.701 76.7656C480.227 76.7656 481.49 78.0091 481.49 80.4961V87ZM479.303 82.0879L477.203 82.3809C476.552 82.4655 476.061 82.625 475.729 82.8594C475.403 83.0872 475.24 83.4909 475.24 84.0703C475.24 84.4935 475.39 84.8418 475.689 85.1152C475.995 85.3822 476.402 85.5156 476.91 85.5156C477.6 85.5156 478.17 85.2747 478.619 84.793C479.075 84.3047 479.303 83.6927 479.303 82.957V82.0879ZM486.568 85.5254H486.529V91.5996H484.264V77H486.529V78.7578H486.568C487.343 77.4297 488.476 76.7656 489.967 76.7656C491.236 76.7656 492.226 77.2116 492.936 78.1035C493.645 78.9954 494 80.1934 494 81.6973C494 83.3639 493.6 84.6986 492.799 85.7012C491.998 86.7038 490.904 87.2051 489.518 87.2051C488.242 87.2051 487.258 86.6452 486.568 85.5254ZM486.51 81.5801V82.8203C486.51 83.5495 486.741 84.168 487.203 84.6758C487.672 85.1836 488.264 85.4375 488.98 85.4375C489.82 85.4375 490.478 85.112 490.953 84.4609C491.435 83.8034 491.676 82.8887 491.676 81.7168C491.676 80.7337 491.451 79.9655 491.002 79.4121C490.559 78.8522 489.957 78.5723 489.195 78.5723C488.388 78.5723 487.737 78.8587 487.242 79.4316C486.754 80.0046 486.51 80.7207 486.51 81.5801ZM498.619 85.5254H498.58V91.5996H496.314V77H498.58V78.7578H498.619C499.394 77.4297 500.527 76.7656 502.018 76.7656C503.287 76.7656 504.277 77.2116 504.986 78.1035C505.696 78.9954 506.051 80.1934 506.051 81.6973C506.051 83.3639 505.65 84.6986 504.85 85.7012C504.049 86.7038 502.955 87.2051 501.568 87.2051C500.292 87.2051 499.309 86.6452 498.619 85.5254ZM498.561 81.5801V82.8203C498.561 83.5495 498.792 84.168 499.254 84.6758C499.723 85.1836 500.315 85.4375 501.031 85.4375C501.871 85.4375 502.529 85.112 503.004 84.4609C503.486 83.8034 503.727 82.8887 503.727 81.7168C503.727 80.7337 503.502 79.9655 503.053 79.4121C502.61 78.8522 502.008 78.5723 501.246 78.5723C500.439 78.5723 499.788 78.8587 499.293 79.4316C498.805 80.0046 498.561 80.7207 498.561 81.5801ZM413.072 107H410.807V101.365C410.807 99.4967 410.146 98.5625 408.824 98.5625C408.134 98.5625 407.564 98.8229 407.115 99.3438C406.666 99.8581 406.441 100.509 406.441 101.297V107H404.166V97H406.441V98.6602H406.48C407.229 97.3971 408.31 96.7656 409.723 96.7656C410.81 96.7656 411.64 97.1204 412.213 97.8301C412.786 98.5332 413.072 99.5521 413.072 100.887V107ZM423.521 107H421.324V105.438H421.285C420.595 106.635 419.583 107.234 418.248 107.234C417.265 107.234 416.493 106.967 415.934 106.434C415.38 105.9 415.104 105.193 415.104 104.314C415.104 102.426 416.191 101.326 418.365 101.014L421.334 100.594C421.334 99.168 420.657 98.4551 419.303 98.4551C418.111 98.4551 417.037 98.8652 416.08 99.6855V97.7031C417.135 97.0781 418.352 96.7656 419.732 96.7656C422.258 96.7656 423.521 98.0091 423.521 100.496V107ZM421.334 102.088L419.234 102.381C418.583 102.465 418.092 102.625 417.76 102.859C417.434 103.087 417.271 103.491 417.271 104.07C417.271 104.493 417.421 104.842 417.721 105.115C418.027 105.382 418.434 105.516 418.941 105.516C419.632 105.516 420.201 105.275 420.65 104.793C421.106 104.305 421.334 103.693 421.334 102.957V102.088ZM441.246 107H438.98V101.551C438.98 100.503 438.831 99.7441 438.531 99.2754C438.238 98.8066 437.74 98.5723 437.037 98.5723C436.445 98.5723 435.94 98.8685 435.523 99.4609C435.113 100.053 434.908 100.763 434.908 101.59V107H432.633V101.365C432.633 99.5033 431.975 98.5723 430.66 98.5723C430.048 98.5723 429.544 98.8522 429.146 99.4121C428.756 99.972 428.561 100.698 428.561 101.59V107H426.295V97H428.561V98.582H428.6C429.322 97.3711 430.374 96.7656 431.754 96.7656C432.444 96.7656 433.046 96.9577 433.561 97.3418C434.081 97.7194 434.436 98.2174 434.625 98.8359C435.367 97.4557 436.474 96.7656 437.945 96.7656C440.146 96.7656 441.246 98.123 441.246 100.838V107ZM452.477 102.615H445.66C445.686 103.54 445.969 104.253 446.51 104.754C447.057 105.255 447.805 105.506 448.756 105.506C449.824 105.506 450.803 105.187 451.695 104.549V106.375C450.784 106.948 449.579 107.234 448.082 107.234C446.611 107.234 445.455 106.782 444.615 105.877C443.782 104.965 443.365 103.686 443.365 102.039C443.365 100.483 443.824 99.2168 444.742 98.2402C445.667 97.2572 446.812 96.7656 448.18 96.7656C449.547 96.7656 450.605 97.2051 451.354 98.084C452.102 98.9629 452.477 100.184 452.477 101.746V102.615ZM450.289 101.014C450.283 100.2 450.09 99.5684 449.713 99.1191C449.335 98.6634 448.814 98.4355 448.15 98.4355C447.499 98.4355 446.946 98.6732 446.49 99.1484C446.041 99.6237 445.764 100.245 445.66 101.014H450.289ZM454.01 106.688V104.588C454.856 105.232 455.79 105.555 456.812 105.555C458.18 105.555 458.863 105.151 458.863 104.344C458.863 104.116 458.805 103.924 458.688 103.768C458.57 103.605 458.411 103.462 458.209 103.338C458.014 103.214 457.779 103.104 457.506 103.006C457.239 102.908 456.939 102.798 456.607 102.674C456.197 102.511 455.826 102.339 455.494 102.156C455.169 101.974 454.895 101.769 454.674 101.541C454.459 101.307 454.296 101.043 454.186 100.75C454.075 100.457 454.02 100.115 454.02 99.7246C454.02 99.2428 454.133 98.8197 454.361 98.4551C454.589 98.084 454.895 97.7747 455.279 97.5273C455.663 97.2734 456.1 97.0846 456.588 96.9609C457.076 96.8307 457.581 96.7656 458.102 96.7656C459.026 96.7656 459.853 96.9056 460.582 97.1855V99.168C459.879 98.6862 459.072 98.4453 458.16 98.4453C457.874 98.4453 457.613 98.4746 457.379 98.5332C457.151 98.5918 456.956 98.6732 456.793 98.7773C456.63 98.8815 456.503 99.0085 456.412 99.1582C456.321 99.3014 456.275 99.4609 456.275 99.6367C456.275 99.8516 456.321 100.034 456.412 100.184C456.503 100.333 456.637 100.467 456.812 100.584C456.995 100.695 457.21 100.799 457.457 100.896C457.711 100.988 458.001 101.089 458.326 101.199C458.756 101.375 459.14 101.554 459.479 101.736C459.824 101.919 460.117 102.127 460.357 102.361C460.598 102.589 460.784 102.856 460.914 103.162C461.044 103.462 461.109 103.82 461.109 104.236C461.109 104.744 460.992 105.187 460.758 105.564C460.523 105.942 460.211 106.255 459.82 106.502C459.43 106.749 458.977 106.932 458.463 107.049C457.955 107.173 457.418 107.234 456.852 107.234C455.758 107.234 454.811 107.052 454.01 106.688ZM465.572 105.525H465.533V111.6H463.268V97H465.533V98.7578H465.572C466.347 97.4297 467.48 96.7656 468.971 96.7656C470.24 96.7656 471.23 97.2116 471.939 98.1035C472.649 98.9954 473.004 100.193 473.004 101.697C473.004 103.364 472.604 104.699 471.803 105.701C471.002 106.704 469.908 107.205 468.521 107.205C467.245 107.205 466.262 106.645 465.572 105.525ZM465.514 101.58V102.82C465.514 103.549 465.745 104.168 466.207 104.676C466.676 105.184 467.268 105.438 467.984 105.438C468.824 105.438 469.482 105.112 469.957 104.461C470.439 103.803 470.68 102.889 470.68 101.717C470.68 100.734 470.455 99.9655 470.006 99.4121C469.563 98.8522 468.961 98.5723 468.199 98.5723C467.392 98.5723 466.741 98.8587 466.246 99.4316C465.758 100.005 465.514 100.721 465.514 101.58ZM482.76 107H480.562V105.438H480.523C479.833 106.635 478.821 107.234 477.486 107.234C476.503 107.234 475.732 106.967 475.172 106.434C474.618 105.9 474.342 105.193 474.342 104.314C474.342 102.426 475.429 101.326 477.604 101.014L480.572 100.594C480.572 99.168 479.895 98.4551 478.541 98.4551C477.35 98.4551 476.275 98.8652 475.318 99.6855V97.7031C476.373 97.0781 477.59 96.7656 478.971 96.7656C481.497 96.7656 482.76 98.0091 482.76 100.496V107ZM480.572 102.088L478.473 102.381C477.822 102.465 477.33 102.625 476.998 102.859C476.673 103.087 476.51 103.491 476.51 104.07C476.51 104.493 476.66 104.842 476.959 105.115C477.265 105.382 477.672 105.516 478.18 105.516C478.87 105.516 479.439 105.275 479.889 104.793C480.344 104.305 480.572 103.693 480.572 102.957V102.088ZM492.691 106.541C491.891 107.003 490.943 107.234 489.85 107.234C488.365 107.234 487.167 106.772 486.256 105.848C485.344 104.917 484.889 103.712 484.889 102.234C484.889 100.587 485.377 99.2656 486.354 98.2695C487.337 97.2669 488.648 96.7656 490.289 96.7656C491.201 96.7656 492.005 96.9251 492.701 97.2441V99.3535C492.005 98.8327 491.262 98.5723 490.475 98.5723C489.518 98.5723 488.733 98.8978 488.121 99.5488C487.509 100.193 487.203 101.04 487.203 102.088C487.203 103.123 487.49 103.94 488.062 104.539C488.642 105.138 489.417 105.438 490.387 105.438C491.201 105.438 491.969 105.148 492.691 104.568V106.541ZM503.414 102.615H496.598C496.624 103.54 496.907 104.253 497.447 104.754C497.994 105.255 498.743 105.506 499.693 105.506C500.761 105.506 501.741 105.187 502.633 104.549V106.375C501.721 106.948 500.517 107.234 499.02 107.234C497.548 107.234 496.393 106.782 495.553 105.877C494.719 104.965 494.303 103.686 494.303 102.039C494.303 100.483 494.762 99.2168 495.68 98.2402C496.604 97.2572 497.75 96.7656 499.117 96.7656C500.484 96.7656 501.542 97.2051 502.291 98.084C503.04 98.9629 503.414 100.184 503.414 101.746V102.615ZM501.227 101.014C501.22 100.2 501.028 99.5684 500.65 99.1191C500.273 98.6634 499.752 98.4355 499.088 98.4355C498.437 98.4355 497.883 98.6732 497.428 99.1484C496.979 99.6237 496.702 100.245 496.598 101.014H501.227Z" fill="white"/>
</g>
<path d="M114 195C114 192.239 116.239 190 119 190H271C273.761 190 276 192.239 276 195V245C276 247.761 273.761 250 271 250H119C116.239 250 114 247.761 114 245V195Z" fill="#FF7521"/>
<path d="M166.885 227.688V225.588C167.731 226.232 168.665 226.555 169.688 226.555C171.055 226.555 171.738 226.151 171.738 225.344C171.738 225.116 171.68 224.924 171.562 224.768C171.445 224.605 171.286 224.462 171.084 224.338C170.889 224.214 170.654 224.104 170.381 224.006C170.114 223.908 169.814 223.798 169.482 223.674C169.072 223.511 168.701 223.339 168.369 223.156C168.044 222.974 167.77 222.769 167.549 222.541C167.334 222.307 167.171 222.043 167.061 221.75C166.95 221.457 166.895 221.115 166.895 220.725C166.895 220.243 167.008 219.82 167.236 219.455C167.464 219.084 167.77 218.775 168.154 218.527C168.538 218.273 168.975 218.085 169.463 217.961C169.951 217.831 170.456 217.766 170.977 217.766C171.901 217.766 172.728 217.906 173.457 218.186V220.168C172.754 219.686 171.947 219.445 171.035 219.445C170.749 219.445 170.488 219.475 170.254 219.533C170.026 219.592 169.831 219.673 169.668 219.777C169.505 219.882 169.378 220.008 169.287 220.158C169.196 220.301 169.15 220.461 169.15 220.637C169.15 220.852 169.196 221.034 169.287 221.184C169.378 221.333 169.512 221.467 169.688 221.584C169.87 221.695 170.085 221.799 170.332 221.896C170.586 221.988 170.876 222.089 171.201 222.199C171.631 222.375 172.015 222.554 172.354 222.736C172.699 222.919 172.992 223.127 173.232 223.361C173.473 223.589 173.659 223.856 173.789 224.162C173.919 224.462 173.984 224.82 173.984 225.236C173.984 225.744 173.867 226.187 173.633 226.564C173.398 226.942 173.086 227.255 172.695 227.502C172.305 227.749 171.852 227.932 171.338 228.049C170.83 228.173 170.293 228.234 169.727 228.234C168.633 228.234 167.686 228.052 166.885 227.688ZM184.805 218L180.293 229.602C179.355 231.672 178.04 232.707 176.348 232.707C175.872 232.707 175.475 232.665 175.156 232.58V230.695C175.514 230.812 175.84 230.871 176.133 230.871C176.979 230.871 177.611 230.454 178.027 229.621L178.701 227.98L174.727 218H177.236L179.619 225.266C179.645 225.357 179.704 225.598 179.795 225.988H179.844C179.876 225.839 179.935 225.604 180.02 225.285L182.52 218H184.805ZM195.225 228H192.959V222.365C192.959 220.497 192.298 219.562 190.977 219.562C190.286 219.562 189.717 219.823 189.268 220.344C188.818 220.858 188.594 221.509 188.594 222.297V228H186.318V218H188.594V219.66H188.633C189.382 218.397 190.462 217.766 191.875 217.766C192.962 217.766 193.792 218.12 194.365 218.83C194.938 219.533 195.225 220.552 195.225 221.887V228ZM205.156 227.541C204.355 228.003 203.408 228.234 202.314 228.234C200.83 228.234 199.632 227.772 198.721 226.848C197.809 225.917 197.354 224.712 197.354 223.234C197.354 221.587 197.842 220.266 198.818 219.27C199.801 218.267 201.113 217.766 202.754 217.766C203.665 217.766 204.469 217.925 205.166 218.244V220.354C204.469 219.833 203.727 219.572 202.939 219.572C201.982 219.572 201.198 219.898 200.586 220.549C199.974 221.193 199.668 222.04 199.668 223.088C199.668 224.123 199.954 224.94 200.527 225.539C201.107 226.138 201.882 226.438 202.852 226.438C203.665 226.438 204.434 226.148 205.156 225.568V227.541ZM215.879 223.615H209.062C209.089 224.54 209.372 225.253 209.912 225.754C210.459 226.255 211.208 226.506 212.158 226.506C213.226 226.506 214.206 226.187 215.098 225.549V227.375C214.186 227.948 212.982 228.234 211.484 228.234C210.013 228.234 208.857 227.782 208.018 226.877C207.184 225.965 206.768 224.686 206.768 223.039C206.768 221.483 207.227 220.217 208.145 219.24C209.069 218.257 210.215 217.766 211.582 217.766C212.949 217.766 214.007 218.205 214.756 219.084C215.505 219.963 215.879 221.184 215.879 222.746V223.615ZM213.691 222.014C213.685 221.2 213.493 220.568 213.115 220.119C212.738 219.663 212.217 219.436 211.553 219.436C210.902 219.436 210.348 219.673 209.893 220.148C209.443 220.624 209.167 221.245 209.062 222.014H213.691ZM223.838 220.158C223.564 219.943 223.171 219.836 222.656 219.836C221.986 219.836 221.426 220.139 220.977 220.744C220.527 221.35 220.303 222.173 220.303 223.215V228H218.037V218H220.303V220.061H220.342C220.563 219.357 220.902 218.811 221.357 218.42C221.82 218.023 222.334 217.824 222.9 217.824C223.311 217.824 223.623 217.886 223.838 218.01V220.158Z" fill="white"/>
<path d="M413 378C413 375.239 415.239 373 418 373H516C518.761 373 521 375.239 521 378V428C521 430.761 518.761 433 516 433H418C415.239 433 413 430.761 413 428V378Z" fill="#465E75"/>
<path d="M451.629 409.525H451.59V415.6H449.324V401H451.59V402.758H451.629C452.404 401.43 453.536 400.766 455.027 400.766C456.297 400.766 457.286 401.212 457.996 402.104C458.706 402.995 459.061 404.193 459.061 405.697C459.061 407.364 458.66 408.699 457.859 409.701C457.059 410.704 455.965 411.205 454.578 411.205C453.302 411.205 452.319 410.645 451.629 409.525ZM451.57 405.58V406.82C451.57 407.549 451.801 408.168 452.264 408.676C452.732 409.184 453.325 409.438 454.041 409.438C454.881 409.438 455.538 409.112 456.014 408.461C456.495 407.803 456.736 406.889 456.736 405.717C456.736 404.734 456.512 403.965 456.062 403.412C455.62 402.852 455.018 402.572 454.256 402.572C453.449 402.572 452.798 402.859 452.303 403.432C451.814 404.005 451.57 404.721 451.57 405.58ZM469.988 401L466.121 411H463.67L459.988 401H462.449L464.666 407.992C464.835 408.507 464.939 408.956 464.979 409.34H465.008C465.066 408.858 465.158 408.422 465.281 408.031L467.605 401H469.988ZM476.795 406.371H471.463V404.701H476.795V406.371ZM484.109 396.684V411H481.844V399.457C481.434 399.75 480.991 400.001 480.516 400.209C480.047 400.411 479.51 400.59 478.904 400.746V398.812C479.282 398.689 479.646 398.559 479.998 398.422C480.35 398.285 480.695 398.132 481.033 397.963C481.378 397.794 481.723 397.605 482.068 397.396C482.42 397.188 482.781 396.951 483.152 396.684H484.109Z" fill="#EFF3F9"/>
<path d="M404.078 404.043C404.654 403.447 404.638 402.498 404.043 401.922L394.339 392.536C393.744 391.96 392.794 391.976 392.218 392.572C391.642 393.167 391.658 394.117 392.253 394.693L400.879 403.035L392.536 411.661C391.96 412.256 391.976 413.206 392.572 413.782C393.167 414.358 394.117 414.342 394.693 413.747L404.078 404.043ZM343.025 405.5L403.025 404.5L402.975 401.5L342.975 402.5L343.025 405.5Z" fill="#465E75"/>
<g filter="url(#filter3_d)">
<path d="M98 63C98 60.2386 100.239 58 103 58H179C181.761 58 184 60.2386 184 63V113C184 115.761 181.761 118 179 118H103C100.239 118 98 115.761 98 113V63Z" fill="url(#paint2_linear)"/>
<path d="M118.705 94.5254H118.666V100.6H116.4V86H118.666V87.7578H118.705C119.48 86.4297 120.613 85.7656 122.104 85.7656C123.373 85.7656 124.363 86.2116 125.072 87.1035C125.782 87.9954 126.137 89.1934 126.137 90.6973C126.137 92.3639 125.736 93.6986 124.936 94.7012C124.135 95.7038 123.041 96.2051 121.654 96.2051C120.378 96.2051 119.395 95.6452 118.705 94.5254ZM118.646 90.5801V91.8203C118.646 92.5495 118.878 93.168 119.34 93.6758C119.809 94.1836 120.401 94.4375 121.117 94.4375C121.957 94.4375 122.615 94.112 123.09 93.4609C123.572 92.8034 123.812 91.8887 123.812 90.7168C123.812 89.7337 123.588 88.9655 123.139 88.4121C122.696 87.8522 122.094 87.5723 121.332 87.5723C120.525 87.5723 119.874 87.8587 119.379 88.4316C118.891 89.0046 118.646 89.7207 118.646 90.5801ZM132.885 96.2344C131.342 96.2344 130.108 95.7689 129.184 94.8379C128.266 93.9004 127.807 92.6602 127.807 91.1172C127.807 89.4375 128.285 88.1257 129.242 87.1816C130.206 86.2376 131.501 85.7656 133.129 85.7656C134.691 85.7656 135.909 86.2246 136.781 87.1426C137.654 88.0605 138.09 89.3333 138.09 90.9609C138.09 92.556 137.618 93.8353 136.674 94.7988C135.736 95.7559 134.473 96.2344 132.885 96.2344ZM132.992 87.5723C132.107 87.5723 131.407 87.8815 130.893 88.5C130.378 89.1185 130.121 89.9714 130.121 91.0586C130.121 92.1068 130.382 92.9336 130.902 93.5391C131.423 94.138 132.12 94.4375 132.992 94.4375C133.884 94.4375 134.568 94.1413 135.043 93.5488C135.525 92.9564 135.766 92.1133 135.766 91.0195C135.766 89.9193 135.525 89.0697 135.043 88.4707C134.568 87.8717 133.884 87.5723 132.992 87.5723ZM149.496 96H147.23V94.3008H147.191C146.462 95.5898 145.339 96.2344 143.822 96.2344C142.592 96.2344 141.605 95.7884 140.863 94.8965C140.128 93.998 139.76 92.7773 139.76 91.2344C139.76 89.5807 140.167 88.2559 140.98 87.2598C141.801 86.2637 142.891 85.7656 144.252 85.7656C145.6 85.7656 146.579 86.306 147.191 87.3867H147.23V81.1953H149.496V96ZM147.26 91.4297V90.1211C147.26 89.4115 147.029 88.8092 146.566 88.3145C146.104 87.8197 145.515 87.5723 144.799 87.5723C143.952 87.5723 143.285 87.888 142.797 88.5195C142.315 89.151 142.074 90.0267 142.074 91.1465C142.074 92.1621 142.305 92.9661 142.768 93.5586C143.236 94.1445 143.865 94.4375 144.652 94.4375C145.427 94.4375 146.055 94.1543 146.537 93.5879C147.019 93.015 147.26 92.2956 147.26 91.4297ZM157.719 91.3711H152.387V89.7012H157.719V91.3711ZM165.033 81.6836V96H162.768V84.457C162.357 84.75 161.915 85.0007 161.439 85.209C160.971 85.4108 160.434 85.5898 159.828 85.7461V83.8125C160.206 83.6888 160.57 83.5586 160.922 83.4219C161.273 83.2852 161.618 83.1322 161.957 82.9629C162.302 82.7936 162.647 82.6048 162.992 82.3965C163.344 82.1882 163.705 81.9505 164.076 81.6836H165.033Z" fill="#465E75"/>
</g>
<g filter="url(#filter4_d)">
<path d="M205 63C205 60.2386 207.239 58 210 58H286C288.761 58 291 60.2386 291 63V113C291 115.761 288.761 118 286 118H210C207.239 118 205 115.761 205 113V63Z" fill="url(#paint3_linear)"/>
<path d="M227.99 94.5254H227.951V100.6H225.686V86H227.951V87.7578H227.99C228.765 86.4297 229.898 85.7656 231.389 85.7656C232.658 85.7656 233.648 86.2116 234.357 87.1035C235.067 87.9954 235.422 89.1934 235.422 90.6973C235.422 92.3639 235.021 93.6986 234.221 94.7012C233.42 95.7038 232.326 96.2051 230.939 96.2051C229.663 96.2051 228.68 95.6452 227.99 94.5254ZM227.932 90.5801V91.8203C227.932 92.5495 228.163 93.168 228.625 93.6758C229.094 94.1836 229.686 94.4375 230.402 94.4375C231.242 94.4375 231.9 94.112 232.375 93.4609C232.857 92.8034 233.098 91.8887 233.098 90.7168C233.098 89.7337 232.873 88.9655 232.424 88.4121C231.981 87.8522 231.379 87.5723 230.617 87.5723C229.81 87.5723 229.159 87.8587 228.664 88.4316C228.176 89.0046 227.932 89.7207 227.932 90.5801ZM246.35 86L242.482 96H240.031L236.35 86H238.811L241.027 92.9922C241.197 93.5065 241.301 93.9557 241.34 94.3398H241.369C241.428 93.8581 241.519 93.4219 241.643 93.0312L243.967 86H246.35ZM254.914 95.541C254.113 96.0033 253.166 96.2344 252.072 96.2344C250.588 96.2344 249.39 95.7721 248.479 94.8477C247.567 93.9167 247.111 92.7122 247.111 91.2344C247.111 89.5872 247.6 88.2656 248.576 87.2695C249.559 86.2669 250.871 85.7656 252.512 85.7656C253.423 85.7656 254.227 85.9251 254.924 86.2441V88.3535C254.227 87.8327 253.485 87.5723 252.697 87.5723C251.74 87.5723 250.956 87.8978 250.344 88.5488C249.732 89.1934 249.426 90.0397 249.426 91.0879C249.426 92.123 249.712 92.9401 250.285 93.5391C250.865 94.138 251.639 94.4375 252.609 94.4375C253.423 94.4375 254.191 94.1478 254.914 93.5684V95.541ZM262.434 91.3711H257.102V89.7012H262.434V91.3711ZM269.748 81.6836V96H267.482V84.457C267.072 84.75 266.63 85.0007 266.154 85.209C265.686 85.4108 265.148 85.5898 264.543 85.7461V83.8125C264.921 83.6888 265.285 83.5586 265.637 83.4219C265.988 83.2852 266.333 83.1322 266.672 82.9629C267.017 82.7936 267.362 82.6048 267.707 82.3965C268.059 82.1882 268.42 81.9505 268.791 81.6836H269.748Z" fill="#465E75"/>
</g>
<g filter="url(#filter5_d)">
<path d="M39 378C39 375.239 41.2386 373 44 373H179C181.761 373 184 375.239 184 378V428C184 430.761 181.761 433 179 433H44C41.2386 433 39 430.761 39 428V378Z" fill="url(#paint4_linear)"/>
<path d="M53.8926 409.525H53.8535V415.6H51.5879V401H53.8535V402.758H53.8926C54.6673 401.43 55.8001 400.766 57.291 400.766C58.5605 400.766 59.5501 401.212 60.2598 402.104C60.9694 402.995 61.3242 404.193 61.3242 405.697C61.3242 407.364 60.9238 408.699 60.123 409.701C59.3223 410.704 58.2285 411.205 56.8418 411.205C55.5658 411.205 54.5827 410.645 53.8926 409.525ZM53.834 405.58V406.82C53.834 407.549 54.0651 408.168 54.5273 408.676C54.9961 409.184 55.5885 409.438 56.3047 409.438C57.1445 409.438 57.8021 409.112 58.2773 408.461C58.7591 407.803 59 406.889 59 405.717C59 404.734 58.7754 403.965 58.3262 403.412C57.8835 402.852 57.2812 402.572 56.5195 402.572C55.7122 402.572 55.0612 402.859 54.5664 403.432C54.0781 404.005 53.834 404.721 53.834 405.58ZM68.0723 411.234C66.5293 411.234 65.2956 410.769 64.3711 409.838C63.4531 408.9 62.9941 407.66 62.9941 406.117C62.9941 404.438 63.4727 403.126 64.4297 402.182C65.3932 401.238 66.6888 400.766 68.3164 400.766C69.8789 400.766 71.0964 401.225 71.9688 402.143C72.8411 403.061 73.2773 404.333 73.2773 405.961C73.2773 407.556 72.8053 408.835 71.8613 409.799C70.9238 410.756 69.6608 411.234 68.0723 411.234ZM68.1797 402.572C67.2943 402.572 66.5944 402.882 66.0801 403.5C65.5658 404.118 65.3086 404.971 65.3086 406.059C65.3086 407.107 65.569 407.934 66.0898 408.539C66.6107 409.138 67.3073 409.438 68.1797 409.438C69.0716 409.438 69.7552 409.141 70.2305 408.549C70.7122 407.956 70.9531 407.113 70.9531 406.02C70.9531 404.919 70.7122 404.07 70.2305 403.471C69.7552 402.872 69.0716 402.572 68.1797 402.572ZM84.6836 411H82.418V409.301H82.3789C81.6497 410.59 80.5267 411.234 79.0098 411.234C77.7793 411.234 76.793 410.788 76.0508 409.896C75.3151 408.998 74.9473 407.777 74.9473 406.234C74.9473 404.581 75.3542 403.256 76.168 402.26C76.9883 401.264 78.0788 400.766 79.4395 400.766C80.7871 400.766 81.7669 401.306 82.3789 402.387H82.418V396.195H84.6836V411ZM82.4473 406.43V405.121C82.4473 404.411 82.2161 403.809 81.7539 403.314C81.2917 402.82 80.7025 402.572 79.9863 402.572C79.14 402.572 78.4727 402.888 77.9844 403.52C77.5026 404.151 77.2617 405.027 77.2617 406.146C77.2617 407.162 77.4928 407.966 77.9551 408.559C78.4238 409.145 79.0521 409.438 79.8398 409.438C80.6146 409.438 81.2428 409.154 81.7246 408.588C82.2064 408.015 82.4473 407.296 82.4473 406.43ZM92.9062 406.371H87.5742V404.701H92.9062V406.371ZM100.221 396.684V411H97.9551V399.457C97.5449 399.75 97.1022 400.001 96.627 400.209C96.1582 400.411 95.6211 400.59 95.0156 400.746V398.812C95.3932 398.689 95.7578 398.559 96.1094 398.422C96.4609 398.285 96.806 398.132 97.1445 397.963C97.4896 397.794 97.8346 397.605 98.1797 397.396C98.5312 397.188 98.8926 396.951 99.2637 396.684H100.221ZM109 406.371H103.668V404.701H109V406.371ZM111.158 410.688V408.588C112.005 409.232 112.939 409.555 113.961 409.555C115.328 409.555 116.012 409.151 116.012 408.344C116.012 408.116 115.953 407.924 115.836 407.768C115.719 407.605 115.559 407.462 115.357 407.338C115.162 407.214 114.928 407.104 114.654 407.006C114.387 406.908 114.088 406.798 113.756 406.674C113.346 406.511 112.975 406.339 112.643 406.156C112.317 405.974 112.044 405.769 111.822 405.541C111.607 405.307 111.445 405.043 111.334 404.75C111.223 404.457 111.168 404.115 111.168 403.725C111.168 403.243 111.282 402.82 111.51 402.455C111.738 402.084 112.044 401.775 112.428 401.527C112.812 401.273 113.248 401.085 113.736 400.961C114.225 400.831 114.729 400.766 115.25 400.766C116.174 400.766 117.001 400.906 117.73 401.186V403.168C117.027 402.686 116.22 402.445 115.309 402.445C115.022 402.445 114.762 402.475 114.527 402.533C114.299 402.592 114.104 402.673 113.941 402.777C113.779 402.882 113.652 403.008 113.561 403.158C113.469 403.301 113.424 403.461 113.424 403.637C113.424 403.852 113.469 404.034 113.561 404.184C113.652 404.333 113.785 404.467 113.961 404.584C114.143 404.695 114.358 404.799 114.605 404.896C114.859 404.988 115.149 405.089 115.475 405.199C115.904 405.375 116.288 405.554 116.627 405.736C116.972 405.919 117.265 406.127 117.506 406.361C117.747 406.589 117.932 406.856 118.062 407.162C118.193 407.462 118.258 407.82 118.258 408.236C118.258 408.744 118.141 409.187 117.906 409.564C117.672 409.942 117.359 410.255 116.969 410.502C116.578 410.749 116.126 410.932 115.611 411.049C115.104 411.173 114.566 411.234 114 411.234C112.906 411.234 111.959 411.052 111.158 410.688ZM129.078 401L124.566 412.602C123.629 414.672 122.314 415.707 120.621 415.707C120.146 415.707 119.749 415.665 119.43 415.58V413.695C119.788 413.812 120.113 413.871 120.406 413.871C121.253 413.871 121.884 413.454 122.301 412.621L122.975 410.98L119 401H121.51L123.893 408.266C123.919 408.357 123.977 408.598 124.068 408.988H124.117C124.15 408.839 124.208 408.604 124.293 408.285L126.793 401H129.078ZM139.498 411H137.232V405.365C137.232 403.497 136.572 402.562 135.25 402.562C134.56 402.562 133.99 402.823 133.541 403.344C133.092 403.858 132.867 404.509 132.867 405.297V411H130.592V401H132.867V402.66H132.906C133.655 401.397 134.736 400.766 136.148 400.766C137.236 400.766 138.066 401.12 138.639 401.83C139.212 402.533 139.498 403.552 139.498 404.887V411ZM149.43 410.541C148.629 411.003 147.682 411.234 146.588 411.234C145.104 411.234 143.906 410.772 142.994 409.848C142.083 408.917 141.627 407.712 141.627 406.234C141.627 404.587 142.115 403.266 143.092 402.27C144.075 401.267 145.387 400.766 147.027 400.766C147.939 400.766 148.743 400.925 149.439 401.244V403.354C148.743 402.833 148.001 402.572 147.213 402.572C146.256 402.572 145.471 402.898 144.859 403.549C144.247 404.193 143.941 405.04 143.941 406.088C143.941 407.123 144.228 407.94 144.801 408.539C145.38 409.138 146.155 409.438 147.125 409.438C147.939 409.438 148.707 409.148 149.43 408.568V410.541ZM160.152 406.615H153.336C153.362 407.54 153.645 408.253 154.186 408.754C154.732 409.255 155.481 409.506 156.432 409.506C157.499 409.506 158.479 409.187 159.371 408.549V410.375C158.46 410.948 157.255 411.234 155.758 411.234C154.286 411.234 153.131 410.782 152.291 409.877C151.458 408.965 151.041 407.686 151.041 406.039C151.041 404.483 151.5 403.217 152.418 402.24C153.342 401.257 154.488 400.766 155.855 400.766C157.223 400.766 158.281 401.205 159.029 402.084C159.778 402.963 160.152 404.184 160.152 405.746V406.615ZM157.965 405.014C157.958 404.2 157.766 403.568 157.389 403.119C157.011 402.663 156.49 402.436 155.826 402.436C155.175 402.436 154.622 402.673 154.166 403.148C153.717 403.624 153.44 404.245 153.336 405.014H157.965ZM171.402 411H169.137V409.301H169.098C168.368 410.59 167.245 411.234 165.729 411.234C164.498 411.234 163.512 410.788 162.77 409.896C162.034 408.998 161.666 407.777 161.666 406.234C161.666 404.581 162.073 403.256 162.887 402.26C163.707 401.264 164.798 400.766 166.158 400.766C167.506 400.766 168.486 401.306 169.098 402.387H169.137V396.195H171.402V411ZM169.166 406.43V405.121C169.166 404.411 168.935 403.809 168.473 403.314C168.01 402.82 167.421 402.572 166.705 402.572C165.859 402.572 165.191 402.888 164.703 403.52C164.221 404.151 163.98 405.027 163.98 406.146C163.98 407.162 164.212 407.966 164.674 408.559C165.143 409.145 165.771 409.438 166.559 409.438C167.333 409.438 167.962 409.154 168.443 408.588C168.925 408.015 169.166 407.296 169.166 406.43Z" fill="#465E75"/>
</g>
<g filter="url(#filter6_d)">
<path d="M205 378C205 375.239 207.239 373 210 373H338C340.761 373 343 375.239 343 378V428C343 430.761 340.761 433 338 433H210C207.239 433 205 430.761 205 428V378Z" fill="url(#paint5_linear)"/>
<path d="M218.678 409.525H218.639V415.6H216.373V401H218.639V402.758H218.678C219.452 401.43 220.585 400.766 222.076 400.766C223.346 400.766 224.335 401.212 225.045 402.104C225.755 402.995 226.109 404.193 226.109 405.697C226.109 407.364 225.709 408.699 224.908 409.701C224.107 410.704 223.014 411.205 221.627 411.205C220.351 411.205 219.368 410.645 218.678 409.525ZM218.619 405.58V406.82C218.619 407.549 218.85 408.168 219.312 408.676C219.781 409.184 220.374 409.438 221.09 409.438C221.93 409.438 222.587 409.112 223.062 408.461C223.544 407.803 223.785 406.889 223.785 405.717C223.785 404.734 223.561 403.965 223.111 403.412C222.669 402.852 222.066 402.572 221.305 402.572C220.497 402.572 219.846 402.859 219.352 403.432C218.863 404.005 218.619 404.721 218.619 405.58ZM237.037 401L233.17 411H230.719L227.037 401H229.498L231.715 407.992C231.884 408.507 231.988 408.956 232.027 409.34H232.057C232.115 408.858 232.206 408.422 232.33 408.031L234.654 401H237.037ZM245.602 410.541C244.801 411.003 243.854 411.234 242.76 411.234C241.275 411.234 240.077 410.772 239.166 409.848C238.255 408.917 237.799 407.712 237.799 406.234C237.799 404.587 238.287 403.266 239.264 402.27C240.247 401.267 241.559 400.766 243.199 400.766C244.111 400.766 244.915 400.925 245.611 401.244V403.354C244.915 402.833 244.173 402.572 243.385 402.572C242.428 402.572 241.643 402.898 241.031 403.549C240.419 404.193 240.113 405.04 240.113 406.088C240.113 407.123 240.4 407.94 240.973 408.539C241.552 409.138 242.327 409.438 243.297 409.438C244.111 409.438 244.879 409.148 245.602 408.568V410.541ZM253.121 406.371H247.789V404.701H253.121V406.371ZM260.436 396.684V411H258.17V399.457C257.76 399.75 257.317 400.001 256.842 400.209C256.373 400.411 255.836 400.59 255.23 400.746V398.812C255.608 398.689 255.973 398.559 256.324 398.422C256.676 398.285 257.021 398.132 257.359 397.963C257.704 397.794 258.049 397.605 258.395 397.396C258.746 397.188 259.107 396.951 259.479 396.684H260.436ZM269.215 406.371H263.883V404.701H269.215V406.371ZM271.373 410.688V408.588C272.219 409.232 273.154 409.555 274.176 409.555C275.543 409.555 276.227 409.151 276.227 408.344C276.227 408.116 276.168 407.924 276.051 407.768C275.934 407.605 275.774 407.462 275.572 407.338C275.377 407.214 275.143 407.104 274.869 407.006C274.602 406.908 274.303 406.798 273.971 406.674C273.561 406.511 273.189 406.339 272.857 406.156C272.532 405.974 272.258 405.769 272.037 405.541C271.822 405.307 271.66 405.043 271.549 404.75C271.438 404.457 271.383 404.115 271.383 403.725C271.383 403.243 271.497 402.82 271.725 402.455C271.952 402.084 272.258 401.775 272.643 401.527C273.027 401.273 273.463 401.085 273.951 400.961C274.439 400.831 274.944 400.766 275.465 400.766C276.389 400.766 277.216 400.906 277.945 401.186V403.168C277.242 402.686 276.435 402.445 275.523 402.445C275.237 402.445 274.977 402.475 274.742 402.533C274.514 402.592 274.319 402.673 274.156 402.777C273.993 402.882 273.867 403.008 273.775 403.158C273.684 403.301 273.639 403.461 273.639 403.637C273.639 403.852 273.684 404.034 273.775 404.184C273.867 404.333 274 404.467 274.176 404.584C274.358 404.695 274.573 404.799 274.82 404.896C275.074 404.988 275.364 405.089 275.689 405.199C276.119 405.375 276.503 405.554 276.842 405.736C277.187 405.919 277.48 406.127 277.721 406.361C277.962 406.589 278.147 406.856 278.277 407.162C278.408 407.462 278.473 407.82 278.473 408.236C278.473 408.744 278.355 409.187 278.121 409.564C277.887 409.942 277.574 410.255 277.184 410.502C276.793 410.749 276.34 410.932 275.826 411.049C275.318 411.173 274.781 411.234 274.215 411.234C273.121 411.234 272.174 411.052 271.373 410.688ZM289.293 401L284.781 412.602C283.844 414.672 282.529 415.707 280.836 415.707C280.361 415.707 279.964 415.665 279.645 415.58V413.695C280.003 413.812 280.328 413.871 280.621 413.871C281.467 413.871 282.099 413.454 282.516 412.621L283.189 410.98L279.215 401H281.725L284.107 408.266C284.133 408.357 284.192 408.598 284.283 408.988H284.332C284.365 408.839 284.423 408.604 284.508 408.285L287.008 401H289.293ZM299.713 411H297.447V405.365C297.447 403.497 296.786 402.562 295.465 402.562C294.775 402.562 294.205 402.823 293.756 403.344C293.307 403.858 293.082 404.509 293.082 405.297V411H290.807V401H293.082V402.66H293.121C293.87 401.397 294.951 400.766 296.363 400.766C297.451 400.766 298.281 401.12 298.854 401.83C299.426 402.533 299.713 403.552 299.713 404.887V411ZM309.645 410.541C308.844 411.003 307.896 411.234 306.803 411.234C305.318 411.234 304.12 410.772 303.209 409.848C302.298 408.917 301.842 407.712 301.842 406.234C301.842 404.587 302.33 403.266 303.307 402.27C304.29 401.267 305.602 400.766 307.242 400.766C308.154 400.766 308.958 400.925 309.654 401.244V403.354C308.958 402.833 308.215 402.572 307.428 402.572C306.471 402.572 305.686 402.898 305.074 403.549C304.462 404.193 304.156 405.04 304.156 406.088C304.156 407.123 304.443 407.94 305.016 408.539C305.595 409.138 306.37 409.438 307.34 409.438C308.154 409.438 308.922 409.148 309.645 408.568V410.541ZM320.367 406.615H313.551C313.577 407.54 313.86 408.253 314.4 408.754C314.947 409.255 315.696 409.506 316.646 409.506C317.714 409.506 318.694 409.187 319.586 408.549V410.375C318.674 410.948 317.47 411.234 315.973 411.234C314.501 411.234 313.346 410.782 312.506 409.877C311.673 408.965 311.256 407.686 311.256 406.039C311.256 404.483 311.715 403.217 312.633 402.24C313.557 401.257 314.703 400.766 316.07 400.766C317.438 400.766 318.495 401.205 319.244 402.084C319.993 402.963 320.367 404.184 320.367 405.746V406.615ZM318.18 405.014C318.173 404.2 317.981 403.568 317.604 403.119C317.226 402.663 316.705 402.436 316.041 402.436C315.39 402.436 314.837 402.673 314.381 403.148C313.932 403.624 313.655 404.245 313.551 405.014H318.18ZM331.617 411H329.352V409.301H329.312C328.583 410.59 327.46 411.234 325.943 411.234C324.713 411.234 323.727 410.788 322.984 409.896C322.249 408.998 321.881 407.777 321.881 406.234C321.881 404.581 322.288 403.256 323.102 402.26C323.922 401.264 325.012 400.766 326.373 400.766C327.721 400.766 328.701 401.306 329.312 402.387H329.352V396.195H331.617V411ZM329.381 406.43V405.121C329.381 404.411 329.15 403.809 328.688 403.314C328.225 402.82 327.636 402.572 326.92 402.572C326.074 402.572 325.406 402.888 324.918 403.52C324.436 404.151 324.195 405.027 324.195 406.146C324.195 407.162 324.426 407.966 324.889 408.559C325.357 409.145 325.986 409.438 326.773 409.438C327.548 409.438 328.176 409.154 328.658 408.588C329.14 408.015 329.381 407.296 329.381 406.43Z" fill="#465E75"/>
</g>
<path d="M139.586 360.414C140.367 361.195 141.633 361.195 142.414 360.414L155.142 347.686C155.923 346.905 155.923 345.639 155.142 344.858C154.361 344.077 153.095 344.077 152.314 344.858L141 356.172L129.686 344.858C128.905 344.077 127.639 344.077 126.858 344.858C126.077 345.639 126.077 346.905 126.858 347.686L139.586 360.414ZM139 118L139 359L143 359L143 118L139 118Z" fill="#FF7521"/>
<path d="M246.586 360.414C247.367 361.195 248.633 361.195 249.414 360.414L262.142 347.686C262.923 346.905 262.923 345.639 262.142 344.858C261.361 344.077 260.095 344.077 259.314 344.858L248 356.172L236.686 344.858C235.905 344.077 234.639 344.077 233.858 344.858C233.077 345.639 233.077 346.905 233.858 347.686L246.586 360.414ZM246 118V359H250V118H246Z" fill="#FF7521"/>
<path d="M621.187 135.791L614.388 124H590L621.187 178.133L652.374 124H627.986L621.187 135.791Z" fill="#0C1F6C"/>
<path d="M637.287 150.193L652.374 124H627.998L625.803 127.799L637.287 150.193Z" fill="#FF7521"/>
<path d="M621.231 135.791L614.423 124H590L621.231 178.133L632.882 157.951L621.231 135.791Z" fill="#FF7521"/>
<path d="M659.526 164.808L649.789 148.232H655.958L659.749 155.963L663.094 148.232H668.892L659.675 164.808H659.526Z" fill="#0C1F6C"/>
<path d="M685.19 163.024C684.472 163.594 683.567 164.052 682.477 164.399C681.412 164.746 680.359 164.92 679.318 164.92C676.543 164.92 674.313 164.164 672.628 162.652C670.968 161.141 670.138 159.035 670.138 156.334C670.138 154.526 670.547 152.989 671.364 151.726C672.182 150.437 673.248 149.459 674.561 148.79C675.899 148.121 677.299 147.786 678.76 147.786C680.222 147.786 681.486 147.984 682.551 148.381C683.642 148.777 684.571 149.298 685.339 149.942L682.812 153.287C682.465 153.014 681.981 152.742 681.362 152.469C680.767 152.172 680.061 152.023 679.244 152.023C678.178 152.023 677.261 152.432 676.493 153.25C675.725 154.042 675.341 155.071 675.341 156.334C675.341 157.548 675.738 158.577 676.531 159.419C677.348 160.261 678.426 160.683 679.764 160.683C680.904 160.683 681.845 160.373 682.589 159.754L685.19 163.024Z" fill="#0C1F6C"/>
<path d="M689.186 135.15H694.389V164.474H689.186V135.15Z" fill="#0C1F6C"/>
<path d="M704.988 165.254C703.526 165.254 702.3 164.808 701.309 163.916C700.318 162.999 699.797 161.822 699.748 160.385V148.232H704.951V158.453C705.001 159.171 705.186 159.754 705.509 160.2C705.831 160.621 706.376 160.831 707.144 160.831C708.308 160.831 709.225 160.274 709.894 159.159C710.563 158.019 710.898 156.582 710.898 154.848V148.232H716.101V164.474H711.381L711.009 161.872C710.464 162.888 709.684 163.705 708.668 164.325C707.652 164.944 706.425 165.254 704.988 165.254Z" fill="#0C1F6C"/>
<path d="M726.73 164.808C725.392 164.808 724.14 164.573 722.976 164.102C721.836 163.631 720.87 162.975 720.077 162.132L722.233 159.27C723.025 159.989 723.756 160.509 724.425 160.831C725.119 161.129 725.739 161.277 726.284 161.277C726.928 161.277 727.461 161.178 727.882 160.98C728.303 160.782 728.514 160.46 728.514 160.014C728.514 159.592 728.34 159.258 727.993 159.01C727.671 158.762 727.25 158.564 726.73 158.416C726.209 158.242 725.652 158.069 725.057 157.895C723.571 157.424 722.493 156.743 721.824 155.851C721.18 154.934 720.857 153.943 720.857 152.878C720.857 152.06 721.068 151.243 721.489 150.425C721.935 149.582 722.629 148.889 723.571 148.344C724.537 147.774 725.776 147.489 727.287 147.489C728.65 147.489 729.802 147.625 730.744 147.898C731.685 148.17 732.577 148.616 733.42 149.236L731.45 152.283C730.979 151.912 730.446 151.602 729.852 151.354C729.282 151.082 728.749 150.933 728.253 150.908C727.584 150.883 727.064 151.007 726.692 151.28C726.321 151.527 726.135 151.825 726.135 152.172C726.11 152.642 726.284 153.014 726.655 153.287C727.052 153.559 727.547 153.77 728.142 153.918C728.737 154.067 729.319 154.241 729.889 154.439C731.053 154.835 731.982 155.405 732.676 156.148C733.37 156.867 733.717 157.833 733.717 159.047C733.717 160.038 733.457 160.98 732.936 161.872C732.441 162.739 731.673 163.445 730.632 163.99C729.616 164.536 728.315 164.808 726.73 164.808Z" fill="#0C1F6C"/>
<path d="M739.599 141.096H744.802V148.158H748.742V152.209H744.802V164.474H739.599V152.209H737.072V148.158H739.599V141.096Z" fill="#0C1F6C"/>
<path d="M760.693 164.92C758.71 164.92 757.026 164.548 755.638 163.805C754.275 163.061 753.235 162.033 752.516 160.72C751.798 159.407 751.438 157.895 751.438 156.186C751.438 154.55 751.859 153.076 752.702 151.763C753.544 150.45 754.672 149.409 756.084 148.641C757.496 147.848 759.07 147.452 760.804 147.452C763.133 147.452 765.041 148.133 766.528 149.496C768.039 150.834 769.018 152.779 769.464 155.331L757.571 159.122C758.364 160.038 759.441 160.497 760.804 160.497C761.374 160.497 761.919 160.398 762.439 160.2C762.984 160.001 763.517 159.741 764.038 159.419L766.342 163.284C765.475 163.78 764.533 164.176 763.517 164.474C762.526 164.771 761.585 164.92 760.693 164.92ZM756.567 155.888C756.567 156.012 756.567 156.124 756.567 156.223L763.703 153.807C763.48 153.188 763.121 152.655 762.625 152.209C762.13 151.738 761.386 151.503 760.395 151.503C759.231 151.503 758.302 151.899 757.608 152.692C756.914 153.485 756.567 154.55 756.567 155.888Z" fill="#0C1F6C"/>
<path d="M777.928 148.232L778.336 151.949C778.807 151.007 779.451 150.202 780.269 149.533C781.087 148.839 781.892 148.319 782.685 147.972C783.478 147.6 784.085 147.414 784.506 147.414L784.246 152.618C783.032 152.469 781.991 152.667 781.124 153.212C780.257 153.757 779.588 154.476 779.117 155.368C778.646 156.26 778.411 157.177 778.411 158.118V164.474H773.245V148.232H777.928Z" fill="#0C1F6C"/>
<defs>
<filter id="filter0_d" x="13" y="159" width="526" height="119" filterUnits="userSpaceOnUse" color-interpolation-filters="sRGB">
<feFlood flood-opacity="0" result="BackgroundImageFix"/>
<feColorMatrix in="SourceAlpha" type="matrix" values="0 0 0 0 0 0 0 0 0 0 0 0 0 0 0 0 0 0 127 0"/>
<feOffset/>
<feGaussianBlur stdDeviation="5"/>
<feColorMatrix type="matrix" values="0 0 0 0 0 0 0 0 0 0 0 0 0 0 0 0 0 0 0.2 0"/>
<feBlend mode="normal" in2="BackgroundImageFix" result="effect1_dropShadow"/>
<feBlend mode="normal" in="SourceGraphic" in2="effect1_dropShadow" result="shape"/>
</filter>
<filter id="filter1_d" x="13" y="343" width="357" height="157" filterUnits="userSpaceOnUse" color-interpolation-filters="sRGB">
<feFlood flood-opacity="0" result="BackgroundImageFix"/>
<feColorMatrix in="SourceAlpha" type="matrix" values="0 0 0 0 0 0 0 0 0 0 0 0 0 0 0 0 0 0 127 0"/>
<feOffset/>
<feGaussianBlur stdDeviation="5"/>
<feColorMatrix type="matrix" values="0 0 0 0 0 0 0 0 0 0 0 0 0 0 0 0 0 0 0.2 0"/>
<feBlend mode="normal" in2="BackgroundImageFix" result="effect1_dropShadow"/>
<feBlend mode="normal" in="SourceGraphic" in2="effect1_dropShadow" result="shape"/>
</filter>
<filter id="filter2_d" x="13" y="29" width="526" height="119" filterUnits="userSpaceOnUse" color-interpolation-filters="sRGB">
<feFlood flood-opacity="0" result="BackgroundImageFix"/>
<feColorMatrix in="SourceAlpha" type="matrix" values="0 0 0 0 0 0 0 0 0 0 0 0 0 0 0 0 0 0 127 0"/>
<feOffset/>
<feGaussianBlur stdDeviation="5"/>
<feColorMatrix type="matrix" values="0 0 0 0 0 0 0 0 0 0 0 0 0 0 0 0 0 0 0.2 0"/>
<feBlend mode="normal" in2="BackgroundImageFix" result="effect1_dropShadow"/>
<feBlend mode="normal" in="SourceGraphic" in2="effect1_dropShadow" result="shape"/>
</filter>
<filter id="filter3_d" x="88" y="48" width="106" height="80" filterUnits="userSpaceOnUse" color-interpolation-filters="sRGB">
<feFlood flood-opacity="0" result="BackgroundImageFix"/>
<feColorMatrix in="SourceAlpha" type="matrix" values="0 0 0 0 0 0 0 0 0 0 0 0 0 0 0 0 0 0 127 0"/>
<feOffset/>
<feGaussianBlur stdDeviation="5"/>
<feColorMatrix type="matrix" values="0 0 0 0 0 0 0 0 0 0 0 0 0 0 0 0 0 0 0.2 0"/>
<feBlend mode="normal" in2="BackgroundImageFix" result="effect1_dropShadow"/>
<feBlend mode="normal" in="SourceGraphic" in2="effect1_dropShadow" result="shape"/>
</filter>
<filter id="filter4_d" x="195" y="48" width="106" height="80" filterUnits="userSpaceOnUse" color-interpolation-filters="sRGB">
<feFlood flood-opacity="0" result="BackgroundImageFix"/>
<feColorMatrix in="SourceAlpha" type="matrix" values="0 0 0 0 0 0 0 0 0 0 0 0 0 0 0 0 0 0 127 0"/>
<feOffset/>
<feGaussianBlur stdDeviation="5"/>
<feColorMatrix type="matrix" values="0 0 0 0 0 0 0 0 0 0 0 0 0 0 0 0 0 0 0.2 0"/>
<feBlend mode="normal" in2="BackgroundImageFix" result="effect1_dropShadow"/>
<feBlend mode="normal" in="SourceGraphic" in2="effect1_dropShadow" result="shape"/>
</filter>
<filter id="filter5_d" x="29" y="363" width="165" height="80" filterUnits="userSpaceOnUse" color-interpolation-filters="sRGB">
<feFlood flood-opacity="0" result="BackgroundImageFix"/>
<feColorMatrix in="SourceAlpha" type="matrix" values="0 0 0 0 0 0 0 0 0 0 0 0 0 0 0 0 0 0 127 0"/>
<feOffset/>
<feGaussianBlur stdDeviation="5"/>
<feColorMatrix type="matrix" values="0 0 0 0 0 0 0 0 0 0 0 0 0 0 0 0 0 0 0.2 0"/>
<feBlend mode="normal" in2="BackgroundImageFix" result="effect1_dropShadow"/>
<feBlend mode="normal" in="SourceGraphic" in2="effect1_dropShadow" result="shape"/>
</filter>
<filter id="filter6_d" x="195" y="363" width="158" height="80" filterUnits="userSpaceOnUse" color-interpolation-filters="sRGB">
<feFlood flood-opacity="0" result="BackgroundImageFix"/>
<feColorMatrix in="SourceAlpha" type="matrix" values="0 0 0 0 0 0 0 0 0 0 0 0 0 0 0 0 0 0 127 0"/>
<feOffset/>
<feGaussianBlur stdDeviation="5"/>
<feColorMatrix type="matrix" values="0 0 0 0 0 0 0 0 0 0 0 0 0 0 0 0 0 0 0.2 0"/>
<feBlend mode="normal" in2="BackgroundImageFix" result="effect1_dropShadow"/>
<feBlend mode="normal" in="SourceGraphic" in2="effect1_dropShadow" result="shape"/>
</filter>
<linearGradient id="paint0_linear" x1="311.792" y1="171.683" x2="330.639" y2="272.322" gradientUnits="userSpaceOnUse">
<stop stop-color="white"/>
<stop offset="0.619792" stop-color="white"/>
<stop offset="1" stop-color="#F6FAFF"/>
</linearGradient>
<linearGradient id="paint1_linear" x1="215.338" y1="356.713" x2="264.053" y2="481.91" gradientUnits="userSpaceOnUse">
<stop stop-color="white"/>
<stop offset="0.619792" stop-color="white"/>
<stop offset="1" stop-color="#F6FAFF"/>
</linearGradient>
<linearGradient id="paint2_linear" x1="147.083" y1="59.626" x2="176.24" y2="103.289" gradientUnits="userSpaceOnUse">
<stop stop-color="white"/>
<stop offset="0.619792" stop-color="white"/>
<stop offset="1" stop-color="#F6FAFF"/>
</linearGradient>
<linearGradient id="paint3_linear" x1="254.083" y1="59.626" x2="283.24" y2="103.289" gradientUnits="userSpaceOnUse">
<stop stop-color="white"/>
<stop offset="0.619792" stop-color="white"/>
<stop offset="1" stop-color="#F6FAFF"/>
</linearGradient>
<linearGradient id="paint4_linear" x1="121.757" y1="374.626" x2="143.37" y2="429.198" gradientUnits="userSpaceOnUse">
<stop stop-color="white"/>
<stop offset="0.619792" stop-color="white"/>
<stop offset="1" stop-color="#F6FAFF"/>
</linearGradient>
<linearGradient id="paint5_linear" x1="283.762" y1="374.626" x2="306.156" y2="428.439" gradientUnits="userSpaceOnUse">
<stop stop-color="white"/>
<stop offset="0.619792" stop-color="white"/>
<stop offset="1" stop-color="#F6FAFF"/>
</linearGradient>
</defs>
</svg>
